<?xml version="1.0" encoding="UTF-8"?>
<svg xmlns="http://www.w3.org/2000/svg" xmlns:xlink="http://www.w3.org/1999/xlink" width="600" height="450" viewBox="0 0 600 450">
<defs>
<g>
<g id="glyph-0-0-cc42a522">
<path d="M 6.625 0 C 6.625 0 5.265625 0 5.265625 0 C 5.265625 0 3.4375 -2.8125 3.4375 -2.8125 C 3.4375 -2.8125 1.5625 0 1.5625 0 C 1.5625 0 0.234375 0 0.234375 0 C 0.234375 0 2.828125 -3.734375 2.828125 -3.734375 C 2.828125 -3.734375 0.375 -7.34375 0.375 -7.34375 C 0.375 -7.34375 1.703125 -7.34375 1.703125 -7.34375 C 1.703125 -7.34375 3.46875 -4.671875 3.46875 -4.671875 C 3.46875 -4.671875 5.234375 -7.34375 5.234375 -7.34375 C 5.234375 -7.34375 6.546875 -7.34375 6.546875 -7.34375 C 6.546875 -7.34375 4.09375 -3.796875 4.09375 -3.796875 C 4.09375 -3.796875 6.625 0 6.625 0 Z M 6.625 0 "/>
</g>
<g id="glyph-0-1-cc42a522">
<path d="M 7.15625 -7.015625 C 7.15625 -5.796875 6.4375 -4.765625 5.046875 -4.015625 C 5.046875 -4.015625 3.65625 -3.265625 3.65625 -3.265625 C 2.4375 -2.546875 1.984375 -2.03125 1.859375 -1.21875 C 1.859375 -1.21875 7.078125 -1.21875 7.078125 -1.21875 C 7.078125 -1.21875 7.078125 0 7.078125 0 C 7.078125 0 0.46875 0 0.46875 0 C 0.59375 -2.1875 1.1875 -3.125 3.265625 -4.296875 C 3.265625 -4.296875 4.546875 -5.03125 4.546875 -5.03125 C 5.4375 -5.53125 5.890625 -6.203125 5.890625 -6.984375 C 5.890625 -8.046875 5.046875 -8.84375 3.9375 -8.84375 C 2.71875 -8.84375 2.03125 -8.140625 1.9375 -6.484375 C 1.9375 -6.484375 0.703125 -6.484375 0.703125 -6.484375 C 0.765625 -8.890625 1.953125 -9.921875 3.96875 -9.921875 C 5.859375 -9.921875 7.15625 -8.6875 7.15625 -7.015625 Z M 7.15625 -7.015625 "/>
</g>
<g id="glyph-0-2-cc42a522">
<path d="M 7.078125 -2.890625 C 7.078125 -1.015625 5.765625 0.203125 3.71875 0.203125 C 1.6875 0.203125 0.609375 -0.78125 0.453125 -3 C 0.453125 -3 1.6875 -3 1.6875 -3 C 1.765625 -1.546875 2.421875 -0.875 3.765625 -0.875 C 5.046875 -0.875 5.828125 -1.625 5.828125 -2.875 C 5.828125 -3.96875 5.125 -4.625 3.765625 -4.625 C 3.765625 -4.625 3.09375 -4.625 3.09375 -4.625 C 3.09375 -4.625 3.09375 -5.65625 3.09375 -5.65625 C 5.0625 -5.65625 5.53125 -6.09375 5.53125 -7.15625 C 5.53125 -8.203125 4.875 -8.84375 3.78125 -8.84375 C 2.515625 -8.84375 1.921875 -8.1875 1.890625 -6.71875 C 1.890625 -6.71875 0.65625 -6.71875 0.65625 -6.71875 C 0.703125 -8.828125 1.765625 -9.921875 3.765625 -9.921875 C 5.65625 -9.921875 6.796875 -8.90625 6.796875 -7.203125 C 6.796875 -6.203125 6.328125 -5.5625 5.40625 -5.1875 C 6.59375 -4.78125 7.078125 -4.09375 7.078125 -2.890625 Z M 7.078125 -2.890625 "/>
</g>
<g id="glyph-0-3-cc42a522">
<path d="M 7.28125 -2.375 C 7.28125 -2.375 5.8125 -2.375 5.8125 -2.375 C 5.8125 -2.375 5.8125 0 5.8125 0 C 5.8125 0 4.578125 0 4.578125 0 C 4.578125 0 4.578125 -2.375 4.578125 -2.375 C 4.578125 -2.375 0.390625 -2.375 0.390625 -2.375 C 0.390625 -2.375 0.390625 -3.6875 0.390625 -3.6875 C 0.390625 -3.6875 4.90625 -9.921875 4.90625 -9.921875 C 4.90625 -9.921875 5.8125 -9.921875 5.8125 -9.921875 C 5.8125 -9.921875 5.8125 -3.484375 5.8125 -3.484375 C 5.8125 -3.484375 7.28125 -3.484375 7.28125 -3.484375 C 7.28125 -3.484375 7.28125 -2.375 7.28125 -2.375 Z M 4.578125 -3.484375 C 4.578125 -3.484375 4.578125 -7.828125 4.578125 -7.828125 C 4.578125 -7.828125 1.46875 -3.484375 1.46875 -3.484375 C 1.46875 -3.484375 4.578125 -3.484375 4.578125 -3.484375 Z M 4.578125 -3.484375 "/>
</g>
<g id="glyph-0-4-cc42a522">
<path d="M 7.1875 -3.296875 C 7.1875 -1.1875 5.78125 0.203125 3.78125 0.203125 C 2.015625 0.203125 0.890625 -0.578125 0.484375 -2.546875 C 0.484375 -2.546875 1.71875 -2.546875 1.71875 -2.546875 C 2.015625 -1.421875 2.671875 -0.875 3.75 -0.875 C 5.09375 -0.875 5.921875 -1.6875 5.921875 -3.125 C 5.921875 -4.59375 5.078125 -5.453125 3.75 -5.453125 C 2.984375 -5.453125 2.5 -5.203125 1.9375 -4.515625 C 1.9375 -4.515625 0.796875 -4.515625 0.796875 -4.515625 C 0.796875 -4.515625 1.546875 -9.71875 1.546875 -9.71875 C 1.546875 -9.71875 6.65625 -9.71875 6.65625 -9.71875 C 6.65625 -9.71875 6.65625 -8.5 6.65625 -8.5 C 6.65625 -8.5 2.53125 -8.5 2.53125 -8.5 C 2.53125 -8.5 2.140625 -5.9375 2.140625 -5.9375 C 2.71875 -6.359375 3.28125 -6.53125 3.96875 -6.53125 C 5.875 -6.53125 7.1875 -5.25 7.1875 -3.296875 Z M 7.1875 -3.296875 "/>
</g>
<g id="glyph-1-0-cc42a522">
<path d="M 4.859375 0 C 4.859375 0 3.625 0 3.625 0 C 3.625 0 3.625 -7.0625 3.625 -7.0625 C 3.625 -7.0625 1.421875 -7.0625 1.421875 -7.0625 C 1.421875 -7.0625 1.421875 -7.953125 1.421875 -7.953125 C 3.328125 -8.1875 3.609375 -8.40625 4.046875 -9.921875 C 4.046875 -9.921875 4.859375 -9.921875 4.859375 -9.921875 C 4.859375 -9.921875 4.859375 0 4.859375 0 Z M 4.859375 0 "/>
</g>
<g id="glyph-2-0-cc42a522">
<path d="M -7.34375 -6.6875 C -7.34375 -6.6875 1.546875 -3.4375 1.546875 -3.4375 C 2.59375 -3.03125 3.046875 -2.359375 3.046875 -1.546875 C 3.046875 -1.234375 3 -1 2.875 -0.75 C 2.875 -0.75 1.8125 -0.75 1.8125 -0.75 C 1.875 -1.015625 1.90625 -1.203125 1.90625 -1.375 C 1.90625 -1.875 1.703125 -2.109375 1.1875 -2.3125 C 1.1875 -2.3125 0.03125 -2.765625 0.03125 -2.765625 C 0.03125 -2.765625 -7.34375 -0.28125 -7.34375 -0.28125 C -7.34375 -0.28125 -7.34375 -1.53125 -7.34375 -1.53125 C -7.34375 -1.53125 -1.625 -3.40625 -1.625 -3.40625 C -1.625 -3.40625 -7.34375 -5.4375 -7.34375 -5.4375 C -7.34375 -5.4375 -7.34375 -6.6875 -7.34375 -6.6875 Z M -7.34375 -6.6875 "/>
</g>
<g id="glyph-3-0-cc42a522">
<path d="M 7.15625 -7.015625 C 7.15625 -5.796875 6.4375 -4.765625 5.046875 -4.015625 C 5.046875 -4.015625 3.65625 -3.265625 3.65625 -3.265625 C 2.4375 -2.546875 1.984375 -2.03125 1.859375 -1.21875 C 1.859375 -1.21875 7.078125 -1.21875 7.078125 -1.21875 C 7.078125 -1.21875 7.078125 0 7.078125 0 C 7.078125 0 0.46875 0 0.46875 0 C 0.59375 -2.1875 1.1875 -3.125 3.265625 -4.296875 C 3.265625 -4.296875 4.546875 -5.03125 4.546875 -5.03125 C 5.4375 -5.53125 5.890625 -6.203125 5.890625 -6.984375 C 5.890625 -8.046875 5.046875 -8.84375 3.9375 -8.84375 C 2.71875 -8.84375 2.03125 -8.140625 1.9375 -6.484375 C 1.9375 -6.484375 0.703125 -6.484375 0.703125 -6.484375 C 0.765625 -8.890625 1.953125 -9.921875 3.96875 -9.921875 C 5.859375 -9.921875 7.15625 -8.6875 7.15625 -7.015625 Z M 7.15625 -7.015625 "/>
</g>
<g id="glyph-4-0-cc42a522">
<path d="M 7.28125 -2.375 C 7.28125 -2.375 5.8125 -2.375 5.8125 -2.375 C 5.8125 -2.375 5.8125 0 5.8125 0 C 5.8125 0 4.578125 0 4.578125 0 C 4.578125 0 4.578125 -2.375 4.578125 -2.375 C 4.578125 -2.375 0.390625 -2.375 0.390625 -2.375 C 0.390625 -2.375 0.390625 -3.6875 0.390625 -3.6875 C 0.390625 -3.6875 4.90625 -9.921875 4.90625 -9.921875 C 4.90625 -9.921875 5.8125 -9.921875 5.8125 -9.921875 C 5.8125 -9.921875 5.8125 -3.484375 5.8125 -3.484375 C 5.8125 -3.484375 7.28125 -3.484375 7.28125 -3.484375 C 7.28125 -3.484375 7.28125 -2.375 7.28125 -2.375 Z M 4.578125 -3.484375 C 4.578125 -3.484375 4.578125 -7.828125 4.578125 -7.828125 C 4.578125 -7.828125 1.46875 -3.484375 1.46875 -3.484375 C 1.46875 -3.484375 4.578125 -3.484375 4.578125 -3.484375 Z M 4.578125 -3.484375 "/>
</g>
<g id="glyph-5-0-cc42a522">
<path d="M 7.1875 -3.078125 C 7.1875 -1.140625 5.828125 0.203125 3.9375 0.203125 C 1.671875 0.203125 0.609375 -1.421875 0.609375 -4.515625 C 0.609375 -7.984375 1.84375 -9.921875 4.15625 -9.921875 C 5.671875 -9.921875 6.734375 -8.953125 6.96875 -7.34375 C 6.96875 -7.34375 5.734375 -7.34375 5.734375 -7.34375 C 5.546875 -8.28125 4.9375 -8.828125 4.078125 -8.828125 C 2.65625 -8.828125 1.875 -7.484375 1.859375 -5.0625 C 2.390625 -5.796875 3.15625 -6.171875 4.140625 -6.171875 C 5.921875 -6.171875 7.1875 -4.921875 7.1875 -3.078125 Z M 5.921875 -2.984375 C 5.921875 -4.3125 5.1875 -5.078125 3.984375 -5.078125 C 2.765625 -5.078125 1.9375 -4.28125 1.9375 -3.046875 C 1.9375 -1.78125 2.796875 -0.875 3.953125 -0.875 C 5.078125 -0.875 5.921875 -1.734375 5.921875 -2.984375 Z M 5.921875 -2.984375 "/>
</g>
</g>
</defs>
<rect x="-60" y="-45" width="720" height="540" fill="rgb(100%, 100%, 100%)" fill-opacity="1"/>
<path fill-rule="nonzero" fill="rgb(100%, 100%, 100%)" fill-opacity="1" d="M 54 391 L 584 391 L 584 16 L 54 16 Z M 54 391 "/>
<path fill="none" stroke-width="1" stroke-linecap="butt" stroke-linejoin="miter" stroke="rgb(0%, 0%, 0%)" stroke-opacity="0.12" stroke-miterlimit="1.154701" d="M 78.089844 391 L 78.089844 16 "/>
<path fill="none" stroke-width="1" stroke-linecap="butt" stroke-linejoin="miter" stroke="rgb(0%, 0%, 0%)" stroke-opacity="0.12" stroke-miterlimit="1.154701" d="M 198.546875 391 L 198.546875 16 "/>
<path fill="none" stroke-width="1" stroke-linecap="butt" stroke-linejoin="miter" stroke="rgb(0%, 0%, 0%)" stroke-opacity="0.12" stroke-miterlimit="1.154701" d="M 319 391 L 319 16 "/>
<path fill="none" stroke-width="1" stroke-linecap="butt" stroke-linejoin="miter" stroke="rgb(0%, 0%, 0%)" stroke-opacity="0.12" stroke-miterlimit="1.154701" d="M 439.453125 391 L 439.453125 16 "/>
<path fill="none" stroke-width="1" stroke-linecap="butt" stroke-linejoin="miter" stroke="rgb(0%, 0%, 0%)" stroke-opacity="0.12" stroke-miterlimit="1.154701" d="M 559.910156 391 L 559.910156 16 "/>
<path fill="none" stroke-width="1" stroke-linecap="butt" stroke-linejoin="miter" stroke="rgb(0%, 0%, 0%)" stroke-opacity="0.12" stroke-miterlimit="1.154701" d="M 54 319.328125 L 584 319.328125 "/>
<path fill="none" stroke-width="1" stroke-linecap="butt" stroke-linejoin="miter" stroke="rgb(0%, 0%, 0%)" stroke-opacity="0.12" stroke-miterlimit="1.154701" d="M 54 203.738281 L 584 203.738281 "/>
<path fill="none" stroke-width="1" stroke-linecap="butt" stroke-linejoin="miter" stroke="rgb(0%, 0%, 0%)" stroke-opacity="0.12" stroke-miterlimit="1.154701" d="M 54 88.148438 L 584 88.148438 "/>
<g fill="rgb(0%, 0%, 0%)" fill-opacity="1">
<use xlink:href="#glyph-0-0-cc42a522" x="315.5" y="431.567993"/>
</g>
<g fill="rgb(0%, 0%, 0%)" fill-opacity="1">
<use xlink:href="#glyph-1-0-cc42a522" x="74.198914" y="412.257996"/>
</g>
<g fill="rgb(0%, 0%, 0%)" fill-opacity="1">
<use xlink:href="#glyph-0-1-cc42a522" x="194.653458" y="412.257996"/>
</g>
<g fill="rgb(0%, 0%, 0%)" fill-opacity="1">
<use xlink:href="#glyph-0-2-cc42a522" x="315.108002" y="412.257996"/>
</g>
<g fill="rgb(0%, 0%, 0%)" fill-opacity="1">
<use xlink:href="#glyph-0-3-cc42a522" x="435.562561" y="412.257996"/>
</g>
<g fill="rgb(0%, 0%, 0%)" fill-opacity="1">
<use xlink:href="#glyph-0-4-cc42a522" x="556.017151" y="412.257996"/>
</g>
<g fill="rgb(0%, 0%, 0%)" fill-opacity="1">
<use xlink:href="#glyph-2-0-cc42a522" x="28.164" y="207"/>
</g>
<g fill="rgb(0%, 0%, 0%)" fill-opacity="1">
<use xlink:href="#glyph-3-0-cc42a522" x="36.216007" y="324.429962"/>
</g>
<g fill="rgb(0%, 0%, 0%)" fill-opacity="1">
<use xlink:href="#glyph-4-0-cc42a522" x="36.216007" y="208.840744"/>
</g>
<g fill="rgb(0%, 0%, 0%)" fill-opacity="1">
<use xlink:href="#glyph-5-0-cc42a522" x="36.216007" y="93.251503"/>
</g>
<path fill-rule="nonzero" fill="rgb(27.450982%, 50.980395%, 70.588237%)" fill-opacity="1" d="M 79.210938 269.089844 L 79.210938 271.34375 L 81.464844 271.34375 L 81.464844 273.585938 L 79.210938 273.585938 L 79.210938 275.839844 L 76.96875 275.839844 L 76.96875 273.585938 L 74.714844 273.585938 L 74.714844 271.34375 L 76.96875 271.34375 L 76.96875 269.089844 Z M 79.210938 269.089844 "/>
<path fill-rule="nonzero" fill="rgb(27.450982%, 50.980395%, 70.588237%)" fill-opacity="1" d="M 79.210938 268.273438 L 79.210938 270.53125 L 81.464844 270.53125 L 81.464844 272.769531 L 79.210938 272.769531 L 79.210938 275.023438 L 76.96875 275.023438 L 76.96875 272.769531 L 74.714844 272.769531 L 74.714844 270.53125 L 76.96875 270.53125 L 76.96875 268.273438 Z M 79.210938 268.273438 "/>
<path fill-rule="nonzero" fill="rgb(27.450982%, 50.980395%, 70.588237%)" fill-opacity="1" d="M 79.210938 336.433594 L 79.210938 338.691406 L 81.464844 338.691406 L 81.464844 340.929688 L 79.210938 340.929688 L 79.210938 343.183594 L 76.96875 343.183594 L 76.96875 340.929688 L 74.714844 340.929688 L 74.714844 338.691406 L 76.96875 338.691406 L 76.96875 336.433594 Z M 79.210938 336.433594 "/>
<path fill-rule="nonzero" fill="rgb(27.450982%, 50.980395%, 70.588237%)" fill-opacity="1" d="M 561.03125 86.203125 L 561.03125 88.457031 L 563.285156 88.457031 L 563.285156 90.699219 L 561.03125 90.699219 L 561.03125 92.953125 L 558.789062 92.953125 L 558.789062 90.699219 L 556.535156 90.699219 L 556.535156 88.457031 L 558.789062 88.457031 L 558.789062 86.203125 Z M 561.03125 86.203125 "/>
<path fill-rule="nonzero" fill="rgb(27.450982%, 50.980395%, 70.588237%)" fill-opacity="1" d="M 440.574219 102.394531 L 440.574219 104.648438 L 442.828125 104.648438 L 442.828125 106.886719 L 440.574219 106.886719 L 440.574219 109.144531 L 438.335938 109.144531 L 438.335938 106.886719 L 436.078125 106.886719 L 436.078125 104.648438 L 438.335938 104.648438 L 438.335938 102.394531 Z M 440.574219 102.394531 "/>
<path fill-rule="nonzero" fill="rgb(27.450982%, 50.980395%, 70.588237%)" fill-opacity="1" d="M 320.121094 150.476562 L 320.121094 152.730469 L 322.375 152.730469 L 322.375 154.972656 L 320.121094 154.972656 L 320.121094 157.226562 L 317.878906 157.226562 L 317.878906 154.972656 L 315.625 154.972656 L 315.625 152.730469 L 317.878906 152.730469 L 317.878906 150.476562 Z M 320.121094 150.476562 "/>
<path fill-rule="nonzero" fill="rgb(27.450982%, 50.980395%, 70.588237%)" fill-opacity="1" d="M 561.03125 128.621094 L 561.03125 130.875 L 563.285156 130.875 L 563.285156 133.117188 L 561.03125 133.117188 L 561.03125 135.371094 L 558.789062 135.371094 L 558.789062 133.117188 L 556.535156 133.117188 L 556.535156 130.875 L 558.789062 130.875 L 558.789062 128.621094 Z M 561.03125 128.621094 "/>
<path fill-rule="nonzero" fill="rgb(27.450982%, 50.980395%, 70.588237%)" fill-opacity="1" d="M 79.210938 364.285156 L 79.210938 366.539062 L 81.464844 366.539062 L 81.464844 368.777344 L 79.210938 368.777344 L 79.210938 371.035156 L 76.96875 371.035156 L 76.96875 368.777344 L 74.714844 368.777344 L 74.714844 366.539062 L 76.96875 366.539062 L 76.96875 364.285156 Z M 79.210938 364.285156 "/>
<path fill-rule="nonzero" fill="rgb(27.450982%, 50.980395%, 70.588237%)" fill-opacity="1" d="M 79.210938 273.183594 L 79.210938 275.4375 L 81.464844 275.4375 L 81.464844 277.679688 L 79.210938 277.679688 L 79.210938 279.933594 L 76.96875 279.933594 L 76.96875 277.679688 L 74.714844 277.679688 L 74.714844 275.4375 L 76.96875 275.4375 L 76.96875 273.183594 Z M 79.210938 273.183594 "/>
<path fill-rule="nonzero" fill="rgb(27.450982%, 50.980395%, 70.588237%)" fill-opacity="1" d="M 320.121094 208.214844 L 320.121094 210.46875 L 322.375 210.46875 L 322.375 212.710938 L 320.121094 212.710938 L 320.121094 214.964844 L 317.878906 214.964844 L 317.878906 212.710938 L 315.625 212.710938 L 315.625 210.46875 L 317.878906 210.46875 L 317.878906 208.214844 Z M 320.121094 208.214844 "/>
<path fill-rule="nonzero" fill="rgb(27.450982%, 50.980395%, 70.588237%)" fill-opacity="1" d="M 561.03125 36.972656 L 561.03125 39.226562 L 563.285156 39.226562 L 563.285156 41.46875 L 561.03125 41.46875 L 561.03125 43.722656 L 558.789062 43.722656 L 558.789062 41.46875 L 556.535156 41.46875 L 556.535156 39.226562 L 558.789062 39.226562 L 558.789062 36.972656 Z M 561.03125 36.972656 "/>
<path fill-rule="nonzero" fill="rgb(27.450982%, 50.980395%, 70.588237%)" fill-opacity="1" d="M 79.210938 364.851562 L 79.210938 367.105469 L 81.464844 367.105469 L 81.464844 369.347656 L 79.210938 369.347656 L 79.210938 371.601562 L 76.96875 371.601562 L 76.96875 369.347656 L 74.714844 369.347656 L 74.714844 367.105469 L 76.96875 367.105469 L 76.96875 364.851562 Z M 79.210938 364.851562 "/>
<path fill-rule="nonzero" fill="rgb(27.450982%, 50.980395%, 70.588237%)" fill-opacity="1" d="M 79.210938 264.914062 L 79.210938 267.167969 L 81.464844 267.167969 L 81.464844 269.410156 L 79.210938 269.410156 L 79.210938 271.664062 L 76.96875 271.664062 L 76.96875 269.410156 L 74.714844 269.410156 L 74.714844 267.167969 L 76.96875 267.167969 L 76.96875 264.914062 Z M 79.210938 264.914062 "/>
<path fill-rule="nonzero" fill="rgb(27.450982%, 50.980395%, 70.588237%)" fill-opacity="1" d="M 561.03125 137.226562 L 561.03125 139.480469 L 563.285156 139.480469 L 563.285156 141.722656 L 561.03125 141.722656 L 561.03125 143.976562 L 558.789062 143.976562 L 558.789062 141.722656 L 556.535156 141.722656 L 556.535156 139.480469 L 558.789062 139.480469 L 558.789062 137.226562 Z M 561.03125 137.226562 "/>
<path fill-rule="nonzero" fill="rgb(27.450982%, 50.980395%, 70.588237%)" fill-opacity="1" d="M 561.03125 80.390625 L 561.03125 82.648438 L 563.285156 82.648438 L 563.285156 84.886719 L 561.03125 84.886719 L 561.03125 87.140625 L 558.789062 87.140625 L 558.789062 84.886719 L 556.535156 84.886719 L 556.535156 82.648438 L 558.789062 82.648438 L 558.789062 80.390625 Z M 561.03125 80.390625 "/>
<path fill-rule="nonzero" fill="rgb(27.450982%, 50.980395%, 70.588237%)" fill-opacity="1" d="M 320.121094 144.097656 L 320.121094 146.355469 L 322.375 146.355469 L 322.375 148.59375 L 320.121094 148.59375 L 320.121094 150.847656 L 317.878906 150.847656 L 317.878906 148.59375 L 315.625 148.59375 L 315.625 146.355469 L 317.878906 146.355469 L 317.878906 144.097656 Z M 320.121094 144.097656 "/>
<path fill-rule="nonzero" fill="rgb(27.450982%, 50.980395%, 70.588237%)" fill-opacity="1" d="M 440.574219 189.722656 L 440.574219 191.980469 L 442.828125 191.980469 L 442.828125 194.21875 L 440.574219 194.21875 L 440.574219 196.472656 L 438.335938 196.472656 L 438.335938 194.21875 L 436.078125 194.21875 L 436.078125 191.980469 L 438.335938 191.980469 L 438.335938 189.722656 Z M 440.574219 189.722656 "/>
<path fill-rule="nonzero" fill="rgb(27.450982%, 50.980395%, 70.588237%)" fill-opacity="1" d="M 320.121094 204.953125 L 320.121094 207.207031 L 322.375 207.207031 L 322.375 209.449219 L 320.121094 209.449219 L 320.121094 211.703125 L 317.878906 211.703125 L 317.878906 209.449219 L 315.625 209.449219 L 315.625 207.207031 L 317.878906 207.207031 L 317.878906 204.953125 Z M 320.121094 204.953125 "/>
<path fill-rule="nonzero" fill="rgb(27.450982%, 50.980395%, 70.588237%)" fill-opacity="1" d="M 79.210938 265.652344 L 79.210938 267.910156 L 81.464844 267.910156 L 81.464844 270.148438 L 79.210938 270.148438 L 79.210938 272.402344 L 76.96875 272.402344 L 76.96875 270.148438 L 74.714844 270.148438 L 74.714844 267.910156 L 76.96875 267.910156 L 76.96875 265.652344 Z M 79.210938 265.652344 "/>
<path fill-rule="nonzero" fill="rgb(27.450982%, 50.980395%, 70.588237%)" fill-opacity="1" d="M 561.03125 56.53125 L 561.03125 58.785156 L 563.285156 58.785156 L 563.285156 61.027344 L 561.03125 61.027344 L 561.03125 63.28125 L 558.789062 63.28125 L 558.789062 61.027344 L 556.535156 61.027344 L 556.535156 58.785156 L 558.789062 58.785156 L 558.789062 56.53125 Z M 561.03125 56.53125 "/>
<path fill-rule="nonzero" fill="rgb(27.450982%, 50.980395%, 70.588237%)" fill-opacity="1" d="M 320.121094 171.984375 L 320.121094 174.238281 L 322.375 174.238281 L 322.375 176.480469 L 320.121094 176.480469 L 320.121094 178.734375 L 317.878906 178.734375 L 317.878906 176.480469 L 315.625 176.480469 L 315.625 174.238281 L 317.878906 174.238281 L 317.878906 171.984375 Z M 320.121094 171.984375 "/>
<path fill-rule="nonzero" fill="rgb(27.450982%, 50.980395%, 70.588237%)" fill-opacity="1" d="M 440.574219 182.144531 L 440.574219 184.398438 L 442.828125 184.398438 L 442.828125 186.640625 L 440.574219 186.640625 L 440.574219 188.894531 L 438.335938 188.894531 L 438.335938 186.640625 L 436.078125 186.640625 L 436.078125 184.398438 L 438.335938 184.398438 L 438.335938 182.144531 Z M 440.574219 182.144531 "/>
<path fill-rule="nonzero" fill="rgb(27.450982%, 50.980395%, 70.588237%)" fill-opacity="1" d="M 440.574219 160.726562 L 440.574219 162.980469 L 442.828125 162.980469 L 442.828125 165.21875 L 440.574219 165.21875 L 440.574219 167.476562 L 438.335938 167.476562 L 438.335938 165.21875 L 436.078125 165.21875 L 436.078125 162.980469 L 438.335938 162.980469 L 438.335938 160.726562 Z M 440.574219 160.726562 "/>
<path fill-rule="nonzero" fill="rgb(27.450982%, 50.980395%, 70.588237%)" fill-opacity="1" d="M 440.574219 128.644531 L 440.574219 130.898438 L 442.828125 130.898438 L 442.828125 133.140625 L 440.574219 133.140625 L 440.574219 135.394531 L 438.335938 135.394531 L 438.335938 133.140625 L 436.078125 133.140625 L 436.078125 130.898438 L 438.335938 130.898438 L 438.335938 128.644531 Z M 440.574219 128.644531 "/>
<path fill-rule="nonzero" fill="rgb(27.450982%, 50.980395%, 70.588237%)" fill-opacity="1" d="M 320.121094 215.207031 L 320.121094 217.460938 L 322.375 217.460938 L 322.375 219.703125 L 320.121094 219.703125 L 320.121094 221.957031 L 317.878906 221.957031 L 317.878906 219.703125 L 315.625 219.703125 L 315.625 217.460938 L 317.878906 217.460938 L 317.878906 215.207031 Z M 320.121094 215.207031 "/>
<path fill-rule="nonzero" fill="rgb(27.450982%, 50.980395%, 70.588237%)" fill-opacity="1" d="M 320.121094 174.925781 L 320.121094 177.179688 L 322.375 177.179688 L 322.375 179.421875 L 320.121094 179.421875 L 320.121094 181.675781 L 317.878906 181.675781 L 317.878906 179.421875 L 315.625 179.421875 L 315.625 177.179688 L 317.878906 177.179688 L 317.878906 174.925781 Z M 320.121094 174.925781 "/>
<path fill-rule="nonzero" fill="rgb(27.450982%, 50.980395%, 70.588237%)" fill-opacity="1" d="M 440.574219 169.503906 L 440.574219 171.757812 L 442.828125 171.757812 L 442.828125 174 L 440.574219 174 L 440.574219 176.253906 L 438.335938 176.253906 L 438.335938 174 L 436.078125 174 L 436.078125 171.757812 L 438.335938 171.757812 L 438.335938 169.503906 Z M 440.574219 169.503906 "/>
<path fill-rule="nonzero" fill="rgb(27.450982%, 50.980395%, 70.588237%)" fill-opacity="1" d="M 79.210938 311.773438 L 79.210938 314.027344 L 81.464844 314.027344 L 81.464844 316.269531 L 79.210938 316.269531 L 79.210938 318.523438 L 76.96875 318.523438 L 76.96875 316.269531 L 74.714844 316.269531 L 74.714844 314.027344 L 76.96875 314.027344 L 76.96875 311.773438 Z M 79.210938 311.773438 "/>
<path fill-rule="nonzero" fill="rgb(27.450982%, 50.980395%, 70.588237%)" fill-opacity="1" d="M 440.574219 194.550781 L 440.574219 196.808594 L 442.828125 196.808594 L 442.828125 199.046875 L 440.574219 199.046875 L 440.574219 201.300781 L 438.335938 201.300781 L 438.335938 199.046875 L 436.078125 199.046875 L 436.078125 196.808594 L 438.335938 196.808594 L 438.335938 194.550781 Z M 440.574219 194.550781 "/>
<path fill-rule="nonzero" fill="rgb(27.450982%, 50.980395%, 70.588237%)" fill-opacity="1" d="M 561.03125 58.179688 L 561.03125 60.433594 L 563.285156 60.433594 L 563.285156 62.671875 L 561.03125 62.671875 L 561.03125 64.929688 L 558.789062 64.929688 L 558.789062 62.671875 L 556.535156 62.671875 L 556.535156 60.433594 L 558.789062 60.433594 L 558.789062 58.179688 Z M 561.03125 58.179688 "/>
<path fill-rule="nonzero" fill="rgb(27.450982%, 50.980395%, 70.588237%)" fill-opacity="1" d="M 79.210938 295.886719 L 79.210938 298.140625 L 81.464844 298.140625 L 81.464844 300.382812 L 79.210938 300.382812 L 79.210938 302.636719 L 76.96875 302.636719 L 76.96875 300.382812 L 74.714844 300.382812 L 74.714844 298.140625 L 76.96875 298.140625 L 76.96875 295.886719 Z M 79.210938 295.886719 "/>
<path fill-rule="nonzero" fill="rgb(27.450982%, 50.980395%, 70.588237%)" fill-opacity="1" d="M 440.574219 107.363281 L 440.574219 109.617188 L 442.828125 109.617188 L 442.828125 111.859375 L 440.574219 111.859375 L 440.574219 114.113281 L 438.335938 114.113281 L 438.335938 111.859375 L 436.078125 111.859375 L 436.078125 109.617188 L 438.335938 109.617188 L 438.335938 107.363281 Z M 440.574219 107.363281 "/>
<path fill-rule="nonzero" fill="rgb(27.450982%, 50.980395%, 70.588237%)" fill-opacity="1" d="M 199.664062 206.433594 L 199.664062 208.6875 L 201.921875 208.6875 L 201.921875 210.929688 L 199.664062 210.929688 L 199.664062 213.183594 L 197.425781 213.183594 L 197.425781 210.929688 L 195.171875 210.929688 L 195.171875 208.6875 L 197.425781 208.6875 L 197.425781 206.433594 Z M 199.664062 206.433594 "/>
<path fill-rule="nonzero" fill="rgb(27.450982%, 50.980395%, 70.588237%)" fill-opacity="1" d="M 320.121094 212.421875 L 320.121094 214.679688 L 322.375 214.679688 L 322.375 216.917969 L 320.121094 216.917969 L 320.121094 219.171875 L 317.878906 219.171875 L 317.878906 216.917969 L 315.625 216.917969 L 315.625 214.679688 L 317.878906 214.679688 L 317.878906 212.421875 Z M 320.121094 212.421875 "/>
<path fill-rule="nonzero" fill="rgb(27.450982%, 50.980395%, 70.588237%)" fill-opacity="1" d="M 199.664062 312.984375 L 199.664062 315.238281 L 201.921875 315.238281 L 201.921875 317.480469 L 199.664062 317.480469 L 199.664062 319.734375 L 197.425781 319.734375 L 197.425781 317.480469 L 195.171875 317.480469 L 195.171875 315.238281 L 197.425781 315.238281 L 197.425781 312.984375 Z M 199.664062 312.984375 "/>
<path fill-rule="nonzero" fill="rgb(27.450982%, 50.980395%, 70.588237%)" fill-opacity="1" d="M 561.03125 29.671875 L 561.03125 31.925781 L 563.285156 31.925781 L 563.285156 34.164062 L 561.03125 34.164062 L 561.03125 36.421875 L 558.789062 36.421875 L 558.789062 34.164062 L 556.535156 34.164062 L 556.535156 31.925781 L 558.789062 31.925781 L 558.789062 29.671875 Z M 561.03125 29.671875 "/>
<path fill-rule="nonzero" fill="rgb(27.450982%, 50.980395%, 70.588237%)" fill-opacity="1" d="M 440.574219 182.402344 L 440.574219 184.660156 L 442.828125 184.660156 L 442.828125 186.898438 L 440.574219 186.898438 L 440.574219 189.152344 L 438.335938 189.152344 L 438.335938 186.898438 L 436.078125 186.898438 L 436.078125 184.660156 L 438.335938 184.660156 L 438.335938 182.402344 Z M 440.574219 182.402344 "/>
<path fill-rule="nonzero" fill="rgb(27.450982%, 50.980395%, 70.588237%)" fill-opacity="1" d="M 561.03125 70.632812 L 561.03125 72.886719 L 563.285156 72.886719 L 563.285156 75.128906 L 561.03125 75.128906 L 561.03125 77.382812 L 558.789062 77.382812 L 558.789062 75.128906 L 556.535156 75.128906 L 556.535156 72.886719 L 558.789062 72.886719 L 558.789062 70.632812 Z M 561.03125 70.632812 "/>
<path fill-rule="nonzero" fill="rgb(27.450982%, 50.980395%, 70.588237%)" fill-opacity="1" d="M 79.210938 296.734375 L 79.210938 298.988281 L 81.464844 298.988281 L 81.464844 301.230469 L 79.210938 301.230469 L 79.210938 303.484375 L 76.96875 303.484375 L 76.96875 301.230469 L 74.714844 301.230469 L 74.714844 298.988281 L 76.96875 298.988281 L 76.96875 296.734375 Z M 79.210938 296.734375 "/>
<path fill-rule="nonzero" fill="rgb(27.450982%, 50.980395%, 70.588237%)" fill-opacity="1" d="M 440.574219 118.226562 L 440.574219 120.480469 L 442.828125 120.480469 L 442.828125 122.722656 L 440.574219 122.722656 L 440.574219 124.976562 L 438.335938 124.976562 L 438.335938 122.722656 L 436.078125 122.722656 L 436.078125 120.480469 L 438.335938 120.480469 L 438.335938 118.226562 Z M 440.574219 118.226562 "/>
<path fill-rule="nonzero" fill="rgb(27.450982%, 50.980395%, 70.588237%)" fill-opacity="1" d="M 440.574219 91.996094 L 440.574219 94.25 L 442.828125 94.25 L 442.828125 96.492188 L 440.574219 96.492188 L 440.574219 98.746094 L 438.335938 98.746094 L 438.335938 96.492188 L 436.078125 96.492188 L 436.078125 94.25 L 438.335938 94.25 L 438.335938 91.996094 Z M 440.574219 91.996094 "/>
<path fill-rule="nonzero" fill="rgb(27.450982%, 50.980395%, 70.588237%)" fill-opacity="1" d="M 440.574219 149.699219 L 440.574219 151.953125 L 442.828125 151.953125 L 442.828125 154.195312 L 440.574219 154.195312 L 440.574219 156.449219 L 438.335938 156.449219 L 438.335938 154.195312 L 436.078125 154.195312 L 436.078125 151.953125 L 438.335938 151.953125 L 438.335938 149.699219 Z M 440.574219 149.699219 "/>
<path fill-rule="nonzero" fill="rgb(27.450982%, 50.980395%, 70.588237%)" fill-opacity="1" d="M 199.664062 293.304688 L 199.664062 295.558594 L 201.921875 295.558594 L 201.921875 297.800781 L 199.664062 297.800781 L 199.664062 300.054688 L 197.425781 300.054688 L 197.425781 297.800781 L 195.171875 297.800781 L 195.171875 295.558594 L 197.425781 295.558594 L 197.425781 293.304688 Z M 199.664062 293.304688 "/>
<path fill-rule="nonzero" fill="rgb(27.450982%, 50.980395%, 70.588237%)" fill-opacity="1" d="M 440.574219 133.457031 L 440.574219 135.710938 L 442.828125 135.710938 L 442.828125 137.953125 L 440.574219 137.953125 L 440.574219 140.207031 L 438.335938 140.207031 L 438.335938 137.953125 L 436.078125 137.953125 L 436.078125 135.710938 L 438.335938 135.710938 L 438.335938 133.457031 Z M 440.574219 133.457031 "/>
<path fill-rule="nonzero" fill="rgb(27.450982%, 50.980395%, 70.588237%)" fill-opacity="1" d="M 79.210938 298.871094 L 79.210938 301.125 L 81.464844 301.125 L 81.464844 303.367188 L 79.210938 303.367188 L 79.210938 305.621094 L 76.96875 305.621094 L 76.96875 303.367188 L 74.714844 303.367188 L 74.714844 301.125 L 76.96875 301.125 L 76.96875 298.871094 Z M 79.210938 298.871094 "/>
<path fill-rule="nonzero" fill="rgb(27.450982%, 50.980395%, 70.588237%)" fill-opacity="1" d="M 561.03125 67.9375 L 561.03125 70.191406 L 563.285156 70.191406 L 563.285156 72.433594 L 561.03125 72.433594 L 561.03125 74.6875 L 558.789062 74.6875 L 558.789062 72.433594 L 556.535156 72.433594 L 556.535156 70.191406 L 558.789062 70.191406 L 558.789062 67.9375 Z M 561.03125 67.9375 "/>
<path fill-rule="nonzero" fill="rgb(27.450982%, 50.980395%, 70.588237%)" fill-opacity="1" d="M 320.121094 221.730469 L 320.121094 223.984375 L 322.375 223.984375 L 322.375 226.226562 L 320.121094 226.226562 L 320.121094 228.480469 L 317.878906 228.480469 L 317.878906 226.226562 L 315.625 226.226562 L 315.625 223.984375 L 317.878906 223.984375 L 317.878906 221.730469 Z M 320.121094 221.730469 "/>
<path fill-rule="nonzero" fill="rgb(27.450982%, 50.980395%, 70.588237%)" fill-opacity="1" d="M 561.03125 137.332031 L 561.03125 139.585938 L 563.285156 139.585938 L 563.285156 141.828125 L 561.03125 141.828125 L 561.03125 144.082031 L 558.789062 144.082031 L 558.789062 141.828125 L 556.535156 141.828125 L 556.535156 139.585938 L 558.789062 139.585938 L 558.789062 137.332031 Z M 561.03125 137.332031 "/>
<path fill-rule="nonzero" fill="rgb(27.450982%, 50.980395%, 70.588237%)" fill-opacity="1" d="M 320.121094 163.871094 L 320.121094 166.125 L 322.375 166.125 L 322.375 168.367188 L 320.121094 168.367188 L 320.121094 170.621094 L 317.878906 170.621094 L 317.878906 168.367188 L 315.625 168.367188 L 315.625 166.125 L 317.878906 166.125 L 317.878906 163.871094 Z M 320.121094 163.871094 "/>
<path fill-rule="nonzero" fill="rgb(27.450982%, 50.980395%, 70.588237%)" fill-opacity="1" d="M 320.121094 144.761719 L 320.121094 147.015625 L 322.375 147.015625 L 322.375 149.253906 L 320.121094 149.253906 L 320.121094 151.511719 L 317.878906 151.511719 L 317.878906 149.253906 L 315.625 149.253906 L 315.625 147.015625 L 317.878906 147.015625 L 317.878906 144.761719 Z M 320.121094 144.761719 "/>
<path fill-rule="nonzero" fill="rgb(27.450982%, 50.980395%, 70.588237%)" fill-opacity="1" d="M 320.121094 181.167969 L 320.121094 183.421875 L 322.375 183.421875 L 322.375 185.664062 L 320.121094 185.664062 L 320.121094 187.917969 L 317.878906 187.917969 L 317.878906 185.664062 L 315.625 185.664062 L 315.625 183.421875 L 317.878906 183.421875 L 317.878906 181.167969 Z M 320.121094 181.167969 "/>
<path fill-rule="nonzero" fill="rgb(27.450982%, 50.980395%, 70.588237%)" fill-opacity="1" d="M 79.210938 335.640625 L 79.210938 337.894531 L 81.464844 337.894531 L 81.464844 340.136719 L 79.210938 340.136719 L 79.210938 342.390625 L 76.96875 342.390625 L 76.96875 340.136719 L 74.714844 340.136719 L 74.714844 337.894531 L 76.96875 337.894531 L 76.96875 335.640625 Z M 79.210938 335.640625 "/>
<path fill-rule="nonzero" fill="rgb(27.450982%, 50.980395%, 70.588237%)" fill-opacity="1" d="M 561.03125 46.992188 L 561.03125 49.246094 L 563.285156 49.246094 L 563.285156 51.488281 L 561.03125 51.488281 L 561.03125 53.742188 L 558.789062 53.742188 L 558.789062 51.488281 L 556.535156 51.488281 L 556.535156 49.246094 L 558.789062 49.246094 L 558.789062 46.992188 Z M 561.03125 46.992188 "/>
<path fill-rule="nonzero" fill="rgb(27.450982%, 50.980395%, 70.588237%)" fill-opacity="1" d="M 561.03125 90.019531 L 561.03125 92.273438 L 563.285156 92.273438 L 563.285156 94.515625 L 561.03125 94.515625 L 561.03125 96.769531 L 558.789062 96.769531 L 558.789062 94.515625 L 556.535156 94.515625 L 556.535156 92.273438 L 558.789062 92.273438 L 558.789062 90.019531 Z M 561.03125 90.019531 "/>
<path fill-rule="nonzero" fill="rgb(27.450982%, 50.980395%, 70.588237%)" fill-opacity="1" d="M 199.664062 218.019531 L 199.664062 220.273438 L 201.921875 220.273438 L 201.921875 222.515625 L 199.664062 222.515625 L 199.664062 224.769531 L 197.425781 224.769531 L 197.425781 222.515625 L 195.171875 222.515625 L 195.171875 220.273438 L 197.425781 220.273438 L 197.425781 218.019531 Z M 199.664062 218.019531 "/>
<path fill-rule="nonzero" fill="rgb(27.450982%, 50.980395%, 70.588237%)" fill-opacity="1" d="M 440.574219 141.046875 L 440.574219 143.300781 L 442.828125 143.300781 L 442.828125 145.542969 L 440.574219 145.542969 L 440.574219 147.796875 L 438.335938 147.796875 L 438.335938 145.542969 L 436.078125 145.542969 L 436.078125 143.300781 L 438.335938 143.300781 L 438.335938 141.046875 Z M 440.574219 141.046875 "/>
<path fill-rule="nonzero" fill="rgb(27.450982%, 50.980395%, 70.588237%)" fill-opacity="1" d="M 440.574219 153.105469 L 440.574219 155.359375 L 442.828125 155.359375 L 442.828125 157.601562 L 440.574219 157.601562 L 440.574219 159.855469 L 438.335938 159.855469 L 438.335938 157.601562 L 436.078125 157.601562 L 436.078125 155.359375 L 438.335938 155.359375 L 438.335938 153.105469 Z M 440.574219 153.105469 "/>
<path fill-rule="nonzero" fill="rgb(27.450982%, 50.980395%, 70.588237%)" fill-opacity="1" d="M 561.03125 95.519531 L 561.03125 97.773438 L 563.285156 97.773438 L 563.285156 100.015625 L 561.03125 100.015625 L 561.03125 102.269531 L 558.789062 102.269531 L 558.789062 100.015625 L 556.535156 100.015625 L 556.535156 97.773438 L 558.789062 97.773438 L 558.789062 95.519531 Z M 561.03125 95.519531 "/>
<path fill-rule="nonzero" fill="rgb(27.450982%, 50.980395%, 70.588237%)" fill-opacity="1" d="M 561.03125 82.726562 L 561.03125 84.980469 L 563.285156 84.980469 L 563.285156 87.222656 L 561.03125 87.222656 L 561.03125 89.476562 L 558.789062 89.476562 L 558.789062 87.222656 L 556.535156 87.222656 L 556.535156 84.980469 L 558.789062 84.980469 L 558.789062 82.726562 Z M 561.03125 82.726562 "/>
<path fill-rule="nonzero" fill="rgb(27.450982%, 50.980395%, 70.588237%)" fill-opacity="1" d="M 79.210938 274.75 L 79.210938 277.003906 L 81.464844 277.003906 L 81.464844 279.242188 L 79.210938 279.242188 L 79.210938 281.5 L 76.96875 281.5 L 76.96875 279.242188 L 74.714844 279.242188 L 74.714844 277.003906 L 76.96875 277.003906 L 76.96875 274.75 Z M 79.210938 274.75 "/>
<path fill-rule="nonzero" fill="rgb(27.450982%, 50.980395%, 70.588237%)" fill-opacity="1" d="M 320.121094 202.304688 L 320.121094 204.5625 L 322.375 204.5625 L 322.375 206.800781 L 320.121094 206.800781 L 320.121094 209.054688 L 317.878906 209.054688 L 317.878906 206.800781 L 315.625 206.800781 L 315.625 204.5625 L 317.878906 204.5625 L 317.878906 202.304688 Z M 320.121094 202.304688 "/>
<path fill-rule="nonzero" fill="rgb(27.450982%, 50.980395%, 70.588237%)" fill-opacity="1" d="M 320.121094 238.507812 L 320.121094 240.761719 L 322.375 240.761719 L 322.375 243.003906 L 320.121094 243.003906 L 320.121094 245.257812 L 317.878906 245.257812 L 317.878906 243.003906 L 315.625 243.003906 L 315.625 240.761719 L 317.878906 240.761719 L 317.878906 238.507812 Z M 320.121094 238.507812 "/>
<path fill-rule="nonzero" fill="rgb(27.450982%, 50.980395%, 70.588237%)" fill-opacity="1" d="M 320.121094 186.601562 L 320.121094 188.855469 L 322.375 188.855469 L 322.375 191.097656 L 320.121094 191.097656 L 320.121094 193.351562 L 317.878906 193.351562 L 317.878906 191.097656 L 315.625 191.097656 L 315.625 188.855469 L 317.878906 188.855469 L 317.878906 186.601562 Z M 320.121094 186.601562 "/>
<path fill-rule="nonzero" fill="rgb(27.450982%, 50.980395%, 70.588237%)" fill-opacity="1" d="M 440.574219 113.824219 L 440.574219 116.078125 L 442.828125 116.078125 L 442.828125 118.320312 L 440.574219 118.320312 L 440.574219 120.574219 L 438.335938 120.574219 L 438.335938 118.320312 L 436.078125 118.320312 L 436.078125 116.078125 L 438.335938 116.078125 L 438.335938 113.824219 Z M 440.574219 113.824219 "/>
<path fill-rule="nonzero" fill="rgb(27.450982%, 50.980395%, 70.588237%)" fill-opacity="1" d="M 79.210938 305.691406 L 79.210938 307.945312 L 81.464844 307.945312 L 81.464844 310.1875 L 79.210938 310.1875 L 79.210938 312.441406 L 76.96875 312.441406 L 76.96875 310.1875 L 74.714844 310.1875 L 74.714844 307.945312 L 76.96875 307.945312 L 76.96875 305.691406 Z M 79.210938 305.691406 "/>
<path fill-rule="nonzero" fill="rgb(27.450982%, 50.980395%, 70.588237%)" fill-opacity="1" d="M 440.574219 104.964844 L 440.574219 107.21875 L 442.828125 107.21875 L 442.828125 109.460938 L 440.574219 109.460938 L 440.574219 111.714844 L 438.335938 111.714844 L 438.335938 109.460938 L 436.078125 109.460938 L 436.078125 107.21875 L 438.335938 107.21875 L 438.335938 104.964844 Z M 440.574219 104.964844 "/>
<path fill-rule="nonzero" fill="rgb(27.450982%, 50.980395%, 70.588237%)" fill-opacity="1" d="M 79.210938 261.761719 L 79.210938 264.015625 L 81.464844 264.015625 L 81.464844 266.257812 L 79.210938 266.257812 L 79.210938 268.511719 L 76.96875 268.511719 L 76.96875 266.257812 L 74.714844 266.257812 L 74.714844 264.015625 L 76.96875 264.015625 L 76.96875 261.761719 Z M 79.210938 261.761719 "/>
<path fill-rule="nonzero" fill="rgb(27.450982%, 50.980395%, 70.588237%)" fill-opacity="1" d="M 320.121094 152.730469 L 320.121094 154.984375 L 322.375 154.984375 L 322.375 157.226562 L 320.121094 157.226562 L 320.121094 159.480469 L 317.878906 159.480469 L 317.878906 157.226562 L 315.625 157.226562 L 315.625 154.984375 L 317.878906 154.984375 L 317.878906 152.730469 Z M 320.121094 152.730469 "/>
<path fill-rule="nonzero" fill="rgb(27.450982%, 50.980395%, 70.588237%)" fill-opacity="1" d="M 440.574219 145.042969 L 440.574219 147.296875 L 442.828125 147.296875 L 442.828125 149.539062 L 440.574219 149.539062 L 440.574219 151.792969 L 438.335938 151.792969 L 438.335938 149.539062 L 436.078125 149.539062 L 436.078125 147.296875 L 438.335938 147.296875 L 438.335938 145.042969 Z M 440.574219 145.042969 "/>
<path fill-rule="nonzero" fill="rgb(27.450982%, 50.980395%, 70.588237%)" fill-opacity="1" d="M 79.210938 370.578125 L 79.210938 372.835938 L 81.464844 372.835938 L 81.464844 375.074219 L 79.210938 375.074219 L 79.210938 377.328125 L 76.96875 377.328125 L 76.96875 375.074219 L 74.714844 375.074219 L 74.714844 372.835938 L 76.96875 372.835938 L 76.96875 370.578125 Z M 79.210938 370.578125 "/>
<path fill-rule="nonzero" fill="rgb(27.450982%, 50.980395%, 70.588237%)" fill-opacity="1" d="M 561.03125 87.984375 L 561.03125 90.238281 L 563.285156 90.238281 L 563.285156 92.480469 L 561.03125 92.480469 L 561.03125 94.734375 L 558.789062 94.734375 L 558.789062 92.480469 L 556.535156 92.480469 L 556.535156 90.238281 L 558.789062 90.238281 L 558.789062 87.984375 Z M 561.03125 87.984375 "/>
<path fill-rule="nonzero" fill="rgb(27.450982%, 50.980395%, 70.588237%)" fill-opacity="1" d="M 320.121094 257.429688 L 320.121094 259.683594 L 322.375 259.683594 L 322.375 261.925781 L 320.121094 261.925781 L 320.121094 264.179688 L 317.878906 264.179688 L 317.878906 261.925781 L 315.625 261.925781 L 315.625 259.683594 L 317.878906 259.683594 L 317.878906 257.429688 Z M 320.121094 257.429688 "/>
<path fill-rule="nonzero" fill="rgb(27.450982%, 50.980395%, 70.588237%)" fill-opacity="1" d="M 440.574219 148.890625 L 440.574219 151.144531 L 442.828125 151.144531 L 442.828125 153.386719 L 440.574219 153.386719 L 440.574219 155.640625 L 438.335938 155.640625 L 438.335938 153.386719 L 436.078125 153.386719 L 436.078125 151.144531 L 438.335938 151.144531 L 438.335938 148.890625 Z M 440.574219 148.890625 "/>
<path fill-rule="nonzero" fill="rgb(27.450982%, 50.980395%, 70.588237%)" fill-opacity="1" d="M 79.210938 337.710938 L 79.210938 339.964844 L 81.464844 339.964844 L 81.464844 342.207031 L 79.210938 342.207031 L 79.210938 344.460938 L 76.96875 344.460938 L 76.96875 342.207031 L 74.714844 342.207031 L 74.714844 339.964844 L 76.96875 339.964844 L 76.96875 337.710938 Z M 79.210938 337.710938 "/>
<path fill-rule="nonzero" fill="rgb(27.450982%, 50.980395%, 70.588237%)" fill-opacity="1" d="M 199.664062 274.554688 L 199.664062 276.808594 L 201.921875 276.808594 L 201.921875 279.046875 L 199.664062 279.046875 L 199.664062 281.304688 L 197.425781 281.304688 L 197.425781 279.046875 L 195.171875 279.046875 L 195.171875 276.808594 L 197.425781 276.808594 L 197.425781 274.554688 Z M 199.664062 274.554688 "/>
<path fill-rule="nonzero" fill="rgb(27.450982%, 50.980395%, 70.588237%)" fill-opacity="1" d="M 320.121094 239.671875 L 320.121094 241.925781 L 322.375 241.925781 L 322.375 244.167969 L 320.121094 244.167969 L 320.121094 246.421875 L 317.878906 246.421875 L 317.878906 244.167969 L 315.625 244.167969 L 315.625 241.925781 L 317.878906 241.925781 L 317.878906 239.671875 Z M 320.121094 239.671875 "/>
<path fill-rule="nonzero" fill="rgb(27.450982%, 50.980395%, 70.588237%)" fill-opacity="1" d="M 440.574219 194.71875 L 440.574219 196.972656 L 442.828125 196.972656 L 442.828125 199.214844 L 440.574219 199.214844 L 440.574219 201.46875 L 438.335938 201.46875 L 438.335938 199.214844 L 436.078125 199.214844 L 436.078125 196.972656 L 438.335938 196.972656 L 438.335938 194.71875 Z M 440.574219 194.71875 "/>
<path fill-rule="nonzero" fill="rgb(27.450982%, 50.980395%, 70.588237%)" fill-opacity="1" d="M 561.03125 131.992188 L 561.03125 134.246094 L 563.285156 134.246094 L 563.285156 136.488281 L 561.03125 136.488281 L 561.03125 138.742188 L 558.789062 138.742188 L 558.789062 136.488281 L 556.535156 136.488281 L 556.535156 134.246094 L 558.789062 134.246094 L 558.789062 131.992188 Z M 561.03125 131.992188 "/>
<path fill-rule="nonzero" fill="rgb(27.450982%, 50.980395%, 70.588237%)" fill-opacity="1" d="M 561.03125 31.125 L 561.03125 33.378906 L 563.285156 33.378906 L 563.285156 35.617188 L 561.03125 35.617188 L 561.03125 37.875 L 558.789062 37.875 L 558.789062 35.617188 L 556.535156 35.617188 L 556.535156 33.378906 L 558.789062 33.378906 L 558.789062 31.125 Z M 561.03125 31.125 "/>
<path fill-rule="nonzero" fill="rgb(27.450982%, 50.980395%, 70.588237%)" fill-opacity="1" d="M 199.664062 220.8125 L 199.664062 223.066406 L 201.921875 223.066406 L 201.921875 225.304688 L 199.664062 225.304688 L 199.664062 227.5625 L 197.425781 227.5625 L 197.425781 225.304688 L 195.171875 225.304688 L 195.171875 223.066406 L 197.425781 223.066406 L 197.425781 220.8125 Z M 199.664062 220.8125 "/>
<path fill-rule="nonzero" fill="rgb(27.450982%, 50.980395%, 70.588237%)" fill-opacity="1" d="M 199.664062 242.144531 L 199.664062 244.398438 L 201.921875 244.398438 L 201.921875 246.640625 L 199.664062 246.640625 L 199.664062 248.894531 L 197.425781 248.894531 L 197.425781 246.640625 L 195.171875 246.640625 L 195.171875 244.398438 L 197.425781 244.398438 L 197.425781 242.144531 Z M 199.664062 242.144531 "/>
<path fill-rule="nonzero" fill="rgb(27.450982%, 50.980395%, 70.588237%)" fill-opacity="1" d="M 440.574219 91.441406 L 440.574219 93.695312 L 442.828125 93.695312 L 442.828125 95.933594 L 440.574219 95.933594 L 440.574219 98.191406 L 438.335938 98.191406 L 438.335938 95.933594 L 436.078125 95.933594 L 436.078125 93.695312 L 438.335938 93.695312 L 438.335938 91.441406 Z M 440.574219 91.441406 "/>
<path fill-rule="nonzero" fill="rgb(27.450982%, 50.980395%, 70.588237%)" fill-opacity="1" d="M 320.121094 224.863281 L 320.121094 227.117188 L 322.375 227.117188 L 322.375 229.359375 L 320.121094 229.359375 L 320.121094 231.613281 L 317.878906 231.613281 L 317.878906 229.359375 L 315.625 229.359375 L 315.625 227.117188 L 317.878906 227.117188 L 317.878906 224.863281 Z M 320.121094 224.863281 "/>
<path fill-rule="nonzero" fill="rgb(27.450982%, 50.980395%, 70.588237%)" fill-opacity="1" d="M 320.121094 194.460938 L 320.121094 196.714844 L 322.375 196.714844 L 322.375 198.957031 L 320.121094 198.957031 L 320.121094 201.210938 L 317.878906 201.210938 L 317.878906 198.957031 L 315.625 198.957031 L 315.625 196.714844 L 317.878906 196.714844 L 317.878906 194.460938 Z M 320.121094 194.460938 "/>
<path fill-rule="nonzero" fill="rgb(27.450982%, 50.980395%, 70.588237%)" fill-opacity="1" d="M 199.664062 255.910156 L 199.664062 258.164062 L 201.921875 258.164062 L 201.921875 260.40625 L 199.664062 260.40625 L 199.664062 262.660156 L 197.425781 262.660156 L 197.425781 260.40625 L 195.171875 260.40625 L 195.171875 258.164062 L 197.425781 258.164062 L 197.425781 255.910156 Z M 199.664062 255.910156 "/>
<path fill-rule="nonzero" fill="rgb(27.450982%, 50.980395%, 70.588237%)" fill-opacity="1" d="M 440.574219 102.25 L 440.574219 104.503906 L 442.828125 104.503906 L 442.828125 106.746094 L 440.574219 106.746094 L 440.574219 109 L 438.335938 109 L 438.335938 106.746094 L 436.078125 106.746094 L 436.078125 104.503906 L 438.335938 104.503906 L 438.335938 102.25 Z M 440.574219 102.25 "/>
<path fill-rule="nonzero" fill="rgb(27.450982%, 50.980395%, 70.588237%)" fill-opacity="1" d="M 561.03125 112.328125 L 561.03125 114.582031 L 563.285156 114.582031 L 563.285156 116.824219 L 561.03125 116.824219 L 561.03125 119.078125 L 558.789062 119.078125 L 558.789062 116.824219 L 556.535156 116.824219 L 556.535156 114.582031 L 558.789062 114.582031 L 558.789062 112.328125 Z M 561.03125 112.328125 "/>
<path fill-rule="nonzero" fill="rgb(27.450982%, 50.980395%, 70.588237%)" fill-opacity="1" d="M 440.574219 120.40625 L 440.574219 122.660156 L 442.828125 122.660156 L 442.828125 124.902344 L 440.574219 124.902344 L 440.574219 127.15625 L 438.335938 127.15625 L 438.335938 124.902344 L 436.078125 124.902344 L 436.078125 122.660156 L 438.335938 122.660156 L 438.335938 120.40625 Z M 440.574219 120.40625 "/>
<path fill-rule="nonzero" fill="rgb(27.450982%, 50.980395%, 70.588237%)" fill-opacity="1" d="M 320.121094 172.828125 L 320.121094 175.082031 L 322.375 175.082031 L 322.375 177.324219 L 320.121094 177.324219 L 320.121094 179.578125 L 317.878906 179.578125 L 317.878906 177.324219 L 315.625 177.324219 L 315.625 175.082031 L 317.878906 175.082031 L 317.878906 172.828125 Z M 320.121094 172.828125 "/>
<path fill-rule="nonzero" fill="rgb(27.450982%, 50.980395%, 70.588237%)" fill-opacity="1" d="M 320.121094 145.683594 L 320.121094 147.9375 L 322.375 147.9375 L 322.375 150.179688 L 320.121094 150.179688 L 320.121094 152.433594 L 317.878906 152.433594 L 317.878906 150.179688 L 315.625 150.179688 L 315.625 147.9375 L 317.878906 147.9375 L 317.878906 145.683594 Z M 320.121094 145.683594 "/>
<path fill-rule="nonzero" fill="rgb(27.450982%, 50.980395%, 70.588237%)" fill-opacity="1" d="M 440.574219 108.226562 L 440.574219 110.480469 L 442.828125 110.480469 L 442.828125 112.71875 L 440.574219 112.71875 L 440.574219 114.976562 L 438.335938 114.976562 L 438.335938 112.71875 L 436.078125 112.71875 L 436.078125 110.480469 L 438.335938 110.480469 L 438.335938 108.226562 Z M 440.574219 108.226562 "/>
<path fill-rule="nonzero" fill="rgb(27.450982%, 50.980395%, 70.588237%)" fill-opacity="1" d="M 79.210938 350.863281 L 79.210938 353.117188 L 81.464844 353.117188 L 81.464844 355.359375 L 79.210938 355.359375 L 79.210938 357.613281 L 76.96875 357.613281 L 76.96875 355.359375 L 74.714844 355.359375 L 74.714844 353.117188 L 76.96875 353.117188 L 76.96875 350.863281 Z M 79.210938 350.863281 "/>
<path fill-rule="nonzero" fill="rgb(27.450982%, 50.980395%, 70.588237%)" fill-opacity="1" d="M 199.664062 308.191406 L 199.664062 310.445312 L 201.921875 310.445312 L 201.921875 312.6875 L 199.664062 312.6875 L 199.664062 314.941406 L 197.425781 314.941406 L 197.425781 312.6875 L 195.171875 312.6875 L 195.171875 310.445312 L 197.425781 310.445312 L 197.425781 308.191406 Z M 199.664062 308.191406 "/>
<path fill-rule="nonzero" fill="rgb(27.450982%, 50.980395%, 70.588237%)" fill-opacity="1" d="M 199.664062 309.09375 L 199.664062 311.351562 L 201.921875 311.351562 L 201.921875 313.589844 L 199.664062 313.589844 L 199.664062 315.84375 L 197.425781 315.84375 L 197.425781 313.589844 L 195.171875 313.589844 L 195.171875 311.351562 L 197.425781 311.351562 L 197.425781 309.09375 Z M 199.664062 309.09375 "/>
<path fill-rule="nonzero" fill="rgb(27.450982%, 50.980395%, 70.588237%)" fill-opacity="1" d="M 199.664062 307.925781 L 199.664062 310.179688 L 201.921875 310.179688 L 201.921875 312.421875 L 199.664062 312.421875 L 199.664062 314.675781 L 197.425781 314.675781 L 197.425781 312.421875 L 195.171875 312.421875 L 195.171875 310.179688 L 197.425781 310.179688 L 197.425781 307.925781 Z M 199.664062 307.925781 "/>
<path fill-rule="nonzero" fill="rgb(27.450982%, 50.980395%, 70.588237%)" fill-opacity="1" d="M 320.121094 174.414062 L 320.121094 176.667969 L 322.375 176.667969 L 322.375 178.90625 L 320.121094 178.90625 L 320.121094 181.164062 L 317.878906 181.164062 L 317.878906 178.90625 L 315.625 178.90625 L 315.625 176.667969 L 317.878906 176.667969 L 317.878906 174.414062 Z M 320.121094 174.414062 "/>
<path fill-rule="nonzero" fill="rgb(27.450982%, 50.980395%, 70.588237%)" fill-opacity="1" d="M 199.664062 312.058594 L 199.664062 314.3125 L 201.921875 314.3125 L 201.921875 316.554688 L 199.664062 316.554688 L 199.664062 318.808594 L 197.425781 318.808594 L 197.425781 316.554688 L 195.171875 316.554688 L 195.171875 314.3125 L 197.425781 314.3125 L 197.425781 312.058594 Z M 199.664062 312.058594 "/>
<path fill-rule="nonzero" fill="rgb(27.450982%, 50.980395%, 70.588237%)" fill-opacity="1" d="M 79.210938 266.414062 L 79.210938 268.667969 L 81.464844 268.667969 L 81.464844 270.910156 L 79.210938 270.910156 L 79.210938 273.164062 L 76.96875 273.164062 L 76.96875 270.910156 L 74.714844 270.910156 L 74.714844 268.667969 L 76.96875 268.667969 L 76.96875 266.414062 Z M 79.210938 266.414062 "/>
<path fill-rule="nonzero" fill="rgb(27.450982%, 50.980395%, 70.588237%)" fill-opacity="1" d="M 440.574219 141.957031 L 440.574219 144.210938 L 442.828125 144.210938 L 442.828125 146.453125 L 440.574219 146.453125 L 440.574219 148.707031 L 438.335938 148.707031 L 438.335938 146.453125 L 436.078125 146.453125 L 436.078125 144.210938 L 438.335938 144.210938 L 438.335938 141.957031 Z M 440.574219 141.957031 "/>
<path fill-rule="nonzero" fill="rgb(27.450982%, 50.980395%, 70.588237%)" fill-opacity="1" d="M 440.574219 151.863281 L 440.574219 154.117188 L 442.828125 154.117188 L 442.828125 156.355469 L 440.574219 156.355469 L 440.574219 158.613281 L 438.335938 158.613281 L 438.335938 156.355469 L 436.078125 156.355469 L 436.078125 154.117188 L 438.335938 154.117188 L 438.335938 151.863281 Z M 440.574219 151.863281 "/>
<path fill="none" stroke-width="5" stroke-linecap="butt" stroke-linejoin="miter" stroke="rgb(100%, 0%, 0%)" stroke-opacity="1" stroke-dasharray="5 10" stroke-miterlimit="2" d="M 78.089844 314.003906 L 87.777344 309.410156 L 90.195312 308.261719 L 95.039062 305.964844 L 97.460938 304.820312 L 102.304688 302.523438 L 104.722656 301.375 L 114.410156 296.78125 L 116.828125 295.636719 L 128.9375 289.894531 L 131.355469 288.746094 L 136.199219 286.449219 L 138.621094 285.304688 L 143.464844 283.007812 L 145.882812 281.859375 L 155.570312 277.265625 L 157.992188 276.121094 L 160.410156 274.972656 L 170.097656 270.378906 L 172.515625 269.230469 L 174.9375 268.082031 L 177.359375 266.9375 L 184.625 263.492188 L 187.042969 262.34375 L 196.730469 257.75 L 199.152344 256.605469 L 201.570312 255.457031 L 213.679688 249.714844 L 216.097656 248.566406 L 218.519531 247.421875 L 225.785156 243.976562 L 228.203125 242.828125 L 237.890625 238.234375 L 240.3125 237.089844 L 242.730469 235.941406 L 254.839844 230.199219 L 257.257812 229.050781 L 259.679688 227.90625 L 269.367188 223.3125 L 271.785156 222.164062 L 279.050781 218.71875 L 281.472656 217.574219 L 283.894531 216.425781 L 286.3125 215.277344 L 296 210.683594 L 298.417969 209.535156 L 300.839844 208.390625 L 310.527344 203.796875 L 312.945312 202.648438 L 320.210938 199.203125 L 322.632812 198.058594 L 325.054688 196.910156 L 327.472656 195.761719 L 339.582031 190.019531 L 342 188.875 L 351.6875 184.28125 L 354.105469 183.132812 L 358.949219 180.835938 L 361.371094 179.691406 L 366.214844 177.394531 L 368.632812 176.246094 L 380.742188 170.503906 L 383.160156 169.359375 L 395.269531 163.617188 L 397.6875 162.46875 L 400.109375 161.320312 L 402.53125 160.175781 L 407.375 157.878906 L 409.792969 156.730469 L 421.902344 150.988281 L 424.320312 149.84375 L 436.429688 144.101562 L 438.847656 142.953125 L 441.269531 141.804688 L 443.691406 140.660156 L 450.957031 137.214844 L 453.375 136.066406 L 463.0625 131.472656 L 465.480469 130.328125 L 477.589844 124.585938 L 480.007812 123.4375 L 482.429688 122.289062 L 484.851562 121.144531 L 492.117188 117.699219 L 494.535156 116.550781 L 504.222656 111.957031 L 506.644531 110.8125 L 509.0625 109.664062 L 518.75 105.070312 L 521.167969 103.921875 L 523.589844 102.773438 L 526.011719 101.628906 L 533.277344 98.183594 L 535.695312 97.035156 L 542.960938 93.589844 L 545.382812 92.445312 L 547.804688 91.296875 L 550.222656 90.148438 L 559.910156 85.554688 "/>
<path fill-rule="nonzero" fill="rgb(100%, 0%, 0%)" fill-opacity="0.15" d="M 78.089844 301.082031 L 82.933594 298.957031 L 85.355469 297.890625 L 87.777344 296.828125 L 90.195312 295.765625 L 92.617188 294.703125 L 95.039062 293.636719 L 99.882812 291.511719 L 102.304688 290.445312 L 104.722656 289.378906 L 107.144531 288.316406 L 114.410156 285.117188 L 116.828125 284.050781 L 119.25 282.984375 L 121.671875 281.914062 L 126.515625 279.78125 L 128.9375 278.710938 L 131.355469 277.644531 L 143.464844 272.292969 L 145.882812 271.222656 L 148.304688 270.148438 L 150.726562 269.078125 L 153.148438 268.003906 L 155.570312 266.933594 L 157.992188 265.859375 L 160.410156 264.785156 L 165.253906 262.636719 L 167.675781 261.558594 L 170.097656 260.484375 L 172.515625 259.40625 L 174.9375 258.328125 L 177.359375 257.253906 L 179.78125 256.175781 L 182.203125 255.09375 L 184.625 254.015625 L 187.042969 252.933594 L 189.464844 251.855469 L 196.730469 248.609375 L 199.152344 247.523438 L 201.570312 246.441406 L 211.257812 242.097656 L 213.679688 241.007812 L 216.097656 239.921875 L 220.941406 237.742188 L 223.363281 236.648438 L 225.785156 235.558594 L 228.203125 234.464844 L 233.046875 232.277344 L 235.46875 231.179688 L 237.890625 230.085938 L 240.3125 228.988281 L 242.730469 227.886719 L 245.152344 226.789062 L 252.417969 223.484375 L 254.839844 222.378906 L 257.257812 221.273438 L 262.101562 219.0625 L 269.367188 215.734375 L 271.785156 214.621094 L 276.628906 212.394531 L 283.894531 209.042969 L 286.3125 207.921875 L 293.578125 204.558594 L 296 203.433594 L 298.417969 202.304688 L 300.839844 201.179688 L 303.261719 200.050781 L 310.527344 196.652344 L 312.945312 195.519531 L 317.789062 193.246094 L 325.054688 189.824219 L 327.472656 188.679688 L 329.894531 187.535156 L 337.160156 184.089844 L 339.582031 182.9375 L 342 181.785156 L 344.421875 180.632812 L 351.6875 177.164062 L 354.105469 176.003906 L 356.527344 174.839844 L 358.949219 173.679688 L 361.371094 172.515625 L 363.792969 171.347656 L 366.214844 170.183594 L 368.632812 169.011719 L 371.054688 167.84375 L 375.898438 165.5 L 378.320312 164.324219 L 380.742188 163.152344 L 383.160156 161.972656 L 385.582031 160.796875 L 390.425781 158.4375 L 395.269531 156.070312 L 397.6875 154.886719 L 400.109375 153.703125 L 407.375 150.140625 L 409.792969 148.949219 L 414.636719 146.566406 L 417.058594 145.371094 L 419.480469 144.179688 L 421.902344 142.984375 L 424.320312 141.785156 L 426.742188 140.589844 L 434.007812 136.992188 L 436.429688 135.789062 L 438.847656 134.585938 L 446.113281 130.976562 L 450.957031 128.5625 L 453.375 127.355469 L 455.796875 126.148438 L 458.21875 124.9375 L 460.640625 123.730469 L 463.0625 122.519531 L 465.480469 121.308594 L 467.902344 120.097656 L 470.324219 118.882812 L 472.746094 117.671875 L 477.589844 115.242188 L 480.007812 114.027344 L 482.429688 112.8125 L 484.851562 111.59375 L 487.273438 110.378906 L 492.117188 107.941406 L 494.535156 106.722656 L 496.957031 105.503906 L 499.378906 104.28125 L 501.800781 103.0625 L 504.222656 101.839844 L 506.644531 100.621094 L 509.0625 99.398438 L 516.328125 95.730469 L 518.75 94.503906 L 521.167969 93.28125 L 523.589844 92.054688 L 526.011719 90.832031 L 533.277344 87.152344 L 535.695312 85.925781 L 540.539062 83.472656 L 542.960938 82.242188 L 545.382812 81.015625 L 547.804688 79.785156 L 550.222656 78.558594 L 559.910156 73.636719 L 559.910156 97.472656 L 550.222656 101.738281 L 547.804688 102.804688 L 542.960938 104.9375 L 540.539062 106.007812 L 538.117188 107.074219 L 535.695312 108.144531 L 533.277344 109.214844 L 530.855469 110.28125 L 523.589844 113.492188 L 521.167969 114.566406 L 518.75 115.636719 L 516.328125 116.707031 L 509.0625 119.929688 L 506.644531 121 L 504.222656 122.078125 L 499.378906 124.226562 L 496.957031 125.304688 L 494.535156 126.378906 L 492.117188 127.457031 L 482.429688 131.769531 L 480.007812 132.851562 L 477.589844 133.929688 L 470.324219 137.175781 L 467.902344 138.261719 L 465.480469 139.34375 L 463.0625 140.429688 L 455.796875 143.6875 L 453.375 144.777344 L 450.957031 145.863281 L 446.113281 148.042969 L 443.691406 149.136719 L 441.269531 150.226562 L 438.847656 151.320312 L 436.429688 152.414062 L 434.007812 153.507812 L 424.320312 157.898438 L 421.902344 158.996094 L 414.636719 162.300781 L 409.792969 164.511719 L 407.375 165.617188 L 404.953125 166.722656 L 397.6875 170.050781 L 395.269531 171.164062 L 390.425781 173.390625 L 383.160156 176.742188 L 380.742188 177.859375 L 375.898438 180.101562 L 368.632812 183.476562 L 366.214844 184.605469 L 361.371094 186.863281 L 356.527344 189.128906 L 354.105469 190.265625 L 351.6875 191.402344 L 346.84375 193.675781 L 344.421875 194.816406 L 342 195.960938 L 339.582031 197.101562 L 337.160156 198.25 L 334.738281 199.394531 L 329.894531 201.691406 L 327.472656 202.84375 L 325.054688 203.996094 L 322.632812 205.148438 L 317.789062 207.460938 L 315.367188 208.621094 L 312.945312 209.777344 L 310.527344 210.941406 L 308.105469 212.101562 L 305.683594 213.265625 L 303.261719 214.433594 L 300.839844 215.597656 L 298.417969 216.769531 L 296 217.9375 L 288.734375 221.453125 L 286.3125 222.628906 L 283.894531 223.804688 L 274.207031 228.523438 L 271.785156 229.707031 L 269.367188 230.890625 L 259.679688 235.640625 L 257.257812 236.832031 L 254.839844 238.019531 L 252.417969 239.214844 L 249.996094 240.40625 L 242.730469 243.992188 L 240.3125 245.191406 L 237.890625 246.386719 L 235.46875 247.585938 L 233.046875 248.789062 L 230.625 249.988281 L 228.203125 251.191406 L 225.785156 252.394531 L 223.363281 253.597656 L 220.941406 254.804688 L 218.519531 256.007812 L 216.097656 257.214844 L 213.679688 258.421875 L 211.257812 259.628906 L 206.414062 262.050781 L 203.992188 263.257812 L 201.570312 264.46875 L 199.152344 265.683594 L 196.730469 266.894531 L 194.308594 268.109375 L 191.886719 269.320312 L 187.042969 271.75 L 184.625 272.96875 L 182.203125 274.183594 L 179.78125 275.402344 L 177.359375 276.617188 L 172.515625 279.054688 L 170.097656 280.273438 L 167.675781 281.496094 L 165.253906 282.714844 L 162.832031 283.9375 L 160.410156 285.15625 L 157.992188 286.378906 L 150.726562 290.046875 L 148.304688 291.273438 L 145.882812 292.496094 L 143.464844 293.722656 L 141.042969 294.945312 L 131.355469 299.851562 L 128.9375 301.078125 L 126.515625 302.304688 L 124.09375 303.535156 L 121.671875 304.761719 L 119.25 305.992188 L 116.828125 307.21875 L 114.410156 308.449219 L 104.722656 313.371094 L 102.304688 314.601562 L 97.460938 317.0625 L 95.039062 318.296875 L 90.195312 320.757812 L 87.777344 321.992188 L 85.355469 323.226562 L 82.933594 324.457031 L 78.089844 326.925781 Z M 78.089844 301.082031 "/>
<path fill="none" stroke-width="1" stroke-linecap="butt" stroke-linejoin="miter" stroke="rgb(0%, 0%, 0%)" stroke-opacity="1" stroke-miterlimit="1.154701" d="M 78.089844 391.5 L 78.089844 396.5 "/>
<path fill="none" stroke-width="1" stroke-linecap="butt" stroke-linejoin="miter" stroke="rgb(0%, 0%, 0%)" stroke-opacity="1" stroke-miterlimit="1.154701" d="M 198.546875 391.5 L 198.546875 396.5 "/>
<path fill="none" stroke-width="1" stroke-linecap="butt" stroke-linejoin="miter" stroke="rgb(0%, 0%, 0%)" stroke-opacity="1" stroke-miterlimit="1.154701" d="M 319 391.5 L 319 396.5 "/>
<path fill="none" stroke-width="1" stroke-linecap="butt" stroke-linejoin="miter" stroke="rgb(0%, 0%, 0%)" stroke-opacity="1" stroke-miterlimit="1.154701" d="M 439.453125 391.5 L 439.453125 396.5 "/>
<path fill="none" stroke-width="1" stroke-linecap="butt" stroke-linejoin="miter" stroke="rgb(0%, 0%, 0%)" stroke-opacity="1" stroke-miterlimit="1.154701" d="M 559.910156 391.5 L 559.910156 396.5 "/>
<path fill="none" stroke-width="1" stroke-linecap="butt" stroke-linejoin="miter" stroke="rgb(0%, 0%, 0%)" stroke-opacity="1" stroke-miterlimit="1.154701" d="M 53.5 319.328125 L 48.5 319.328125 "/>
<path fill="none" stroke-width="1" stroke-linecap="butt" stroke-linejoin="miter" stroke="rgb(0%, 0%, 0%)" stroke-opacity="1" stroke-miterlimit="1.154701" d="M 53.5 203.738281 L 48.5 203.738281 "/>
<path fill="none" stroke-width="1" stroke-linecap="butt" stroke-linejoin="miter" stroke="rgb(0%, 0%, 0%)" stroke-opacity="1" stroke-miterlimit="1.154701" d="M 53.5 88.148438 L 48.5 88.148438 "/>
<path fill="none" stroke-width="1" stroke-linecap="butt" stroke-linejoin="miter" stroke="rgb(0%, 0%, 0%)" stroke-opacity="1" stroke-miterlimit="1.154701" d="M 53.5 391 L 584.5 391 "/>
<path fill="none" stroke-width="1" stroke-linecap="butt" stroke-linejoin="miter" stroke="rgb(0%, 0%, 0%)" stroke-opacity="1" stroke-miterlimit="1.154701" d="M 54 391.5 L 54 15.5 "/>
<path fill="none" stroke-width="1" stroke-linecap="butt" stroke-linejoin="miter" stroke="rgb(0%, 0%, 0%)" stroke-opacity="1" stroke-miterlimit="1.154701" d="M 53.5 16 L 584.5 16 "/>
<path fill="none" stroke-width="1" stroke-linecap="butt" stroke-linejoin="miter" stroke="rgb(0%, 0%, 0%)" stroke-opacity="1" stroke-miterlimit="1.154701" d="M 584 391.5 L 584 15.5 "/>
</svg>
