<?xml version="1.0" encoding="UTF-8"?>
<svg xmlns="http://www.w3.org/2000/svg" xmlns:xlink="http://www.w3.org/1999/xlink" width="450" height="338" viewBox="0 0 450 338">
<defs>
<g>
<g id="glyph-0-0-73bf546f">
<path d="M 4.96875 0 C 4.96875 0 3.953125 0 3.953125 0 C 3.953125 0 2.578125 -2.109375 2.578125 -2.109375 C 2.578125 -2.109375 1.171875 0 1.171875 0 C 1.171875 0 0.171875 0 0.171875 0 C 0.171875 0 2.125 -2.796875 2.125 -2.796875 C 2.125 -2.796875 0.28125 -5.5 0.28125 -5.5 C 0.28125 -5.5 1.28125 -5.5 1.28125 -5.5 C 1.28125 -5.5 2.609375 -3.5 2.609375 -3.5 C 2.609375 -3.5 3.921875 -5.5 3.921875 -5.5 C 3.921875 -5.5 4.90625 -5.5 4.90625 -5.5 C 4.90625 -5.5 3.0625 -2.84375 3.0625 -2.84375 C 3.0625 -2.84375 4.96875 0 4.96875 0 Z M 4.96875 0 "/>
</g>
<g id="glyph-0-1-73bf546f">
<path d="M 5.359375 -5.265625 C 5.359375 -4.34375 4.828125 -3.5625 3.796875 -3.015625 C 3.796875 -3.015625 2.734375 -2.453125 2.734375 -2.453125 C 1.828125 -1.90625 1.484375 -1.515625 1.390625 -0.90625 C 1.390625 -0.90625 5.3125 -0.90625 5.3125 -0.90625 C 5.3125 -0.90625 5.3125 0 5.3125 0 C 5.3125 0 0.359375 0 0.359375 0 C 0.4375 -1.640625 0.890625 -2.34375 2.453125 -3.21875 C 2.453125 -3.21875 3.40625 -3.765625 3.40625 -3.765625 C 4.078125 -4.140625 4.421875 -4.65625 4.421875 -5.234375 C 4.421875 -6.03125 3.796875 -6.640625 2.953125 -6.640625 C 2.03125 -6.640625 1.515625 -6.109375 1.453125 -4.859375 C 1.453125 -4.859375 0.53125 -4.859375 0.53125 -4.859375 C 0.578125 -6.671875 1.453125 -7.4375 2.984375 -7.4375 C 4.390625 -7.4375 5.359375 -6.515625 5.359375 -5.265625 Z M 5.359375 -5.265625 "/>
</g>
<g id="glyph-0-2-73bf546f">
<path d="M 5.3125 -2.15625 C 5.3125 -0.75 4.328125 0.15625 2.796875 0.15625 C 1.265625 0.15625 0.453125 -0.59375 0.34375 -2.25 C 0.34375 -2.25 1.265625 -2.25 1.265625 -2.25 C 1.328125 -1.171875 1.8125 -0.65625 2.828125 -0.65625 C 3.796875 -0.65625 4.375 -1.21875 4.375 -2.15625 C 4.375 -2.984375 3.84375 -3.46875 2.828125 -3.46875 C 2.828125 -3.46875 2.328125 -3.46875 2.328125 -3.46875 C 2.328125 -3.46875 2.328125 -4.234375 2.328125 -4.234375 C 3.796875 -4.234375 4.140625 -4.5625 4.140625 -5.359375 C 4.140625 -6.15625 3.65625 -6.640625 2.828125 -6.640625 C 1.890625 -6.640625 1.4375 -6.140625 1.421875 -5.046875 C 1.421875 -5.046875 0.5 -5.046875 0.5 -5.046875 C 0.53125 -6.625 1.328125 -7.4375 2.828125 -7.4375 C 4.234375 -7.4375 5.09375 -6.671875 5.09375 -5.390625 C 5.09375 -4.65625 4.75 -4.171875 4.046875 -3.890625 C 4.953125 -3.59375 5.3125 -3.0625 5.3125 -2.15625 Z M 5.3125 -2.15625 "/>
</g>
<g id="glyph-0-3-73bf546f">
<path d="M 5.390625 -2.46875 C 5.390625 -0.890625 4.34375 0.15625 2.828125 0.15625 C 1.515625 0.15625 0.671875 -0.4375 0.375 -1.90625 C 0.375 -1.90625 1.296875 -1.90625 1.296875 -1.90625 C 1.515625 -1.078125 2 -0.65625 2.8125 -0.65625 C 3.828125 -0.65625 4.4375 -1.265625 4.4375 -2.34375 C 4.4375 -3.4375 3.8125 -4.078125 2.8125 -4.078125 C 2.234375 -4.078125 1.875 -3.90625 1.453125 -3.390625 C 1.453125 -3.390625 0.59375 -3.390625 0.59375 -3.390625 C 0.59375 -3.390625 1.15625 -7.28125 1.15625 -7.28125 C 1.15625 -7.28125 5 -7.28125 5 -7.28125 C 5 -7.28125 5 -6.375 5 -6.375 C 5 -6.375 1.90625 -6.375 1.90625 -6.375 C 1.90625 -6.375 1.609375 -4.453125 1.609375 -4.453125 C 2.03125 -4.765625 2.453125 -4.90625 2.984375 -4.90625 C 4.40625 -4.90625 5.390625 -3.9375 5.390625 -2.46875 Z M 5.390625 -2.46875 "/>
</g>
<g id="glyph-1-0-73bf546f">
<path d="M 3.640625 0 C 3.640625 0 2.71875 0 2.71875 0 C 2.71875 0 2.71875 -5.296875 2.71875 -5.296875 C 2.71875 -5.296875 1.078125 -5.296875 1.078125 -5.296875 C 1.078125 -5.296875 1.078125 -5.96875 1.078125 -5.96875 C 2.5 -6.140625 2.703125 -6.296875 3.03125 -7.4375 C 3.03125 -7.4375 3.640625 -7.4375 3.640625 -7.4375 C 3.640625 -7.4375 3.640625 0 3.640625 0 Z M 3.640625 0 "/>
</g>
<g id="glyph-2-0-73bf546f">
<path d="M 5.453125 -1.78125 C 5.453125 -1.78125 4.359375 -1.78125 4.359375 -1.78125 C 4.359375 -1.78125 4.359375 0 4.359375 0 C 4.359375 0 3.4375 0 3.4375 0 C 3.4375 0 3.4375 -1.78125 3.4375 -1.78125 C 3.4375 -1.78125 0.296875 -1.78125 0.296875 -1.78125 C 0.296875 -1.78125 0.296875 -2.765625 0.296875 -2.765625 C 0.296875 -2.765625 3.671875 -7.4375 3.671875 -7.4375 C 3.671875 -7.4375 4.359375 -7.4375 4.359375 -7.4375 C 4.359375 -7.4375 4.359375 -2.609375 4.359375 -2.609375 C 4.359375 -2.609375 5.453125 -2.609375 5.453125 -2.609375 C 5.453125 -2.609375 5.453125 -1.78125 5.453125 -1.78125 Z M 3.4375 -2.609375 C 3.4375 -2.609375 3.4375 -5.875 3.4375 -5.875 C 3.4375 -5.875 1.109375 -2.609375 1.109375 -2.609375 C 1.109375 -2.609375 3.4375 -2.609375 3.4375 -2.609375 Z M 3.4375 -2.609375 "/>
</g>
<g id="glyph-3-0-73bf546f">
<path d="M -5.5 -5.015625 C -5.5 -5.015625 1.15625 -2.578125 1.15625 -2.578125 C 1.9375 -2.28125 2.28125 -1.78125 2.28125 -1.15625 C 2.28125 -0.921875 2.25 -0.75 2.15625 -0.5625 C 2.15625 -0.5625 1.359375 -0.5625 1.359375 -0.5625 C 1.40625 -0.75 1.421875 -0.90625 1.421875 -1.03125 C 1.421875 -1.40625 1.28125 -1.578125 0.890625 -1.734375 C 0.890625 -1.734375 0.015625 -2.0625 0.015625 -2.0625 C 0.015625 -2.0625 -5.5 -0.203125 -5.5 -0.203125 C -5.5 -0.203125 -5.5 -1.140625 -5.5 -1.140625 C -5.5 -1.140625 -1.21875 -2.546875 -1.21875 -2.546875 C -1.21875 -2.546875 -5.5 -4.078125 -5.5 -4.078125 C -5.5 -4.078125 -5.5 -5.015625 -5.5 -5.015625 Z M -5.5 -5.015625 "/>
</g>
<g id="glyph-4-0-73bf546f">
<path d="M 5.359375 -5.265625 C 5.359375 -4.34375 4.828125 -3.5625 3.796875 -3.015625 C 3.796875 -3.015625 2.734375 -2.453125 2.734375 -2.453125 C 1.828125 -1.90625 1.484375 -1.515625 1.390625 -0.90625 C 1.390625 -0.90625 5.3125 -0.90625 5.3125 -0.90625 C 5.3125 -0.90625 5.3125 0 5.3125 0 C 5.3125 0 0.359375 0 0.359375 0 C 0.4375 -1.640625 0.890625 -2.34375 2.453125 -3.21875 C 2.453125 -3.21875 3.40625 -3.765625 3.40625 -3.765625 C 4.078125 -4.140625 4.421875 -4.65625 4.421875 -5.234375 C 4.421875 -6.03125 3.796875 -6.640625 2.953125 -6.640625 C 2.03125 -6.640625 1.515625 -6.109375 1.453125 -4.859375 C 1.453125 -4.859375 0.53125 -4.859375 0.53125 -4.859375 C 0.578125 -6.671875 1.453125 -7.4375 2.984375 -7.4375 C 4.390625 -7.4375 5.359375 -6.515625 5.359375 -5.265625 Z M 5.359375 -5.265625 "/>
</g>
<g id="glyph-4-1-73bf546f">
<path d="M 5.453125 -1.78125 C 5.453125 -1.78125 4.359375 -1.78125 4.359375 -1.78125 C 4.359375 -1.78125 4.359375 0 4.359375 0 C 4.359375 0 3.4375 0 3.4375 0 C 3.4375 0 3.4375 -1.78125 3.4375 -1.78125 C 3.4375 -1.78125 0.296875 -1.78125 0.296875 -1.78125 C 0.296875 -1.78125 0.296875 -2.765625 0.296875 -2.765625 C 0.296875 -2.765625 3.671875 -7.4375 3.671875 -7.4375 C 3.671875 -7.4375 4.359375 -7.4375 4.359375 -7.4375 C 4.359375 -7.4375 4.359375 -2.609375 4.359375 -2.609375 C 4.359375 -2.609375 5.453125 -2.609375 5.453125 -2.609375 C 5.453125 -2.609375 5.453125 -1.78125 5.453125 -1.78125 Z M 3.4375 -2.609375 C 3.4375 -2.609375 3.4375 -5.875 3.4375 -5.875 C 3.4375 -5.875 1.109375 -2.609375 1.109375 -2.609375 C 1.109375 -2.609375 3.4375 -2.609375 3.4375 -2.609375 Z M 3.4375 -2.609375 "/>
</g>
<g id="glyph-4-2-73bf546f">
<path d="M 5.390625 -2.3125 C 5.390625 -0.84375 4.375 0.15625 2.953125 0.15625 C 1.25 0.15625 0.453125 -1.078125 0.453125 -3.390625 C 0.453125 -5.984375 1.390625 -7.4375 3.125 -7.4375 C 4.25 -7.4375 5.046875 -6.71875 5.234375 -5.5 C 5.234375 -5.5 4.3125 -5.5 4.3125 -5.5 C 4.15625 -6.21875 3.703125 -6.625 3.0625 -6.625 C 2 -6.625 1.40625 -5.625 1.390625 -3.796875 C 1.796875 -4.34375 2.375 -4.625 3.109375 -4.625 C 4.4375 -4.625 5.390625 -3.703125 5.390625 -2.3125 Z M 4.4375 -2.234375 C 4.4375 -3.234375 3.890625 -3.8125 3 -3.8125 C 2.078125 -3.8125 1.453125 -3.21875 1.453125 -2.28125 C 1.453125 -1.328125 2.09375 -0.65625 2.96875 -0.65625 C 3.8125 -0.65625 4.4375 -1.296875 4.4375 -2.234375 Z M 4.4375 -2.234375 "/>
</g>
</g>
</defs>
<path fill-rule="nonzero" fill="rgb(100%, 100%, 100%)" fill-opacity="1" d="M 0 0 L 450 0 L 450 337.5 L 0 337.5 Z M 0 0 "/>
<path fill-rule="nonzero" fill="rgb(100%, 100%, 100%)" fill-opacity="1" d="M 40.5 293.25 L 438 293.25 L 438 12 L 40.5 12 Z M 40.5 293.25 "/>
<path fill="none" stroke-width="1" stroke-linecap="butt" stroke-linejoin="miter" stroke="rgb(0%, 0%, 0%)" stroke-opacity="0.12" stroke-miterlimit="2" d="M 78.088542 391 L 78.088542 16 " transform="matrix(0.75, 0, 0, 0.75, 0, 0)"/>
<path fill="none" stroke-width="1" stroke-linecap="butt" stroke-linejoin="miter" stroke="rgb(0%, 0%, 0%)" stroke-opacity="0.12" stroke-miterlimit="2" d="M 198.546875 391 L 198.546875 16 " transform="matrix(0.75, 0, 0, 0.75, 0, 0)"/>
<path fill="none" stroke-width="1" stroke-linecap="butt" stroke-linejoin="miter" stroke="rgb(0%, 0%, 0%)" stroke-opacity="0.12" stroke-miterlimit="2" d="M 319 391 L 319 16 " transform="matrix(0.75, 0, 0, 0.75, 0, 0)"/>
<path fill="none" stroke-width="1" stroke-linecap="butt" stroke-linejoin="miter" stroke="rgb(0%, 0%, 0%)" stroke-opacity="0.12" stroke-miterlimit="2" d="M 439.453125 391 L 439.453125 16 " transform="matrix(0.75, 0, 0, 0.75, 0, 0)"/>
<path fill="none" stroke-width="1" stroke-linecap="butt" stroke-linejoin="miter" stroke="rgb(0%, 0%, 0%)" stroke-opacity="0.12" stroke-miterlimit="2" d="M 559.911458 391 L 559.911458 16 " transform="matrix(0.75, 0, 0, 0.75, 0, 0)"/>
<path fill="none" stroke-width="1" stroke-linecap="butt" stroke-linejoin="miter" stroke="rgb(0%, 0%, 0%)" stroke-opacity="0.12" stroke-miterlimit="2" d="M 54 319.328125 L 584 319.328125 " transform="matrix(0.75, 0, 0, 0.75, 0, 0)"/>
<path fill="none" stroke-width="1" stroke-linecap="butt" stroke-linejoin="miter" stroke="rgb(0%, 0%, 0%)" stroke-opacity="0.12" stroke-miterlimit="2" d="M 54 203.739583 L 584 203.739583 " transform="matrix(0.75, 0, 0, 0.75, 0, 0)"/>
<path fill="none" stroke-width="1" stroke-linecap="butt" stroke-linejoin="miter" stroke="rgb(0%, 0%, 0%)" stroke-opacity="0.12" stroke-miterlimit="2" d="M 54 88.151042 L 584 88.151042 " transform="matrix(0.75, 0, 0, 0.75, 0, 0)"/>
<g fill="rgb(0%, 0%, 0%)" fill-opacity="1">
<use xlink:href="#glyph-0-0-73bf546f" x="236.625023" y="323.675995"/>
</g>
<g fill="rgb(0%, 0%, 0%)" fill-opacity="1">
<use xlink:href="#glyph-1-0-73bf546f" x="55.649185" y="309.193497"/>
</g>
<g fill="rgb(0%, 0%, 0%)" fill-opacity="1">
<use xlink:href="#glyph-0-1-73bf546f" x="145.990105" y="309.193497"/>
</g>
<g fill="rgb(0%, 0%, 0%)" fill-opacity="1">
<use xlink:href="#glyph-0-2-73bf546f" x="236.331024" y="309.193497"/>
</g>
<g fill="rgb(0%, 0%, 0%)" fill-opacity="1">
<use xlink:href="#glyph-2-0-73bf546f" x="326.671921" y="309.193497"/>
</g>
<g fill="rgb(0%, 0%, 0%)" fill-opacity="1">
<use xlink:href="#glyph-0-3-73bf546f" x="417.012772" y="309.193497"/>
</g>
<g fill="rgb(0%, 0%, 0%)" fill-opacity="1">
<use xlink:href="#glyph-3-0-73bf546f" x="21.123" y="155.249989"/>
</g>
<g fill="rgb(0%, 0%, 0%)" fill-opacity="1">
<use xlink:href="#glyph-4-0-73bf546f" x="27.162005" y="243.322472"/>
</g>
<g fill="rgb(0%, 0%, 0%)" fill-opacity="1">
<use xlink:href="#glyph-4-1-73bf546f" x="27.162005" y="156.630512"/>
</g>
<g fill="rgb(0%, 0%, 0%)" fill-opacity="1">
<use xlink:href="#glyph-4-2-73bf546f" x="27.162005" y="69.938587"/>
</g>
<path fill-rule="nonzero" fill="rgb(0%, 0%, 0%)" fill-opacity="1" d="M 60.949219 204.347656 C 60.949219 201.175781 56.1875 201.175781 56.1875 204.347656 C 56.1875 207.523438 60.949219 207.523438 60.949219 204.347656 Z M 60.949219 204.347656 "/>
<path fill-rule="nonzero" fill="rgb(0%, 0%, 0%)" fill-opacity="1" d="M 60.949219 203.738281 C 60.949219 200.566406 56.1875 200.566406 56.1875 203.738281 C 56.1875 206.910156 60.949219 206.910156 60.949219 203.738281 Z M 60.949219 203.738281 "/>
<path fill-rule="nonzero" fill="rgb(0%, 0%, 0%)" fill-opacity="1" d="M 60.949219 254.859375 C 60.949219 251.683594 56.1875 251.683594 56.1875 254.859375 C 56.1875 258.03125 60.949219 258.03125 60.949219 254.859375 Z M 60.949219 254.859375 "/>
<path fill-rule="nonzero" fill="rgb(0%, 0%, 0%)" fill-opacity="1" d="M 422.3125 67.183594 C 422.3125 64.011719 417.550781 64.011719 417.550781 67.183594 C 417.550781 70.355469 422.3125 70.355469 422.3125 67.183594 Z M 422.3125 67.183594 "/>
<path fill-rule="nonzero" fill="rgb(0%, 0%, 0%)" fill-opacity="1" d="M 331.96875 79.324219 C 331.96875 76.152344 327.210938 76.152344 327.210938 79.324219 C 327.210938 82.5 331.96875 82.5 331.96875 79.324219 Z M 331.96875 79.324219 "/>
<path fill-rule="nonzero" fill="rgb(0%, 0%, 0%)" fill-opacity="1" d="M 241.628906 115.390625 C 241.628906 112.214844 236.871094 112.214844 236.871094 115.390625 C 236.871094 118.5625 241.628906 118.5625 241.628906 115.390625 Z M 241.628906 115.390625 "/>
<path fill-rule="nonzero" fill="rgb(0%, 0%, 0%)" fill-opacity="1" d="M 422.3125 98.996094 C 422.3125 95.824219 417.550781 95.824219 417.550781 98.996094 C 417.550781 102.167969 422.3125 102.167969 422.3125 98.996094 Z M 422.3125 98.996094 "/>
<path fill-rule="nonzero" fill="rgb(0%, 0%, 0%)" fill-opacity="1" d="M 60.949219 275.742188 C 60.949219 272.570312 56.1875 272.570312 56.1875 275.742188 C 56.1875 278.917969 60.949219 278.917969 60.949219 275.742188 Z M 60.949219 275.742188 "/>
<path fill-rule="nonzero" fill="rgb(0%, 0%, 0%)" fill-opacity="1" d="M 60.949219 207.417969 C 60.949219 204.246094 56.1875 204.246094 56.1875 207.417969 C 56.1875 210.589844 60.949219 210.589844 60.949219 207.417969 Z M 60.949219 207.417969 "/>
<path fill-rule="nonzero" fill="rgb(0%, 0%, 0%)" fill-opacity="1" d="M 241.628906 158.691406 C 241.628906 155.519531 236.871094 155.519531 236.871094 158.691406 C 236.871094 161.867188 241.628906 161.867188 241.628906 158.691406 Z M 241.628906 158.691406 "/>
<path fill-rule="nonzero" fill="rgb(0%, 0%, 0%)" fill-opacity="1" d="M 422.3125 30.261719 C 422.3125 27.089844 417.550781 27.089844 417.550781 30.261719 C 417.550781 33.433594 422.3125 33.433594 422.3125 30.261719 Z M 422.3125 30.261719 "/>
<path fill-rule="nonzero" fill="rgb(0%, 0%, 0%)" fill-opacity="1" d="M 60.949219 276.167969 C 60.949219 272.996094 56.1875 272.996094 56.1875 276.167969 C 56.1875 279.339844 60.949219 279.339844 60.949219 276.167969 Z M 60.949219 276.167969 "/>
<path fill-rule="nonzero" fill="rgb(0%, 0%, 0%)" fill-opacity="1" d="M 60.949219 201.21875 C 60.949219 198.046875 56.1875 198.046875 56.1875 201.21875 C 56.1875 204.390625 60.949219 204.390625 60.949219 201.21875 Z M 60.949219 201.21875 "/>
<path fill-rule="nonzero" fill="rgb(0%, 0%, 0%)" fill-opacity="1" d="M 422.3125 105.453125 C 422.3125 102.28125 417.550781 102.28125 417.550781 105.453125 C 417.550781 108.625 422.3125 108.625 422.3125 105.453125 Z M 422.3125 105.453125 "/>
<path fill-rule="nonzero" fill="rgb(0%, 0%, 0%)" fill-opacity="1" d="M 422.3125 62.824219 C 422.3125 59.652344 417.550781 59.652344 417.550781 62.824219 C 417.550781 66 422.3125 66 422.3125 62.824219 Z M 422.3125 62.824219 "/>
<path fill-rule="nonzero" fill="rgb(0%, 0%, 0%)" fill-opacity="1" d="M 241.628906 110.605469 C 241.628906 107.433594 236.871094 107.433594 236.871094 110.605469 C 236.871094 113.777344 241.628906 113.777344 241.628906 110.605469 Z M 241.628906 110.605469 "/>
<path fill-rule="nonzero" fill="rgb(0%, 0%, 0%)" fill-opacity="1" d="M 331.96875 144.824219 C 331.96875 141.652344 327.210938 141.652344 327.210938 144.824219 C 327.210938 147.996094 331.96875 147.996094 331.96875 144.824219 Z M 331.96875 144.824219 "/>
<path fill-rule="nonzero" fill="rgb(0%, 0%, 0%)" fill-opacity="1" d="M 241.628906 156.246094 C 241.628906 153.074219 236.871094 153.074219 236.871094 156.246094 C 236.871094 159.417969 241.628906 159.417969 241.628906 156.246094 Z M 241.628906 156.246094 "/>
<path fill-rule="nonzero" fill="rgb(0%, 0%, 0%)" fill-opacity="1" d="M 60.949219 201.773438 C 60.949219 198.597656 56.1875 198.597656 56.1875 201.773438 C 56.1875 204.945312 60.949219 204.945312 60.949219 201.773438 Z M 60.949219 201.773438 "/>
<path fill-rule="nonzero" fill="rgb(0%, 0%, 0%)" fill-opacity="1" d="M 422.3125 44.929688 C 422.3125 41.757812 417.550781 41.757812 417.550781 44.929688 C 417.550781 48.101562 422.3125 48.101562 422.3125 44.929688 Z M 422.3125 44.929688 "/>
<path fill-rule="nonzero" fill="rgb(0%, 0%, 0%)" fill-opacity="1" d="M 241.628906 131.519531 C 241.628906 128.347656 236.871094 128.347656 236.871094 131.519531 C 236.871094 134.691406 241.628906 134.691406 241.628906 131.519531 Z M 241.628906 131.519531 "/>
<path fill-rule="nonzero" fill="rgb(0%, 0%, 0%)" fill-opacity="1" d="M 331.96875 139.140625 C 331.96875 135.96875 327.210938 135.96875 327.210938 139.140625 C 327.210938 142.3125 331.96875 142.3125 331.96875 139.140625 Z M 331.96875 139.140625 "/>
<path fill-rule="nonzero" fill="rgb(0%, 0%, 0%)" fill-opacity="1" d="M 331.96875 123.074219 C 331.96875 119.902344 327.210938 119.902344 327.210938 123.074219 C 327.210938 126.246094 331.96875 126.246094 331.96875 123.074219 Z M 331.96875 123.074219 "/>
<path fill-rule="nonzero" fill="rgb(0%, 0%, 0%)" fill-opacity="1" d="M 331.96875 99.015625 C 331.96875 95.84375 327.210938 95.84375 327.210938 99.015625 C 327.210938 102.1875 331.96875 102.1875 331.96875 99.015625 Z M 331.96875 99.015625 "/>
<path fill-rule="nonzero" fill="rgb(0%, 0%, 0%)" fill-opacity="1" d="M 241.628906 163.9375 C 241.628906 160.765625 236.871094 160.765625 236.871094 163.9375 C 236.871094 167.109375 241.628906 167.109375 241.628906 163.9375 Z M 241.628906 163.9375 "/>
<path fill-rule="nonzero" fill="rgb(0%, 0%, 0%)" fill-opacity="1" d="M 241.628906 133.726562 C 241.628906 130.554688 236.871094 130.554688 236.871094 133.726562 C 236.871094 136.898438 241.628906 136.898438 241.628906 133.726562 Z M 241.628906 133.726562 "/>
<path fill-rule="nonzero" fill="rgb(0%, 0%, 0%)" fill-opacity="1" d="M 331.96875 129.660156 C 331.96875 126.484375 327.210938 126.484375 327.210938 129.660156 C 327.210938 132.832031 331.96875 132.832031 331.96875 129.660156 Z M 331.96875 129.660156 "/>
<path fill-rule="nonzero" fill="rgb(0%, 0%, 0%)" fill-opacity="1" d="M 60.949219 236.363281 C 60.949219 233.191406 56.1875 233.191406 56.1875 236.363281 C 56.1875 239.535156 60.949219 239.535156 60.949219 236.363281 Z M 60.949219 236.363281 "/>
<path fill-rule="nonzero" fill="rgb(0%, 0%, 0%)" fill-opacity="1" d="M 331.96875 148.445312 C 331.96875 145.273438 327.210938 145.273438 327.210938 148.445312 C 327.210938 151.617188 331.96875 151.617188 331.96875 148.445312 Z M 331.96875 148.445312 "/>
<path fill-rule="nonzero" fill="rgb(0%, 0%, 0%)" fill-opacity="1" d="M 422.3125 46.164062 C 422.3125 42.992188 417.550781 42.992188 417.550781 46.164062 C 417.550781 49.335938 422.3125 49.335938 422.3125 46.164062 Z M 422.3125 46.164062 "/>
<path fill-rule="nonzero" fill="rgb(0%, 0%, 0%)" fill-opacity="1" d="M 60.949219 224.445312 C 60.949219 221.273438 56.1875 221.273438 56.1875 224.445312 C 56.1875 227.617188 60.949219 227.617188 60.949219 224.445312 Z M 60.949219 224.445312 "/>
<path fill-rule="nonzero" fill="rgb(0%, 0%, 0%)" fill-opacity="1" d="M 331.96875 83.054688 C 331.96875 79.882812 327.210938 79.882812 327.210938 83.054688 C 327.210938 86.226562 331.96875 86.226562 331.96875 83.054688 Z M 331.96875 83.054688 "/>
<path fill-rule="nonzero" fill="rgb(0%, 0%, 0%)" fill-opacity="1" d="M 151.289062 157.355469 C 151.289062 154.183594 146.53125 154.183594 146.53125 157.355469 C 146.53125 160.527344 151.289062 160.527344 151.289062 157.355469 Z M 151.289062 157.355469 "/>
<path fill-rule="nonzero" fill="rgb(0%, 0%, 0%)" fill-opacity="1" d="M 241.628906 161.847656 C 241.628906 158.675781 236.871094 158.675781 236.871094 161.847656 C 236.871094 165.023438 241.628906 165.023438 241.628906 161.847656 Z M 241.628906 161.847656 "/>
<path fill-rule="nonzero" fill="rgb(0%, 0%, 0%)" fill-opacity="1" d="M 151.289062 237.269531 C 151.289062 234.097656 146.53125 234.097656 146.53125 237.269531 C 146.53125 240.441406 151.289062 240.441406 151.289062 237.269531 Z M 151.289062 237.269531 "/>
<path fill-rule="nonzero" fill="rgb(0%, 0%, 0%)" fill-opacity="1" d="M 422.3125 24.785156 C 422.3125 21.613281 417.550781 21.613281 417.550781 24.785156 C 417.550781 27.957031 422.3125 27.957031 422.3125 24.785156 Z M 422.3125 24.785156 "/>
<path fill-rule="nonzero" fill="rgb(0%, 0%, 0%)" fill-opacity="1" d="M 331.96875 139.335938 C 331.96875 136.160156 327.210938 136.160156 327.210938 139.335938 C 327.210938 142.507812 331.96875 142.507812 331.96875 139.335938 Z M 331.96875 139.335938 "/>
<path fill-rule="nonzero" fill="rgb(0%, 0%, 0%)" fill-opacity="1" d="M 422.3125 55.503906 C 422.3125 52.332031 417.550781 52.332031 417.550781 55.503906 C 417.550781 58.679688 422.3125 58.679688 422.3125 55.503906 Z M 422.3125 55.503906 "/>
<path fill-rule="nonzero" fill="rgb(0%, 0%, 0%)" fill-opacity="1" d="M 60.949219 225.082031 C 60.949219 221.910156 56.1875 221.910156 56.1875 225.082031 C 56.1875 228.253906 60.949219 228.253906 60.949219 225.082031 Z M 60.949219 225.082031 "/>
<path fill-rule="nonzero" fill="rgb(0%, 0%, 0%)" fill-opacity="1" d="M 331.96875 91.199219 C 331.96875 88.027344 327.210938 88.027344 327.210938 91.199219 C 327.210938 94.375 331.96875 94.375 331.96875 91.199219 Z M 331.96875 91.199219 "/>
<path fill-rule="nonzero" fill="rgb(0%, 0%, 0%)" fill-opacity="1" d="M 331.96875 71.527344 C 331.96875 68.355469 327.210938 68.355469 327.210938 71.527344 C 327.210938 74.699219 331.96875 74.699219 331.96875 71.527344 Z M 331.96875 71.527344 "/>
<path fill-rule="nonzero" fill="rgb(0%, 0%, 0%)" fill-opacity="1" d="M 331.96875 114.804688 C 331.96875 111.632812 327.210938 111.632812 327.210938 114.804688 C 327.210938 117.976562 331.96875 117.976562 331.96875 114.804688 Z M 331.96875 114.804688 "/>
<path fill-rule="nonzero" fill="rgb(0%, 0%, 0%)" fill-opacity="1" d="M 151.289062 222.507812 C 151.289062 219.335938 146.53125 219.335938 146.53125 222.507812 C 146.53125 225.679688 151.289062 225.679688 151.289062 222.507812 Z M 151.289062 222.507812 "/>
<path fill-rule="nonzero" fill="rgb(0%, 0%, 0%)" fill-opacity="1" d="M 331.96875 102.625 C 331.96875 99.453125 327.210938 99.453125 327.210938 102.625 C 327.210938 105.796875 331.96875 105.796875 331.96875 102.625 Z M 331.96875 102.625 "/>
<path fill-rule="nonzero" fill="rgb(0%, 0%, 0%)" fill-opacity="1" d="M 60.949219 226.683594 C 60.949219 223.511719 56.1875 223.511719 56.1875 226.683594 C 56.1875 229.855469 60.949219 229.855469 60.949219 226.683594 Z M 60.949219 226.683594 "/>
<path fill-rule="nonzero" fill="rgb(0%, 0%, 0%)" fill-opacity="1" d="M 422.3125 53.484375 C 422.3125 50.3125 417.550781 50.3125 417.550781 53.484375 C 417.550781 56.65625 422.3125 56.65625 422.3125 53.484375 Z M 422.3125 53.484375 "/>
<path fill-rule="nonzero" fill="rgb(0%, 0%, 0%)" fill-opacity="1" d="M 241.628906 168.828125 C 241.628906 165.65625 236.871094 165.65625 236.871094 168.828125 C 236.871094 172.003906 241.628906 172.003906 241.628906 168.828125 Z M 241.628906 168.828125 "/>
<path fill-rule="nonzero" fill="rgb(0%, 0%, 0%)" fill-opacity="1" d="M 422.3125 105.53125 C 422.3125 102.359375 417.550781 102.359375 417.550781 105.53125 C 417.550781 108.703125 422.3125 108.703125 422.3125 105.53125 Z M 422.3125 105.53125 "/>
<path fill-rule="nonzero" fill="rgb(0%, 0%, 0%)" fill-opacity="1" d="M 241.628906 125.433594 C 241.628906 122.261719 236.871094 122.261719 236.871094 125.433594 C 236.871094 128.609375 241.628906 128.609375 241.628906 125.433594 Z M 241.628906 125.433594 "/>
<path fill-rule="nonzero" fill="rgb(0%, 0%, 0%)" fill-opacity="1" d="M 241.628906 111.101562 C 241.628906 107.929688 236.871094 107.929688 236.871094 111.101562 C 236.871094 114.273438 241.628906 114.273438 241.628906 111.101562 Z M 241.628906 111.101562 "/>
<path fill-rule="nonzero" fill="rgb(0%, 0%, 0%)" fill-opacity="1" d="M 241.628906 138.40625 C 241.628906 135.234375 236.871094 135.234375 236.871094 138.40625 C 236.871094 141.578125 241.628906 141.578125 241.628906 138.40625 Z M 241.628906 138.40625 "/>
<path fill-rule="nonzero" fill="rgb(0%, 0%, 0%)" fill-opacity="1" d="M 60.949219 254.261719 C 60.949219 251.089844 56.1875 251.089844 56.1875 254.261719 C 56.1875 257.433594 60.949219 257.433594 60.949219 254.261719 Z M 60.949219 254.261719 "/>
<path fill-rule="nonzero" fill="rgb(0%, 0%, 0%)" fill-opacity="1" d="M 422.3125 37.773438 C 422.3125 34.601562 417.550781 34.601562 417.550781 37.773438 C 417.550781 40.949219 422.3125 40.949219 422.3125 37.773438 Z M 422.3125 37.773438 "/>
<path fill-rule="nonzero" fill="rgb(0%, 0%, 0%)" fill-opacity="1" d="M 422.3125 70.046875 C 422.3125 66.875 417.550781 66.875 417.550781 70.046875 C 417.550781 73.21875 422.3125 73.21875 422.3125 70.046875 Z M 422.3125 70.046875 "/>
<path fill-rule="nonzero" fill="rgb(0%, 0%, 0%)" fill-opacity="1" d="M 151.289062 166.046875 C 151.289062 162.875 146.53125 162.875 146.53125 166.046875 C 146.53125 169.21875 151.289062 169.21875 151.289062 166.046875 Z M 151.289062 166.046875 "/>
<path fill-rule="nonzero" fill="rgb(0%, 0%, 0%)" fill-opacity="1" d="M 331.96875 108.316406 C 331.96875 105.144531 327.210938 105.144531 327.210938 108.316406 C 327.210938 111.488281 331.96875 111.488281 331.96875 108.316406 Z M 331.96875 108.316406 "/>
<path fill-rule="nonzero" fill="rgb(0%, 0%, 0%)" fill-opacity="1" d="M 331.96875 117.359375 C 331.96875 114.1875 327.210938 114.1875 327.210938 117.359375 C 327.210938 120.535156 331.96875 120.535156 331.96875 117.359375 Z M 331.96875 117.359375 "/>
<path fill-rule="nonzero" fill="rgb(0%, 0%, 0%)" fill-opacity="1" d="M 422.3125 74.171875 C 422.3125 71 417.550781 71 417.550781 74.171875 C 417.550781 77.34375 422.3125 77.34375 422.3125 74.171875 Z M 422.3125 74.171875 "/>
<path fill-rule="nonzero" fill="rgb(0%, 0%, 0%)" fill-opacity="1" d="M 422.3125 64.574219 C 422.3125 61.402344 417.550781 61.402344 417.550781 64.574219 C 417.550781 67.746094 422.3125 67.746094 422.3125 64.574219 Z M 422.3125 64.574219 "/>
<path fill-rule="nonzero" fill="rgb(0%, 0%, 0%)" fill-opacity="1" d="M 60.949219 208.59375 C 60.949219 205.421875 56.1875 205.421875 56.1875 208.59375 C 56.1875 211.765625 60.949219 211.765625 60.949219 208.59375 Z M 60.949219 208.59375 "/>
<path fill-rule="nonzero" fill="rgb(0%, 0%, 0%)" fill-opacity="1" d="M 241.628906 154.261719 C 241.628906 151.089844 236.871094 151.089844 236.871094 154.261719 C 236.871094 157.433594 241.628906 157.433594 241.628906 154.261719 Z M 241.628906 154.261719 "/>
<path fill-rule="nonzero" fill="rgb(0%, 0%, 0%)" fill-opacity="1" d="M 241.628906 181.414062 C 241.628906 178.238281 236.871094 178.238281 236.871094 181.414062 C 236.871094 184.585938 241.628906 184.585938 241.628906 181.414062 Z M 241.628906 181.414062 "/>
<path fill-rule="nonzero" fill="rgb(0%, 0%, 0%)" fill-opacity="1" d="M 241.628906 142.480469 C 241.628906 139.308594 236.871094 139.308594 236.871094 142.480469 C 236.871094 145.65625 241.628906 145.65625 241.628906 142.480469 Z M 241.628906 142.480469 "/>
<path fill-rule="nonzero" fill="rgb(0%, 0%, 0%)" fill-opacity="1" d="M 331.96875 87.898438 C 331.96875 84.726562 327.210938 84.726562 327.210938 87.898438 C 327.210938 91.070312 331.96875 91.070312 331.96875 87.898438 Z M 331.96875 87.898438 "/>
<path fill-rule="nonzero" fill="rgb(0%, 0%, 0%)" fill-opacity="1" d="M 60.949219 231.800781 C 60.949219 228.625 56.1875 228.625 56.1875 231.800781 C 56.1875 234.972656 60.949219 234.972656 60.949219 231.800781 Z M 60.949219 231.800781 "/>
<path fill-rule="nonzero" fill="rgb(0%, 0%, 0%)" fill-opacity="1" d="M 331.96875 81.253906 C 331.96875 78.082031 327.210938 78.082031 327.210938 81.253906 C 327.210938 84.425781 331.96875 84.425781 331.96875 81.253906 Z M 331.96875 81.253906 "/>
<path fill-rule="nonzero" fill="rgb(0%, 0%, 0%)" fill-opacity="1" d="M 60.949219 198.855469 C 60.949219 195.679688 56.1875 195.679688 56.1875 198.855469 C 56.1875 202.027344 60.949219 202.027344 60.949219 198.855469 Z M 60.949219 198.855469 "/>
<path fill-rule="nonzero" fill="rgb(0%, 0%, 0%)" fill-opacity="1" d="M 241.628906 117.078125 C 241.628906 113.90625 236.871094 113.90625 236.871094 117.078125 C 236.871094 120.253906 241.628906 120.253906 241.628906 117.078125 Z M 241.628906 117.078125 "/>
<path fill-rule="nonzero" fill="rgb(0%, 0%, 0%)" fill-opacity="1" d="M 331.96875 111.3125 C 331.96875 108.140625 327.210938 108.140625 327.210938 111.3125 C 327.210938 114.484375 331.96875 114.484375 331.96875 111.3125 Z M 331.96875 111.3125 "/>
<path fill-rule="nonzero" fill="rgb(0%, 0%, 0%)" fill-opacity="1" d="M 60.949219 280.464844 C 60.949219 277.292969 56.1875 277.292969 56.1875 280.464844 C 56.1875 283.636719 60.949219 283.636719 60.949219 280.464844 Z M 60.949219 280.464844 "/>
<path fill-rule="nonzero" fill="rgb(0%, 0%, 0%)" fill-opacity="1" d="M 422.3125 68.519531 C 422.3125 65.347656 417.550781 65.347656 417.550781 68.519531 C 417.550781 71.691406 422.3125 71.691406 422.3125 68.519531 Z M 422.3125 68.519531 "/>
<path fill-rule="nonzero" fill="rgb(0%, 0%, 0%)" fill-opacity="1" d="M 241.628906 195.601562 C 241.628906 192.429688 236.871094 192.429688 236.871094 195.601562 C 236.871094 198.773438 241.628906 198.773438 241.628906 195.601562 Z M 241.628906 195.601562 "/>
<path fill-rule="nonzero" fill="rgb(0%, 0%, 0%)" fill-opacity="1" d="M 331.96875 114.199219 C 331.96875 111.027344 327.210938 111.027344 327.210938 114.199219 C 327.210938 117.371094 331.96875 117.371094 331.96875 114.199219 Z M 331.96875 114.199219 "/>
<path fill-rule="nonzero" fill="rgb(0%, 0%, 0%)" fill-opacity="1" d="M 60.949219 255.816406 C 60.949219 252.640625 56.1875 252.640625 56.1875 255.816406 C 56.1875 258.988281 60.949219 258.988281 60.949219 255.816406 Z M 60.949219 255.816406 "/>
<path fill-rule="nonzero" fill="rgb(0%, 0%, 0%)" fill-opacity="1" d="M 151.289062 208.445312 C 151.289062 205.273438 146.53125 205.273438 146.53125 208.445312 C 146.53125 211.617188 151.289062 211.617188 151.289062 208.445312 Z M 151.289062 208.445312 "/>
<path fill-rule="nonzero" fill="rgb(0%, 0%, 0%)" fill-opacity="1" d="M 241.628906 182.285156 C 241.628906 179.113281 236.871094 179.113281 236.871094 182.285156 C 236.871094 185.457031 241.628906 185.457031 241.628906 182.285156 Z M 241.628906 182.285156 "/>
<path fill-rule="nonzero" fill="rgb(0%, 0%, 0%)" fill-opacity="1" d="M 331.96875 148.570312 C 331.96875 145.398438 327.210938 145.398438 327.210938 148.570312 C 327.210938 151.742188 331.96875 151.742188 331.96875 148.570312 Z M 331.96875 148.570312 "/>
<path fill-rule="nonzero" fill="rgb(0%, 0%, 0%)" fill-opacity="1" d="M 422.3125 101.523438 C 422.3125 98.351562 417.550781 98.351562 417.550781 101.523438 C 417.550781 104.699219 422.3125 104.699219 422.3125 101.523438 Z M 422.3125 101.523438 "/>
<path fill-rule="nonzero" fill="rgb(0%, 0%, 0%)" fill-opacity="1" d="M 422.3125 25.875 C 422.3125 22.699219 417.550781 22.699219 417.550781 25.875 C 417.550781 29.046875 422.3125 29.046875 422.3125 25.875 Z M 422.3125 25.875 "/>
<path fill-rule="nonzero" fill="rgb(0%, 0%, 0%)" fill-opacity="1" d="M 151.289062 168.140625 C 151.289062 164.964844 146.53125 164.964844 146.53125 168.140625 C 146.53125 171.3125 151.289062 171.3125 151.289062 168.140625 Z M 151.289062 168.140625 "/>
<path fill-rule="nonzero" fill="rgb(0%, 0%, 0%)" fill-opacity="1" d="M 151.289062 184.140625 C 151.289062 180.96875 146.53125 180.96875 146.53125 184.140625 C 146.53125 187.3125 151.289062 187.3125 151.289062 184.140625 Z M 151.289062 184.140625 "/>
<path fill-rule="nonzero" fill="rgb(0%, 0%, 0%)" fill-opacity="1" d="M 331.96875 71.109375 C 331.96875 67.9375 327.210938 67.9375 327.210938 71.109375 C 327.210938 74.285156 331.96875 74.285156 331.96875 71.109375 Z M 331.96875 71.109375 "/>
<path fill-rule="nonzero" fill="rgb(0%, 0%, 0%)" fill-opacity="1" d="M 241.628906 171.179688 C 241.628906 168.007812 236.871094 168.007812 236.871094 171.179688 C 236.871094 174.351562 241.628906 174.351562 241.628906 171.179688 Z M 241.628906 171.179688 "/>
<path fill-rule="nonzero" fill="rgb(0%, 0%, 0%)" fill-opacity="1" d="M 241.628906 148.375 C 241.628906 145.203125 236.871094 145.203125 236.871094 148.375 C 236.871094 151.550781 241.628906 151.550781 241.628906 148.375 Z M 241.628906 148.375 "/>
<path fill-rule="nonzero" fill="rgb(0%, 0%, 0%)" fill-opacity="1" d="M 151.289062 194.464844 C 151.289062 191.292969 146.53125 191.292969 146.53125 194.464844 C 146.53125 197.636719 151.289062 197.636719 151.289062 194.464844 Z M 151.289062 194.464844 "/>
<path fill-rule="nonzero" fill="rgb(0%, 0%, 0%)" fill-opacity="1" d="M 331.96875 79.21875 C 331.96875 76.046875 327.210938 76.046875 327.210938 79.21875 C 327.210938 82.390625 331.96875 82.390625 331.96875 79.21875 Z M 331.96875 79.21875 "/>
<path fill-rule="nonzero" fill="rgb(0%, 0%, 0%)" fill-opacity="1" d="M 422.3125 86.777344 C 422.3125 83.605469 417.550781 83.605469 417.550781 86.777344 C 417.550781 89.949219 422.3125 89.949219 422.3125 86.777344 Z M 422.3125 86.777344 "/>
<path fill-rule="nonzero" fill="rgb(0%, 0%, 0%)" fill-opacity="1" d="M 331.96875 92.835938 C 331.96875 89.664062 327.210938 89.664062 327.210938 92.835938 C 327.210938 96.007812 331.96875 96.007812 331.96875 92.835938 Z M 331.96875 92.835938 "/>
<path fill-rule="nonzero" fill="rgb(0%, 0%, 0%)" fill-opacity="1" d="M 241.628906 132.152344 C 241.628906 128.980469 236.871094 128.980469 236.871094 132.152344 C 236.871094 135.324219 241.628906 135.324219 241.628906 132.152344 Z M 241.628906 132.152344 "/>
<path fill-rule="nonzero" fill="rgb(0%, 0%, 0%)" fill-opacity="1" d="M 241.628906 111.792969 C 241.628906 108.621094 236.871094 108.621094 236.871094 111.792969 C 236.871094 114.964844 241.628906 114.964844 241.628906 111.792969 Z M 241.628906 111.792969 "/>
<path fill-rule="nonzero" fill="rgb(0%, 0%, 0%)" fill-opacity="1" d="M 331.96875 83.699219 C 331.96875 80.527344 327.210938 80.527344 327.210938 83.699219 C 327.210938 86.871094 331.96875 86.871094 331.96875 83.699219 Z M 331.96875 83.699219 "/>
<path fill-rule="nonzero" fill="rgb(0%, 0%, 0%)" fill-opacity="1" d="M 60.949219 265.679688 C 60.949219 262.507812 56.1875 262.507812 56.1875 265.679688 C 56.1875 268.851562 60.949219 268.851562 60.949219 265.679688 Z M 60.949219 265.679688 "/>
<path fill-rule="nonzero" fill="rgb(0%, 0%, 0%)" fill-opacity="1" d="M 151.289062 233.675781 C 151.289062 230.503906 146.53125 230.503906 146.53125 233.675781 C 146.53125 236.847656 151.289062 236.847656 151.289062 233.675781 Z M 151.289062 233.675781 "/>
<path fill-rule="nonzero" fill="rgb(0%, 0%, 0%)" fill-opacity="1" d="M 151.289062 234.351562 C 151.289062 231.179688 146.53125 231.179688 146.53125 234.351562 C 146.53125 237.523438 151.289062 237.523438 151.289062 234.351562 Z M 151.289062 234.351562 "/>
<path fill-rule="nonzero" fill="rgb(0%, 0%, 0%)" fill-opacity="1" d="M 151.289062 233.476562 C 151.289062 230.304688 146.53125 230.304688 146.53125 233.476562 C 146.53125 236.648438 151.289062 236.648438 151.289062 233.476562 Z M 151.289062 233.476562 "/>
<path fill-rule="nonzero" fill="rgb(0%, 0%, 0%)" fill-opacity="1" d="M 241.628906 133.339844 C 241.628906 130.167969 236.871094 130.167969 236.871094 133.339844 C 236.871094 136.511719 241.628906 136.511719 241.628906 133.339844 Z M 241.628906 133.339844 "/>
<path fill-rule="nonzero" fill="rgb(0%, 0%, 0%)" fill-opacity="1" d="M 151.289062 236.574219 C 151.289062 233.402344 146.53125 233.402344 146.53125 236.574219 C 146.53125 239.746094 151.289062 239.746094 151.289062 236.574219 Z M 151.289062 236.574219 "/>
<path fill-rule="nonzero" fill="rgb(0%, 0%, 0%)" fill-opacity="1" d="M 60.949219 202.339844 C 60.949219 199.167969 56.1875 199.167969 56.1875 202.339844 C 56.1875 205.515625 60.949219 205.515625 60.949219 202.339844 Z M 60.949219 202.339844 "/>
<path fill-rule="nonzero" fill="rgb(0%, 0%, 0%)" fill-opacity="1" d="M 331.96875 109 C 331.96875 105.828125 327.210938 105.828125 327.210938 109 C 327.210938 112.171875 331.96875 112.171875 331.96875 109 Z M 331.96875 109 "/>
<path fill-rule="nonzero" fill="rgb(0%, 0%, 0%)" fill-opacity="1" d="M 331.96875 116.425781 C 331.96875 113.253906 327.210938 113.253906 327.210938 116.425781 C 327.210938 119.601562 331.96875 119.601562 331.96875 116.425781 Z M 331.96875 116.425781 "/>
<path fill="none" stroke-width="1.5" stroke-linecap="butt" stroke-linejoin="miter" stroke="rgb(0%, 0%, 0%)" stroke-opacity="1" stroke-miterlimit="2" d="M 78.088542 314 L 82.932292 311.708333 L 85.354167 310.557292 L 87.776042 309.411458 L 90.197917 308.260417 L 95.041667 305.96875 L 97.458333 304.817708 L 99.880208 303.671875 L 102.302083 302.520833 L 107.145833 300.229167 L 109.567708 299.078125 L 111.989583 297.932292 L 114.40625 296.78125 L 116.828125 295.635417 L 119.25 294.484375 L 124.09375 292.192708 L 126.515625 291.041667 L 128.9375 289.895833 L 131.359375 288.744792 L 133.776042 287.598958 L 136.197917 286.453125 L 138.619792 285.302083 L 141.041667 284.15625 L 143.463542 283.005208 L 148.307292 280.713542 L 150.729167 279.5625 L 153.145833 278.416667 L 155.567708 277.265625 L 160.411458 274.973958 L 162.833333 273.822917 L 165.255208 272.677083 L 167.677083 271.526042 L 170.09375 270.380208 L 172.515625 269.229167 L 177.359375 266.9375 L 179.78125 265.786458 L 182.203125 264.640625 L 184.625 263.489583 L 187.046875 262.34375 L 189.463542 261.197917 L 191.885417 260.046875 L 194.307292 258.901042 L 196.729167 257.75 L 201.572917 255.458333 L 203.994792 254.307292 L 206.416667 253.161458 L 208.833333 252.010417 L 211.255208 250.864583 L 213.677083 249.713542 L 218.520833 247.421875 L 220.942708 246.270833 L 223.364583 245.125 L 225.786458 243.973958 L 228.203125 242.828125 L 230.625 241.682292 L 233.046875 240.53125 L 235.46875 239.385417 L 237.890625 238.234375 L 242.734375 235.942708 L 245.151042 234.791667 L 247.572917 233.645833 L 249.994792 232.494792 L 252.416667 231.348958 L 254.838542 230.197917 L 259.682292 227.90625 L 262.104167 226.755208 L 264.520833 225.609375 L 266.942708 224.458333 L 271.786458 222.166667 L 274.208333 221.015625 L 276.630208 219.869792 L 279.052083 218.71875 L 281.473958 217.572917 L 283.890625 216.427083 L 286.3125 215.276042 L 288.734375 214.130208 L 291.15625 212.979167 L 293.578125 211.833333 L 296 210.682292 L 298.421875 209.536458 L 300.838542 208.390625 L 303.260417 207.239583 L 305.682292 206.09375 L 308.104167 204.942708 L 312.947917 202.651042 L 315.369792 201.5 L 317.791667 200.354167 L 320.208333 199.203125 L 325.052083 196.911458 L 327.473958 195.760417 L 329.895833 194.614583 L 332.317708 193.463542 L 334.739583 192.317708 L 337.161458 191.166667 L 339.578125 190.020833 L 342 188.875 L 344.421875 187.723958 L 346.84375 186.578125 L 349.265625 185.427083 L 354.109375 183.135417 L 356.526042 181.984375 L 358.947917 180.838542 L 361.369792 179.6875 L 366.213542 177.395833 L 368.635417 176.244792 L 371.057292 175.098958 L 373.479167 173.947917 L 375.895833 172.802083 L 378.317708 171.65625 L 380.739583 170.505208 L 383.161458 169.359375 L 385.583333 168.208333 L 388.005208 167.0625 L 390.427083 165.911458 L 392.848958 164.765625 L 395.265625 163.619792 L 397.6875 162.46875 L 400.109375 161.322917 L 402.53125 160.171875 L 407.375 157.880208 L 409.796875 156.729167 L 412.213542 155.583333 L 414.635417 154.432292 L 419.479167 152.140625 L 421.901042 150.989583 L 424.322917 149.84375 L 426.744792 148.692708 L 429.166667 147.546875 L 431.583333 146.395833 L 436.427083 144.104167 L 438.848958 142.953125 L 441.270833 141.807292 L 443.692708 140.65625 L 448.536458 138.364583 L 450.953125 137.213542 L 453.375 136.067708 L 455.796875 134.916667 L 460.640625 132.625 L 463.0625 131.473958 L 465.484375 130.328125 L 467.901042 129.177083 L 470.322917 128.03125 L 472.744792 126.880208 L 477.588542 124.588542 L 480.010417 123.4375 L 482.432292 122.291667 L 484.854167 121.140625 L 487.270833 119.994792 L 489.692708 118.848958 L 492.114583 117.697917 L 494.536458 116.552083 L 496.958333 115.401042 L 501.802083 113.109375 L 504.223958 111.958333 L 506.640625 110.8125 L 509.0625 109.661458 L 511.484375 108.515625 L 513.90625 107.364583 L 518.75 105.072917 L 521.171875 103.921875 L 523.588542 102.776042 L 526.010417 101.625 L 530.854167 99.333333 L 533.276042 98.182292 L 535.697917 97.036458 L 538.119792 95.885417 L 540.541667 94.739583 L 542.958333 93.59375 L 545.380208 92.442708 L 547.802083 91.296875 L 550.223958 90.145833 L 552.645833 89 L 555.067708 87.848958 L 559.911458 85.557292 " transform="matrix(0.75, 0, 0, 0.75, 0, 0)"/>
<path fill-rule="nonzero" fill="rgb(0%, 0%, 0%)" fill-opacity="0.15" d="M 58.566406 225.808594 L 71.28125 220.230469 L 73.09375 219.429688 L 74.910156 218.632812 L 76.726562 217.832031 L 78.542969 217.035156 L 80.359375 216.234375 L 82.175781 215.4375 L 83.992188 214.636719 L 85.804688 213.835938 L 87.621094 213.039062 L 96.703125 209.035156 L 98.519531 208.230469 L 100.332031 207.429688 L 102.148438 206.628906 L 103.964844 205.824219 L 105.78125 205.023438 L 107.597656 204.21875 L 109.414062 203.417969 L 113.046875 201.808594 L 114.859375 201.003906 L 120.308594 198.589844 L 122.125 197.78125 L 123.941406 196.976562 L 125.757812 196.167969 L 127.570312 195.363281 L 140.285156 189.703125 L 142.097656 188.890625 L 143.914062 188.078125 L 145.730469 187.269531 L 151.179688 184.832031 L 152.996094 184.015625 L 154.8125 183.203125 L 156.625 182.386719 L 158.441406 181.574219 L 163.890625 179.125 L 165.707031 178.304688 L 167.523438 177.488281 L 169.339844 176.667969 L 171.152344 175.847656 L 176.601562 173.386719 L 182.050781 170.914062 L 183.863281 170.089844 L 187.496094 168.441406 L 192.945312 165.957031 L 194.761719 165.125 L 196.578125 164.296875 L 198.390625 163.464844 L 202.023438 161.800781 L 203.839844 160.964844 L 205.65625 160.132812 L 207.472656 159.296875 L 209.289062 158.457031 L 211.105469 157.621094 L 212.917969 156.78125 L 218.367188 154.261719 L 223.816406 151.730469 L 225.628906 150.882812 L 231.078125 148.339844 L 232.894531 147.488281 L 234.710938 146.640625 L 236.527344 145.785156 L 238.34375 144.933594 L 240.15625 144.078125 L 243.789062 142.367188 L 245.605469 141.507812 L 247.421875 140.652344 L 249.238281 139.789062 L 251.054688 138.929688 L 252.871094 138.066406 L 254.683594 137.203125 L 258.316406 135.476562 L 261.949219 133.742188 L 265.582031 132 L 267.394531 131.132812 L 269.210938 130.257812 L 271.027344 129.386719 L 276.476562 126.761719 L 280.109375 125.003906 L 281.921875 124.125 L 283.738281 123.246094 L 291.003906 119.714844 L 294.636719 117.941406 L 296.449219 117.054688 L 298.265625 116.167969 L 305.53125 112.605469 L 307.347656 111.710938 L 309.160156 110.820312 L 312.792969 109.03125 L 314.609375 108.132812 L 316.425781 107.238281 L 321.875 104.542969 L 323.6875 103.644531 L 325.503906 102.742188 L 327.320312 101.84375 L 332.769531 99.136719 L 334.585938 98.230469 L 336.402344 97.328125 L 338.214844 96.421875 L 347.296875 91.890625 L 349.113281 90.980469 L 350.925781 90.070312 L 352.742188 89.164062 L 356.375 87.34375 L 358.191406 86.429688 L 361.824219 84.609375 L 363.640625 83.695312 L 365.453125 82.78125 L 367.269531 81.871094 L 372.71875 79.128906 L 374.535156 78.210938 L 378.167969 76.382812 L 379.980469 75.464844 L 381.796875 74.546875 L 383.613281 73.632812 L 390.878906 69.960938 L 392.691406 69.042969 L 394.507812 68.125 L 396.324219 67.203125 L 398.140625 66.285156 L 399.957031 65.363281 L 401.773438 64.445312 L 403.589844 63.523438 L 405.40625 62.605469 L 407.21875 61.683594 L 419.933594 55.230469 L 419.933594 73.105469 L 418.117188 73.902344 L 412.667969 76.304688 L 410.851562 77.101562 L 407.21875 78.703125 L 405.40625 79.503906 L 403.589844 80.308594 L 398.140625 82.710938 L 396.324219 83.515625 L 394.507812 84.316406 L 392.691406 85.121094 L 390.878906 85.925781 L 389.0625 86.726562 L 379.980469 90.75 L 378.167969 91.558594 L 376.351562 92.363281 L 374.535156 93.171875 L 372.71875 93.976562 L 365.453125 97.210938 L 363.640625 98.019531 L 360.007812 99.636719 L 358.191406 100.449219 L 356.375 101.257812 L 350.925781 103.695312 L 349.113281 104.507812 L 347.296875 105.324219 L 345.480469 106.136719 L 343.664062 106.953125 L 341.847656 107.765625 L 338.214844 109.398438 L 336.402344 110.214844 L 334.585938 111.035156 L 332.769531 111.851562 L 323.6875 115.953125 L 321.875 116.777344 L 320.058594 117.597656 L 316.425781 119.246094 L 314.609375 120.074219 L 312.792969 120.898438 L 309.160156 122.554688 L 307.347656 123.382812 L 305.53125 124.210938 L 296.449219 128.371094 L 294.636719 129.207031 L 291.003906 130.878906 L 289.1875 131.71875 L 287.371094 132.554688 L 283.738281 134.234375 L 281.921875 135.078125 L 280.109375 135.921875 L 274.660156 138.453125 L 269.210938 140.996094 L 267.394531 141.847656 L 265.582031 142.699219 L 261.949219 144.402344 L 256.5 146.96875 L 254.683594 147.828125 L 252.871094 148.6875 L 249.238281 150.40625 L 243.789062 152.996094 L 241.972656 153.863281 L 240.15625 154.726562 L 238.34375 155.597656 L 236.527344 156.464844 L 229.261719 159.949219 L 225.628906 161.699219 L 223.816406 162.574219 L 216.550781 166.089844 L 212.917969 167.855469 L 211.105469 168.738281 L 209.289062 169.621094 L 202.023438 173.167969 L 198.390625 174.949219 L 196.578125 175.839844 L 192.945312 177.621094 L 185.679688 181.199219 L 183.863281 182.097656 L 182.050781 182.996094 L 180.234375 183.890625 L 178.417969 184.792969 L 174.785156 186.589844 L 171.152344 188.394531 L 169.339844 189.296875 L 165.707031 191.101562 L 163.890625 192.007812 L 162.074219 192.910156 L 156.625 195.628906 L 154.8125 196.535156 L 152.996094 197.445312 L 151.179688 198.351562 L 142.097656 202.902344 L 140.285156 203.8125 L 138.46875 204.726562 L 136.652344 205.636719 L 127.570312 210.207031 L 125.757812 211.121094 L 123.941406 212.035156 L 122.125 212.953125 L 120.308594 213.867188 L 116.675781 215.703125 L 114.859375 216.617188 L 113.046875 217.535156 L 109.414062 219.371094 L 107.597656 220.292969 L 102.148438 223.046875 L 100.332031 223.96875 L 98.519531 224.886719 L 93.070312 227.652344 L 91.253906 228.570312 L 85.804688 231.335938 L 83.992188 232.257812 L 82.175781 233.179688 L 80.359375 234.105469 L 76.726562 235.949219 L 74.910156 236.875 L 73.09375 237.796875 L 71.28125 238.722656 L 69.464844 239.644531 L 67.648438 240.570312 L 65.832031 241.492188 L 58.566406 245.195312 Z M 58.566406 225.808594 "/>
<path fill="none" stroke-width="1" stroke-linecap="butt" stroke-linejoin="miter" stroke="rgb(0%, 0%, 0%)" stroke-opacity="1" stroke-miterlimit="2" d="M 78.088542 391.5 L 78.088542 396.5 " transform="matrix(0.75, 0, 0, 0.75, 0, 0)"/>
<path fill="none" stroke-width="1" stroke-linecap="butt" stroke-linejoin="miter" stroke="rgb(0%, 0%, 0%)" stroke-opacity="1" stroke-miterlimit="2" d="M 198.546875 391.5 L 198.546875 396.5 " transform="matrix(0.75, 0, 0, 0.75, 0, 0)"/>
<path fill="none" stroke-width="1" stroke-linecap="butt" stroke-linejoin="miter" stroke="rgb(0%, 0%, 0%)" stroke-opacity="1" stroke-miterlimit="2" d="M 319 391.5 L 319 396.5 " transform="matrix(0.75, 0, 0, 0.75, 0, 0)"/>
<path fill="none" stroke-width="1" stroke-linecap="butt" stroke-linejoin="miter" stroke="rgb(0%, 0%, 0%)" stroke-opacity="1" stroke-miterlimit="2" d="M 439.453125 391.5 L 439.453125 396.5 " transform="matrix(0.75, 0, 0, 0.75, 0, 0)"/>
<path fill="none" stroke-width="1" stroke-linecap="butt" stroke-linejoin="miter" stroke="rgb(0%, 0%, 0%)" stroke-opacity="1" stroke-miterlimit="2" d="M 559.911458 391.5 L 559.911458 396.5 " transform="matrix(0.75, 0, 0, 0.75, 0, 0)"/>
<path fill="none" stroke-width="1" stroke-linecap="butt" stroke-linejoin="miter" stroke="rgb(0%, 0%, 0%)" stroke-opacity="1" stroke-miterlimit="2" d="M 53.5 319.328125 L 48.5 319.328125 " transform="matrix(0.75, 0, 0, 0.75, 0, 0)"/>
<path fill="none" stroke-width="1" stroke-linecap="butt" stroke-linejoin="miter" stroke="rgb(0%, 0%, 0%)" stroke-opacity="1" stroke-miterlimit="2" d="M 53.5 203.739583 L 48.5 203.739583 " transform="matrix(0.75, 0, 0, 0.75, 0, 0)"/>
<path fill="none" stroke-width="1" stroke-linecap="butt" stroke-linejoin="miter" stroke="rgb(0%, 0%, 0%)" stroke-opacity="1" stroke-miterlimit="2" d="M 53.5 88.151042 L 48.5 88.151042 " transform="matrix(0.75, 0, 0, 0.75, 0, 0)"/>
<path fill="none" stroke-width="1" stroke-linecap="butt" stroke-linejoin="miter" stroke="rgb(0%, 0%, 0%)" stroke-opacity="1" stroke-miterlimit="2" d="M 53.5 391 L 584.5 391 " transform="matrix(0.75, 0, 0, 0.75, 0, 0)"/>
<path fill="none" stroke-width="1" stroke-linecap="butt" stroke-linejoin="miter" stroke="rgb(0%, 0%, 0%)" stroke-opacity="1" stroke-miterlimit="2" d="M 54 391.5 L 54 15.5 " transform="matrix(0.75, 0, 0, 0.75, 0, 0)"/>
<path fill="none" stroke-width="1" stroke-linecap="butt" stroke-linejoin="miter" stroke="rgb(0%, 0%, 0%)" stroke-opacity="1" stroke-miterlimit="2" d="M 53.5 16 L 584.5 16 " transform="matrix(0.75, 0, 0, 0.75, 0, 0)"/>
<path fill="none" stroke-width="1" stroke-linecap="butt" stroke-linejoin="miter" stroke="rgb(0%, 0%, 0%)" stroke-opacity="1" stroke-miterlimit="2" d="M 584 391.5 L 584 15.5 " transform="matrix(0.75, 0, 0, 0.75, 0, 0)"/>
</svg>
