<?xml version="1.0" encoding="UTF-8"?>
<svg xmlns="http://www.w3.org/2000/svg" xmlns:xlink="http://www.w3.org/1999/xlink" width="450" height="338" viewBox="0 0 450 338">
<defs>
<g>
<g id="glyph-0-0-44f391f1">
<path d="M 5.109375 0 C 5.109375 0 4.234375 0 4.234375 0 C 4.234375 0 4.234375 -3.8125 4.234375 -3.8125 C 4.234375 -4.46875 3.796875 -4.890625 3.109375 -4.890625 C 2.21875 -4.890625 1.609375 -4.15625 1.609375 -3.03125 C 1.609375 -3.03125 1.609375 0 1.609375 0 C 1.609375 0 0.734375 0 0.734375 0 C 0.734375 0 0.734375 -5.5 0.734375 -5.5 C 0.734375 -5.5 1.546875 -5.5 1.546875 -5.5 C 1.546875 -5.5 1.546875 -4.578125 1.546875 -4.578125 C 2.03125 -5.34375 2.546875 -5.65625 3.375 -5.65625 C 4.4375 -5.65625 5.109375 -5.078125 5.109375 -4.15625 C 5.109375 -4.15625 5.109375 0 5.109375 0 Z M 5.109375 0 "/>
</g>
<g id="glyph-0-1-44f391f1">
<path d="M 5.390625 -2.5 C 5.390625 -2.5 1.328125 -2.5 1.328125 -2.5 C 1.359375 -1.234375 2.03125 -0.65625 2.953125 -0.65625 C 3.65625 -0.65625 4.140625 -0.9375 4.390625 -1.671875 C 4.390625 -1.671875 5.265625 -1.671875 5.265625 -1.671875 C 5.046875 -0.5625 4.171875 0.15625 2.921875 0.15625 C 1.375 0.15625 0.421875 -0.90625 0.421875 -2.71875 C 0.421875 -4.53125 1.40625 -5.65625 2.9375 -5.65625 C 3.96875 -5.65625 4.8125 -5.109375 5.171875 -4.203125 C 5.328125 -3.796875 5.390625 -3.296875 5.390625 -2.5 Z M 4.453125 -3.28125 C 4.453125 -4.140625 3.796875 -4.84375 2.921875 -4.84375 C 2.046875 -4.84375 1.421875 -4.1875 1.359375 -3.21875 C 1.359375 -3.21875 4.4375 -3.21875 4.4375 -3.21875 C 4.453125 -3.234375 4.453125 -3.28125 4.453125 -3.28125 Z M 4.453125 -3.28125 "/>
</g>
<g id="glyph-0-2-44f391f1">
<path d="M 1.609375 0 C 1.609375 0 0.734375 0 0.734375 0 C 0.734375 0 0.734375 -5.5 0.734375 -5.5 C 0.734375 -5.5 1.609375 -5.5 1.609375 -5.5 C 1.609375 -5.5 1.609375 0 1.609375 0 Z M 1.71875 -6.328125 C 1.71875 -6.328125 0.625 -6.328125 0.625 -6.328125 C 0.625 -6.328125 0.625 -7.421875 0.625 -7.421875 C 0.625 -7.421875 1.71875 -7.421875 1.71875 -7.421875 C 1.71875 -7.421875 1.71875 -6.328125 1.71875 -6.328125 Z M 1.71875 -6.328125 "/>
</g>
<g id="glyph-0-3-44f391f1">
<path d="M 5.015625 -1.890625 C 4.90625 -0.625 4.078125 0.15625 2.765625 0.15625 C 1.265625 0.15625 0.328125 -0.921875 0.328125 -2.703125 C 0.328125 -4.53125 1.296875 -5.65625 2.765625 -5.65625 C 4 -5.65625 4.84375 -5 4.953125 -3.65625 C 4.953125 -3.65625 4.0625 -3.65625 4.0625 -3.65625 C 3.953125 -4.421875 3.5 -4.84375 2.765625 -4.84375 C 1.8125 -4.84375 1.234375 -4.078125 1.234375 -2.703125 C 1.234375 -1.390625 1.8125 -0.65625 2.78125 -0.65625 C 3.53125 -0.65625 3.984375 -1.015625 4.125 -1.890625 C 4.125 -1.890625 5.015625 -1.890625 5.015625 -1.890625 Z M 5.015625 -1.890625 "/>
</g>
<g id="glyph-0-4-44f391f1">
<path d="M 6.546875 -2.1875 C 6.546875 -0.921875 5.65625 0 4.28125 0 C 4.28125 0 0.828125 0 0.828125 0 C 0.828125 0 0.828125 -7.65625 0.828125 -7.65625 C 0.828125 -7.65625 3.9375 -7.65625 3.9375 -7.65625 C 5.390625 -7.65625 6.203125 -6.828125 6.203125 -5.71875 C 6.203125 -4.9375 5.84375 -4.375 5.140625 -4.046875 C 6.125 -3.671875 6.546875 -3.109375 6.546875 -2.1875 Z M 5.234375 -5.578125 C 5.234375 -6.359375 4.78125 -6.796875 3.703125 -6.796875 C 3.703125 -6.796875 1.8125 -6.796875 1.8125 -6.796875 C 1.8125 -6.796875 1.8125 -4.359375 1.8125 -4.359375 C 1.8125 -4.359375 3.703125 -4.359375 3.703125 -4.359375 C 4.78125 -4.359375 5.234375 -4.796875 5.234375 -5.578125 Z M 5.5625 -2.171875 C 5.5625 -2.921875 5.109375 -3.5 4.1875 -3.5 C 4.1875 -3.5 1.8125 -3.5 1.8125 -3.5 C 1.8125 -3.5 1.8125 -0.859375 1.8125 -0.859375 C 1.8125 -0.859375 4.1875 -0.859375 4.1875 -0.859375 C 5.109375 -0.859375 5.5625 -1.4375 5.5625 -2.171875 Z M 5.5625 -2.171875 "/>
</g>
<g id="glyph-0-5-44f391f1">
<path d="M 5.359375 -2.703125 C 5.359375 -0.90625 4.40625 0.15625 2.859375 0.15625 C 1.296875 0.15625 0.375 -0.90625 0.375 -2.75 C 0.375 -4.59375 1.3125 -5.65625 2.859375 -5.65625 C 4.4375 -5.65625 5.359375 -4.609375 5.359375 -2.703125 Z M 4.4375 -2.71875 C 4.4375 -4.078125 3.859375 -4.84375 2.859375 -4.84375 C 1.890625 -4.84375 1.296875 -4.078125 1.296875 -2.75 C 1.296875 -1.421875 1.890625 -0.65625 2.859375 -0.65625 C 3.828125 -0.65625 4.4375 -1.421875 4.4375 -2.71875 Z M 4.4375 -2.71875 "/>
</g>
<g id="glyph-0-6-44f391f1">
<path d="M 5.484375 -2.8125 C 5.484375 -1.03125 4.546875 0.15625 3.09375 0.15625 C 2.328125 0.15625 1.78125 -0.140625 1.359375 -0.78125 C 1.359375 -0.78125 1.359375 0 1.359375 0 C 1.359375 0 0.5625 0 0.5625 0 C 0.5625 0 0.5625 -7.65625 0.5625 -7.65625 C 0.5625 -7.65625 1.4375 -7.65625 1.4375 -7.65625 C 1.4375 -7.65625 1.4375 -4.75 1.4375 -4.75 C 1.84375 -5.375 2.390625 -5.65625 3.140625 -5.65625 C 4.59375 -5.65625 5.484375 -4.59375 5.484375 -2.8125 Z M 4.578125 -2.765625 C 4.578125 -3.984375 3.953125 -4.84375 2.96875 -4.84375 C 2.046875 -4.875 1.4375 -4.046875 1.4375 -2.75 C 1.4375 -1.5 2.046875 -0.65625 2.96875 -0.65625 C 3.921875 -0.65625 4.578125 -1.515625 4.578125 -2.765625 Z M 4.578125 -2.765625 "/>
</g>
<g id="glyph-0-7-44f391f1">
<path d="M 1.578125 0 C 1.578125 0 0.71875 0 0.71875 0 C 0.71875 0 0.71875 -7.65625 0.71875 -7.65625 C 0.71875 -7.65625 1.578125 -7.65625 1.578125 -7.65625 C 1.578125 -7.65625 1.578125 0 1.578125 0 Z M 1.578125 0 "/>
</g>
<g id="glyph-0-8-44f391f1">
<path d="M 5.015625 -5.5 C 5.015625 -5.5 2.578125 1.15625 2.578125 1.15625 C 2.28125 1.9375 1.78125 2.28125 1.15625 2.28125 C 0.921875 2.28125 0.75 2.25 0.5625 2.15625 C 0.5625 2.15625 0.5625 1.359375 0.5625 1.359375 C 0.75 1.40625 0.90625 1.421875 1.03125 1.421875 C 1.40625 1.421875 1.578125 1.28125 1.734375 0.890625 C 1.734375 0.890625 2.0625 0.015625 2.0625 0.015625 C 2.0625 0.015625 0.203125 -5.5 0.203125 -5.5 C 0.203125 -5.5 1.140625 -5.5 1.140625 -5.5 C 1.140625 -5.5 2.546875 -1.21875 2.546875 -1.21875 C 2.546875 -1.21875 4.078125 -5.5 4.078125 -5.5 C 4.078125 -5.5 5.015625 -5.5 5.015625 -5.5 Z M 5.015625 -5.5 "/>
</g>
<g id="glyph-1-0-44f391f1">
<path d="M 5.625 -0.015625 C 5.328125 0.046875 5.203125 0.078125 5.015625 0.078125 C 4.59375 0.078125 4.203125 -0.234375 4.109375 -0.65625 C 3.640625 -0.140625 2.953125 0.15625 2.25 0.15625 C 1.140625 0.15625 0.4375 -0.4375 0.4375 -1.421875 C 0.4375 -2.09375 0.765625 -2.59375 1.40625 -2.859375 C 1.75 -3 1.9375 -3.03125 3.171875 -3.1875 C 3.859375 -3.28125 4.078125 -3.4375 4.078125 -3.796875 C 4.078125 -3.796875 4.078125 -4.03125 4.078125 -4.03125 C 4.078125 -4.5625 3.640625 -4.84375 2.859375 -4.84375 C 2.03125 -4.84375 1.640625 -4.546875 1.5625 -3.875 C 1.5625 -3.875 0.6875 -3.875 0.6875 -3.875 C 0.734375 -5.140625 1.546875 -5.65625 2.890625 -5.65625 C 4.234375 -5.65625 4.953125 -5.140625 4.953125 -4.15625 C 4.953125 -4.15625 4.953125 -1.09375 4.953125 -1.09375 C 4.953125 -0.8125 5.125 -0.65625 5.421875 -0.65625 C 5.484375 -0.65625 5.515625 -0.65625 5.625 -0.6875 C 5.625 -0.6875 5.625 -0.015625 5.625 -0.015625 Z M 4.078125 -1.90625 C 4.078125 -1.90625 4.078125 -2.71875 4.078125 -2.71875 C 3.796875 -2.578125 3.59375 -2.546875 2.671875 -2.421875 C 1.75 -2.28125 1.359375 -2.03125 1.359375 -1.453125 C 1.359375 -0.84375 1.75 -0.609375 2.4375 -0.609375 C 3.28125 -0.609375 4.078125 -1.109375 4.078125 -1.90625 Z M 4.078125 -1.90625 "/>
</g>
<g id="glyph-1-1-44f391f1">
<path d="M 5.265625 0 C 5.265625 0 4.1875 0 4.1875 0 C 4.1875 0 2.328125 -2.984375 2.328125 -2.984375 C 2.328125 -2.984375 1.484375 -2.140625 1.484375 -2.140625 C 1.484375 -2.140625 1.484375 0 1.484375 0 C 1.484375 0 0.609375 0 0.609375 0 C 0.609375 0 0.609375 -7.65625 0.609375 -7.65625 C 0.609375 -7.65625 1.484375 -7.65625 1.484375 -7.65625 C 1.484375 -7.65625 1.484375 -3.171875 1.484375 -3.171875 C 1.484375 -3.171875 3.8125 -5.5 3.8125 -5.5 C 3.8125 -5.5 4.9375 -5.5 4.9375 -5.5 C 4.9375 -5.5 3.03125 -3.59375 3.03125 -3.59375 C 3.03125 -3.59375 5.265625 0 5.265625 0 Z M 5.265625 0 "/>
</g>
<g id="glyph-2-0-44f391f1">
<path d="M 7.984375 0 C 7.984375 0 7.109375 0 7.109375 0 C 7.109375 0 7.109375 -3.796875 7.109375 -3.796875 C 7.109375 -4.484375 6.734375 -4.890625 6.09375 -4.890625 C 5.390625 -4.890625 4.796875 -4.25 4.796875 -3.453125 C 4.796875 -3.453125 4.796875 0 4.796875 0 C 4.796875 0 3.921875 0 3.921875 0 C 3.921875 0 3.921875 -3.796875 3.921875 -3.796875 C 3.921875 -4.5 3.5625 -4.890625 2.90625 -4.890625 C 2.1875 -4.890625 1.609375 -4.25 1.609375 -3.453125 C 1.609375 -3.453125 1.609375 0 1.609375 0 C 1.609375 0 0.75 0 0.75 0 C 0.75 0 0.75 -5.5 0.75 -5.5 C 0.75 -5.5 1.546875 -5.5 1.546875 -5.5 C 1.546875 -5.5 1.546875 -4.71875 1.546875 -4.71875 C 2.015625 -5.390625 2.5 -5.65625 3.234375 -5.65625 C 3.953125 -5.65625 4.390625 -5.40625 4.71875 -4.8125 C 5.234375 -5.4375 5.671875 -5.65625 6.40625 -5.65625 C 7.4375 -5.65625 7.984375 -5.109375 7.984375 -4.125 C 7.984375 -4.125 7.984375 0 7.984375 0 Z M 7.984375 0 "/>
</g>
<g id="glyph-2-1-44f391f1">
<path d="M 6.765625 0 C 6.765625 0 5.78125 0 5.78125 0 C 5.78125 0 5.78125 -3.484375 5.78125 -3.484375 C 5.78125 -3.484375 1.84375 -3.484375 1.84375 -3.484375 C 1.84375 -3.484375 1.84375 0 1.84375 0 C 1.84375 0 0.875 0 0.875 0 C 0.875 0 0.875 -7.65625 0.875 -7.65625 C 0.875 -7.65625 1.84375 -7.65625 1.84375 -7.65625 C 1.84375 -7.65625 1.84375 -4.34375 1.84375 -4.34375 C 1.84375 -4.34375 5.78125 -4.34375 5.78125 -4.34375 C 5.78125 -4.34375 5.78125 -7.65625 5.78125 -7.65625 C 5.78125 -7.65625 6.765625 -7.65625 6.765625 -7.65625 C 6.765625 -7.65625 6.765625 0 6.765625 0 Z M 6.765625 0 "/>
</g>
<g id="glyph-2-2-44f391f1">
<path d="M 5.625 -0.015625 C 5.328125 0.046875 5.203125 0.078125 5.015625 0.078125 C 4.59375 0.078125 4.203125 -0.234375 4.109375 -0.65625 C 3.640625 -0.140625 2.953125 0.15625 2.25 0.15625 C 1.140625 0.15625 0.4375 -0.4375 0.4375 -1.421875 C 0.4375 -2.09375 0.765625 -2.59375 1.40625 -2.859375 C 1.75 -3 1.9375 -3.03125 3.171875 -3.1875 C 3.859375 -3.28125 4.078125 -3.4375 4.078125 -3.796875 C 4.078125 -3.796875 4.078125 -4.03125 4.078125 -4.03125 C 4.078125 -4.5625 3.640625 -4.84375 2.859375 -4.84375 C 2.03125 -4.84375 1.640625 -4.546875 1.5625 -3.875 C 1.5625 -3.875 0.6875 -3.875 0.6875 -3.875 C 0.734375 -5.140625 1.546875 -5.65625 2.890625 -5.65625 C 4.234375 -5.65625 4.953125 -5.140625 4.953125 -4.15625 C 4.953125 -4.15625 4.953125 -1.09375 4.953125 -1.09375 C 4.953125 -0.8125 5.125 -0.65625 5.421875 -0.65625 C 5.484375 -0.65625 5.515625 -0.65625 5.625 -0.6875 C 5.625 -0.6875 5.625 -0.015625 5.625 -0.015625 Z M 4.078125 -1.90625 C 4.078125 -1.90625 4.078125 -2.71875 4.078125 -2.71875 C 3.796875 -2.578125 3.59375 -2.546875 2.671875 -2.421875 C 1.75 -2.28125 1.359375 -2.03125 1.359375 -1.453125 C 1.359375 -0.84375 1.75 -0.609375 2.4375 -0.609375 C 3.28125 -0.609375 4.078125 -1.109375 4.078125 -1.90625 Z M 4.078125 -1.90625 "/>
</g>
<g id="glyph-2-3-44f391f1">
<path d="M 6.515625 -2.09375 C 6.515625 -0.734375 5.46875 0.1875 3.53125 0.1875 C 1.71875 0.1875 0.5 -0.6875 0.5 -2.484375 C 0.5 -2.484375 1.421875 -2.484375 1.421875 -2.484375 C 1.421875 -1.390625 2.140625 -0.671875 3.59375 -0.671875 C 4.90625 -0.671875 5.546875 -1.171875 5.546875 -2 C 5.546875 -2.609375 5.109375 -3 4.140625 -3.25 C 4.140625 -3.25 2.234375 -3.75 2.234375 -3.75 C 1.234375 -4.015625 0.734375 -4.59375 0.734375 -5.53125 C 0.734375 -6.921875 1.78125 -7.84375 3.453125 -7.84375 C 5.21875 -7.84375 6.265625 -6.96875 6.265625 -5.46875 C 6.265625 -5.46875 5.328125 -5.46875 5.328125 -5.46875 C 5.328125 -6.46875 4.640625 -7.03125 3.421875 -7.03125 C 2.390625 -7.03125 1.71875 -6.453125 1.71875 -5.671875 C 1.71875 -5.078125 2.046875 -4.78125 2.96875 -4.53125 C 2.96875 -4.53125 4.890625 -4.015625 4.890625 -4.015625 C 5.9375 -3.734375 6.515625 -3.046875 6.515625 -2.09375 Z M 6.515625 -2.09375 "/>
</g>
<g id="glyph-3-0-44f391f1">
<path d="M 6.859375 0 C 6.859375 0 5.765625 0 5.765625 0 C 5.765625 0 4.984375 -2.296875 4.984375 -2.296875 C 4.984375 -2.296875 2.03125 -2.296875 2.03125 -2.296875 C 2.03125 -2.296875 1.21875 0 1.21875 0 C 1.21875 0 0.171875 0 0.171875 0 C 0.171875 0 2.90625 -7.65625 2.90625 -7.65625 C 2.90625 -7.65625 4.171875 -7.65625 4.171875 -7.65625 C 4.171875 -7.65625 6.859375 0 6.859375 0 Z M 4.703125 -3.125 C 4.703125 -3.125 3.53125 -6.609375 3.53125 -6.609375 C 3.53125 -6.609375 2.265625 -3.125 2.265625 -3.125 C 2.265625 -3.125 4.703125 -3.125 4.703125 -3.125 Z M 4.703125 -3.125 "/>
</g>
<g id="glyph-4-0-44f391f1">
<path d="M 1.578125 0 C 1.578125 0 0.71875 0 0.71875 0 C 0.71875 0 0.71875 -7.65625 0.71875 -7.65625 C 0.71875 -7.65625 1.578125 -7.65625 1.578125 -7.65625 C 1.578125 -7.65625 1.578125 0 1.578125 0 Z M 1.578125 0 "/>
</g>
<g id="glyph-4-1-44f391f1">
<path d="M 5.390625 -2.5 C 5.390625 -2.5 1.328125 -2.5 1.328125 -2.5 C 1.359375 -1.234375 2.03125 -0.65625 2.953125 -0.65625 C 3.65625 -0.65625 4.140625 -0.9375 4.390625 -1.671875 C 4.390625 -1.671875 5.265625 -1.671875 5.265625 -1.671875 C 5.046875 -0.5625 4.171875 0.15625 2.921875 0.15625 C 1.375 0.15625 0.421875 -0.90625 0.421875 -2.71875 C 0.421875 -4.53125 1.40625 -5.65625 2.9375 -5.65625 C 3.96875 -5.65625 4.8125 -5.109375 5.171875 -4.203125 C 5.328125 -3.796875 5.390625 -3.296875 5.390625 -2.5 Z M 4.453125 -3.28125 C 4.453125 -4.140625 3.796875 -4.84375 2.921875 -4.84375 C 2.046875 -4.84375 1.421875 -4.1875 1.359375 -3.21875 C 1.359375 -3.21875 4.4375 -3.21875 4.4375 -3.21875 C 4.453125 -3.234375 4.453125 -3.28125 4.453125 -3.28125 Z M 4.453125 -3.28125 "/>
</g>
<g id="glyph-5-0-44f391f1">
<path d="M 1.578125 0 C 1.578125 0 0.71875 0 0.71875 0 C 0.71875 0 0.71875 -7.65625 0.71875 -7.65625 C 0.71875 -7.65625 1.578125 -7.65625 1.578125 -7.65625 C 1.578125 -7.65625 1.578125 0 1.578125 0 Z M 1.578125 0 "/>
</g>
<g id="glyph-6-0-44f391f1">
<path d="M -1.890625 -5.015625 C -0.625 -4.90625 0.15625 -4.078125 0.15625 -2.765625 C 0.15625 -1.265625 -0.921875 -0.328125 -2.703125 -0.328125 C -4.53125 -0.328125 -5.65625 -1.296875 -5.65625 -2.765625 C -5.65625 -4 -5 -4.84375 -3.65625 -4.953125 C -3.65625 -4.953125 -3.65625 -4.0625 -3.65625 -4.0625 C -4.421875 -3.953125 -4.84375 -3.5 -4.84375 -2.765625 C -4.84375 -1.8125 -4.078125 -1.234375 -2.703125 -1.234375 C -1.390625 -1.234375 -0.65625 -1.8125 -0.65625 -2.78125 C -0.65625 -3.53125 -1.015625 -3.984375 -1.890625 -4.125 C -1.890625 -4.125 -1.890625 -5.015625 -1.890625 -5.015625 Z M -1.890625 -5.015625 "/>
</g>
<g id="glyph-6-1-44f391f1">
<path d="M 0 -5.0625 C 0 -5.0625 0 -4.28125 0 -4.28125 C 0 -4.28125 -0.84375 -4.28125 -0.84375 -4.28125 C -0.125 -3.765625 0.15625 -3.25 0.15625 -2.4375 C 0.15625 -1.359375 -0.4375 -0.6875 -1.34375 -0.6875 C -1.34375 -0.6875 -5.5 -0.6875 -5.5 -0.6875 C -5.5 -0.6875 -5.5 -1.546875 -5.5 -1.546875 C -5.5 -1.546875 -1.6875 -1.546875 -1.6875 -1.546875 C -1.03125 -1.546875 -0.609375 -2 -0.609375 -2.6875 C -0.609375 -3.59375 -1.34375 -4.1875 -2.46875 -4.1875 C -2.46875 -4.1875 -5.5 -4.1875 -5.5 -4.1875 C -5.5 -4.1875 -5.5 -5.0625 -5.5 -5.0625 C -5.5 -5.0625 0 -5.0625 0 -5.0625 Z M 0 -5.0625 "/>
</g>
<g id="glyph-6-2-44f391f1">
<path d="M 0 -2.671875 C 0.046875 -2.375 0.078125 -2.15625 0.078125 -1.953125 C 0.078125 -1.265625 -0.234375 -0.890625 -0.796875 -0.890625 C -0.796875 -0.890625 -4.78125 -0.890625 -4.78125 -0.890625 C -4.78125 -0.890625 -4.78125 -0.140625 -4.78125 -0.140625 C -4.78125 -0.140625 -5.5 -0.140625 -5.5 -0.140625 C -5.5 -0.140625 -5.5 -0.890625 -5.5 -0.890625 C -5.5 -0.890625 -7.015625 -0.890625 -7.015625 -0.890625 C -7.015625 -0.890625 -7.015625 -1.765625 -7.015625 -1.765625 C -7.015625 -1.765625 -5.5 -1.765625 -5.5 -1.765625 C -5.5 -1.765625 -5.5 -2.671875 -5.5 -2.671875 C -5.5 -2.671875 -4.78125 -2.671875 -4.78125 -2.671875 C -4.78125 -2.671875 -4.78125 -1.765625 -4.78125 -1.765625 C -4.78125 -1.765625 -1.1875 -1.765625 -1.1875 -1.765625 C -0.796875 -1.765625 -0.6875 -1.875 -0.6875 -2.25 C -0.6875 -2.421875 -0.703125 -2.546875 -0.734375 -2.671875 C -0.734375 -2.671875 0 -2.671875 0 -2.671875 Z M 0 -2.671875 "/>
</g>
<g id="glyph-7-0-44f391f1">
<path d="M -2.703125 -5.359375 C -0.90625 -5.359375 0.15625 -4.40625 0.15625 -2.859375 C 0.15625 -1.296875 -0.90625 -0.375 -2.75 -0.375 C -4.59375 -0.375 -5.65625 -1.3125 -5.65625 -2.859375 C -5.65625 -4.4375 -4.609375 -5.359375 -2.703125 -5.359375 Z M -2.71875 -4.4375 C -4.078125 -4.4375 -4.84375 -3.859375 -4.84375 -2.859375 C -4.84375 -1.890625 -4.078125 -1.296875 -2.75 -1.296875 C -1.421875 -1.296875 -0.65625 -1.890625 -0.65625 -2.859375 C -0.65625 -3.828125 -1.421875 -4.4375 -2.71875 -4.4375 Z M -2.71875 -4.4375 "/>
</g>
<g id="glyph-8-0-44f391f1">
<path d="M 0 -5.109375 C 0 -5.109375 0 -4.234375 0 -4.234375 C 0 -4.234375 -3.8125 -4.234375 -3.8125 -4.234375 C -4.46875 -4.234375 -4.890625 -3.796875 -4.890625 -3.109375 C -4.890625 -2.21875 -4.15625 -1.609375 -3.03125 -1.609375 C -3.03125 -1.609375 0 -1.609375 0 -1.609375 C 0 -1.609375 0 -0.734375 0 -0.734375 C 0 -0.734375 -5.5 -0.734375 -5.5 -0.734375 C -5.5 -0.734375 -5.5 -1.546875 -5.5 -1.546875 C -5.5 -1.546875 -4.578125 -1.546875 -4.578125 -1.546875 C -5.34375 -2.03125 -5.65625 -2.546875 -5.65625 -3.375 C -5.65625 -4.4375 -5.078125 -5.109375 -4.15625 -5.109375 C -4.15625 -5.109375 0 -5.109375 0 -5.109375 Z M 0 -5.109375 "/>
</g>
<g id="glyph-9-0-44f391f1">
<path d="M 5.328125 -3.578125 C 5.328125 -1.140625 4.46875 0.15625 2.890625 0.15625 C 1.296875 0.15625 0.453125 -1.140625 0.453125 -3.640625 C 0.453125 -6.140625 1.28125 -7.4375 2.890625 -7.4375 C 4.5 -7.4375 5.328125 -6.15625 5.328125 -3.578125 Z M 4.375 -3.671875 C 4.375 -5.65625 3.890625 -6.625 2.890625 -6.625 C 1.890625 -6.625 1.390625 -5.671875 1.390625 -3.640625 C 1.390625 -1.59375 1.890625 -0.609375 2.859375 -0.609375 C 3.890625 -0.609375 4.375 -1.546875 4.375 -3.671875 Z M 4.375 -3.671875 "/>
</g>
<g id="glyph-9-1-44f391f1">
<path d="M 2 0 C 2 0 0.90625 0 0.90625 0 C 0.90625 0 0.90625 -1.09375 0.90625 -1.09375 C 0.90625 -1.09375 2 -1.09375 2 -1.09375 C 2 -1.09375 2 0 2 0 Z M 2 0 "/>
</g>
<g id="glyph-9-2-44f391f1">
<path d="M 3.640625 0 C 3.640625 0 2.71875 0 2.71875 0 C 2.71875 0 2.71875 -5.296875 2.71875 -5.296875 C 2.71875 -5.296875 1.078125 -5.296875 1.078125 -5.296875 C 1.078125 -5.296875 1.078125 -5.96875 1.078125 -5.96875 C 2.5 -6.140625 2.703125 -6.296875 3.03125 -7.4375 C 3.03125 -7.4375 3.640625 -7.4375 3.640625 -7.4375 C 3.640625 -7.4375 3.640625 0 3.640625 0 Z M 3.640625 0 "/>
</g>
<g id="glyph-10-0-44f391f1">
<path d="M 5.328125 -3.578125 C 5.328125 -1.140625 4.46875 0.15625 2.890625 0.15625 C 1.296875 0.15625 0.453125 -1.140625 0.453125 -3.640625 C 0.453125 -6.140625 1.28125 -7.4375 2.890625 -7.4375 C 4.5 -7.4375 5.328125 -6.15625 5.328125 -3.578125 Z M 4.375 -3.671875 C 4.375 -5.65625 3.890625 -6.625 2.890625 -6.625 C 1.890625 -6.625 1.390625 -5.671875 1.390625 -3.640625 C 1.390625 -1.59375 1.890625 -0.609375 2.859375 -0.609375 C 3.890625 -0.609375 4.375 -1.546875 4.375 -3.671875 Z M 4.375 -3.671875 "/>
</g>
<g id="glyph-10-1-44f391f1">
<path d="M 5.390625 -2.46875 C 5.390625 -0.890625 4.34375 0.15625 2.828125 0.15625 C 1.515625 0.15625 0.671875 -0.4375 0.375 -1.90625 C 0.375 -1.90625 1.296875 -1.90625 1.296875 -1.90625 C 1.515625 -1.078125 2 -0.65625 2.8125 -0.65625 C 3.828125 -0.65625 4.4375 -1.265625 4.4375 -2.34375 C 4.4375 -3.4375 3.8125 -4.078125 2.8125 -4.078125 C 2.234375 -4.078125 1.875 -3.90625 1.453125 -3.390625 C 1.453125 -3.390625 0.59375 -3.390625 0.59375 -3.390625 C 0.59375 -3.390625 1.15625 -7.28125 1.15625 -7.28125 C 1.15625 -7.28125 5 -7.28125 5 -7.28125 C 5 -7.28125 5 -6.375 5 -6.375 C 5 -6.375 1.90625 -6.375 1.90625 -6.375 C 1.90625 -6.375 1.609375 -4.453125 1.609375 -4.453125 C 2.03125 -4.765625 2.453125 -4.90625 2.984375 -4.90625 C 4.40625 -4.90625 5.390625 -3.9375 5.390625 -2.46875 Z M 5.390625 -2.46875 "/>
</g>
<g id="glyph-11-0-44f391f1">
<path d="M 3.640625 0 C 3.640625 0 2.71875 0 2.71875 0 C 2.71875 0 2.71875 -5.296875 2.71875 -5.296875 C 2.71875 -5.296875 1.078125 -5.296875 1.078125 -5.296875 C 1.078125 -5.296875 1.078125 -5.96875 1.078125 -5.96875 C 2.5 -6.140625 2.703125 -6.296875 3.03125 -7.4375 C 3.03125 -7.4375 3.640625 -7.4375 3.640625 -7.4375 C 3.640625 -7.4375 3.640625 0 3.640625 0 Z M 3.640625 0 "/>
</g>
<g id="glyph-11-1-44f391f1">
<path d="M 2 0 C 2 0 0.90625 0 0.90625 0 C 0.90625 0 0.90625 -1.09375 0.90625 -1.09375 C 0.90625 -1.09375 2 -1.09375 2 -1.09375 C 2 -1.09375 2 0 2 0 Z M 2 0 "/>
</g>
<g id="glyph-12-0-44f391f1">
<path d="M 5.328125 -3.578125 C 5.328125 -1.140625 4.46875 0.15625 2.890625 0.15625 C 1.296875 0.15625 0.453125 -1.140625 0.453125 -3.640625 C 0.453125 -6.140625 1.28125 -7.4375 2.890625 -7.4375 C 4.5 -7.4375 5.328125 -6.15625 5.328125 -3.578125 Z M 4.375 -3.671875 C 4.375 -5.65625 3.890625 -6.625 2.890625 -6.625 C 1.890625 -6.625 1.390625 -5.671875 1.390625 -3.640625 C 1.390625 -1.59375 1.890625 -0.609375 2.859375 -0.609375 C 3.890625 -0.609375 4.375 -1.546875 4.375 -3.671875 Z M 4.375 -3.671875 "/>
</g>
<g id="glyph-13-0-44f391f1">
<path d="M 5.359375 -5.265625 C 5.359375 -4.34375 4.828125 -3.5625 3.796875 -3.015625 C 3.796875 -3.015625 2.734375 -2.453125 2.734375 -2.453125 C 1.828125 -1.90625 1.484375 -1.515625 1.390625 -0.90625 C 1.390625 -0.90625 5.3125 -0.90625 5.3125 -0.90625 C 5.3125 -0.90625 5.3125 0 5.3125 0 C 5.3125 0 0.359375 0 0.359375 0 C 0.4375 -1.640625 0.890625 -2.34375 2.453125 -3.21875 C 2.453125 -3.21875 3.40625 -3.765625 3.40625 -3.765625 C 4.078125 -4.140625 4.421875 -4.65625 4.421875 -5.234375 C 4.421875 -6.03125 3.796875 -6.640625 2.953125 -6.640625 C 2.03125 -6.640625 1.515625 -6.109375 1.453125 -4.859375 C 1.453125 -4.859375 0.53125 -4.859375 0.53125 -4.859375 C 0.578125 -6.671875 1.453125 -7.4375 2.984375 -7.4375 C 4.390625 -7.4375 5.359375 -6.515625 5.359375 -5.265625 Z M 5.359375 -5.265625 "/>
</g>
<g id="glyph-13-1-44f391f1">
<path d="M 2 0 C 2 0 0.90625 0 0.90625 0 C 0.90625 0 0.90625 -1.09375 0.90625 -1.09375 C 0.90625 -1.09375 2 -1.09375 2 -1.09375 C 2 -1.09375 2 0 2 0 Z M 2 0 "/>
</g>
<g id="glyph-14-0-44f391f1">
<path d="M 5.328125 -3.578125 C 5.328125 -1.140625 4.46875 0.15625 2.890625 0.15625 C 1.296875 0.15625 0.453125 -1.140625 0.453125 -3.640625 C 0.453125 -6.140625 1.28125 -7.4375 2.890625 -7.4375 C 4.5 -7.4375 5.328125 -6.15625 5.328125 -3.578125 Z M 4.375 -3.671875 C 4.375 -5.65625 3.890625 -6.625 2.890625 -6.625 C 1.890625 -6.625 1.390625 -5.671875 1.390625 -3.640625 C 1.390625 -1.59375 1.890625 -0.609375 2.859375 -0.609375 C 3.890625 -0.609375 4.375 -1.546875 4.375 -3.671875 Z M 4.375 -3.671875 "/>
</g>
</g>
</defs>
<path fill-rule="nonzero" fill="rgb(100%, 100%, 100%)" fill-opacity="1" d="M 0 0 L 450 0 L 450 337.5 L 0 337.5 Z M 0 0 "/>
<path fill-rule="nonzero" fill="rgb(100%, 100%, 100%)" fill-opacity="1" d="M 49.5 293.25 L 438 293.25 L 438 12 L 49.5 12 Z M 49.5 293.25 "/>
<path fill="none" stroke-width="1" stroke-linecap="butt" stroke-linejoin="miter" stroke="rgb(0%, 0%, 0%)" stroke-opacity="0.12" stroke-miterlimit="2" d="M 139.114583 391 L 139.114583 16 " transform="matrix(0.75, 0, 0, 0.75, 0, 0)"/>
<path fill="none" stroke-width="1" stroke-linecap="butt" stroke-linejoin="miter" stroke="rgb(0%, 0%, 0%)" stroke-opacity="0.12" stroke-miterlimit="2" d="M 263.036458 391 L 263.036458 16 " transform="matrix(0.75, 0, 0, 0.75, 0, 0)"/>
<path fill="none" stroke-width="1" stroke-linecap="butt" stroke-linejoin="miter" stroke="rgb(0%, 0%, 0%)" stroke-opacity="0.12" stroke-miterlimit="2" d="M 386.963542 391 L 386.963542 16 " transform="matrix(0.75, 0, 0, 0.75, 0, 0)"/>
<path fill="none" stroke-width="1" stroke-linecap="butt" stroke-linejoin="miter" stroke="rgb(0%, 0%, 0%)" stroke-opacity="0.12" stroke-miterlimit="2" d="M 510.885417 391 L 510.885417 16 " transform="matrix(0.75, 0, 0, 0.75, 0, 0)"/>
<path fill="none" stroke-width="1" stroke-linecap="butt" stroke-linejoin="miter" stroke="rgb(0%, 0%, 0%)" stroke-opacity="0.12" stroke-miterlimit="2" d="M 66 373.953125 L 584 373.953125 " transform="matrix(0.75, 0, 0, 0.75, 0, 0)"/>
<path fill="none" stroke-width="1" stroke-linecap="butt" stroke-linejoin="miter" stroke="rgb(0%, 0%, 0%)" stroke-opacity="0.12" stroke-miterlimit="2" d="M 66 288.729167 L 584 288.729167 " transform="matrix(0.75, 0, 0, 0.75, 0, 0)"/>
<path fill="none" stroke-width="1" stroke-linecap="butt" stroke-linejoin="miter" stroke="rgb(0%, 0%, 0%)" stroke-opacity="0.12" stroke-miterlimit="2" d="M 66 203.5 L 584 203.5 " transform="matrix(0.75, 0, 0, 0.75, 0, 0)"/>
<path fill="none" stroke-width="1" stroke-linecap="butt" stroke-linejoin="miter" stroke="rgb(0%, 0%, 0%)" stroke-opacity="0.12" stroke-miterlimit="2" d="M 66 118.270833 L 584 118.270833 " transform="matrix(0.75, 0, 0, 0.75, 0, 0)"/>
<path fill="none" stroke-width="1" stroke-linecap="butt" stroke-linejoin="miter" stroke="rgb(0%, 0%, 0%)" stroke-opacity="0.12" stroke-miterlimit="2" d="M 66 33.046875 L 584 33.046875 " transform="matrix(0.75, 0, 0, 0.75, 0, 0)"/>
<g fill="rgb(0%, 0%, 0%)" fill-opacity="1">
<use xlink:href="#glyph-0-0-44f391f1" x="230.619759" y="323.675995"/>
</g>
<g fill="rgb(0%, 0%, 0%)" fill-opacity="1">
<use xlink:href="#glyph-1-0-44f391f1" x="236.457756" y="323.675995"/>
</g>
<g fill="rgb(0%, 0%, 0%)" fill-opacity="1">
<use xlink:href="#glyph-2-0-44f391f1" x="242.295776" y="323.675995"/>
</g>
<g fill="rgb(0%, 0%, 0%)" fill-opacity="1">
<use xlink:href="#glyph-0-1-44f391f1" x="251.042244" y="323.675995"/>
</g>
<g fill="rgb(0%, 0%, 0%)" fill-opacity="1">
<use xlink:href="#glyph-3-0-44f391f1" x="92.959385" y="309.193497"/>
</g>
<g fill="rgb(0%, 0%, 0%)" fill-opacity="1">
<use xlink:href="#glyph-4-0-44f391f1" x="99.962883" y="309.193497"/>
</g>
<g fill="rgb(0%, 0%, 0%)" fill-opacity="1">
<use xlink:href="#glyph-0-2-44f391f1" x="102.293873" y="309.193497"/>
</g>
<g fill="rgb(0%, 0%, 0%)" fill-opacity="1">
<use xlink:href="#glyph-0-3-44f391f1" x="104.624874" y="309.193497"/>
</g>
<g fill="rgb(0%, 0%, 0%)" fill-opacity="1">
<use xlink:href="#glyph-4-1-44f391f1" x="109.874863" y="309.193497"/>
</g>
<g fill="rgb(0%, 0%, 0%)" fill-opacity="1">
<use xlink:href="#glyph-0-4-44f391f1" x="187.93895" y="309.193497"/>
</g>
<g fill="rgb(0%, 0%, 0%)" fill-opacity="1">
<use xlink:href="#glyph-0-5-44f391f1" x="194.942459" y="309.193497"/>
</g>
<g fill="rgb(0%, 0%, 0%)" fill-opacity="1">
<use xlink:href="#glyph-0-6-44f391f1" x="200.780457" y="309.193497"/>
</g>
<g fill="rgb(0%, 0%, 0%)" fill-opacity="1">
<use xlink:href="#glyph-2-1-44f391f1" x="277.967812" y="309.193497"/>
</g>
<g fill="rgb(0%, 0%, 0%)" fill-opacity="1">
<use xlink:href="#glyph-2-2-44f391f1" x="285.548813" y="309.193497"/>
</g>
<g fill="rgb(0%, 0%, 0%)" fill-opacity="1">
<use xlink:href="#glyph-0-0-44f391f1" x="291.386787" y="309.193497"/>
</g>
<g fill="rgb(0%, 0%, 0%)" fill-opacity="1">
<use xlink:href="#glyph-1-1-44f391f1" x="297.224808" y="309.193497"/>
</g>
<g fill="rgb(0%, 0%, 0%)" fill-opacity="1">
<use xlink:href="#glyph-2-3-44f391f1" x="371.787117" y="309.193497"/>
</g>
<g fill="rgb(0%, 0%, 0%)" fill-opacity="1">
<use xlink:href="#glyph-2-2-44f391f1" x="378.790627" y="309.193497"/>
</g>
<g fill="rgb(0%, 0%, 0%)" fill-opacity="1">
<use xlink:href="#glyph-0-7-44f391f1" x="384.628601" y="309.193497"/>
</g>
<g fill="rgb(0%, 0%, 0%)" fill-opacity="1">
<use xlink:href="#glyph-5-0-44f391f1" x="386.959579" y="309.193497"/>
</g>
<g fill="rgb(0%, 0%, 0%)" fill-opacity="1">
<use xlink:href="#glyph-0-8-44f391f1" x="389.290604" y="309.193497"/>
</g>
<g fill="rgb(0%, 0%, 0%)" fill-opacity="1">
<use xlink:href="#glyph-6-0-44f391f1" x="21.366008" y="165.466496"/>
</g>
<g fill="rgb(0%, 0%, 0%)" fill-opacity="1">
<use xlink:href="#glyph-7-0-44f391f1" x="21.366008" y="160.216496"/>
</g>
<g fill="rgb(0%, 0%, 0%)" fill-opacity="1">
<use xlink:href="#glyph-6-1-44f391f1" x="21.366008" y="154.378498"/>
</g>
<g fill="rgb(0%, 0%, 0%)" fill-opacity="1">
<use xlink:href="#glyph-8-0-44f391f1" x="21.366008" y="148.540489"/>
</g>
<g fill="rgb(0%, 0%, 0%)" fill-opacity="1">
<use xlink:href="#glyph-6-2-44f391f1" x="21.366008" y="142.70248"/>
</g>
<g fill="rgb(0%, 0%, 0%)" fill-opacity="1">
<use xlink:href="#glyph-9-0-44f391f1" x="27.405001" y="284.293144"/>
</g>
<g fill="rgb(0%, 0%, 0%)" fill-opacity="1">
<use xlink:href="#glyph-9-1-44f391f1" x="33.243004" y="284.293144"/>
</g>
<g fill="rgb(0%, 0%, 0%)" fill-opacity="1">
<use xlink:href="#glyph-10-0-44f391f1" x="36.161997" y="284.293144"/>
</g>
<g fill="rgb(0%, 0%, 0%)" fill-opacity="1">
<use xlink:href="#glyph-9-0-44f391f1" x="27.405001" y="220.372696"/>
</g>
<g fill="rgb(0%, 0%, 0%)" fill-opacity="1">
<use xlink:href="#glyph-9-1-44f391f1" x="33.243004" y="220.372696"/>
</g>
<g fill="rgb(0%, 0%, 0%)" fill-opacity="1">
<use xlink:href="#glyph-10-1-44f391f1" x="36.161997" y="220.372696"/>
</g>
<g fill="rgb(0%, 0%, 0%)" fill-opacity="1">
<use xlink:href="#glyph-11-0-44f391f1" x="27.405001" y="156.452236"/>
</g>
<g fill="rgb(0%, 0%, 0%)" fill-opacity="1">
<use xlink:href="#glyph-11-1-44f391f1" x="33.243004" y="156.452236"/>
</g>
<g fill="rgb(0%, 0%, 0%)" fill-opacity="1">
<use xlink:href="#glyph-12-0-44f391f1" x="36.161997" y="156.452236"/>
</g>
<g fill="rgb(0%, 0%, 0%)" fill-opacity="1">
<use xlink:href="#glyph-9-2-44f391f1" x="27.405001" y="92.531765"/>
</g>
<g fill="rgb(0%, 0%, 0%)" fill-opacity="1">
<use xlink:href="#glyph-9-1-44f391f1" x="33.243004" y="92.531765"/>
</g>
<g fill="rgb(0%, 0%, 0%)" fill-opacity="1">
<use xlink:href="#glyph-10-1-44f391f1" x="36.161997" y="92.531765"/>
</g>
<g fill="rgb(0%, 0%, 0%)" fill-opacity="1">
<use xlink:href="#glyph-13-0-44f391f1" x="27.405001" y="28.611351"/>
</g>
<g fill="rgb(0%, 0%, 0%)" fill-opacity="1">
<use xlink:href="#glyph-13-1-44f391f1" x="33.243004" y="28.611351"/>
</g>
<g fill="rgb(0%, 0%, 0%)" fill-opacity="1">
<use xlink:href="#glyph-14-0-44f391f1" x="36.161997" y="28.611351"/>
</g>
<path fill-rule="nonzero" fill="rgb(0%, 0%, 0%)" fill-opacity="0.6" d="M 67.160156 280.464844 L 141.515625 280.464844 L 141.515625 152.625 L 67.160156 152.625 Z M 67.160156 280.464844 "/>
<path fill-rule="nonzero" fill="rgb(0%, 0%, 0%)" fill-opacity="0.6" d="M 160.101562 280.464844 L 234.457031 280.464844 L 234.457031 24.78125 L 160.101562 24.78125 Z M 160.101562 280.464844 "/>
<path fill-rule="nonzero" fill="rgb(0%, 0%, 0%)" fill-opacity="0.6" d="M 253.042969 280.464844 L 327.398438 280.464844 L 327.398438 24.78125 L 253.042969 24.78125 Z M 253.042969 280.464844 "/>
<path fill-rule="nonzero" fill="rgb(0%, 0%, 0%)" fill-opacity="0.6" d="M 345.988281 280.464844 L 420.34375 280.464844 L 420.34375 24.78125 L 345.988281 24.78125 Z M 345.988281 280.464844 "/>
<path fill="none" stroke-width="1" stroke-linecap="butt" stroke-linejoin="miter" stroke="rgb(0%, 0%, 0%)" stroke-opacity="1" stroke-miterlimit="2" d="M 139.114583 391.5 L 139.114583 396.5 " transform="matrix(0.75, 0, 0, 0.75, 0, 0)"/>
<path fill="none" stroke-width="1" stroke-linecap="butt" stroke-linejoin="miter" stroke="rgb(0%, 0%, 0%)" stroke-opacity="1" stroke-miterlimit="2" d="M 263.036458 391.5 L 263.036458 396.5 " transform="matrix(0.75, 0, 0, 0.75, 0, 0)"/>
<path fill="none" stroke-width="1" stroke-linecap="butt" stroke-linejoin="miter" stroke="rgb(0%, 0%, 0%)" stroke-opacity="1" stroke-miterlimit="2" d="M 386.963542 391.5 L 386.963542 396.5 " transform="matrix(0.75, 0, 0, 0.75, 0, 0)"/>
<path fill="none" stroke-width="1" stroke-linecap="butt" stroke-linejoin="miter" stroke="rgb(0%, 0%, 0%)" stroke-opacity="1" stroke-miterlimit="2" d="M 510.885417 391.5 L 510.885417 396.5 " transform="matrix(0.75, 0, 0, 0.75, 0, 0)"/>
<path fill="none" stroke-width="1" stroke-linecap="butt" stroke-linejoin="miter" stroke="rgb(0%, 0%, 0%)" stroke-opacity="1" stroke-miterlimit="2" d="M 65.5 373.953125 L 60.5 373.953125 " transform="matrix(0.75, 0, 0, 0.75, 0, 0)"/>
<path fill="none" stroke-width="1" stroke-linecap="butt" stroke-linejoin="miter" stroke="rgb(0%, 0%, 0%)" stroke-opacity="1" stroke-miterlimit="2" d="M 65.5 288.729167 L 60.5 288.729167 " transform="matrix(0.75, 0, 0, 0.75, 0, 0)"/>
<path fill="none" stroke-width="1" stroke-linecap="butt" stroke-linejoin="miter" stroke="rgb(0%, 0%, 0%)" stroke-opacity="1" stroke-miterlimit="2" d="M 65.5 203.5 L 60.5 203.5 " transform="matrix(0.75, 0, 0, 0.75, 0, 0)"/>
<path fill="none" stroke-width="1" stroke-linecap="butt" stroke-linejoin="miter" stroke="rgb(0%, 0%, 0%)" stroke-opacity="1" stroke-miterlimit="2" d="M 65.5 118.270833 L 60.5 118.270833 " transform="matrix(0.75, 0, 0, 0.75, 0, 0)"/>
<path fill="none" stroke-width="1" stroke-linecap="butt" stroke-linejoin="miter" stroke="rgb(0%, 0%, 0%)" stroke-opacity="1" stroke-miterlimit="2" d="M 65.5 33.046875 L 60.5 33.046875 " transform="matrix(0.75, 0, 0, 0.75, 0, 0)"/>
<path fill="none" stroke-width="1" stroke-linecap="butt" stroke-linejoin="miter" stroke="rgb(0%, 0%, 0%)" stroke-opacity="1" stroke-miterlimit="2" d="M 65.5 391 L 584.5 391 " transform="matrix(0.75, 0, 0, 0.75, 0, 0)"/>
<path fill="none" stroke-width="1" stroke-linecap="butt" stroke-linejoin="miter" stroke="rgb(0%, 0%, 0%)" stroke-opacity="1" stroke-miterlimit="2" d="M 66 391.5 L 66 15.5 " transform="matrix(0.75, 0, 0, 0.75, 0, 0)"/>
<path fill="none" stroke-width="1" stroke-linecap="butt" stroke-linejoin="miter" stroke="rgb(0%, 0%, 0%)" stroke-opacity="1" stroke-miterlimit="2" d="M 65.5 16 L 584.5 16 " transform="matrix(0.75, 0, 0, 0.75, 0, 0)"/>
<path fill="none" stroke-width="1" stroke-linecap="butt" stroke-linejoin="miter" stroke="rgb(0%, 0%, 0%)" stroke-opacity="1" stroke-miterlimit="2" d="M 584 391.5 L 584 15.5 " transform="matrix(0.75, 0, 0, 0.75, 0, 0)"/>
</svg>
