<?xml version="1.0" encoding="UTF-8"?>
<svg xmlns="http://www.w3.org/2000/svg" xmlns:xlink="http://www.w3.org/1999/xlink" width="450" height="300" viewBox="0 0 450 300">
<defs>
<g>
<g id="glyph-0-0-f7fd3c1e">
<path d="M 5.359375 -5.265625 C 5.359375 -4.34375 4.828125 -3.5625 3.796875 -3.015625 C 3.796875 -3.015625 2.734375 -2.453125 2.734375 -2.453125 C 1.828125 -1.90625 1.484375 -1.515625 1.390625 -0.90625 C 1.390625 -0.90625 5.3125 -0.90625 5.3125 -0.90625 C 5.3125 -0.90625 5.3125 0 5.3125 0 C 5.3125 0 0.359375 0 0.359375 0 C 0.4375 -1.640625 0.890625 -2.34375 2.453125 -3.21875 C 2.453125 -3.21875 3.40625 -3.765625 3.40625 -3.765625 C 4.078125 -4.140625 4.421875 -4.65625 4.421875 -5.234375 C 4.421875 -6.03125 3.796875 -6.640625 2.953125 -6.640625 C 2.03125 -6.640625 1.515625 -6.109375 1.453125 -4.859375 C 1.453125 -4.859375 0.53125 -4.859375 0.53125 -4.859375 C 0.578125 -6.671875 1.453125 -7.4375 2.984375 -7.4375 C 4.390625 -7.4375 5.359375 -6.515625 5.359375 -5.265625 Z M 5.359375 -5.265625 "/>
</g>
<g id="glyph-1-0-f7fd3c1e">
<path d="M 5.453125 -1.78125 C 5.453125 -1.78125 4.359375 -1.78125 4.359375 -1.78125 C 4.359375 -1.78125 4.359375 0 4.359375 0 C 4.359375 0 3.4375 0 3.4375 0 C 3.4375 0 3.4375 -1.78125 3.4375 -1.78125 C 3.4375 -1.78125 0.296875 -1.78125 0.296875 -1.78125 C 0.296875 -1.78125 0.296875 -2.765625 0.296875 -2.765625 C 0.296875 -2.765625 3.671875 -7.4375 3.671875 -7.4375 C 3.671875 -7.4375 4.359375 -7.4375 4.359375 -7.4375 C 4.359375 -7.4375 4.359375 -2.609375 4.359375 -2.609375 C 4.359375 -2.609375 5.453125 -2.609375 5.453125 -2.609375 C 5.453125 -2.609375 5.453125 -1.78125 5.453125 -1.78125 Z M 3.4375 -2.609375 C 3.4375 -2.609375 3.4375 -5.875 3.4375 -5.875 C 3.4375 -5.875 1.109375 -2.609375 1.109375 -2.609375 C 1.109375 -2.609375 3.4375 -2.609375 3.4375 -2.609375 Z M 3.4375 -2.609375 "/>
</g>
<g id="glyph-2-0-f7fd3c1e">
<path d="M 5.390625 -2.3125 C 5.390625 -0.84375 4.375 0.15625 2.953125 0.15625 C 1.25 0.15625 0.453125 -1.078125 0.453125 -3.390625 C 0.453125 -5.984375 1.390625 -7.4375 3.125 -7.4375 C 4.25 -7.4375 5.046875 -6.71875 5.234375 -5.5 C 5.234375 -5.5 4.3125 -5.5 4.3125 -5.5 C 4.15625 -6.21875 3.703125 -6.625 3.0625 -6.625 C 2 -6.625 1.40625 -5.625 1.390625 -3.796875 C 1.796875 -4.34375 2.375 -4.625 3.109375 -4.625 C 4.4375 -4.625 5.390625 -3.703125 5.390625 -2.3125 Z M 4.4375 -2.234375 C 4.4375 -3.234375 3.890625 -3.8125 3 -3.8125 C 2.078125 -3.8125 1.453125 -3.21875 1.453125 -2.28125 C 1.453125 -1.328125 2.09375 -0.65625 2.96875 -0.65625 C 3.8125 -0.65625 4.4375 -1.296875 4.4375 -2.234375 Z M 4.4375 -2.234375 "/>
</g>
<g id="glyph-3-0-f7fd3c1e">
<path d="M 5.390625 -2.09375 C 5.390625 -0.75 4.359375 0.15625 2.890625 0.15625 C 1.421875 0.15625 0.390625 -0.75 0.390625 -2.109375 C 0.390625 -2.921875 0.8125 -3.5 1.65625 -3.921875 C 0.90625 -4.390625 0.65625 -4.765625 0.65625 -5.453125 C 0.65625 -6.625 1.578125 -7.4375 2.890625 -7.4375 C 4.203125 -7.4375 5.125 -6.625 5.125 -5.453125 C 5.125 -4.75 4.875 -4.375 4.109375 -3.921875 C 4.96875 -3.5 5.390625 -2.921875 5.390625 -2.09375 Z M 4.171875 -5.4375 C 4.171875 -6.15625 3.671875 -6.625 2.890625 -6.625 C 2.109375 -6.625 1.59375 -6.15625 1.59375 -5.453125 C 1.59375 -4.75 2.109375 -4.28125 2.890625 -4.28125 C 3.671875 -4.28125 4.171875 -4.75 4.171875 -5.4375 Z M 4.4375 -2.09375 C 4.4375 -2.96875 3.8125 -3.5 2.890625 -3.5 C 1.96875 -3.5 1.328125 -2.96875 1.328125 -2.09375 C 1.328125 -1.21875 1.96875 -0.65625 2.859375 -0.65625 C 3.8125 -0.65625 4.4375 -1.203125 4.4375 -2.09375 Z M 4.4375 -2.09375 "/>
</g>
<g id="glyph-4-0-f7fd3c1e">
<path d="M 3.640625 0 C 3.640625 0 2.71875 0 2.71875 0 C 2.71875 0 2.71875 -5.296875 2.71875 -5.296875 C 2.71875 -5.296875 1.078125 -5.296875 1.078125 -5.296875 C 1.078125 -5.296875 1.078125 -5.96875 1.078125 -5.96875 C 2.5 -6.140625 2.703125 -6.296875 3.03125 -7.4375 C 3.03125 -7.4375 3.640625 -7.4375 3.640625 -7.4375 C 3.640625 -7.4375 3.640625 0 3.640625 0 Z M 3.640625 0 "/>
</g>
<g id="glyph-5-0-f7fd3c1e">
<path d="M 5.328125 -3.578125 C 5.328125 -1.140625 4.46875 0.15625 2.890625 0.15625 C 1.296875 0.15625 0.453125 -1.140625 0.453125 -3.640625 C 0.453125 -6.140625 1.28125 -7.4375 2.890625 -7.4375 C 4.5 -7.4375 5.328125 -6.15625 5.328125 -3.578125 Z M 4.375 -3.671875 C 4.375 -5.65625 3.890625 -6.625 2.890625 -6.625 C 1.890625 -6.625 1.390625 -5.671875 1.390625 -3.640625 C 1.390625 -1.59375 1.890625 -0.609375 2.859375 -0.609375 C 3.890625 -0.609375 4.375 -1.546875 4.375 -3.671875 Z M 4.375 -3.671875 "/>
</g>
<g id="glyph-6-0-f7fd3c1e">
<path d="M 5.359375 -5.265625 C 5.359375 -4.34375 4.828125 -3.5625 3.796875 -3.015625 C 3.796875 -3.015625 2.734375 -2.453125 2.734375 -2.453125 C 1.828125 -1.90625 1.484375 -1.515625 1.390625 -0.90625 C 1.390625 -0.90625 5.3125 -0.90625 5.3125 -0.90625 C 5.3125 -0.90625 5.3125 0 5.3125 0 C 5.3125 0 0.359375 0 0.359375 0 C 0.4375 -1.640625 0.890625 -2.34375 2.453125 -3.21875 C 2.453125 -3.21875 3.40625 -3.765625 3.40625 -3.765625 C 4.078125 -4.140625 4.421875 -4.65625 4.421875 -5.234375 C 4.421875 -6.03125 3.796875 -6.640625 2.953125 -6.640625 C 2.03125 -6.640625 1.515625 -6.109375 1.453125 -4.859375 C 1.453125 -4.859375 0.53125 -4.859375 0.53125 -4.859375 C 0.578125 -6.671875 1.453125 -7.4375 2.984375 -7.4375 C 4.390625 -7.4375 5.359375 -6.515625 5.359375 -5.265625 Z M 5.359375 -5.265625 "/>
</g>
<g id="glyph-6-1-f7fd3c1e">
<path d="M 5.390625 -2.3125 C 5.390625 -0.84375 4.375 0.15625 2.953125 0.15625 C 1.25 0.15625 0.453125 -1.078125 0.453125 -3.390625 C 0.453125 -5.984375 1.390625 -7.4375 3.125 -7.4375 C 4.25 -7.4375 5.046875 -6.71875 5.234375 -5.5 C 5.234375 -5.5 4.3125 -5.5 4.3125 -5.5 C 4.15625 -6.21875 3.703125 -6.625 3.0625 -6.625 C 2 -6.625 1.40625 -5.625 1.390625 -3.796875 C 1.796875 -4.34375 2.375 -4.625 3.109375 -4.625 C 4.4375 -4.625 5.390625 -3.703125 5.390625 -2.3125 Z M 4.4375 -2.234375 C 4.4375 -3.234375 3.890625 -3.8125 3 -3.8125 C 2.078125 -3.8125 1.453125 -3.21875 1.453125 -2.28125 C 1.453125 -1.328125 2.09375 -0.65625 2.96875 -0.65625 C 3.8125 -0.65625 4.4375 -1.296875 4.4375 -2.234375 Z M 4.4375 -2.234375 "/>
</g>
<g id="glyph-7-0-f7fd3c1e">
<path d="M 5.453125 -1.78125 C 5.453125 -1.78125 4.359375 -1.78125 4.359375 -1.78125 C 4.359375 -1.78125 4.359375 0 4.359375 0 C 4.359375 0 3.4375 0 3.4375 0 C 3.4375 0 3.4375 -1.78125 3.4375 -1.78125 C 3.4375 -1.78125 0.296875 -1.78125 0.296875 -1.78125 C 0.296875 -1.78125 0.296875 -2.765625 0.296875 -2.765625 C 0.296875 -2.765625 3.671875 -7.4375 3.671875 -7.4375 C 3.671875 -7.4375 4.359375 -7.4375 4.359375 -7.4375 C 4.359375 -7.4375 4.359375 -2.609375 4.359375 -2.609375 C 4.359375 -2.609375 5.453125 -2.609375 5.453125 -2.609375 C 5.453125 -2.609375 5.453125 -1.78125 5.453125 -1.78125 Z M 3.4375 -2.609375 C 3.4375 -2.609375 3.4375 -5.875 3.4375 -5.875 C 3.4375 -5.875 1.109375 -2.609375 1.109375 -2.609375 C 1.109375 -2.609375 3.4375 -2.609375 3.4375 -2.609375 Z M 3.4375 -2.609375 "/>
</g>
<g id="glyph-8-0-f7fd3c1e">
<path d="M 5.390625 -2.09375 C 5.390625 -0.75 4.359375 0.15625 2.890625 0.15625 C 1.421875 0.15625 0.390625 -0.75 0.390625 -2.109375 C 0.390625 -2.921875 0.8125 -3.5 1.65625 -3.921875 C 0.90625 -4.390625 0.65625 -4.765625 0.65625 -5.453125 C 0.65625 -6.625 1.578125 -7.4375 2.890625 -7.4375 C 4.203125 -7.4375 5.125 -6.625 5.125 -5.453125 C 5.125 -4.75 4.875 -4.375 4.109375 -3.921875 C 4.96875 -3.5 5.390625 -2.921875 5.390625 -2.09375 Z M 4.171875 -5.4375 C 4.171875 -6.15625 3.671875 -6.625 2.890625 -6.625 C 2.109375 -6.625 1.59375 -6.15625 1.59375 -5.453125 C 1.59375 -4.75 2.109375 -4.28125 2.890625 -4.28125 C 3.671875 -4.28125 4.171875 -4.75 4.171875 -5.4375 Z M 4.4375 -2.09375 C 4.4375 -2.96875 3.8125 -3.5 2.890625 -3.5 C 1.96875 -3.5 1.328125 -2.96875 1.328125 -2.09375 C 1.328125 -1.21875 1.96875 -0.65625 2.859375 -0.65625 C 3.8125 -0.65625 4.4375 -1.203125 4.4375 -2.09375 Z M 4.4375 -2.09375 "/>
</g>
<g id="glyph-9-0-f7fd3c1e">
<path d="M 3.640625 0 C 3.640625 0 2.71875 0 2.71875 0 C 2.71875 0 2.71875 -5.296875 2.71875 -5.296875 C 2.71875 -5.296875 1.078125 -5.296875 1.078125 -5.296875 C 1.078125 -5.296875 1.078125 -5.96875 1.078125 -5.96875 C 2.5 -6.140625 2.703125 -6.296875 3.03125 -7.4375 C 3.03125 -7.4375 3.640625 -7.4375 3.640625 -7.4375 C 3.640625 -7.4375 3.640625 0 3.640625 0 Z M 3.640625 0 "/>
</g>
<g id="glyph-10-0-f7fd3c1e">
<path d="M 5.328125 -3.578125 C 5.328125 -1.140625 4.46875 0.15625 2.890625 0.15625 C 1.296875 0.15625 0.453125 -1.140625 0.453125 -3.640625 C 0.453125 -6.140625 1.28125 -7.4375 2.890625 -7.4375 C 4.5 -7.4375 5.328125 -6.15625 5.328125 -3.578125 Z M 4.375 -3.671875 C 4.375 -5.65625 3.890625 -6.625 2.890625 -6.625 C 1.890625 -6.625 1.390625 -5.671875 1.390625 -3.640625 C 1.390625 -1.59375 1.890625 -0.609375 2.859375 -0.609375 C 3.890625 -0.609375 4.375 -1.546875 4.375 -3.671875 Z M 4.375 -3.671875 "/>
</g>
<g id="glyph-11-0-f7fd3c1e">
<path d="M 4.59375 -4.515625 C 4.59375 -3.71875 4.140625 -3.0625 3.25 -2.578125 C 3.25 -2.578125 2.34375 -2.09375 2.34375 -2.09375 C 1.5625 -1.640625 1.28125 -1.3125 1.203125 -0.78125 C 1.203125 -0.78125 4.546875 -0.78125 4.546875 -0.78125 C 4.546875 -0.78125 4.546875 0 4.546875 0 C 4.546875 0 0.3125 0 0.3125 0 C 0.375 -1.40625 0.765625 -2 2.09375 -2.765625 C 2.09375 -2.765625 2.921875 -3.234375 2.921875 -3.234375 C 3.484375 -3.5625 3.78125 -3.984375 3.78125 -4.484375 C 3.78125 -5.171875 3.25 -5.6875 2.53125 -5.6875 C 1.75 -5.6875 1.3125 -5.234375 1.234375 -4.171875 C 1.234375 -4.171875 0.453125 -4.171875 0.453125 -4.171875 C 0.5 -5.71875 1.25 -6.375 2.5625 -6.375 C 3.765625 -6.375 4.59375 -5.59375 4.59375 -4.515625 Z M 4.59375 -4.515625 "/>
</g>
<g id="glyph-12-0-f7fd3c1e">
<path d="M 4.6875 -1.53125 C 4.6875 -1.53125 3.734375 -1.53125 3.734375 -1.53125 C 3.734375 -1.53125 3.734375 0 3.734375 0 C 3.734375 0 2.9375 0 2.9375 0 C 2.9375 0 2.9375 -1.53125 2.9375 -1.53125 C 2.9375 -1.53125 0.25 -1.53125 0.25 -1.53125 C 0.25 -1.53125 0.25 -2.359375 0.25 -2.359375 C 0.25 -2.359375 3.15625 -6.375 3.15625 -6.375 C 3.15625 -6.375 3.734375 -6.375 3.734375 -6.375 C 3.734375 -6.375 3.734375 -2.234375 3.734375 -2.234375 C 3.734375 -2.234375 4.6875 -2.234375 4.6875 -2.234375 C 4.6875 -2.234375 4.6875 -1.53125 4.6875 -1.53125 Z M 2.9375 -2.234375 C 2.9375 -2.234375 2.9375 -5.03125 2.9375 -5.03125 C 2.9375 -5.03125 0.9375 -2.234375 0.9375 -2.234375 C 0.9375 -2.234375 2.9375 -2.234375 2.9375 -2.234375 Z M 2.9375 -2.234375 "/>
</g>
<g id="glyph-12-1-f7fd3c1e">
<path d="M 3.125 0 C 3.125 0 2.328125 0 2.328125 0 C 2.328125 0 2.328125 -4.546875 2.328125 -4.546875 C 2.328125 -4.546875 0.921875 -4.546875 0.921875 -4.546875 C 0.921875 -4.546875 0.921875 -5.109375 0.921875 -5.109375 C 2.140625 -5.265625 2.328125 -5.40625 2.59375 -6.375 C 2.59375 -6.375 3.125 -6.375 3.125 -6.375 C 3.125 -6.375 3.125 0 3.125 0 Z M 3.125 0 "/>
</g>
<g id="glyph-12-2-f7fd3c1e">
<path d="M 4.5625 -3.0625 C 4.5625 -0.96875 3.828125 0.140625 2.46875 0.140625 C 1.109375 0.140625 0.390625 -0.96875 0.390625 -3.125 C 0.390625 -5.265625 1.09375 -6.375 2.46875 -6.375 C 3.859375 -6.375 4.5625 -5.28125 4.5625 -3.0625 Z M 3.75 -3.140625 C 3.75 -4.84375 3.328125 -5.671875 2.46875 -5.671875 C 1.625 -5.671875 1.203125 -4.859375 1.203125 -3.109375 C 1.203125 -1.375 1.625 -0.515625 2.453125 -0.515625 C 3.34375 -0.515625 3.75 -1.328125 3.75 -3.140625 Z M 3.75 -3.140625 "/>
</g>
<g id="glyph-13-0-f7fd3c1e">
<path d="M 4.609375 -1.984375 C 4.609375 -0.734375 3.75 0.140625 2.53125 0.140625 C 1.078125 0.140625 0.390625 -0.921875 0.390625 -2.90625 C 0.390625 -5.125 1.1875 -6.375 2.671875 -6.375 C 3.640625 -6.375 4.328125 -5.765625 4.484375 -4.71875 C 4.484375 -4.71875 3.6875 -4.71875 3.6875 -4.71875 C 3.5625 -5.328125 3.171875 -5.671875 2.625 -5.671875 C 1.703125 -5.671875 1.203125 -4.8125 1.203125 -3.265625 C 1.53125 -3.71875 2.03125 -3.96875 2.65625 -3.96875 C 3.8125 -3.96875 4.609375 -3.171875 4.609375 -1.984375 Z M 3.8125 -1.921875 C 3.8125 -2.765625 3.328125 -3.265625 2.5625 -3.265625 C 1.78125 -3.265625 1.234375 -2.75 1.234375 -1.96875 C 1.234375 -1.140625 1.796875 -0.5625 2.53125 -0.5625 C 3.265625 -0.5625 3.8125 -1.109375 3.8125 -1.921875 Z M 3.8125 -1.921875 "/>
</g>
<g id="glyph-13-1-f7fd3c1e">
<path d="M 4.609375 -1.796875 C 4.609375 -0.640625 3.734375 0.140625 2.46875 0.140625 C 1.21875 0.140625 0.328125 -0.640625 0.328125 -1.8125 C 0.328125 -2.515625 0.6875 -3 1.421875 -3.359375 C 0.78125 -3.765625 0.5625 -4.09375 0.5625 -4.6875 C 0.5625 -5.671875 1.34375 -6.375 2.46875 -6.375 C 3.609375 -6.375 4.390625 -5.671875 4.390625 -4.6875 C 4.390625 -4.078125 4.171875 -3.75 3.515625 -3.359375 C 4.25 -3 4.609375 -2.515625 4.609375 -1.796875 Z M 3.578125 -4.65625 C 3.578125 -5.28125 3.15625 -5.671875 2.46875 -5.671875 C 1.8125 -5.671875 1.375 -5.28125 1.375 -4.671875 C 1.375 -4.0625 1.8125 -3.671875 2.46875 -3.671875 C 3.140625 -3.671875 3.578125 -4.0625 3.578125 -4.65625 Z M 3.8125 -1.796875 C 3.8125 -2.53125 3.265625 -3 2.46875 -3 C 1.6875 -3 1.140625 -2.53125 1.140625 -1.796875 C 1.140625 -1.046875 1.6875 -0.5625 2.453125 -0.5625 C 3.265625 -0.5625 3.8125 -1.03125 3.8125 -1.796875 Z M 3.8125 -1.796875 "/>
</g>
<g id="glyph-14-0-f7fd3c1e">
<path d="M 4.59375 -4.515625 C 4.59375 -3.71875 4.140625 -3.0625 3.25 -2.578125 C 3.25 -2.578125 2.34375 -2.09375 2.34375 -2.09375 C 1.5625 -1.640625 1.28125 -1.3125 1.203125 -0.78125 C 1.203125 -0.78125 4.546875 -0.78125 4.546875 -0.78125 C 4.546875 -0.78125 4.546875 0 4.546875 0 C 4.546875 0 0.3125 0 0.3125 0 C 0.375 -1.40625 0.765625 -2 2.09375 -2.765625 C 2.09375 -2.765625 2.921875 -3.234375 2.921875 -3.234375 C 3.484375 -3.5625 3.78125 -3.984375 3.78125 -4.484375 C 3.78125 -5.171875 3.25 -5.6875 2.53125 -5.6875 C 1.75 -5.6875 1.3125 -5.234375 1.234375 -4.171875 C 1.234375 -4.171875 0.453125 -4.171875 0.453125 -4.171875 C 0.5 -5.71875 1.25 -6.375 2.5625 -6.375 C 3.765625 -6.375 4.59375 -5.59375 4.59375 -4.515625 Z M 4.59375 -4.515625 "/>
</g>
<g id="glyph-15-0-f7fd3c1e">
<path d="M 4.6875 -1.53125 C 4.6875 -1.53125 3.734375 -1.53125 3.734375 -1.53125 C 3.734375 -1.53125 3.734375 0 3.734375 0 C 3.734375 0 2.9375 0 2.9375 0 C 2.9375 0 2.9375 -1.53125 2.9375 -1.53125 C 2.9375 -1.53125 0.25 -1.53125 0.25 -1.53125 C 0.25 -1.53125 0.25 -2.359375 0.25 -2.359375 C 0.25 -2.359375 3.15625 -6.375 3.15625 -6.375 C 3.15625 -6.375 3.734375 -6.375 3.734375 -6.375 C 3.734375 -6.375 3.734375 -2.234375 3.734375 -2.234375 C 3.734375 -2.234375 4.6875 -2.234375 4.6875 -2.234375 C 4.6875 -2.234375 4.6875 -1.53125 4.6875 -1.53125 Z M 2.9375 -2.234375 C 2.9375 -2.234375 2.9375 -5.03125 2.9375 -5.03125 C 2.9375 -5.03125 0.9375 -2.234375 0.9375 -2.234375 C 0.9375 -2.234375 2.9375 -2.234375 2.9375 -2.234375 Z M 2.9375 -2.234375 "/>
</g>
<g id="glyph-15-1-f7fd3c1e">
<path d="M 4.609375 -1.984375 C 4.609375 -0.734375 3.75 0.140625 2.53125 0.140625 C 1.078125 0.140625 0.390625 -0.921875 0.390625 -2.90625 C 0.390625 -5.125 1.1875 -6.375 2.671875 -6.375 C 3.640625 -6.375 4.328125 -5.765625 4.484375 -4.71875 C 4.484375 -4.71875 3.6875 -4.71875 3.6875 -4.71875 C 3.5625 -5.328125 3.171875 -5.671875 2.625 -5.671875 C 1.703125 -5.671875 1.203125 -4.8125 1.203125 -3.265625 C 1.53125 -3.71875 2.03125 -3.96875 2.65625 -3.96875 C 3.8125 -3.96875 4.609375 -3.171875 4.609375 -1.984375 Z M 3.8125 -1.921875 C 3.8125 -2.765625 3.328125 -3.265625 2.5625 -3.265625 C 1.78125 -3.265625 1.234375 -2.75 1.234375 -1.96875 C 1.234375 -1.140625 1.796875 -0.5625 2.53125 -0.5625 C 3.265625 -0.5625 3.8125 -1.109375 3.8125 -1.921875 Z M 3.8125 -1.921875 "/>
</g>
<g id="glyph-15-2-f7fd3c1e">
<path d="M 4.609375 -1.796875 C 4.609375 -0.640625 3.734375 0.140625 2.46875 0.140625 C 1.21875 0.140625 0.328125 -0.640625 0.328125 -1.8125 C 0.328125 -2.515625 0.6875 -3 1.421875 -3.359375 C 0.78125 -3.765625 0.5625 -4.09375 0.5625 -4.6875 C 0.5625 -5.671875 1.34375 -6.375 2.46875 -6.375 C 3.609375 -6.375 4.390625 -5.671875 4.390625 -4.6875 C 4.390625 -4.078125 4.171875 -3.75 3.515625 -3.359375 C 4.25 -3 4.609375 -2.515625 4.609375 -1.796875 Z M 3.578125 -4.65625 C 3.578125 -5.28125 3.15625 -5.671875 2.46875 -5.671875 C 1.8125 -5.671875 1.375 -5.28125 1.375 -4.671875 C 1.375 -4.0625 1.8125 -3.671875 2.46875 -3.671875 C 3.140625 -3.671875 3.578125 -4.0625 3.578125 -4.65625 Z M 3.8125 -1.796875 C 3.8125 -2.53125 3.265625 -3 2.46875 -3 C 1.6875 -3 1.140625 -2.53125 1.140625 -1.796875 C 1.140625 -1.046875 1.6875 -0.5625 2.453125 -0.5625 C 3.265625 -0.5625 3.8125 -1.03125 3.8125 -1.796875 Z M 3.8125 -1.796875 "/>
</g>
<g id="glyph-16-0-f7fd3c1e">
<path d="M 3.125 0 C 3.125 0 2.328125 0 2.328125 0 C 2.328125 0 2.328125 -4.546875 2.328125 -4.546875 C 2.328125 -4.546875 0.921875 -4.546875 0.921875 -4.546875 C 0.921875 -4.546875 0.921875 -5.109375 0.921875 -5.109375 C 2.140625 -5.265625 2.328125 -5.40625 2.59375 -6.375 C 2.59375 -6.375 3.125 -6.375 3.125 -6.375 C 3.125 -6.375 3.125 0 3.125 0 Z M 3.125 0 "/>
</g>
<g id="glyph-17-0-f7fd3c1e">
<path d="M 4.5625 -3.0625 C 4.5625 -0.96875 3.828125 0.140625 2.46875 0.140625 C 1.109375 0.140625 0.390625 -0.96875 0.390625 -3.125 C 0.390625 -5.265625 1.09375 -6.375 2.46875 -6.375 C 3.859375 -6.375 4.5625 -5.28125 4.5625 -3.0625 Z M 3.75 -3.140625 C 3.75 -4.84375 3.328125 -5.671875 2.46875 -5.671875 C 1.625 -5.671875 1.203125 -4.859375 1.203125 -3.109375 C 1.203125 -1.375 1.625 -0.515625 2.453125 -0.515625 C 3.34375 -0.515625 3.75 -1.328125 3.75 -3.140625 Z M 3.75 -3.140625 "/>
</g>
<g id="glyph-18-0-f7fd3c1e">
<path d="M 4.59375 -4.515625 C 4.59375 -3.71875 4.140625 -3.0625 3.25 -2.578125 C 3.25 -2.578125 2.34375 -2.09375 2.34375 -2.09375 C 1.5625 -1.640625 1.28125 -1.3125 1.203125 -0.78125 C 1.203125 -0.78125 4.546875 -0.78125 4.546875 -0.78125 C 4.546875 -0.78125 4.546875 0 4.546875 0 C 4.546875 0 0.3125 0 0.3125 0 C 0.375 -1.40625 0.765625 -2 2.09375 -2.765625 C 2.09375 -2.765625 2.921875 -3.234375 2.921875 -3.234375 C 3.484375 -3.5625 3.78125 -3.984375 3.78125 -4.484375 C 3.78125 -5.171875 3.25 -5.6875 2.53125 -5.6875 C 1.75 -5.6875 1.3125 -5.234375 1.234375 -4.171875 C 1.234375 -4.171875 0.453125 -4.171875 0.453125 -4.171875 C 0.5 -5.71875 1.25 -6.375 2.5625 -6.375 C 3.765625 -6.375 4.59375 -5.59375 4.59375 -4.515625 Z M 4.59375 -4.515625 "/>
</g>
<g id="glyph-18-1-f7fd3c1e">
<path d="M 4.6875 -1.53125 C 4.6875 -1.53125 3.734375 -1.53125 3.734375 -1.53125 C 3.734375 -1.53125 3.734375 0 3.734375 0 C 3.734375 0 2.9375 0 2.9375 0 C 2.9375 0 2.9375 -1.53125 2.9375 -1.53125 C 2.9375 -1.53125 0.25 -1.53125 0.25 -1.53125 C 0.25 -1.53125 0.25 -2.359375 0.25 -2.359375 C 0.25 -2.359375 3.15625 -6.375 3.15625 -6.375 C 3.15625 -6.375 3.734375 -6.375 3.734375 -6.375 C 3.734375 -6.375 3.734375 -2.234375 3.734375 -2.234375 C 3.734375 -2.234375 4.6875 -2.234375 4.6875 -2.234375 C 4.6875 -2.234375 4.6875 -1.53125 4.6875 -1.53125 Z M 2.9375 -2.234375 C 2.9375 -2.234375 2.9375 -5.03125 2.9375 -5.03125 C 2.9375 -5.03125 0.9375 -2.234375 0.9375 -2.234375 C 0.9375 -2.234375 2.9375 -2.234375 2.9375 -2.234375 Z M 2.9375 -2.234375 "/>
</g>
<g id="glyph-18-2-f7fd3c1e">
<path d="M 4.609375 -1.984375 C 4.609375 -0.734375 3.75 0.140625 2.53125 0.140625 C 1.078125 0.140625 0.390625 -0.921875 0.390625 -2.90625 C 0.390625 -5.125 1.1875 -6.375 2.671875 -6.375 C 3.640625 -6.375 4.328125 -5.765625 4.484375 -4.71875 C 4.484375 -4.71875 3.6875 -4.71875 3.6875 -4.71875 C 3.5625 -5.328125 3.171875 -5.671875 2.625 -5.671875 C 1.703125 -5.671875 1.203125 -4.8125 1.203125 -3.265625 C 1.53125 -3.71875 2.03125 -3.96875 2.65625 -3.96875 C 3.8125 -3.96875 4.609375 -3.171875 4.609375 -1.984375 Z M 3.8125 -1.921875 C 3.8125 -2.765625 3.328125 -3.265625 2.5625 -3.265625 C 1.78125 -3.265625 1.234375 -2.75 1.234375 -1.96875 C 1.234375 -1.140625 1.796875 -0.5625 2.53125 -0.5625 C 3.265625 -0.5625 3.8125 -1.109375 3.8125 -1.921875 Z M 3.8125 -1.921875 "/>
</g>
<g id="glyph-18-3-f7fd3c1e">
<path d="M 4.609375 -1.796875 C 4.609375 -0.640625 3.734375 0.140625 2.46875 0.140625 C 1.21875 0.140625 0.328125 -0.640625 0.328125 -1.8125 C 0.328125 -2.515625 0.6875 -3 1.421875 -3.359375 C 0.78125 -3.765625 0.5625 -4.09375 0.5625 -4.6875 C 0.5625 -5.671875 1.34375 -6.375 2.46875 -6.375 C 3.609375 -6.375 4.390625 -5.671875 4.390625 -4.6875 C 4.390625 -4.078125 4.171875 -3.75 3.515625 -3.359375 C 4.25 -3 4.609375 -2.515625 4.609375 -1.796875 Z M 3.578125 -4.65625 C 3.578125 -5.28125 3.15625 -5.671875 2.46875 -5.671875 C 1.8125 -5.671875 1.375 -5.28125 1.375 -4.671875 C 1.375 -4.0625 1.8125 -3.671875 2.46875 -3.671875 C 3.140625 -3.671875 3.578125 -4.0625 3.578125 -4.65625 Z M 3.8125 -1.796875 C 3.8125 -2.53125 3.265625 -3 2.46875 -3 C 1.6875 -3 1.140625 -2.53125 1.140625 -1.796875 C 1.140625 -1.046875 1.6875 -0.5625 2.453125 -0.5625 C 3.265625 -0.5625 3.8125 -1.03125 3.8125 -1.796875 Z M 3.8125 -1.796875 "/>
</g>
<g id="glyph-18-4-f7fd3c1e">
<path d="M 4.5625 -3.0625 C 4.5625 -0.96875 3.828125 0.140625 2.46875 0.140625 C 1.109375 0.140625 0.390625 -0.96875 0.390625 -3.125 C 0.390625 -5.265625 1.09375 -6.375 2.46875 -6.375 C 3.859375 -6.375 4.5625 -5.28125 4.5625 -3.0625 Z M 3.75 -3.140625 C 3.75 -4.84375 3.328125 -5.671875 2.46875 -5.671875 C 1.625 -5.671875 1.203125 -4.859375 1.203125 -3.109375 C 1.203125 -1.375 1.625 -0.515625 2.453125 -0.515625 C 3.34375 -0.515625 3.75 -1.328125 3.75 -3.140625 Z M 3.75 -3.140625 "/>
</g>
<g id="glyph-19-0-f7fd3c1e">
<path d="M 3.125 0 C 3.125 0 2.328125 0 2.328125 0 C 2.328125 0 2.328125 -4.546875 2.328125 -4.546875 C 2.328125 -4.546875 0.921875 -4.546875 0.921875 -4.546875 C 0.921875 -4.546875 0.921875 -5.109375 0.921875 -5.109375 C 2.140625 -5.265625 2.328125 -5.40625 2.59375 -6.375 C 2.59375 -6.375 3.125 -6.375 3.125 -6.375 C 3.125 -6.375 3.125 0 3.125 0 Z M 3.125 0 "/>
</g>
<g id="glyph-20-0-f7fd3c1e">
<path d="M 4.59375 -4.515625 C 4.59375 -3.71875 4.140625 -3.0625 3.25 -2.578125 C 3.25 -2.578125 2.34375 -2.09375 2.34375 -2.09375 C 1.5625 -1.640625 1.28125 -1.3125 1.203125 -0.78125 C 1.203125 -0.78125 4.546875 -0.78125 4.546875 -0.78125 C 4.546875 -0.78125 4.546875 0 4.546875 0 C 4.546875 0 0.3125 0 0.3125 0 C 0.375 -1.40625 0.765625 -2 2.09375 -2.765625 C 2.09375 -2.765625 2.921875 -3.234375 2.921875 -3.234375 C 3.484375 -3.5625 3.78125 -3.984375 3.78125 -4.484375 C 3.78125 -5.171875 3.25 -5.6875 2.53125 -5.6875 C 1.75 -5.6875 1.3125 -5.234375 1.234375 -4.171875 C 1.234375 -4.171875 0.453125 -4.171875 0.453125 -4.171875 C 0.5 -5.71875 1.25 -6.375 2.5625 -6.375 C 3.765625 -6.375 4.59375 -5.59375 4.59375 -4.515625 Z M 4.59375 -4.515625 "/>
</g>
<g id="glyph-20-1-f7fd3c1e">
<path d="M 4.6875 -1.53125 C 4.6875 -1.53125 3.734375 -1.53125 3.734375 -1.53125 C 3.734375 -1.53125 3.734375 0 3.734375 0 C 3.734375 0 2.9375 0 2.9375 0 C 2.9375 0 2.9375 -1.53125 2.9375 -1.53125 C 2.9375 -1.53125 0.25 -1.53125 0.25 -1.53125 C 0.25 -1.53125 0.25 -2.359375 0.25 -2.359375 C 0.25 -2.359375 3.15625 -6.375 3.15625 -6.375 C 3.15625 -6.375 3.734375 -6.375 3.734375 -6.375 C 3.734375 -6.375 3.734375 -2.234375 3.734375 -2.234375 C 3.734375 -2.234375 4.6875 -2.234375 4.6875 -2.234375 C 4.6875 -2.234375 4.6875 -1.53125 4.6875 -1.53125 Z M 2.9375 -2.234375 C 2.9375 -2.234375 2.9375 -5.03125 2.9375 -5.03125 C 2.9375 -5.03125 0.9375 -2.234375 0.9375 -2.234375 C 0.9375 -2.234375 2.9375 -2.234375 2.9375 -2.234375 Z M 2.9375 -2.234375 "/>
</g>
<g id="glyph-20-2-f7fd3c1e">
<path d="M 4.609375 -1.984375 C 4.609375 -0.734375 3.75 0.140625 2.53125 0.140625 C 1.078125 0.140625 0.390625 -0.921875 0.390625 -2.90625 C 0.390625 -5.125 1.1875 -6.375 2.671875 -6.375 C 3.640625 -6.375 4.328125 -5.765625 4.484375 -4.71875 C 4.484375 -4.71875 3.6875 -4.71875 3.6875 -4.71875 C 3.5625 -5.328125 3.171875 -5.671875 2.625 -5.671875 C 1.703125 -5.671875 1.203125 -4.8125 1.203125 -3.265625 C 1.53125 -3.71875 2.03125 -3.96875 2.65625 -3.96875 C 3.8125 -3.96875 4.609375 -3.171875 4.609375 -1.984375 Z M 3.8125 -1.921875 C 3.8125 -2.765625 3.328125 -3.265625 2.5625 -3.265625 C 1.78125 -3.265625 1.234375 -2.75 1.234375 -1.96875 C 1.234375 -1.140625 1.796875 -0.5625 2.53125 -0.5625 C 3.265625 -0.5625 3.8125 -1.109375 3.8125 -1.921875 Z M 3.8125 -1.921875 "/>
</g>
<g id="glyph-21-0-f7fd3c1e">
<path d="M 4.609375 -1.796875 C 4.609375 -0.640625 3.734375 0.140625 2.46875 0.140625 C 1.21875 0.140625 0.328125 -0.640625 0.328125 -1.8125 C 0.328125 -2.515625 0.6875 -3 1.421875 -3.359375 C 0.78125 -3.765625 0.5625 -4.09375 0.5625 -4.6875 C 0.5625 -5.671875 1.34375 -6.375 2.46875 -6.375 C 3.609375 -6.375 4.390625 -5.671875 4.390625 -4.6875 C 4.390625 -4.078125 4.171875 -3.75 3.515625 -3.359375 C 4.25 -3 4.609375 -2.515625 4.609375 -1.796875 Z M 3.578125 -4.65625 C 3.578125 -5.28125 3.15625 -5.671875 2.46875 -5.671875 C 1.8125 -5.671875 1.375 -5.28125 1.375 -4.671875 C 1.375 -4.0625 1.8125 -3.671875 2.46875 -3.671875 C 3.140625 -3.671875 3.578125 -4.0625 3.578125 -4.65625 Z M 3.8125 -1.796875 C 3.8125 -2.53125 3.265625 -3 2.46875 -3 C 1.6875 -3 1.140625 -2.53125 1.140625 -1.796875 C 1.140625 -1.046875 1.6875 -0.5625 2.453125 -0.5625 C 3.265625 -0.5625 3.8125 -1.03125 3.8125 -1.796875 Z M 3.8125 -1.796875 "/>
</g>
<g id="glyph-21-1-f7fd3c1e">
<path d="M 4.5625 -3.0625 C 4.5625 -0.96875 3.828125 0.140625 2.46875 0.140625 C 1.109375 0.140625 0.390625 -0.96875 0.390625 -3.125 C 0.390625 -5.265625 1.09375 -6.375 2.46875 -6.375 C 3.859375 -6.375 4.5625 -5.28125 4.5625 -3.0625 Z M 3.75 -3.140625 C 3.75 -4.84375 3.328125 -5.671875 2.46875 -5.671875 C 1.625 -5.671875 1.203125 -4.859375 1.203125 -3.109375 C 1.203125 -1.375 1.625 -0.515625 2.453125 -0.515625 C 3.34375 -0.515625 3.75 -1.328125 3.75 -3.140625 Z M 3.75 -3.140625 "/>
</g>
<g id="glyph-22-0-f7fd3c1e">
<path d="M 3.125 0 C 3.125 0 2.328125 0 2.328125 0 C 2.328125 0 2.328125 -4.546875 2.328125 -4.546875 C 2.328125 -4.546875 0.921875 -4.546875 0.921875 -4.546875 C 0.921875 -4.546875 0.921875 -5.109375 0.921875 -5.109375 C 2.140625 -5.265625 2.328125 -5.40625 2.59375 -6.375 C 2.59375 -6.375 3.125 -6.375 3.125 -6.375 C 3.125 -6.375 3.125 0 3.125 0 Z M 3.125 0 "/>
</g>
</g>
</defs>
<rect x="-45" y="-30" width="540" height="360" fill="rgb(100%, 100%, 100%)" fill-opacity="1"/>
<path fill-rule="nonzero" fill="rgb(100%, 100%, 100%)" fill-opacity="1" d="M 30.75 270.75 L 438 270.75 L 438 12 L 30.75 12 Z M 30.75 270.75 "/>
<path fill-rule="nonzero" fill="rgb(93.333334%, 91.37255%, 91.37255%)" fill-opacity="1" d="M 75 150 L 187.5 150 L 187.5 75 L 75 75 Z M 75 150 "/>
<path fill-rule="nonzero" fill="rgb(100%, 100%, 100%)" fill-opacity="0.85" d="M 375 225 L 435 225 L 435 150 L 375 150 Z M 375 225 "/>
<path fill="none" stroke-width="1" stroke-linecap="butt" stroke-linejoin="miter" stroke="rgb(0%, 0%, 0%)" stroke-opacity="0.12" stroke-miterlimit="2" d="M 120.53125 361 L 120.53125 16 " transform="matrix(0.75, 0, 0, 0.75, 0, 0)"/>
<path fill="none" stroke-width="1" stroke-linecap="butt" stroke-linejoin="miter" stroke="rgb(0%, 0%, 0%)" stroke-opacity="0.12" stroke-miterlimit="2" d="M 230.229167 361 L 230.229167 16 " transform="matrix(0.75, 0, 0, 0.75, 0, 0)"/>
<path fill="none" stroke-width="1" stroke-linecap="butt" stroke-linejoin="miter" stroke="rgb(0%, 0%, 0%)" stroke-opacity="0.12" stroke-miterlimit="2" d="M 339.921875 361 L 339.921875 16 " transform="matrix(0.75, 0, 0, 0.75, 0, 0)"/>
<path fill="none" stroke-width="1" stroke-linecap="butt" stroke-linejoin="miter" stroke="rgb(0%, 0%, 0%)" stroke-opacity="0.12" stroke-miterlimit="2" d="M 449.619792 361 L 449.619792 16 " transform="matrix(0.75, 0, 0, 0.75, 0, 0)"/>
<path fill="none" stroke-width="1" stroke-linecap="butt" stroke-linejoin="miter" stroke="rgb(0%, 0%, 0%)" stroke-opacity="0.12" stroke-miterlimit="2" d="M 559.317708 361 L 559.317708 16 " transform="matrix(0.75, 0, 0, 0.75, 0, 0)"/>
<path fill="none" stroke-width="1" stroke-linecap="butt" stroke-linejoin="miter" stroke="rgb(0%, 0%, 0%)" stroke-opacity="0.12" stroke-miterlimit="2" d="M 41 310.46875 L 584 310.46875 " transform="matrix(0.75, 0, 0, 0.75, 0, 0)"/>
<path fill="none" stroke-width="1" stroke-linecap="butt" stroke-linejoin="miter" stroke="rgb(0%, 0%, 0%)" stroke-opacity="0.12" stroke-miterlimit="2" d="M 41 240.770833 L 584 240.770833 " transform="matrix(0.75, 0, 0, 0.75, 0, 0)"/>
<path fill="none" stroke-width="1" stroke-linecap="butt" stroke-linejoin="miter" stroke="rgb(0%, 0%, 0%)" stroke-opacity="0.12" stroke-miterlimit="2" d="M 41 171.078125 L 584 171.078125 " transform="matrix(0.75, 0, 0, 0.75, 0, 0)"/>
<path fill="none" stroke-width="1" stroke-linecap="butt" stroke-linejoin="miter" stroke="rgb(0%, 0%, 0%)" stroke-opacity="0.12" stroke-miterlimit="2" d="M 41 101.380208 L 584 101.380208 " transform="matrix(0.75, 0, 0, 0.75, 0, 0)"/>
<path fill="none" stroke-width="1" stroke-linecap="butt" stroke-linejoin="miter" stroke="rgb(0%, 0%, 0%)" stroke-opacity="0.12" stroke-miterlimit="2" d="M 41 31.682292 L 584 31.682292 " transform="matrix(0.75, 0, 0, 0.75, 0, 0)"/>
<path fill="none" stroke-width="1" stroke-linecap="butt" stroke-linejoin="miter" stroke="rgb(0%, 0%, 0%)" stroke-opacity="0.12" stroke-miterlimit="2" d="M 121.96875 200 L 121.96875 100 " transform="matrix(0.75, 0, 0, 0.75, 0, 0)"/>
<path fill="none" stroke-width="1" stroke-linecap="butt" stroke-linejoin="miter" stroke="rgb(0%, 0%, 0%)" stroke-opacity="0.12" stroke-miterlimit="2" d="M 152.270833 200 L 152.270833 100 " transform="matrix(0.75, 0, 0, 0.75, 0, 0)"/>
<path fill="none" stroke-width="1" stroke-linecap="butt" stroke-linejoin="miter" stroke="rgb(0%, 0%, 0%)" stroke-opacity="0.12" stroke-miterlimit="2" d="M 182.578125 200 L 182.578125 100 " transform="matrix(0.75, 0, 0, 0.75, 0, 0)"/>
<path fill="none" stroke-width="1" stroke-linecap="butt" stroke-linejoin="miter" stroke="rgb(0%, 0%, 0%)" stroke-opacity="0.12" stroke-miterlimit="2" d="M 212.880208 200 L 212.880208 100 " transform="matrix(0.75, 0, 0, 0.75, 0, 0)"/>
<path fill="none" stroke-width="1" stroke-linecap="butt" stroke-linejoin="miter" stroke="rgb(0%, 0%, 0%)" stroke-opacity="0.12" stroke-miterlimit="2" d="M 243.182292 200 L 243.182292 100 " transform="matrix(0.75, 0, 0, 0.75, 0, 0)"/>
<path fill="none" stroke-width="1" stroke-linecap="butt" stroke-linejoin="miter" stroke="rgb(0%, 0%, 0%)" stroke-opacity="0.12" stroke-miterlimit="2" d="M 100 185.354167 L 250 185.354167 " transform="matrix(0.75, 0, 0, 0.75, 0, 0)"/>
<path fill="none" stroke-width="1" stroke-linecap="butt" stroke-linejoin="miter" stroke="rgb(0%, 0%, 0%)" stroke-opacity="0.12" stroke-miterlimit="2" d="M 100 165.151042 L 250 165.151042 " transform="matrix(0.75, 0, 0, 0.75, 0, 0)"/>
<path fill="none" stroke-width="1" stroke-linecap="butt" stroke-linejoin="miter" stroke="rgb(0%, 0%, 0%)" stroke-opacity="0.12" stroke-miterlimit="2" d="M 100 144.947917 L 250 144.947917 " transform="matrix(0.75, 0, 0, 0.75, 0, 0)"/>
<path fill="none" stroke-width="1" stroke-linecap="butt" stroke-linejoin="miter" stroke="rgb(0%, 0%, 0%)" stroke-opacity="0.12" stroke-miterlimit="2" d="M 100 124.75 L 250 124.75 " transform="matrix(0.75, 0, 0, 0.75, 0, 0)"/>
<path fill="none" stroke-width="1" stroke-linecap="butt" stroke-linejoin="miter" stroke="rgb(0%, 0%, 0%)" stroke-opacity="0.12" stroke-miterlimit="2" d="M 100 104.546875 L 250 104.546875 " transform="matrix(0.75, 0, 0, 0.75, 0, 0)"/>
<path fill="none" stroke-width="1" stroke-linecap="butt" stroke-linejoin="miter" stroke="rgb(0%, 0%, 0%)" stroke-opacity="0.12" stroke-miterlimit="2" d="M 511.71875 300 L 511.71875 200 " transform="matrix(0.75, 0, 0, 0.75, 0, 0)"/>
<path fill="none" stroke-width="1" stroke-linecap="butt" stroke-linejoin="miter" stroke="rgb(0%, 0%, 0%)" stroke-opacity="0.12" stroke-miterlimit="2" d="M 527.880208 300 L 527.880208 200 " transform="matrix(0.75, 0, 0, 0.75, 0, 0)"/>
<path fill="none" stroke-width="1" stroke-linecap="butt" stroke-linejoin="miter" stroke="rgb(0%, 0%, 0%)" stroke-opacity="0.12" stroke-miterlimit="2" d="M 544.041667 300 L 544.041667 200 " transform="matrix(0.75, 0, 0, 0.75, 0, 0)"/>
<path fill="none" stroke-width="1" stroke-linecap="butt" stroke-linejoin="miter" stroke="rgb(0%, 0%, 0%)" stroke-opacity="0.12" stroke-miterlimit="2" d="M 560.203125 300 L 560.203125 200 " transform="matrix(0.75, 0, 0, 0.75, 0, 0)"/>
<path fill="none" stroke-width="1" stroke-linecap="butt" stroke-linejoin="miter" stroke="rgb(0%, 0%, 0%)" stroke-opacity="0.12" stroke-miterlimit="2" d="M 576.364583 300 L 576.364583 200 " transform="matrix(0.75, 0, 0, 0.75, 0, 0)"/>
<path fill="none" stroke-width="1" stroke-linecap="butt" stroke-linejoin="miter" stroke="rgb(0%, 0%, 0%)" stroke-opacity="0.12" stroke-miterlimit="2" d="M 500 285.354167 L 580 285.354167 " transform="matrix(0.75, 0, 0, 0.75, 0, 0)"/>
<path fill="none" stroke-width="1" stroke-linecap="butt" stroke-linejoin="miter" stroke="rgb(0%, 0%, 0%)" stroke-opacity="0.12" stroke-miterlimit="2" d="M 500 265.151042 L 580 265.151042 " transform="matrix(0.75, 0, 0, 0.75, 0, 0)"/>
<path fill="none" stroke-width="1" stroke-linecap="butt" stroke-linejoin="miter" stroke="rgb(0%, 0%, 0%)" stroke-opacity="0.12" stroke-miterlimit="2" d="M 500 244.947917 L 580 244.947917 " transform="matrix(0.75, 0, 0, 0.75, 0, 0)"/>
<path fill="none" stroke-width="1" stroke-linecap="butt" stroke-linejoin="miter" stroke="rgb(0%, 0%, 0%)" stroke-opacity="0.12" stroke-miterlimit="2" d="M 500 224.75 L 580 224.75 " transform="matrix(0.75, 0, 0, 0.75, 0, 0)"/>
<path fill="none" stroke-width="1" stroke-linecap="butt" stroke-linejoin="miter" stroke="rgb(0%, 0%, 0%)" stroke-opacity="0.12" stroke-miterlimit="2" d="M 500 204.546875 L 580 204.546875 " transform="matrix(0.75, 0, 0, 0.75, 0, 0)"/>
<g fill="rgb(0%, 0%, 0%)" fill-opacity="1">
<use xlink:href="#glyph-0-0-f7fd3c1e" x="87.478746" y="286.693497"/>
</g>
<g fill="rgb(0%, 0%, 0%)" fill-opacity="1">
<use xlink:href="#glyph-1-0-f7fd3c1e" x="169.751484" y="286.693497"/>
</g>
<g fill="rgb(0%, 0%, 0%)" fill-opacity="1">
<use xlink:href="#glyph-2-0-f7fd3c1e" x="252.02417" y="286.693497"/>
</g>
<g fill="rgb(0%, 0%, 0%)" fill-opacity="1">
<use xlink:href="#glyph-3-0-f7fd3c1e" x="334.296936" y="286.693497"/>
</g>
<g fill="rgb(0%, 0%, 0%)" fill-opacity="1">
<use xlink:href="#glyph-4-0-f7fd3c1e" x="413.650635" y="286.693497"/>
</g>
<g fill="rgb(0%, 0%, 0%)" fill-opacity="1">
<use xlink:href="#glyph-5-0-f7fd3c1e" x="419.488632" y="286.693497"/>
</g>
<g fill="rgb(0%, 0%, 0%)" fill-opacity="1">
<use xlink:href="#glyph-6-0-f7fd3c1e" x="17.412003" y="236.67952"/>
</g>
<g fill="rgb(0%, 0%, 0%)" fill-opacity="1">
<use xlink:href="#glyph-7-0-f7fd3c1e" x="17.412003" y="184.406788"/>
</g>
<g fill="rgb(0%, 0%, 0%)" fill-opacity="1">
<use xlink:href="#glyph-6-1-f7fd3c1e" x="17.412003" y="132.134079"/>
</g>
<g fill="rgb(0%, 0%, 0%)" fill-opacity="1">
<use xlink:href="#glyph-8-0-f7fd3c1e" x="17.412003" y="79.861341"/>
</g>
<g fill="rgb(0%, 0%, 0%)" fill-opacity="1">
<use xlink:href="#glyph-9-0-f7fd3c1e" x="11.574" y="27.588593"/>
</g>
<g fill="rgb(0%, 0%, 0%)" fill-opacity="1">
<use xlink:href="#glyph-10-0-f7fd3c1e" x="17.412003" y="27.588593"/>
</g>
<path fill="none" stroke-width="1.5" stroke-linecap="butt" stroke-linejoin="miter" stroke="rgb(0%, 44.705883%, 69.803923%)" stroke-opacity="1" stroke-miterlimit="2" d="M 65.682292 345.317708 L 285.078125 205.921875 L 339.921875 171.078125 L 559.317708 31.682292 " transform="matrix(0.75, 0, 0, 0.75, 0, 0)"/>
<g fill="rgb(0%, 0%, 0%)" fill-opacity="1">
<use xlink:href="#glyph-11-0-f7fd3c1e" x="88.975285" y="164.522999"/>
</g>
<g fill="rgb(0%, 0%, 0%)" fill-opacity="1">
<use xlink:href="#glyph-12-0-f7fd3c1e" x="111.702553" y="164.522999"/>
</g>
<g fill="rgb(0%, 0%, 0%)" fill-opacity="1">
<use xlink:href="#glyph-13-0-f7fd3c1e" x="134.429832" y="164.522999"/>
</g>
<g fill="rgb(0%, 0%, 0%)" fill-opacity="1">
<use xlink:href="#glyph-13-1-f7fd3c1e" x="157.157089" y="164.522999"/>
</g>
<g fill="rgb(0%, 0%, 0%)" fill-opacity="1">
<use xlink:href="#glyph-12-1-f7fd3c1e" x="177.382381" y="164.522999"/>
</g>
<g fill="rgb(0%, 0%, 0%)" fill-opacity="1">
<use xlink:href="#glyph-12-2-f7fd3c1e" x="182.386379" y="164.522999"/>
</g>
<g fill="rgb(0%, 0%, 0%)" fill-opacity="1">
<use xlink:href="#glyph-14-0-f7fd3c1e" x="62.496008" y="142.295654"/>
</g>
<g fill="rgb(0%, 0%, 0%)" fill-opacity="1">
<use xlink:href="#glyph-15-0-f7fd3c1e" x="62.496008" y="127.144146"/>
</g>
<g fill="rgb(0%, 0%, 0%)" fill-opacity="1">
<use xlink:href="#glyph-15-1-f7fd3c1e" x="62.496008" y="111.992638"/>
</g>
<g fill="rgb(0%, 0%, 0%)" fill-opacity="1">
<use xlink:href="#glyph-15-2-f7fd3c1e" x="62.496008" y="96.841106"/>
</g>
<g fill="rgb(0%, 0%, 0%)" fill-opacity="1">
<use xlink:href="#glyph-16-0-f7fd3c1e" x="57.491999" y="81.689575"/>
</g>
<g fill="rgb(0%, 0%, 0%)" fill-opacity="1">
<use xlink:href="#glyph-17-0-f7fd3c1e" x="62.496008" y="81.689575"/>
</g>
<g fill="rgb(0%, 0%, 0%)" fill-opacity="1">
<use xlink:href="#glyph-18-0-f7fd3c1e" x="381.285873" y="239.52301"/>
</g>
<g fill="rgb(0%, 0%, 0%)" fill-opacity="1">
<use xlink:href="#glyph-18-1-f7fd3c1e" x="393.407089" y="239.52301"/>
</g>
<g fill="rgb(0%, 0%, 0%)" fill-opacity="1">
<use xlink:href="#glyph-18-2-f7fd3c1e" x="405.528305" y="239.52301"/>
</g>
<g fill="rgb(0%, 0%, 0%)" fill-opacity="1">
<use xlink:href="#glyph-18-3-f7fd3c1e" x="417.649521" y="239.52301"/>
</g>
<g fill="rgb(0%, 0%, 0%)" fill-opacity="1">
<use xlink:href="#glyph-19-0-f7fd3c1e" x="427.268784" y="239.52301"/>
</g>
<g fill="rgb(0%, 0%, 0%)" fill-opacity="1">
<use xlink:href="#glyph-18-4-f7fd3c1e" x="432.272736" y="239.52301"/>
</g>
<g fill="rgb(0%, 0%, 0%)" fill-opacity="1">
<use xlink:href="#glyph-20-0-f7fd3c1e" x="362.496025" y="217.295654"/>
</g>
<g fill="rgb(0%, 0%, 0%)" fill-opacity="1">
<use xlink:href="#glyph-20-1-f7fd3c1e" x="362.496025" y="202.144135"/>
</g>
<g fill="rgb(0%, 0%, 0%)" fill-opacity="1">
<use xlink:href="#glyph-20-2-f7fd3c1e" x="362.496025" y="186.992615"/>
</g>
<g fill="rgb(0%, 0%, 0%)" fill-opacity="1">
<use xlink:href="#glyph-21-0-f7fd3c1e" x="362.496025" y="171.841084"/>
</g>
<g fill="rgb(0%, 0%, 0%)" fill-opacity="1">
<use xlink:href="#glyph-22-0-f7fd3c1e" x="357.492004" y="156.689587"/>
</g>
<g fill="rgb(0%, 0%, 0%)" fill-opacity="1">
<use xlink:href="#glyph-21-1-f7fd3c1e" x="362.496025" y="156.689587"/>
</g>
<path fill="none" stroke-width="1" stroke-linecap="butt" stroke-linejoin="miter" stroke="rgb(0%, 0%, 0%)" stroke-opacity="1" stroke-miterlimit="2" d="M 120.53125 361.5 L 120.53125 366.5 " transform="matrix(0.75, 0, 0, 0.75, 0, 0)"/>
<path fill="none" stroke-width="1" stroke-linecap="butt" stroke-linejoin="miter" stroke="rgb(0%, 0%, 0%)" stroke-opacity="1" stroke-miterlimit="2" d="M 230.229167 361.5 L 230.229167 366.5 " transform="matrix(0.75, 0, 0, 0.75, 0, 0)"/>
<path fill="none" stroke-width="1" stroke-linecap="butt" stroke-linejoin="miter" stroke="rgb(0%, 0%, 0%)" stroke-opacity="1" stroke-miterlimit="2" d="M 339.921875 361.5 L 339.921875 366.5 " transform="matrix(0.75, 0, 0, 0.75, 0, 0)"/>
<path fill="none" stroke-width="1" stroke-linecap="butt" stroke-linejoin="miter" stroke="rgb(0%, 0%, 0%)" stroke-opacity="1" stroke-miterlimit="2" d="M 449.619792 361.5 L 449.619792 366.5 " transform="matrix(0.75, 0, 0, 0.75, 0, 0)"/>
<path fill="none" stroke-width="1" stroke-linecap="butt" stroke-linejoin="miter" stroke="rgb(0%, 0%, 0%)" stroke-opacity="1" stroke-miterlimit="2" d="M 559.317708 361.5 L 559.317708 366.5 " transform="matrix(0.75, 0, 0, 0.75, 0, 0)"/>
<path fill="none" stroke-width="1" stroke-linecap="butt" stroke-linejoin="miter" stroke="rgb(0%, 0%, 0%)" stroke-opacity="1" stroke-miterlimit="2" d="M 40.5 310.46875 L 35.5 310.46875 " transform="matrix(0.75, 0, 0, 0.75, 0, 0)"/>
<path fill="none" stroke-width="1" stroke-linecap="butt" stroke-linejoin="miter" stroke="rgb(0%, 0%, 0%)" stroke-opacity="1" stroke-miterlimit="2" d="M 40.5 240.770833 L 35.5 240.770833 " transform="matrix(0.75, 0, 0, 0.75, 0, 0)"/>
<path fill="none" stroke-width="1" stroke-linecap="butt" stroke-linejoin="miter" stroke="rgb(0%, 0%, 0%)" stroke-opacity="1" stroke-miterlimit="2" d="M 40.5 171.078125 L 35.5 171.078125 " transform="matrix(0.75, 0, 0, 0.75, 0, 0)"/>
<path fill="none" stroke-width="1" stroke-linecap="butt" stroke-linejoin="miter" stroke="rgb(0%, 0%, 0%)" stroke-opacity="1" stroke-miterlimit="2" d="M 40.5 101.380208 L 35.5 101.380208 " transform="matrix(0.75, 0, 0, 0.75, 0, 0)"/>
<path fill="none" stroke-width="1" stroke-linecap="butt" stroke-linejoin="miter" stroke="rgb(0%, 0%, 0%)" stroke-opacity="1" stroke-miterlimit="2" d="M 40.5 31.682292 L 35.5 31.682292 " transform="matrix(0.75, 0, 0, 0.75, 0, 0)"/>
<path fill="none" stroke-width="1" stroke-linecap="butt" stroke-linejoin="miter" stroke="rgb(0%, 0%, 0%)" stroke-opacity="1" stroke-miterlimit="2" d="M 121.96875 200.5 L 121.96875 205.5 " transform="matrix(0.75, 0, 0, 0.75, 0, 0)"/>
<path fill="none" stroke-width="1" stroke-linecap="butt" stroke-linejoin="miter" stroke="rgb(0%, 0%, 0%)" stroke-opacity="1" stroke-miterlimit="2" d="M 152.270833 200.5 L 152.270833 205.5 " transform="matrix(0.75, 0, 0, 0.75, 0, 0)"/>
<path fill="none" stroke-width="1" stroke-linecap="butt" stroke-linejoin="miter" stroke="rgb(0%, 0%, 0%)" stroke-opacity="1" stroke-miterlimit="2" d="M 182.578125 200.5 L 182.578125 205.5 " transform="matrix(0.75, 0, 0, 0.75, 0, 0)"/>
<path fill="none" stroke-width="1" stroke-linecap="butt" stroke-linejoin="miter" stroke="rgb(0%, 0%, 0%)" stroke-opacity="1" stroke-miterlimit="2" d="M 212.880208 200.5 L 212.880208 205.5 " transform="matrix(0.75, 0, 0, 0.75, 0, 0)"/>
<path fill="none" stroke-width="1" stroke-linecap="butt" stroke-linejoin="miter" stroke="rgb(0%, 0%, 0%)" stroke-opacity="1" stroke-miterlimit="2" d="M 243.182292 200.5 L 243.182292 205.5 " transform="matrix(0.75, 0, 0, 0.75, 0, 0)"/>
<path fill="none" stroke-width="1" stroke-linecap="butt" stroke-linejoin="miter" stroke="rgb(0%, 0%, 0%)" stroke-opacity="1" stroke-miterlimit="2" d="M 99.5 185.354167 L 94.5 185.354167 " transform="matrix(0.75, 0, 0, 0.75, 0, 0)"/>
<path fill="none" stroke-width="1" stroke-linecap="butt" stroke-linejoin="miter" stroke="rgb(0%, 0%, 0%)" stroke-opacity="1" stroke-miterlimit="2" d="M 99.5 165.151042 L 94.5 165.151042 " transform="matrix(0.75, 0, 0, 0.75, 0, 0)"/>
<path fill="none" stroke-width="1" stroke-linecap="butt" stroke-linejoin="miter" stroke="rgb(0%, 0%, 0%)" stroke-opacity="1" stroke-miterlimit="2" d="M 99.5 144.947917 L 94.5 144.947917 " transform="matrix(0.75, 0, 0, 0.75, 0, 0)"/>
<path fill="none" stroke-width="1" stroke-linecap="butt" stroke-linejoin="miter" stroke="rgb(0%, 0%, 0%)" stroke-opacity="1" stroke-miterlimit="2" d="M 99.5 124.75 L 94.5 124.75 " transform="matrix(0.75, 0, 0, 0.75, 0, 0)"/>
<path fill="none" stroke-width="1" stroke-linecap="butt" stroke-linejoin="miter" stroke="rgb(0%, 0%, 0%)" stroke-opacity="1" stroke-miterlimit="2" d="M 99.5 104.546875 L 94.5 104.546875 " transform="matrix(0.75, 0, 0, 0.75, 0, 0)"/>
<path fill="none" stroke-width="1.5" stroke-linecap="butt" stroke-linejoin="miter" stroke="rgb(0%, 44.705883%, 69.803923%)" stroke-opacity="1" stroke-miterlimit="2" d="M 106.817708 195.453125 L 121.96875 185.354167 L 137.119792 175.25 L 167.421875 155.052083 L 182.578125 144.947917 L 212.880208 124.75 L 228.03125 114.645833 L 243.182292 104.546875 " transform="matrix(0.75, 0, 0, 0.75, 0, 0)"/>
<path fill="none" stroke-width="1" stroke-linecap="butt" stroke-linejoin="miter" stroke="rgb(0%, 0%, 0%)" stroke-opacity="1" stroke-miterlimit="2" d="M 511.71875 300.5 L 511.71875 305.5 " transform="matrix(0.75, 0, 0, 0.75, 0, 0)"/>
<path fill="none" stroke-width="1" stroke-linecap="butt" stroke-linejoin="miter" stroke="rgb(0%, 0%, 0%)" stroke-opacity="1" stroke-miterlimit="2" d="M 527.880208 300.5 L 527.880208 305.5 " transform="matrix(0.75, 0, 0, 0.75, 0, 0)"/>
<path fill="none" stroke-width="1" stroke-linecap="butt" stroke-linejoin="miter" stroke="rgb(0%, 0%, 0%)" stroke-opacity="1" stroke-miterlimit="2" d="M 544.041667 300.5 L 544.041667 305.5 " transform="matrix(0.75, 0, 0, 0.75, 0, 0)"/>
<path fill="none" stroke-width="1" stroke-linecap="butt" stroke-linejoin="miter" stroke="rgb(0%, 0%, 0%)" stroke-opacity="1" stroke-miterlimit="2" d="M 560.203125 300.5 L 560.203125 305.5 " transform="matrix(0.75, 0, 0, 0.75, 0, 0)"/>
<path fill="none" stroke-width="1" stroke-linecap="butt" stroke-linejoin="miter" stroke="rgb(0%, 0%, 0%)" stroke-opacity="1" stroke-miterlimit="2" d="M 576.364583 300.5 L 576.364583 305.5 " transform="matrix(0.75, 0, 0, 0.75, 0, 0)"/>
<path fill="none" stroke-width="1" stroke-linecap="butt" stroke-linejoin="miter" stroke="rgb(0%, 0%, 0%)" stroke-opacity="1" stroke-miterlimit="2" d="M 499.5 285.354167 L 494.5 285.354167 " transform="matrix(0.75, 0, 0, 0.75, 0, 0)"/>
<path fill="none" stroke-width="1" stroke-linecap="butt" stroke-linejoin="miter" stroke="rgb(0%, 0%, 0%)" stroke-opacity="1" stroke-miterlimit="2" d="M 499.5 265.151042 L 494.5 265.151042 " transform="matrix(0.75, 0, 0, 0.75, 0, 0)"/>
<path fill="none" stroke-width="1" stroke-linecap="butt" stroke-linejoin="miter" stroke="rgb(0%, 0%, 0%)" stroke-opacity="1" stroke-miterlimit="2" d="M 499.5 244.947917 L 494.5 244.947917 " transform="matrix(0.75, 0, 0, 0.75, 0, 0)"/>
<path fill="none" stroke-width="1" stroke-linecap="butt" stroke-linejoin="miter" stroke="rgb(0%, 0%, 0%)" stroke-opacity="1" stroke-miterlimit="2" d="M 499.5 224.75 L 494.5 224.75 " transform="matrix(0.75, 0, 0, 0.75, 0, 0)"/>
<path fill="none" stroke-width="1" stroke-linecap="butt" stroke-linejoin="miter" stroke="rgb(0%, 0%, 0%)" stroke-opacity="1" stroke-miterlimit="2" d="M 499.5 204.546875 L 494.5 204.546875 " transform="matrix(0.75, 0, 0, 0.75, 0, 0)"/>
<path fill-rule="nonzero" fill="rgb(0%, 0%, 0%)" fill-opacity="1" d="M 380.105469 221.589844 C 380.105469 218.417969 375.347656 218.417969 375.347656 221.589844 C 375.347656 224.761719 380.105469 224.761719 380.105469 221.589844 Z M 380.105469 221.589844 "/>
<path fill-rule="nonzero" fill="rgb(0%, 0%, 0%)" fill-opacity="1" d="M 386.167969 214.015625 C 386.167969 210.84375 381.410156 210.84375 381.410156 214.015625 C 381.410156 217.1875 386.167969 217.1875 386.167969 214.015625 Z M 386.167969 214.015625 "/>
<path fill-rule="nonzero" fill="rgb(0%, 0%, 0%)" fill-opacity="1" d="M 392.226562 206.4375 C 392.226562 203.265625 387.46875 203.265625 387.46875 206.4375 C 387.46875 209.613281 392.226562 209.613281 392.226562 206.4375 Z M 392.226562 206.4375 "/>
<path fill-rule="nonzero" fill="rgb(0%, 0%, 0%)" fill-opacity="1" d="M 398.289062 198.863281 C 398.289062 195.691406 393.53125 195.691406 393.53125 198.863281 C 393.53125 202.035156 398.289062 202.035156 398.289062 198.863281 Z M 398.289062 198.863281 "/>
<path fill-rule="nonzero" fill="rgb(0%, 0%, 0%)" fill-opacity="1" d="M 404.347656 191.289062 C 404.347656 188.117188 399.589844 188.117188 399.589844 191.289062 C 399.589844 194.460938 404.347656 194.460938 404.347656 191.289062 Z M 404.347656 191.289062 "/>
<path fill-rule="nonzero" fill="rgb(0%, 0%, 0%)" fill-opacity="1" d="M 410.410156 183.710938 C 410.410156 180.539062 405.652344 180.539062 405.652344 183.710938 C 405.652344 186.882812 410.410156 186.882812 410.410156 183.710938 Z M 410.410156 183.710938 "/>
<path fill-rule="nonzero" fill="rgb(0%, 0%, 0%)" fill-opacity="1" d="M 416.46875 176.136719 C 416.46875 172.964844 411.710938 172.964844 411.710938 176.136719 C 411.710938 179.308594 416.46875 179.308594 416.46875 176.136719 Z M 416.46875 176.136719 "/>
<path fill-rule="nonzero" fill="rgb(0%, 0%, 0%)" fill-opacity="1" d="M 422.53125 168.5625 C 422.53125 165.386719 417.773438 165.386719 417.773438 168.5625 C 417.773438 171.734375 422.53125 171.734375 422.53125 168.5625 Z M 422.53125 168.5625 "/>
<path fill-rule="nonzero" fill="rgb(0%, 0%, 0%)" fill-opacity="1" d="M 428.589844 160.984375 C 428.589844 157.8125 423.832031 157.8125 423.832031 160.984375 C 423.832031 164.15625 428.589844 164.15625 428.589844 160.984375 Z M 428.589844 160.984375 "/>
<path fill-rule="nonzero" fill="rgb(0%, 0%, 0%)" fill-opacity="1" d="M 434.652344 153.410156 C 434.652344 150.238281 429.894531 150.238281 429.894531 153.410156 C 429.894531 156.582031 434.652344 156.582031 434.652344 153.410156 Z M 434.652344 153.410156 "/>
<path fill="none" stroke-width="1" stroke-linecap="butt" stroke-linejoin="miter" stroke="rgb(0%, 0%, 0%)" stroke-opacity="1" stroke-miterlimit="2" d="M 40.5 361 L 584.5 361 " transform="matrix(0.75, 0, 0, 0.75, 0, 0)"/>
<path fill="none" stroke-width="1" stroke-linecap="butt" stroke-linejoin="miter" stroke="rgb(0%, 0%, 0%)" stroke-opacity="1" stroke-miterlimit="2" d="M 41 361.5 L 41 15.5 " transform="matrix(0.75, 0, 0, 0.75, 0, 0)"/>
<path fill="none" stroke-width="1" stroke-linecap="butt" stroke-linejoin="miter" stroke="rgb(0%, 0%, 0%)" stroke-opacity="1" stroke-miterlimit="2" d="M 40.5 16 L 584.5 16 " transform="matrix(0.75, 0, 0, 0.75, 0, 0)"/>
<path fill="none" stroke-width="1" stroke-linecap="butt" stroke-linejoin="miter" stroke="rgb(0%, 0%, 0%)" stroke-opacity="1" stroke-miterlimit="2" d="M 584 361.5 L 584 15.5 " transform="matrix(0.75, 0, 0, 0.75, 0, 0)"/>
<path fill="none" stroke-width="1" stroke-linecap="butt" stroke-linejoin="miter" stroke="rgb(0%, 0%, 0%)" stroke-opacity="1" stroke-miterlimit="2" d="M 99.5 200 L 250.5 200 " transform="matrix(0.75, 0, 0, 0.75, 0, 0)"/>
<path fill="none" stroke-width="1" stroke-linecap="butt" stroke-linejoin="miter" stroke="rgb(0%, 0%, 0%)" stroke-opacity="1" stroke-miterlimit="2" d="M 100 200.5 L 100 99.5 " transform="matrix(0.75, 0, 0, 0.75, 0, 0)"/>
<path fill="none" stroke-width="1" stroke-linecap="butt" stroke-linejoin="miter" stroke="rgb(0%, 0%, 0%)" stroke-opacity="1" stroke-miterlimit="2" d="M 99.5 100 L 250.5 100 " transform="matrix(0.75, 0, 0, 0.75, 0, 0)"/>
<path fill="none" stroke-width="1" stroke-linecap="butt" stroke-linejoin="miter" stroke="rgb(0%, 0%, 0%)" stroke-opacity="1" stroke-miterlimit="2" d="M 250 200.5 L 250 99.5 " transform="matrix(0.75, 0, 0, 0.75, 0, 0)"/>
<path fill="none" stroke-width="1" stroke-linecap="butt" stroke-linejoin="miter" stroke="rgb(0%, 0%, 0%)" stroke-opacity="1" stroke-miterlimit="2" d="M 499.5 300 L 580.5 300 " transform="matrix(0.75, 0, 0, 0.75, 0, 0)"/>
<path fill="none" stroke-width="1" stroke-linecap="butt" stroke-linejoin="miter" stroke="rgb(0%, 0%, 0%)" stroke-opacity="1" stroke-miterlimit="2" d="M 500 300.5 L 500 199.5 " transform="matrix(0.75, 0, 0, 0.75, 0, 0)"/>
<path fill="none" stroke-width="1" stroke-linecap="butt" stroke-linejoin="miter" stroke="rgb(0%, 0%, 0%)" stroke-opacity="1" stroke-miterlimit="2" d="M 499.5 200 L 580.5 200 " transform="matrix(0.75, 0, 0, 0.75, 0, 0)"/>
<path fill="none" stroke-width="1" stroke-linecap="butt" stroke-linejoin="miter" stroke="rgb(0%, 0%, 0%)" stroke-opacity="1" stroke-miterlimit="2" d="M 580 300.5 L 580 199.5 " transform="matrix(0.75, 0, 0, 0.75, 0, 0)"/>
</svg>
