<?xml version="1.0" encoding="UTF-8"?>
<svg xmlns="http://www.w3.org/2000/svg" xmlns:xlink="http://www.w3.org/1999/xlink" width="450" height="338" viewBox="0 0 450 338">
<defs>
<g>
<g id="glyph-0-0-617d6b9a">
<path d="M 5.328125 -3.578125 C 5.328125 -1.140625 4.46875 0.15625 2.890625 0.15625 C 1.296875 0.15625 0.453125 -1.140625 0.453125 -3.640625 C 0.453125 -6.140625 1.28125 -7.4375 2.890625 -7.4375 C 4.5 -7.4375 5.328125 -6.15625 5.328125 -3.578125 Z M 4.375 -3.671875 C 4.375 -5.65625 3.890625 -6.625 2.890625 -6.625 C 1.890625 -6.625 1.390625 -5.671875 1.390625 -3.640625 C 1.390625 -1.59375 1.890625 -0.609375 2.859375 -0.609375 C 3.890625 -0.609375 4.375 -1.546875 4.375 -3.671875 Z M 4.375 -3.671875 "/>
</g>
<g id="glyph-1-0-617d6b9a">
<path d="M 5.390625 -2.46875 C 5.390625 -0.890625 4.34375 0.15625 2.828125 0.15625 C 1.515625 0.15625 0.671875 -0.4375 0.375 -1.90625 C 0.375 -1.90625 1.296875 -1.90625 1.296875 -1.90625 C 1.515625 -1.078125 2 -0.65625 2.8125 -0.65625 C 3.828125 -0.65625 4.4375 -1.265625 4.4375 -2.34375 C 4.4375 -3.4375 3.8125 -4.078125 2.8125 -4.078125 C 2.234375 -4.078125 1.875 -3.90625 1.453125 -3.390625 C 1.453125 -3.390625 0.59375 -3.390625 0.59375 -3.390625 C 0.59375 -3.390625 1.15625 -7.28125 1.15625 -7.28125 C 1.15625 -7.28125 5 -7.28125 5 -7.28125 C 5 -7.28125 5 -6.375 5 -6.375 C 5 -6.375 1.90625 -6.375 1.90625 -6.375 C 1.90625 -6.375 1.609375 -4.453125 1.609375 -4.453125 C 2.03125 -4.765625 2.453125 -4.90625 2.984375 -4.90625 C 4.40625 -4.90625 5.390625 -3.9375 5.390625 -2.46875 Z M 5.390625 -2.46875 "/>
</g>
<g id="glyph-2-0-617d6b9a">
<path d="M 3.640625 0 C 3.640625 0 2.71875 0 2.71875 0 C 2.71875 0 2.71875 -5.296875 2.71875 -5.296875 C 2.71875 -5.296875 1.078125 -5.296875 1.078125 -5.296875 C 1.078125 -5.296875 1.078125 -5.96875 1.078125 -5.96875 C 2.5 -6.140625 2.703125 -6.296875 3.03125 -7.4375 C 3.03125 -7.4375 3.640625 -7.4375 3.640625 -7.4375 C 3.640625 -7.4375 3.640625 0 3.640625 0 Z M 3.640625 0 "/>
</g>
<g id="glyph-2-1-617d6b9a">
<path d="M 5.328125 -3.578125 C 5.328125 -1.140625 4.46875 0.15625 2.890625 0.15625 C 1.296875 0.15625 0.453125 -1.140625 0.453125 -3.640625 C 0.453125 -6.140625 1.28125 -7.4375 2.890625 -7.4375 C 4.5 -7.4375 5.328125 -6.15625 5.328125 -3.578125 Z M 4.375 -3.671875 C 4.375 -5.65625 3.890625 -6.625 2.890625 -6.625 C 1.890625 -6.625 1.390625 -5.671875 1.390625 -3.640625 C 1.390625 -1.59375 1.890625 -0.609375 2.859375 -0.609375 C 3.890625 -0.609375 4.375 -1.546875 4.375 -3.671875 Z M 4.375 -3.671875 "/>
</g>
<g id="glyph-2-2-617d6b9a">
<path d="M 5.390625 -2.46875 C 5.390625 -0.890625 4.34375 0.15625 2.828125 0.15625 C 1.515625 0.15625 0.671875 -0.4375 0.375 -1.90625 C 0.375 -1.90625 1.296875 -1.90625 1.296875 -1.90625 C 1.515625 -1.078125 2 -0.65625 2.8125 -0.65625 C 3.828125 -0.65625 4.4375 -1.265625 4.4375 -2.34375 C 4.4375 -3.4375 3.8125 -4.078125 2.8125 -4.078125 C 2.234375 -4.078125 1.875 -3.90625 1.453125 -3.390625 C 1.453125 -3.390625 0.59375 -3.390625 0.59375 -3.390625 C 0.59375 -3.390625 1.15625 -7.28125 1.15625 -7.28125 C 1.15625 -7.28125 5 -7.28125 5 -7.28125 C 5 -7.28125 5 -6.375 5 -6.375 C 5 -6.375 1.90625 -6.375 1.90625 -6.375 C 1.90625 -6.375 1.609375 -4.453125 1.609375 -4.453125 C 2.03125 -4.765625 2.453125 -4.90625 2.984375 -4.90625 C 4.40625 -4.90625 5.390625 -3.9375 5.390625 -2.46875 Z M 5.390625 -2.46875 "/>
</g>
<g id="glyph-3-0-617d6b9a">
<path d="M 5.328125 -3.578125 C 5.328125 -1.140625 4.46875 0.15625 2.890625 0.15625 C 1.296875 0.15625 0.453125 -1.140625 0.453125 -3.640625 C 0.453125 -6.140625 1.28125 -7.4375 2.890625 -7.4375 C 4.5 -7.4375 5.328125 -6.15625 5.328125 -3.578125 Z M 4.375 -3.671875 C 4.375 -5.65625 3.890625 -6.625 2.890625 -6.625 C 1.890625 -6.625 1.390625 -5.671875 1.390625 -3.640625 C 1.390625 -1.59375 1.890625 -0.609375 2.859375 -0.609375 C 3.890625 -0.609375 4.375 -1.546875 4.375 -3.671875 Z M 4.375 -3.671875 "/>
</g>
<g id="glyph-3-1-617d6b9a">
<path d="M 5.390625 -2.46875 C 5.390625 -0.890625 4.34375 0.15625 2.828125 0.15625 C 1.515625 0.15625 0.671875 -0.4375 0.375 -1.90625 C 0.375 -1.90625 1.296875 -1.90625 1.296875 -1.90625 C 1.515625 -1.078125 2 -0.65625 2.8125 -0.65625 C 3.828125 -0.65625 4.4375 -1.265625 4.4375 -2.34375 C 4.4375 -3.4375 3.8125 -4.078125 2.8125 -4.078125 C 2.234375 -4.078125 1.875 -3.90625 1.453125 -3.390625 C 1.453125 -3.390625 0.59375 -3.390625 0.59375 -3.390625 C 0.59375 -3.390625 1.15625 -7.28125 1.15625 -7.28125 C 1.15625 -7.28125 5 -7.28125 5 -7.28125 C 5 -7.28125 5 -6.375 5 -6.375 C 5 -6.375 1.90625 -6.375 1.90625 -6.375 C 1.90625 -6.375 1.609375 -4.453125 1.609375 -4.453125 C 2.03125 -4.765625 2.453125 -4.90625 2.984375 -4.90625 C 4.40625 -4.90625 5.390625 -3.9375 5.390625 -2.46875 Z M 5.390625 -2.46875 "/>
</g>
<g id="glyph-4-0-617d6b9a">
<path d="M 5.390625 -2.46875 C 5.390625 -0.890625 4.34375 0.15625 2.828125 0.15625 C 1.515625 0.15625 0.671875 -0.4375 0.375 -1.90625 C 0.375 -1.90625 1.296875 -1.90625 1.296875 -1.90625 C 1.515625 -1.078125 2 -0.65625 2.8125 -0.65625 C 3.828125 -0.65625 4.4375 -1.265625 4.4375 -2.34375 C 4.4375 -3.4375 3.8125 -4.078125 2.8125 -4.078125 C 2.234375 -4.078125 1.875 -3.90625 1.453125 -3.390625 C 1.453125 -3.390625 0.59375 -3.390625 0.59375 -3.390625 C 0.59375 -3.390625 1.15625 -7.28125 1.15625 -7.28125 C 1.15625 -7.28125 5 -7.28125 5 -7.28125 C 5 -7.28125 5 -6.375 5 -6.375 C 5 -6.375 1.90625 -6.375 1.90625 -6.375 C 1.90625 -6.375 1.609375 -4.453125 1.609375 -4.453125 C 2.03125 -4.765625 2.453125 -4.90625 2.984375 -4.90625 C 4.40625 -4.90625 5.390625 -3.9375 5.390625 -2.46875 Z M 5.390625 -2.46875 "/>
</g>
<g id="glyph-5-0-617d6b9a">
<path d="M 3.640625 0 C 3.640625 0 2.71875 0 2.71875 0 C 2.71875 0 2.71875 -5.296875 2.71875 -5.296875 C 2.71875 -5.296875 1.078125 -5.296875 1.078125 -5.296875 C 1.078125 -5.296875 1.078125 -5.96875 1.078125 -5.96875 C 2.5 -6.140625 2.703125 -6.296875 3.03125 -7.4375 C 3.03125 -7.4375 3.640625 -7.4375 3.640625 -7.4375 C 3.640625 -7.4375 3.640625 0 3.640625 0 Z M 3.640625 0 "/>
</g>
<g id="glyph-6-0-617d6b9a">
<path d="M 5.328125 -3.578125 C 5.328125 -1.140625 4.46875 0.15625 2.890625 0.15625 C 1.296875 0.15625 0.453125 -1.140625 0.453125 -3.640625 C 0.453125 -6.140625 1.28125 -7.4375 2.890625 -7.4375 C 4.5 -7.4375 5.328125 -6.15625 5.328125 -3.578125 Z M 4.375 -3.671875 C 4.375 -5.65625 3.890625 -6.625 2.890625 -6.625 C 1.890625 -6.625 1.390625 -5.671875 1.390625 -3.640625 C 1.390625 -1.59375 1.890625 -0.609375 2.859375 -0.609375 C 3.890625 -0.609375 4.375 -1.546875 4.375 -3.671875 Z M 4.375 -3.671875 "/>
</g>
<g id="glyph-7-0-617d6b9a">
<path d="M 5.328125 -3.578125 C 5.328125 -1.140625 4.46875 0.15625 2.890625 0.15625 C 1.296875 0.15625 0.453125 -1.140625 0.453125 -3.640625 C 0.453125 -6.140625 1.28125 -7.4375 2.890625 -7.4375 C 4.5 -7.4375 5.328125 -6.15625 5.328125 -3.578125 Z M 4.375 -3.671875 C 4.375 -5.65625 3.890625 -6.625 2.890625 -6.625 C 1.890625 -6.625 1.390625 -5.671875 1.390625 -3.640625 C 1.390625 -1.59375 1.890625 -0.609375 2.859375 -0.609375 C 3.890625 -0.609375 4.375 -1.546875 4.375 -3.671875 Z M 4.375 -3.671875 "/>
</g>
<g id="glyph-8-0-617d6b9a">
<path d="M 5.390625 -2.46875 C 5.390625 -0.890625 4.34375 0.15625 2.828125 0.15625 C 1.515625 0.15625 0.671875 -0.4375 0.375 -1.90625 C 0.375 -1.90625 1.296875 -1.90625 1.296875 -1.90625 C 1.515625 -1.078125 2 -0.65625 2.8125 -0.65625 C 3.828125 -0.65625 4.4375 -1.265625 4.4375 -2.34375 C 4.4375 -3.4375 3.8125 -4.078125 2.8125 -4.078125 C 2.234375 -4.078125 1.875 -3.90625 1.453125 -3.390625 C 1.453125 -3.390625 0.59375 -3.390625 0.59375 -3.390625 C 0.59375 -3.390625 1.15625 -7.28125 1.15625 -7.28125 C 1.15625 -7.28125 5 -7.28125 5 -7.28125 C 5 -7.28125 5 -6.375 5 -6.375 C 5 -6.375 1.90625 -6.375 1.90625 -6.375 C 1.90625 -6.375 1.609375 -4.453125 1.609375 -4.453125 C 2.03125 -4.765625 2.453125 -4.90625 2.984375 -4.90625 C 4.40625 -4.90625 5.390625 -3.9375 5.390625 -2.46875 Z M 5.390625 -2.46875 "/>
</g>
<g id="glyph-9-0-617d6b9a">
<path d="M 3.640625 0 C 3.640625 0 2.71875 0 2.71875 0 C 2.71875 0 2.71875 -5.296875 2.71875 -5.296875 C 2.71875 -5.296875 1.078125 -5.296875 1.078125 -5.296875 C 1.078125 -5.296875 1.078125 -5.96875 1.078125 -5.96875 C 2.5 -6.140625 2.703125 -6.296875 3.03125 -7.4375 C 3.03125 -7.4375 3.640625 -7.4375 3.640625 -7.4375 C 3.640625 -7.4375 3.640625 0 3.640625 0 Z M 3.640625 0 "/>
</g>
<g id="glyph-9-1-617d6b9a">
<path d="M 5.328125 -3.578125 C 5.328125 -1.140625 4.46875 0.15625 2.890625 0.15625 C 1.296875 0.15625 0.453125 -1.140625 0.453125 -3.640625 C 0.453125 -6.140625 1.28125 -7.4375 2.890625 -7.4375 C 4.5 -7.4375 5.328125 -6.15625 5.328125 -3.578125 Z M 4.375 -3.671875 C 4.375 -5.65625 3.890625 -6.625 2.890625 -6.625 C 1.890625 -6.625 1.390625 -5.671875 1.390625 -3.640625 C 1.390625 -1.59375 1.890625 -0.609375 2.859375 -0.609375 C 3.890625 -0.609375 4.375 -1.546875 4.375 -3.671875 Z M 4.375 -3.671875 "/>
</g>
<g id="glyph-9-2-617d6b9a">
<path d="M 5.390625 -2.46875 C 5.390625 -0.890625 4.34375 0.15625 2.828125 0.15625 C 1.515625 0.15625 0.671875 -0.4375 0.375 -1.90625 C 0.375 -1.90625 1.296875 -1.90625 1.296875 -1.90625 C 1.515625 -1.078125 2 -0.65625 2.8125 -0.65625 C 3.828125 -0.65625 4.4375 -1.265625 4.4375 -2.34375 C 4.4375 -3.4375 3.8125 -4.078125 2.8125 -4.078125 C 2.234375 -4.078125 1.875 -3.90625 1.453125 -3.390625 C 1.453125 -3.390625 0.59375 -3.390625 0.59375 -3.390625 C 0.59375 -3.390625 1.15625 -7.28125 1.15625 -7.28125 C 1.15625 -7.28125 5 -7.28125 5 -7.28125 C 5 -7.28125 5 -6.375 5 -6.375 C 5 -6.375 1.90625 -6.375 1.90625 -6.375 C 1.90625 -6.375 1.609375 -4.453125 1.609375 -4.453125 C 2.03125 -4.765625 2.453125 -4.90625 2.984375 -4.90625 C 4.40625 -4.90625 5.390625 -3.9375 5.390625 -2.46875 Z M 5.390625 -2.46875 "/>
</g>
<g id="glyph-10-0-617d6b9a">
<path d="M 5.390625 -2.46875 C 5.390625 -0.890625 4.34375 0.15625 2.828125 0.15625 C 1.515625 0.15625 0.671875 -0.4375 0.375 -1.90625 C 0.375 -1.90625 1.296875 -1.90625 1.296875 -1.90625 C 1.515625 -1.078125 2 -0.65625 2.8125 -0.65625 C 3.828125 -0.65625 4.4375 -1.265625 4.4375 -2.34375 C 4.4375 -3.4375 3.8125 -4.078125 2.8125 -4.078125 C 2.234375 -4.078125 1.875 -3.90625 1.453125 -3.390625 C 1.453125 -3.390625 0.59375 -3.390625 0.59375 -3.390625 C 0.59375 -3.390625 1.15625 -7.28125 1.15625 -7.28125 C 1.15625 -7.28125 5 -7.28125 5 -7.28125 C 5 -7.28125 5 -6.375 5 -6.375 C 5 -6.375 1.90625 -6.375 1.90625 -6.375 C 1.90625 -6.375 1.609375 -4.453125 1.609375 -4.453125 C 2.03125 -4.765625 2.453125 -4.90625 2.984375 -4.90625 C 4.40625 -4.90625 5.390625 -3.9375 5.390625 -2.46875 Z M 5.390625 -2.46875 "/>
</g>
<g id="glyph-10-1-617d6b9a">
<path d="M 5.328125 -3.578125 C 5.328125 -1.140625 4.46875 0.15625 2.890625 0.15625 C 1.296875 0.15625 0.453125 -1.140625 0.453125 -3.640625 C 0.453125 -6.140625 1.28125 -7.4375 2.890625 -7.4375 C 4.5 -7.4375 5.328125 -6.15625 5.328125 -3.578125 Z M 4.375 -3.671875 C 4.375 -5.65625 3.890625 -6.625 2.890625 -6.625 C 1.890625 -6.625 1.390625 -5.671875 1.390625 -3.640625 C 1.390625 -1.59375 1.890625 -0.609375 2.859375 -0.609375 C 3.890625 -0.609375 4.375 -1.546875 4.375 -3.671875 Z M 4.375 -3.671875 "/>
</g>
<g id="glyph-11-0-617d6b9a">
<path d="M 3.640625 0 C 3.640625 0 2.71875 0 2.71875 0 C 2.71875 0 2.71875 -5.296875 2.71875 -5.296875 C 2.71875 -5.296875 1.078125 -5.296875 1.078125 -5.296875 C 1.078125 -5.296875 1.078125 -5.96875 1.078125 -5.96875 C 2.5 -6.140625 2.703125 -6.296875 3.03125 -7.4375 C 3.03125 -7.4375 3.640625 -7.4375 3.640625 -7.4375 C 3.640625 -7.4375 3.640625 0 3.640625 0 Z M 3.640625 0 "/>
</g>
<g id="glyph-12-0-617d6b9a">
<path d="M 5.328125 -3.578125 C 5.328125 -1.140625 4.46875 0.15625 2.890625 0.15625 C 1.296875 0.15625 0.453125 -1.140625 0.453125 -3.640625 C 0.453125 -6.140625 1.28125 -7.4375 2.890625 -7.4375 C 4.5 -7.4375 5.328125 -6.15625 5.328125 -3.578125 Z M 4.375 -3.671875 C 4.375 -5.65625 3.890625 -6.625 2.890625 -6.625 C 1.890625 -6.625 1.390625 -5.671875 1.390625 -3.640625 C 1.390625 -1.59375 1.890625 -0.609375 2.859375 -0.609375 C 3.890625 -0.609375 4.375 -1.546875 4.375 -3.671875 Z M 4.375 -3.671875 "/>
</g>
<g id="glyph-13-0-617d6b9a">
<path d="M 5.390625 -2.46875 C 5.390625 -0.890625 4.34375 0.15625 2.828125 0.15625 C 1.515625 0.15625 0.671875 -0.4375 0.375 -1.90625 C 0.375 -1.90625 1.296875 -1.90625 1.296875 -1.90625 C 1.515625 -1.078125 2 -0.65625 2.8125 -0.65625 C 3.828125 -0.65625 4.4375 -1.265625 4.4375 -2.34375 C 4.4375 -3.4375 3.8125 -4.078125 2.8125 -4.078125 C 2.234375 -4.078125 1.875 -3.90625 1.453125 -3.390625 C 1.453125 -3.390625 0.59375 -3.390625 0.59375 -3.390625 C 0.59375 -3.390625 1.15625 -7.28125 1.15625 -7.28125 C 1.15625 -7.28125 5 -7.28125 5 -7.28125 C 5 -7.28125 5 -6.375 5 -6.375 C 5 -6.375 1.90625 -6.375 1.90625 -6.375 C 1.90625 -6.375 1.609375 -4.453125 1.609375 -4.453125 C 2.03125 -4.765625 2.453125 -4.90625 2.984375 -4.90625 C 4.40625 -4.90625 5.390625 -3.9375 5.390625 -2.46875 Z M 5.390625 -2.46875 "/>
</g>
<g id="glyph-13-1-617d6b9a">
<path d="M 5.328125 -3.578125 C 5.328125 -1.140625 4.46875 0.15625 2.890625 0.15625 C 1.296875 0.15625 0.453125 -1.140625 0.453125 -3.640625 C 0.453125 -6.140625 1.28125 -7.4375 2.890625 -7.4375 C 4.5 -7.4375 5.328125 -6.15625 5.328125 -3.578125 Z M 4.375 -3.671875 C 4.375 -5.65625 3.890625 -6.625 2.890625 -6.625 C 1.890625 -6.625 1.390625 -5.671875 1.390625 -3.640625 C 1.390625 -1.59375 1.890625 -0.609375 2.859375 -0.609375 C 3.890625 -0.609375 4.375 -1.546875 4.375 -3.671875 Z M 4.375 -3.671875 "/>
</g>
<g id="glyph-14-0-617d6b9a">
<path d="M 3.640625 0 C 3.640625 0 2.71875 0 2.71875 0 C 2.71875 0 2.71875 -5.296875 2.71875 -5.296875 C 2.71875 -5.296875 1.078125 -5.296875 1.078125 -5.296875 C 1.078125 -5.296875 1.078125 -5.96875 1.078125 -5.96875 C 2.5 -6.140625 2.703125 -6.296875 3.03125 -7.4375 C 3.03125 -7.4375 3.640625 -7.4375 3.640625 -7.4375 C 3.640625 -7.4375 3.640625 0 3.640625 0 Z M 3.640625 0 "/>
</g>
<g id="glyph-14-1-617d6b9a">
<path d="M 5.328125 -3.578125 C 5.328125 -1.140625 4.46875 0.15625 2.890625 0.15625 C 1.296875 0.15625 0.453125 -1.140625 0.453125 -3.640625 C 0.453125 -6.140625 1.28125 -7.4375 2.890625 -7.4375 C 4.5 -7.4375 5.328125 -6.15625 5.328125 -3.578125 Z M 4.375 -3.671875 C 4.375 -5.65625 3.890625 -6.625 2.890625 -6.625 C 1.890625 -6.625 1.390625 -5.671875 1.390625 -3.640625 C 1.390625 -1.59375 1.890625 -0.609375 2.859375 -0.609375 C 3.890625 -0.609375 4.375 -1.546875 4.375 -3.671875 Z M 4.375 -3.671875 "/>
</g>
<g id="glyph-15-0-617d6b9a">
<path d="M 5.390625 -2.46875 C 5.390625 -0.890625 4.34375 0.15625 2.828125 0.15625 C 1.515625 0.15625 0.671875 -0.4375 0.375 -1.90625 C 0.375 -1.90625 1.296875 -1.90625 1.296875 -1.90625 C 1.515625 -1.078125 2 -0.65625 2.8125 -0.65625 C 3.828125 -0.65625 4.4375 -1.265625 4.4375 -2.34375 C 4.4375 -3.4375 3.8125 -4.078125 2.8125 -4.078125 C 2.234375 -4.078125 1.875 -3.90625 1.453125 -3.390625 C 1.453125 -3.390625 0.59375 -3.390625 0.59375 -3.390625 C 0.59375 -3.390625 1.15625 -7.28125 1.15625 -7.28125 C 1.15625 -7.28125 5 -7.28125 5 -7.28125 C 5 -7.28125 5 -6.375 5 -6.375 C 5 -6.375 1.90625 -6.375 1.90625 -6.375 C 1.90625 -6.375 1.609375 -4.453125 1.609375 -4.453125 C 2.03125 -4.765625 2.453125 -4.90625 2.984375 -4.90625 C 4.40625 -4.90625 5.390625 -3.9375 5.390625 -2.46875 Z M 5.390625 -2.46875 "/>
</g>
<g id="glyph-15-1-617d6b9a">
<path d="M 5.328125 -3.578125 C 5.328125 -1.140625 4.46875 0.15625 2.890625 0.15625 C 1.296875 0.15625 0.453125 -1.140625 0.453125 -3.640625 C 0.453125 -6.140625 1.28125 -7.4375 2.890625 -7.4375 C 4.5 -7.4375 5.328125 -6.15625 5.328125 -3.578125 Z M 4.375 -3.671875 C 4.375 -5.65625 3.890625 -6.625 2.890625 -6.625 C 1.890625 -6.625 1.390625 -5.671875 1.390625 -3.640625 C 1.390625 -1.59375 1.890625 -0.609375 2.859375 -0.609375 C 3.890625 -0.609375 4.375 -1.546875 4.375 -3.671875 Z M 4.375 -3.671875 "/>
</g>
<g id="glyph-15-2-617d6b9a">
<path d="M 3.640625 0 C 3.640625 0 2.71875 0 2.71875 0 C 2.71875 0 2.71875 -5.296875 2.71875 -5.296875 C 2.71875 -5.296875 1.078125 -5.296875 1.078125 -5.296875 C 1.078125 -5.296875 1.078125 -5.96875 1.078125 -5.96875 C 2.5 -6.140625 2.703125 -6.296875 3.03125 -7.4375 C 3.03125 -7.4375 3.640625 -7.4375 3.640625 -7.4375 C 3.640625 -7.4375 3.640625 0 3.640625 0 Z M 3.640625 0 "/>
</g>
<g id="glyph-16-0-617d6b9a">
<path d="M 3.640625 0 C 3.640625 0 2.71875 0 2.71875 0 C 2.71875 0 2.71875 -5.296875 2.71875 -5.296875 C 2.71875 -5.296875 1.078125 -5.296875 1.078125 -5.296875 C 1.078125 -5.296875 1.078125 -5.96875 1.078125 -5.96875 C 2.5 -6.140625 2.703125 -6.296875 3.03125 -7.4375 C 3.03125 -7.4375 3.640625 -7.4375 3.640625 -7.4375 C 3.640625 -7.4375 3.640625 0 3.640625 0 Z M 3.640625 0 "/>
</g>
<g id="glyph-16-1-617d6b9a">
<path d="M 5.328125 -3.578125 C 5.328125 -1.140625 4.46875 0.15625 2.890625 0.15625 C 1.296875 0.15625 0.453125 -1.140625 0.453125 -3.640625 C 0.453125 -6.140625 1.28125 -7.4375 2.890625 -7.4375 C 4.5 -7.4375 5.328125 -6.15625 5.328125 -3.578125 Z M 4.375 -3.671875 C 4.375 -5.65625 3.890625 -6.625 2.890625 -6.625 C 1.890625 -6.625 1.390625 -5.671875 1.390625 -3.640625 C 1.390625 -1.59375 1.890625 -0.609375 2.859375 -0.609375 C 3.890625 -0.609375 4.375 -1.546875 4.375 -3.671875 Z M 4.375 -3.671875 "/>
</g>
<g id="glyph-17-0-617d6b9a">
<path d="M 5.328125 -3.578125 C 5.328125 -1.140625 4.46875 0.15625 2.890625 0.15625 C 1.296875 0.15625 0.453125 -1.140625 0.453125 -3.640625 C 0.453125 -6.140625 1.28125 -7.4375 2.890625 -7.4375 C 4.5 -7.4375 5.328125 -6.15625 5.328125 -3.578125 Z M 4.375 -3.671875 C 4.375 -5.65625 3.890625 -6.625 2.890625 -6.625 C 1.890625 -6.625 1.390625 -5.671875 1.390625 -3.640625 C 1.390625 -1.59375 1.890625 -0.609375 2.859375 -0.609375 C 3.890625 -0.609375 4.375 -1.546875 4.375 -3.671875 Z M 4.375 -3.671875 "/>
</g>
<g id="glyph-18-0-617d6b9a">
<path d="M 3.640625 0 C 3.640625 0 2.71875 0 2.71875 0 C 2.71875 0 2.71875 -5.296875 2.71875 -5.296875 C 2.71875 -5.296875 1.078125 -5.296875 1.078125 -5.296875 C 1.078125 -5.296875 1.078125 -5.96875 1.078125 -5.96875 C 2.5 -6.140625 2.703125 -6.296875 3.03125 -7.4375 C 3.03125 -7.4375 3.640625 -7.4375 3.640625 -7.4375 C 3.640625 -7.4375 3.640625 0 3.640625 0 Z M 3.640625 0 "/>
</g>
<g id="glyph-18-1-617d6b9a">
<path d="M 5.328125 -3.578125 C 5.328125 -1.140625 4.46875 0.15625 2.890625 0.15625 C 1.296875 0.15625 0.453125 -1.140625 0.453125 -3.640625 C 0.453125 -6.140625 1.28125 -7.4375 2.890625 -7.4375 C 4.5 -7.4375 5.328125 -6.15625 5.328125 -3.578125 Z M 4.375 -3.671875 C 4.375 -5.65625 3.890625 -6.625 2.890625 -6.625 C 1.890625 -6.625 1.390625 -5.671875 1.390625 -3.640625 C 1.390625 -1.59375 1.890625 -0.609375 2.859375 -0.609375 C 3.890625 -0.609375 4.375 -1.546875 4.375 -3.671875 Z M 4.375 -3.671875 "/>
</g>
<g id="glyph-18-2-617d6b9a">
<path d="M 5.390625 -2.46875 C 5.390625 -0.890625 4.34375 0.15625 2.828125 0.15625 C 1.515625 0.15625 0.671875 -0.4375 0.375 -1.90625 C 0.375 -1.90625 1.296875 -1.90625 1.296875 -1.90625 C 1.515625 -1.078125 2 -0.65625 2.8125 -0.65625 C 3.828125 -0.65625 4.4375 -1.265625 4.4375 -2.34375 C 4.4375 -3.4375 3.8125 -4.078125 2.8125 -4.078125 C 2.234375 -4.078125 1.875 -3.90625 1.453125 -3.390625 C 1.453125 -3.390625 0.59375 -3.390625 0.59375 -3.390625 C 0.59375 -3.390625 1.15625 -7.28125 1.15625 -7.28125 C 1.15625 -7.28125 5 -7.28125 5 -7.28125 C 5 -7.28125 5 -6.375 5 -6.375 C 5 -6.375 1.90625 -6.375 1.90625 -6.375 C 1.90625 -6.375 1.609375 -4.453125 1.609375 -4.453125 C 2.03125 -4.765625 2.453125 -4.90625 2.984375 -4.90625 C 4.40625 -4.90625 5.390625 -3.9375 5.390625 -2.46875 Z M 5.390625 -2.46875 "/>
</g>
<g id="glyph-19-0-617d6b9a">
<path d="M 3.640625 0 C 3.640625 0 2.71875 0 2.71875 0 C 2.71875 0 2.71875 -5.296875 2.71875 -5.296875 C 2.71875 -5.296875 1.078125 -5.296875 1.078125 -5.296875 C 1.078125 -5.296875 1.078125 -5.96875 1.078125 -5.96875 C 2.5 -6.140625 2.703125 -6.296875 3.03125 -7.4375 C 3.03125 -7.4375 3.640625 -7.4375 3.640625 -7.4375 C 3.640625 -7.4375 3.640625 0 3.640625 0 Z M 3.640625 0 "/>
</g>
<g id="glyph-20-0-617d6b9a">
<path d="M 5.390625 -2.46875 C 5.390625 -0.890625 4.34375 0.15625 2.828125 0.15625 C 1.515625 0.15625 0.671875 -0.4375 0.375 -1.90625 C 0.375 -1.90625 1.296875 -1.90625 1.296875 -1.90625 C 1.515625 -1.078125 2 -0.65625 2.8125 -0.65625 C 3.828125 -0.65625 4.4375 -1.265625 4.4375 -2.34375 C 4.4375 -3.4375 3.8125 -4.078125 2.8125 -4.078125 C 2.234375 -4.078125 1.875 -3.90625 1.453125 -3.390625 C 1.453125 -3.390625 0.59375 -3.390625 0.59375 -3.390625 C 0.59375 -3.390625 1.15625 -7.28125 1.15625 -7.28125 C 1.15625 -7.28125 5 -7.28125 5 -7.28125 C 5 -7.28125 5 -6.375 5 -6.375 C 5 -6.375 1.90625 -6.375 1.90625 -6.375 C 1.90625 -6.375 1.609375 -4.453125 1.609375 -4.453125 C 2.03125 -4.765625 2.453125 -4.90625 2.984375 -4.90625 C 4.40625 -4.90625 5.390625 -3.9375 5.390625 -2.46875 Z M 5.390625 -2.46875 "/>
</g>
<g id="glyph-20-1-617d6b9a">
<path d="M 3.640625 0 C 3.640625 0 2.71875 0 2.71875 0 C 2.71875 0 2.71875 -5.296875 2.71875 -5.296875 C 2.71875 -5.296875 1.078125 -5.296875 1.078125 -5.296875 C 1.078125 -5.296875 1.078125 -5.96875 1.078125 -5.96875 C 2.5 -6.140625 2.703125 -6.296875 3.03125 -7.4375 C 3.03125 -7.4375 3.640625 -7.4375 3.640625 -7.4375 C 3.640625 -7.4375 3.640625 0 3.640625 0 Z M 3.640625 0 "/>
</g>
<g id="glyph-21-0-617d6b9a">
<path d="M 5.328125 -3.578125 C 5.328125 -1.140625 4.46875 0.15625 2.890625 0.15625 C 1.296875 0.15625 0.453125 -1.140625 0.453125 -3.640625 C 0.453125 -6.140625 1.28125 -7.4375 2.890625 -7.4375 C 4.5 -7.4375 5.328125 -6.15625 5.328125 -3.578125 Z M 4.375 -3.671875 C 4.375 -5.65625 3.890625 -6.625 2.890625 -6.625 C 1.890625 -6.625 1.390625 -5.671875 1.390625 -3.640625 C 1.390625 -1.59375 1.890625 -0.609375 2.859375 -0.609375 C 3.890625 -0.609375 4.375 -1.546875 4.375 -3.671875 Z M 4.375 -3.671875 "/>
</g>
<g id="glyph-21-1-617d6b9a">
<path d="M 3.640625 0 C 3.640625 0 2.71875 0 2.71875 0 C 2.71875 0 2.71875 -5.296875 2.71875 -5.296875 C 2.71875 -5.296875 1.078125 -5.296875 1.078125 -5.296875 C 1.078125 -5.296875 1.078125 -5.96875 1.078125 -5.96875 C 2.5 -6.140625 2.703125 -6.296875 3.03125 -7.4375 C 3.03125 -7.4375 3.640625 -7.4375 3.640625 -7.4375 C 3.640625 -7.4375 3.640625 0 3.640625 0 Z M 3.640625 0 "/>
</g>
<g id="glyph-22-0-617d6b9a">
<path d="M 5.390625 -2.46875 C 5.390625 -0.890625 4.34375 0.15625 2.828125 0.15625 C 1.515625 0.15625 0.671875 -0.4375 0.375 -1.90625 C 0.375 -1.90625 1.296875 -1.90625 1.296875 -1.90625 C 1.515625 -1.078125 2 -0.65625 2.8125 -0.65625 C 3.828125 -0.65625 4.4375 -1.265625 4.4375 -2.34375 C 4.4375 -3.4375 3.8125 -4.078125 2.8125 -4.078125 C 2.234375 -4.078125 1.875 -3.90625 1.453125 -3.390625 C 1.453125 -3.390625 0.59375 -3.390625 0.59375 -3.390625 C 0.59375 -3.390625 1.15625 -7.28125 1.15625 -7.28125 C 1.15625 -7.28125 5 -7.28125 5 -7.28125 C 5 -7.28125 5 -6.375 5 -6.375 C 5 -6.375 1.90625 -6.375 1.90625 -6.375 C 1.90625 -6.375 1.609375 -4.453125 1.609375 -4.453125 C 2.03125 -4.765625 2.453125 -4.90625 2.984375 -4.90625 C 4.40625 -4.90625 5.390625 -3.9375 5.390625 -2.46875 Z M 5.390625 -2.46875 "/>
</g>
<g id="glyph-23-0-617d6b9a">
<path d="M 5.328125 -3.578125 C 5.328125 -1.140625 4.46875 0.15625 2.890625 0.15625 C 1.296875 0.15625 0.453125 -1.140625 0.453125 -3.640625 C 0.453125 -6.140625 1.28125 -7.4375 2.890625 -7.4375 C 4.5 -7.4375 5.328125 -6.15625 5.328125 -3.578125 Z M 4.375 -3.671875 C 4.375 -5.65625 3.890625 -6.625 2.890625 -6.625 C 1.890625 -6.625 1.390625 -5.671875 1.390625 -3.640625 C 1.390625 -1.59375 1.890625 -0.609375 2.859375 -0.609375 C 3.890625 -0.609375 4.375 -1.546875 4.375 -3.671875 Z M 4.375 -3.671875 "/>
</g>
<g id="glyph-24-0-617d6b9a">
<path d="M 3.640625 0 C 3.640625 0 2.71875 0 2.71875 0 C 2.71875 0 2.71875 -5.296875 2.71875 -5.296875 C 2.71875 -5.296875 1.078125 -5.296875 1.078125 -5.296875 C 1.078125 -5.296875 1.078125 -5.96875 1.078125 -5.96875 C 2.5 -6.140625 2.703125 -6.296875 3.03125 -7.4375 C 3.03125 -7.4375 3.640625 -7.4375 3.640625 -7.4375 C 3.640625 -7.4375 3.640625 0 3.640625 0 Z M 3.640625 0 "/>
</g>
<g id="glyph-25-0-617d6b9a">
<path d="M 3.640625 0 C 3.640625 0 2.71875 0 2.71875 0 C 2.71875 0 2.71875 -5.296875 2.71875 -5.296875 C 2.71875 -5.296875 1.078125 -5.296875 1.078125 -5.296875 C 1.078125 -5.296875 1.078125 -5.96875 1.078125 -5.96875 C 2.5 -6.140625 2.703125 -6.296875 3.03125 -7.4375 C 3.03125 -7.4375 3.640625 -7.4375 3.640625 -7.4375 C 3.640625 -7.4375 3.640625 0 3.640625 0 Z M 3.640625 0 "/>
</g>
<g id="glyph-25-1-617d6b9a">
<path d="M 5.328125 -3.578125 C 5.328125 -1.140625 4.46875 0.15625 2.890625 0.15625 C 1.296875 0.15625 0.453125 -1.140625 0.453125 -3.640625 C 0.453125 -6.140625 1.28125 -7.4375 2.890625 -7.4375 C 4.5 -7.4375 5.328125 -6.15625 5.328125 -3.578125 Z M 4.375 -3.671875 C 4.375 -5.65625 3.890625 -6.625 2.890625 -6.625 C 1.890625 -6.625 1.390625 -5.671875 1.390625 -3.640625 C 1.390625 -1.59375 1.890625 -0.609375 2.859375 -0.609375 C 3.890625 -0.609375 4.375 -1.546875 4.375 -3.671875 Z M 4.375 -3.671875 "/>
</g>
<g id="glyph-26-0-617d6b9a">
<path d="M 5.390625 -2.46875 C 5.390625 -0.890625 4.34375 0.15625 2.828125 0.15625 C 1.515625 0.15625 0.671875 -0.4375 0.375 -1.90625 C 0.375 -1.90625 1.296875 -1.90625 1.296875 -1.90625 C 1.515625 -1.078125 2 -0.65625 2.8125 -0.65625 C 3.828125 -0.65625 4.4375 -1.265625 4.4375 -2.34375 C 4.4375 -3.4375 3.8125 -4.078125 2.8125 -4.078125 C 2.234375 -4.078125 1.875 -3.90625 1.453125 -3.390625 C 1.453125 -3.390625 0.59375 -3.390625 0.59375 -3.390625 C 0.59375 -3.390625 1.15625 -7.28125 1.15625 -7.28125 C 1.15625 -7.28125 5 -7.28125 5 -7.28125 C 5 -7.28125 5 -6.375 5 -6.375 C 5 -6.375 1.90625 -6.375 1.90625 -6.375 C 1.90625 -6.375 1.609375 -4.453125 1.609375 -4.453125 C 2.03125 -4.765625 2.453125 -4.90625 2.984375 -4.90625 C 4.40625 -4.90625 5.390625 -3.9375 5.390625 -2.46875 Z M 5.390625 -2.46875 "/>
</g>
<g id="glyph-27-0-617d6b9a">
<path d="M 5.328125 -3.578125 C 5.328125 -1.140625 4.46875 0.15625 2.890625 0.15625 C 1.296875 0.15625 0.453125 -1.140625 0.453125 -3.640625 C 0.453125 -6.140625 1.28125 -7.4375 2.890625 -7.4375 C 4.5 -7.4375 5.328125 -6.15625 5.328125 -3.578125 Z M 4.375 -3.671875 C 4.375 -5.65625 3.890625 -6.625 2.890625 -6.625 C 1.890625 -6.625 1.390625 -5.671875 1.390625 -3.640625 C 1.390625 -1.59375 1.890625 -0.609375 2.859375 -0.609375 C 3.890625 -0.609375 4.375 -1.546875 4.375 -3.671875 Z M 4.375 -3.671875 "/>
</g>
<g id="glyph-28-0-617d6b9a">
<path d="M 5.390625 -2.46875 C 5.390625 -0.890625 4.34375 0.15625 2.828125 0.15625 C 1.515625 0.15625 0.671875 -0.4375 0.375 -1.90625 C 0.375 -1.90625 1.296875 -1.90625 1.296875 -1.90625 C 1.515625 -1.078125 2 -0.65625 2.8125 -0.65625 C 3.828125 -0.65625 4.4375 -1.265625 4.4375 -2.34375 C 4.4375 -3.4375 3.8125 -4.078125 2.8125 -4.078125 C 2.234375 -4.078125 1.875 -3.90625 1.453125 -3.390625 C 1.453125 -3.390625 0.59375 -3.390625 0.59375 -3.390625 C 0.59375 -3.390625 1.15625 -7.28125 1.15625 -7.28125 C 1.15625 -7.28125 5 -7.28125 5 -7.28125 C 5 -7.28125 5 -6.375 5 -6.375 C 5 -6.375 1.90625 -6.375 1.90625 -6.375 C 1.90625 -6.375 1.609375 -4.453125 1.609375 -4.453125 C 2.03125 -4.765625 2.453125 -4.90625 2.984375 -4.90625 C 4.40625 -4.90625 5.390625 -3.9375 5.390625 -2.46875 Z M 5.390625 -2.46875 "/>
</g>
<g id="glyph-29-0-617d6b9a">
<path d="M 3.640625 0 C 3.640625 0 2.71875 0 2.71875 0 C 2.71875 0 2.71875 -5.296875 2.71875 -5.296875 C 2.71875 -5.296875 1.078125 -5.296875 1.078125 -5.296875 C 1.078125 -5.296875 1.078125 -5.96875 1.078125 -5.96875 C 2.5 -6.140625 2.703125 -6.296875 3.03125 -7.4375 C 3.03125 -7.4375 3.640625 -7.4375 3.640625 -7.4375 C 3.640625 -7.4375 3.640625 0 3.640625 0 Z M 3.640625 0 "/>
</g>
<g id="glyph-29-1-617d6b9a">
<path d="M 5.328125 -3.578125 C 5.328125 -1.140625 4.46875 0.15625 2.890625 0.15625 C 1.296875 0.15625 0.453125 -1.140625 0.453125 -3.640625 C 0.453125 -6.140625 1.28125 -7.4375 2.890625 -7.4375 C 4.5 -7.4375 5.328125 -6.15625 5.328125 -3.578125 Z M 4.375 -3.671875 C 4.375 -5.65625 3.890625 -6.625 2.890625 -6.625 C 1.890625 -6.625 1.390625 -5.671875 1.390625 -3.640625 C 1.390625 -1.59375 1.890625 -0.609375 2.859375 -0.609375 C 3.890625 -0.609375 4.375 -1.546875 4.375 -3.671875 Z M 4.375 -3.671875 "/>
</g>
<g id="glyph-30-0-617d6b9a">
<path d="M 3.640625 0 C 3.640625 0 2.71875 0 2.71875 0 C 2.71875 0 2.71875 -5.296875 2.71875 -5.296875 C 2.71875 -5.296875 1.078125 -5.296875 1.078125 -5.296875 C 1.078125 -5.296875 1.078125 -5.96875 1.078125 -5.96875 C 2.5 -6.140625 2.703125 -6.296875 3.03125 -7.4375 C 3.03125 -7.4375 3.640625 -7.4375 3.640625 -7.4375 C 3.640625 -7.4375 3.640625 0 3.640625 0 Z M 3.640625 0 "/>
</g>
<g id="glyph-31-0-617d6b9a">
<path d="M 5.328125 -3.578125 C 5.328125 -1.140625 4.46875 0.15625 2.890625 0.15625 C 1.296875 0.15625 0.453125 -1.140625 0.453125 -3.640625 C 0.453125 -6.140625 1.28125 -7.4375 2.890625 -7.4375 C 4.5 -7.4375 5.328125 -6.15625 5.328125 -3.578125 Z M 4.375 -3.671875 C 4.375 -5.65625 3.890625 -6.625 2.890625 -6.625 C 1.890625 -6.625 1.390625 -5.671875 1.390625 -3.640625 C 1.390625 -1.59375 1.890625 -0.609375 2.859375 -0.609375 C 3.890625 -0.609375 4.375 -1.546875 4.375 -3.671875 Z M 4.375 -3.671875 "/>
</g>
<g id="glyph-32-0-617d6b9a">
<path d="M 5.390625 -2.46875 C 5.390625 -0.890625 4.34375 0.15625 2.828125 0.15625 C 1.515625 0.15625 0.671875 -0.4375 0.375 -1.90625 C 0.375 -1.90625 1.296875 -1.90625 1.296875 -1.90625 C 1.515625 -1.078125 2 -0.65625 2.8125 -0.65625 C 3.828125 -0.65625 4.4375 -1.265625 4.4375 -2.34375 C 4.4375 -3.4375 3.8125 -4.078125 2.8125 -4.078125 C 2.234375 -4.078125 1.875 -3.90625 1.453125 -3.390625 C 1.453125 -3.390625 0.59375 -3.390625 0.59375 -3.390625 C 0.59375 -3.390625 1.15625 -7.28125 1.15625 -7.28125 C 1.15625 -7.28125 5 -7.28125 5 -7.28125 C 5 -7.28125 5 -6.375 5 -6.375 C 5 -6.375 1.90625 -6.375 1.90625 -6.375 C 1.90625 -6.375 1.609375 -4.453125 1.609375 -4.453125 C 2.03125 -4.765625 2.453125 -4.90625 2.984375 -4.90625 C 4.40625 -4.90625 5.390625 -3.9375 5.390625 -2.46875 Z M 5.390625 -2.46875 "/>
</g>
<g id="glyph-32-1-617d6b9a">
<path d="M 3.640625 0 C 3.640625 0 2.71875 0 2.71875 0 C 2.71875 0 2.71875 -5.296875 2.71875 -5.296875 C 2.71875 -5.296875 1.078125 -5.296875 1.078125 -5.296875 C 1.078125 -5.296875 1.078125 -5.96875 1.078125 -5.96875 C 2.5 -6.140625 2.703125 -6.296875 3.03125 -7.4375 C 3.03125 -7.4375 3.640625 -7.4375 3.640625 -7.4375 C 3.640625 -7.4375 3.640625 0 3.640625 0 Z M 3.640625 0 "/>
</g>
</g>
</defs>
<path fill-rule="nonzero" fill="rgb(100%, 100%, 100%)" fill-opacity="1" d="M 0 0 L 450 0 L 450 337.5 L 0 337.5 Z M 0 0 "/>
<path fill-rule="nonzero" fill="rgb(100%, 100%, 100%)" fill-opacity="1" d="M 30.75 144.75 L 144.75 144.75 L 144.75 12 L 30.75 12 Z M 30.75 144.75 "/>
<path fill-rule="nonzero" fill="rgb(87.099999%, 79.6%, 89.399999%)" fill-opacity="0.25" d="M 177 63 L 193.5 63 L 193.5 12 L 177 12 Z M 177 63 "/>
<path fill-rule="nonzero" fill="rgb(87.099999%, 79.6%, 89.399999%)" fill-opacity="0.25" d="M 225.75 63 L 243 63 L 243 12 L 225.75 12 Z M 225.75 63 "/>
<path fill-rule="nonzero" fill="rgb(87.099999%, 79.6%, 89.399999%)" fill-opacity="0.25" d="M 177 144.75 L 243 144.75 L 243 93.75 L 177 93.75 Z M 177 144.75 "/>
<path fill-rule="nonzero" fill="rgb(87.099999%, 79.6%, 89.399999%)" fill-opacity="0.25" d="M 274.5 144.75 L 291.75 144.75 L 291.75 12 L 274.5 12 Z M 274.5 144.75 "/>
<path fill-rule="nonzero" fill="rgb(87.099999%, 79.6%, 89.399999%)" fill-opacity="0.25" d="M 323.25 63 L 340.5 63 L 340.5 12 L 323.25 12 Z M 323.25 63 "/>
<path fill-rule="nonzero" fill="rgb(87.099999%, 79.6%, 89.399999%)" fill-opacity="0.25" d="M 372 63 L 389.25 63 L 389.25 12 L 372 12 Z M 372 63 "/>
<path fill-rule="nonzero" fill="rgb(87.099999%, 79.6%, 89.399999%)" fill-opacity="0.25" d="M 323.25 144.75 L 389.25 144.75 L 389.25 93.75 L 323.25 93.75 Z M 323.25 144.75 "/>
<path fill-rule="nonzero" fill="rgb(87.099999%, 79.6%, 89.399999%)" fill-opacity="0.25" d="M 420.75 144.75 L 438 144.75 L 438 12 L 420.75 12 Z M 420.75 144.75 "/>
<path fill-rule="nonzero" fill="rgb(100%, 100%, 80.000001%)" fill-opacity="0.25" d="M 30.75 226.5 L 144.75 226.5 L 144.75 175.5 L 30.75 175.5 Z M 30.75 226.5 "/>
<path fill-rule="nonzero" fill="rgb(100%, 100%, 80.000001%)" fill-opacity="0.25" d="M 177 226.5 L 291.75 226.5 L 291.75 175.5 L 177 175.5 Z M 177 226.5 "/>
<path fill-rule="nonzero" fill="rgb(100%, 100%, 80.000001%)" fill-opacity="0.25" d="M 30.75 308.25 L 291.75 308.25 L 291.75 257.25 L 30.75 257.25 Z M 30.75 308.25 "/>
<path fill-rule="nonzero" fill="rgb(100%, 100%, 80.000001%)" fill-opacity="0.25" d="M 323.25 308.25 L 438 308.25 L 438 175.5 L 323.25 175.5 Z M 323.25 308.25 "/>
<path fill="none" stroke-width="1" stroke-linecap="butt" stroke-linejoin="miter" stroke="rgb(0%, 0%, 0%)" stroke-opacity="0.12" stroke-miterlimit="2" d="M 41 193 L 41 16 " transform="matrix(0.75, 0, 0, 0.75, 0, 0)"/>
<path fill="none" stroke-width="1" stroke-linecap="butt" stroke-linejoin="miter" stroke="rgb(0%, 0%, 0%)" stroke-opacity="0.12" stroke-miterlimit="2" d="M 117 193 L 117 16 " transform="matrix(0.75, 0, 0, 0.75, 0, 0)"/>
<path fill="none" stroke-width="1" stroke-linecap="butt" stroke-linejoin="miter" stroke="rgb(0%, 0%, 0%)" stroke-opacity="0.12" stroke-miterlimit="2" d="M 193 193 L 193 16 " transform="matrix(0.75, 0, 0, 0.75, 0, 0)"/>
<path fill="none" stroke-width="1" stroke-linecap="butt" stroke-linejoin="miter" stroke="rgb(0%, 0%, 0%)" stroke-opacity="0.12" stroke-miterlimit="2" d="M 41 193 L 193 193 " transform="matrix(0.75, 0, 0, 0.75, 0, 0)"/>
<path fill="none" stroke-width="1" stroke-linecap="butt" stroke-linejoin="miter" stroke="rgb(0%, 0%, 0%)" stroke-opacity="0.12" stroke-miterlimit="2" d="M 41 104.5 L 193 104.5 " transform="matrix(0.75, 0, 0, 0.75, 0, 0)"/>
<path fill="none" stroke-width="1" stroke-linecap="butt" stroke-linejoin="miter" stroke="rgb(0%, 0%, 0%)" stroke-opacity="0.12" stroke-miterlimit="2" d="M 41 16 L 193 16 " transform="matrix(0.75, 0, 0, 0.75, 0, 0)"/>
<path fill="none" stroke-width="1" stroke-linecap="butt" stroke-linejoin="miter" stroke="rgb(0%, 0%, 0%)" stroke-opacity="0.12" stroke-miterlimit="2" d="M 236 84 L 236 16 " transform="matrix(0.75, 0, 0, 0.75, 0, 0)"/>
<path fill="none" stroke-width="1" stroke-linecap="butt" stroke-linejoin="miter" stroke="rgb(0%, 0%, 0%)" stroke-opacity="0.12" stroke-miterlimit="2" d="M 247 84 L 247 16 " transform="matrix(0.75, 0, 0, 0.75, 0, 0)"/>
<path fill="none" stroke-width="1" stroke-linecap="butt" stroke-linejoin="miter" stroke="rgb(0%, 0%, 0%)" stroke-opacity="0.12" stroke-miterlimit="2" d="M 258 84 L 258 16 " transform="matrix(0.75, 0, 0, 0.75, 0, 0)"/>
<path fill="none" stroke-width="1" stroke-linecap="butt" stroke-linejoin="miter" stroke="rgb(0%, 0%, 0%)" stroke-opacity="0.12" stroke-miterlimit="2" d="M 236 84 L 258 84 " transform="matrix(0.75, 0, 0, 0.75, 0, 0)"/>
<path fill="none" stroke-width="1" stroke-linecap="butt" stroke-linejoin="miter" stroke="rgb(0%, 0%, 0%)" stroke-opacity="0.12" stroke-miterlimit="2" d="M 236 50 L 258 50 " transform="matrix(0.75, 0, 0, 0.75, 0, 0)"/>
<path fill="none" stroke-width="1" stroke-linecap="butt" stroke-linejoin="miter" stroke="rgb(0%, 0%, 0%)" stroke-opacity="0.12" stroke-miterlimit="2" d="M 236 16 L 258 16 " transform="matrix(0.75, 0, 0, 0.75, 0, 0)"/>
<path fill="none" stroke-width="1" stroke-linecap="butt" stroke-linejoin="miter" stroke="rgb(0%, 0%, 0%)" stroke-opacity="0.12" stroke-miterlimit="2" d="M 301 84 L 301 16 " transform="matrix(0.75, 0, 0, 0.75, 0, 0)"/>
<path fill="none" stroke-width="1" stroke-linecap="butt" stroke-linejoin="miter" stroke="rgb(0%, 0%, 0%)" stroke-opacity="0.12" stroke-miterlimit="2" d="M 312.5 84 L 312.5 16 " transform="matrix(0.75, 0, 0, 0.75, 0, 0)"/>
<path fill="none" stroke-width="1" stroke-linecap="butt" stroke-linejoin="miter" stroke="rgb(0%, 0%, 0%)" stroke-opacity="0.12" stroke-miterlimit="2" d="M 324 84 L 324 16 " transform="matrix(0.75, 0, 0, 0.75, 0, 0)"/>
<path fill="none" stroke-width="1" stroke-linecap="butt" stroke-linejoin="miter" stroke="rgb(0%, 0%, 0%)" stroke-opacity="0.12" stroke-miterlimit="2" d="M 301 84 L 324 84 " transform="matrix(0.75, 0, 0, 0.75, 0, 0)"/>
<path fill="none" stroke-width="1" stroke-linecap="butt" stroke-linejoin="miter" stroke="rgb(0%, 0%, 0%)" stroke-opacity="0.12" stroke-miterlimit="2" d="M 301 50 L 324 50 " transform="matrix(0.75, 0, 0, 0.75, 0, 0)"/>
<path fill="none" stroke-width="1" stroke-linecap="butt" stroke-linejoin="miter" stroke="rgb(0%, 0%, 0%)" stroke-opacity="0.12" stroke-miterlimit="2" d="M 301 16 L 324 16 " transform="matrix(0.75, 0, 0, 0.75, 0, 0)"/>
<path fill="none" stroke-width="1" stroke-linecap="butt" stroke-linejoin="miter" stroke="rgb(0%, 0%, 0%)" stroke-opacity="0.12" stroke-miterlimit="2" d="M 236 193 L 236 125 " transform="matrix(0.75, 0, 0, 0.75, 0, 0)"/>
<path fill="none" stroke-width="1" stroke-linecap="butt" stroke-linejoin="miter" stroke="rgb(0%, 0%, 0%)" stroke-opacity="0.12" stroke-miterlimit="2" d="M 280 193 L 280 125 " transform="matrix(0.75, 0, 0, 0.75, 0, 0)"/>
<path fill="none" stroke-width="1" stroke-linecap="butt" stroke-linejoin="miter" stroke="rgb(0%, 0%, 0%)" stroke-opacity="0.12" stroke-miterlimit="2" d="M 324 193 L 324 125 " transform="matrix(0.75, 0, 0, 0.75, 0, 0)"/>
<path fill="none" stroke-width="1" stroke-linecap="butt" stroke-linejoin="miter" stroke="rgb(0%, 0%, 0%)" stroke-opacity="0.12" stroke-miterlimit="2" d="M 236 193 L 324 193 " transform="matrix(0.75, 0, 0, 0.75, 0, 0)"/>
<path fill="none" stroke-width="1" stroke-linecap="butt" stroke-linejoin="miter" stroke="rgb(0%, 0%, 0%)" stroke-opacity="0.12" stroke-miterlimit="2" d="M 236 159 L 324 159 " transform="matrix(0.75, 0, 0, 0.75, 0, 0)"/>
<path fill="none" stroke-width="1" stroke-linecap="butt" stroke-linejoin="miter" stroke="rgb(0%, 0%, 0%)" stroke-opacity="0.12" stroke-miterlimit="2" d="M 236 125 L 324 125 " transform="matrix(0.75, 0, 0, 0.75, 0, 0)"/>
<path fill="none" stroke-width="1" stroke-linecap="butt" stroke-linejoin="miter" stroke="rgb(0%, 0%, 0%)" stroke-opacity="0.12" stroke-miterlimit="2" d="M 366 193 L 366 16 " transform="matrix(0.75, 0, 0, 0.75, 0, 0)"/>
<path fill="none" stroke-width="1" stroke-linecap="butt" stroke-linejoin="miter" stroke="rgb(0%, 0%, 0%)" stroke-opacity="0.12" stroke-miterlimit="2" d="M 377.5 193 L 377.5 16 " transform="matrix(0.75, 0, 0, 0.75, 0, 0)"/>
<path fill="none" stroke-width="1" stroke-linecap="butt" stroke-linejoin="miter" stroke="rgb(0%, 0%, 0%)" stroke-opacity="0.12" stroke-miterlimit="2" d="M 389 193 L 389 16 " transform="matrix(0.75, 0, 0, 0.75, 0, 0)"/>
<path fill="none" stroke-width="1" stroke-linecap="butt" stroke-linejoin="miter" stroke="rgb(0%, 0%, 0%)" stroke-opacity="0.12" stroke-miterlimit="2" d="M 366 193 L 389 193 " transform="matrix(0.75, 0, 0, 0.75, 0, 0)"/>
<path fill="none" stroke-width="1" stroke-linecap="butt" stroke-linejoin="miter" stroke="rgb(0%, 0%, 0%)" stroke-opacity="0.12" stroke-miterlimit="2" d="M 366 104.5 L 389 104.5 " transform="matrix(0.75, 0, 0, 0.75, 0, 0)"/>
<path fill="none" stroke-width="1" stroke-linecap="butt" stroke-linejoin="miter" stroke="rgb(0%, 0%, 0%)" stroke-opacity="0.12" stroke-miterlimit="2" d="M 366 16 L 389 16 " transform="matrix(0.75, 0, 0, 0.75, 0, 0)"/>
<path fill="none" stroke-width="1" stroke-linecap="butt" stroke-linejoin="miter" stroke="rgb(0%, 0%, 0%)" stroke-opacity="0.12" stroke-miterlimit="2" d="M 431 84 L 431 16 " transform="matrix(0.75, 0, 0, 0.75, 0, 0)"/>
<path fill="none" stroke-width="1" stroke-linecap="butt" stroke-linejoin="miter" stroke="rgb(0%, 0%, 0%)" stroke-opacity="0.12" stroke-miterlimit="2" d="M 442.5 84 L 442.5 16 " transform="matrix(0.75, 0, 0, 0.75, 0, 0)"/>
<path fill="none" stroke-width="1" stroke-linecap="butt" stroke-linejoin="miter" stroke="rgb(0%, 0%, 0%)" stroke-opacity="0.12" stroke-miterlimit="2" d="M 454 84 L 454 16 " transform="matrix(0.75, 0, 0, 0.75, 0, 0)"/>
<path fill="none" stroke-width="1" stroke-linecap="butt" stroke-linejoin="miter" stroke="rgb(0%, 0%, 0%)" stroke-opacity="0.12" stroke-miterlimit="2" d="M 431 84 L 454 84 " transform="matrix(0.75, 0, 0, 0.75, 0, 0)"/>
<path fill="none" stroke-width="1" stroke-linecap="butt" stroke-linejoin="miter" stroke="rgb(0%, 0%, 0%)" stroke-opacity="0.12" stroke-miterlimit="2" d="M 431 50 L 454 50 " transform="matrix(0.75, 0, 0, 0.75, 0, 0)"/>
<path fill="none" stroke-width="1" stroke-linecap="butt" stroke-linejoin="miter" stroke="rgb(0%, 0%, 0%)" stroke-opacity="0.12" stroke-miterlimit="2" d="M 431 16 L 454 16 " transform="matrix(0.75, 0, 0, 0.75, 0, 0)"/>
<path fill="none" stroke-width="1" stroke-linecap="butt" stroke-linejoin="miter" stroke="rgb(0%, 0%, 0%)" stroke-opacity="0.12" stroke-miterlimit="2" d="M 496 84 L 496 16 " transform="matrix(0.75, 0, 0, 0.75, 0, 0)"/>
<path fill="none" stroke-width="1" stroke-linecap="butt" stroke-linejoin="miter" stroke="rgb(0%, 0%, 0%)" stroke-opacity="0.12" stroke-miterlimit="2" d="M 507.5 84 L 507.5 16 " transform="matrix(0.75, 0, 0, 0.75, 0, 0)"/>
<path fill="none" stroke-width="1" stroke-linecap="butt" stroke-linejoin="miter" stroke="rgb(0%, 0%, 0%)" stroke-opacity="0.12" stroke-miterlimit="2" d="M 519 84 L 519 16 " transform="matrix(0.75, 0, 0, 0.75, 0, 0)"/>
<path fill="none" stroke-width="1" stroke-linecap="butt" stroke-linejoin="miter" stroke="rgb(0%, 0%, 0%)" stroke-opacity="0.12" stroke-miterlimit="2" d="M 496 84 L 519 84 " transform="matrix(0.75, 0, 0, 0.75, 0, 0)"/>
<path fill="none" stroke-width="1" stroke-linecap="butt" stroke-linejoin="miter" stroke="rgb(0%, 0%, 0%)" stroke-opacity="0.12" stroke-miterlimit="2" d="M 496 50 L 519 50 " transform="matrix(0.75, 0, 0, 0.75, 0, 0)"/>
<path fill="none" stroke-width="1" stroke-linecap="butt" stroke-linejoin="miter" stroke="rgb(0%, 0%, 0%)" stroke-opacity="0.12" stroke-miterlimit="2" d="M 496 16 L 519 16 " transform="matrix(0.75, 0, 0, 0.75, 0, 0)"/>
<path fill="none" stroke-width="1" stroke-linecap="butt" stroke-linejoin="miter" stroke="rgb(0%, 0%, 0%)" stroke-opacity="0.12" stroke-miterlimit="2" d="M 431 193 L 431 125 " transform="matrix(0.75, 0, 0, 0.75, 0, 0)"/>
<path fill="none" stroke-width="1" stroke-linecap="butt" stroke-linejoin="miter" stroke="rgb(0%, 0%, 0%)" stroke-opacity="0.12" stroke-miterlimit="2" d="M 475 193 L 475 125 " transform="matrix(0.75, 0, 0, 0.75, 0, 0)"/>
<path fill="none" stroke-width="1" stroke-linecap="butt" stroke-linejoin="miter" stroke="rgb(0%, 0%, 0%)" stroke-opacity="0.12" stroke-miterlimit="2" d="M 519 193 L 519 125 " transform="matrix(0.75, 0, 0, 0.75, 0, 0)"/>
<path fill="none" stroke-width="1" stroke-linecap="butt" stroke-linejoin="miter" stroke="rgb(0%, 0%, 0%)" stroke-opacity="0.12" stroke-miterlimit="2" d="M 431 193 L 519 193 " transform="matrix(0.75, 0, 0, 0.75, 0, 0)"/>
<path fill="none" stroke-width="1" stroke-linecap="butt" stroke-linejoin="miter" stroke="rgb(0%, 0%, 0%)" stroke-opacity="0.12" stroke-miterlimit="2" d="M 431 159 L 519 159 " transform="matrix(0.75, 0, 0, 0.75, 0, 0)"/>
<path fill="none" stroke-width="1" stroke-linecap="butt" stroke-linejoin="miter" stroke="rgb(0%, 0%, 0%)" stroke-opacity="0.12" stroke-miterlimit="2" d="M 431 125 L 519 125 " transform="matrix(0.75, 0, 0, 0.75, 0, 0)"/>
<path fill="none" stroke-width="1" stroke-linecap="butt" stroke-linejoin="miter" stroke="rgb(0%, 0%, 0%)" stroke-opacity="0.12" stroke-miterlimit="2" d="M 561 193 L 561 16 " transform="matrix(0.75, 0, 0, 0.75, 0, 0)"/>
<path fill="none" stroke-width="1" stroke-linecap="butt" stroke-linejoin="miter" stroke="rgb(0%, 0%, 0%)" stroke-opacity="0.12" stroke-miterlimit="2" d="M 572.5 193 L 572.5 16 " transform="matrix(0.75, 0, 0, 0.75, 0, 0)"/>
<path fill="none" stroke-width="1" stroke-linecap="butt" stroke-linejoin="miter" stroke="rgb(0%, 0%, 0%)" stroke-opacity="0.12" stroke-miterlimit="2" d="M 584 193 L 584 16 " transform="matrix(0.75, 0, 0, 0.75, 0, 0)"/>
<path fill="none" stroke-width="1" stroke-linecap="butt" stroke-linejoin="miter" stroke="rgb(0%, 0%, 0%)" stroke-opacity="0.12" stroke-miterlimit="2" d="M 561 193 L 584 193 " transform="matrix(0.75, 0, 0, 0.75, 0, 0)"/>
<path fill="none" stroke-width="1" stroke-linecap="butt" stroke-linejoin="miter" stroke="rgb(0%, 0%, 0%)" stroke-opacity="0.12" stroke-miterlimit="2" d="M 561 104.5 L 584 104.5 " transform="matrix(0.75, 0, 0, 0.75, 0, 0)"/>
<path fill="none" stroke-width="1" stroke-linecap="butt" stroke-linejoin="miter" stroke="rgb(0%, 0%, 0%)" stroke-opacity="0.12" stroke-miterlimit="2" d="M 561 16 L 584 16 " transform="matrix(0.75, 0, 0, 0.75, 0, 0)"/>
<path fill="none" stroke-width="1" stroke-linecap="butt" stroke-linejoin="miter" stroke="rgb(0%, 0%, 0%)" stroke-opacity="0.12" stroke-miterlimit="2" d="M 41 302 L 41 234 " transform="matrix(0.75, 0, 0, 0.75, 0, 0)"/>
<path fill="none" stroke-width="1" stroke-linecap="butt" stroke-linejoin="miter" stroke="rgb(0%, 0%, 0%)" stroke-opacity="0.12" stroke-miterlimit="2" d="M 117 302 L 117 234 " transform="matrix(0.75, 0, 0, 0.75, 0, 0)"/>
<path fill="none" stroke-width="1" stroke-linecap="butt" stroke-linejoin="miter" stroke="rgb(0%, 0%, 0%)" stroke-opacity="0.12" stroke-miterlimit="2" d="M 193 302 L 193 234 " transform="matrix(0.75, 0, 0, 0.75, 0, 0)"/>
<path fill="none" stroke-width="1" stroke-linecap="butt" stroke-linejoin="miter" stroke="rgb(0%, 0%, 0%)" stroke-opacity="0.12" stroke-miterlimit="2" d="M 41 302 L 193 302 " transform="matrix(0.75, 0, 0, 0.75, 0, 0)"/>
<path fill="none" stroke-width="1" stroke-linecap="butt" stroke-linejoin="miter" stroke="rgb(0%, 0%, 0%)" stroke-opacity="0.12" stroke-miterlimit="2" d="M 41 268 L 193 268 " transform="matrix(0.75, 0, 0, 0.75, 0, 0)"/>
<path fill="none" stroke-width="1" stroke-linecap="butt" stroke-linejoin="miter" stroke="rgb(0%, 0%, 0%)" stroke-opacity="0.12" stroke-miterlimit="2" d="M 41 234 L 193 234 " transform="matrix(0.75, 0, 0, 0.75, 0, 0)"/>
<path fill="none" stroke-width="1" stroke-linecap="butt" stroke-linejoin="miter" stroke="rgb(0%, 0%, 0%)" stroke-opacity="0.12" stroke-miterlimit="2" d="M 236 302 L 236 234 " transform="matrix(0.75, 0, 0, 0.75, 0, 0)"/>
<path fill="none" stroke-width="1" stroke-linecap="butt" stroke-linejoin="miter" stroke="rgb(0%, 0%, 0%)" stroke-opacity="0.12" stroke-miterlimit="2" d="M 312.5 302 L 312.5 234 " transform="matrix(0.75, 0, 0, 0.75, 0, 0)"/>
<path fill="none" stroke-width="1" stroke-linecap="butt" stroke-linejoin="miter" stroke="rgb(0%, 0%, 0%)" stroke-opacity="0.12" stroke-miterlimit="2" d="M 389 302 L 389 234 " transform="matrix(0.75, 0, 0, 0.75, 0, 0)"/>
<path fill="none" stroke-width="1" stroke-linecap="butt" stroke-linejoin="miter" stroke="rgb(0%, 0%, 0%)" stroke-opacity="0.12" stroke-miterlimit="2" d="M 236 302 L 389 302 " transform="matrix(0.75, 0, 0, 0.75, 0, 0)"/>
<path fill="none" stroke-width="1" stroke-linecap="butt" stroke-linejoin="miter" stroke="rgb(0%, 0%, 0%)" stroke-opacity="0.12" stroke-miterlimit="2" d="M 236 268 L 389 268 " transform="matrix(0.75, 0, 0, 0.75, 0, 0)"/>
<path fill="none" stroke-width="1" stroke-linecap="butt" stroke-linejoin="miter" stroke="rgb(0%, 0%, 0%)" stroke-opacity="0.12" stroke-miterlimit="2" d="M 236 234 L 389 234 " transform="matrix(0.75, 0, 0, 0.75, 0, 0)"/>
<path fill="none" stroke-width="1" stroke-linecap="butt" stroke-linejoin="miter" stroke="rgb(0%, 0%, 0%)" stroke-opacity="0.12" stroke-miterlimit="2" d="M 41 411 L 41 343 " transform="matrix(0.75, 0, 0, 0.75, 0, 0)"/>
<path fill="none" stroke-width="1" stroke-linecap="butt" stroke-linejoin="miter" stroke="rgb(0%, 0%, 0%)" stroke-opacity="0.12" stroke-miterlimit="2" d="M 215 411 L 215 343 " transform="matrix(0.75, 0, 0, 0.75, 0, 0)"/>
<path fill="none" stroke-width="1" stroke-linecap="butt" stroke-linejoin="miter" stroke="rgb(0%, 0%, 0%)" stroke-opacity="0.12" stroke-miterlimit="2" d="M 389 411 L 389 343 " transform="matrix(0.75, 0, 0, 0.75, 0, 0)"/>
<path fill="none" stroke-width="1" stroke-linecap="butt" stroke-linejoin="miter" stroke="rgb(0%, 0%, 0%)" stroke-opacity="0.12" stroke-miterlimit="2" d="M 41 411 L 389 411 " transform="matrix(0.75, 0, 0, 0.75, 0, 0)"/>
<path fill="none" stroke-width="1" stroke-linecap="butt" stroke-linejoin="miter" stroke="rgb(0%, 0%, 0%)" stroke-opacity="0.12" stroke-miterlimit="2" d="M 41 377 L 389 377 " transform="matrix(0.75, 0, 0, 0.75, 0, 0)"/>
<path fill="none" stroke-width="1" stroke-linecap="butt" stroke-linejoin="miter" stroke="rgb(0%, 0%, 0%)" stroke-opacity="0.12" stroke-miterlimit="2" d="M 41 343 L 389 343 " transform="matrix(0.75, 0, 0, 0.75, 0, 0)"/>
<path fill="none" stroke-width="1" stroke-linecap="butt" stroke-linejoin="miter" stroke="rgb(0%, 0%, 0%)" stroke-opacity="0.12" stroke-miterlimit="2" d="M 431 411 L 431 234 " transform="matrix(0.75, 0, 0, 0.75, 0, 0)"/>
<path fill="none" stroke-width="1" stroke-linecap="butt" stroke-linejoin="miter" stroke="rgb(0%, 0%, 0%)" stroke-opacity="0.12" stroke-miterlimit="2" d="M 507.5 411 L 507.5 234 " transform="matrix(0.75, 0, 0, 0.75, 0, 0)"/>
<path fill="none" stroke-width="1" stroke-linecap="butt" stroke-linejoin="miter" stroke="rgb(0%, 0%, 0%)" stroke-opacity="0.12" stroke-miterlimit="2" d="M 584 411 L 584 234 " transform="matrix(0.75, 0, 0, 0.75, 0, 0)"/>
<path fill="none" stroke-width="1" stroke-linecap="butt" stroke-linejoin="miter" stroke="rgb(0%, 0%, 0%)" stroke-opacity="0.12" stroke-miterlimit="2" d="M 431 411 L 584 411 " transform="matrix(0.75, 0, 0, 0.75, 0, 0)"/>
<path fill="none" stroke-width="1" stroke-linecap="butt" stroke-linejoin="miter" stroke="rgb(0%, 0%, 0%)" stroke-opacity="0.12" stroke-miterlimit="2" d="M 431 322.5 L 584 322.5 " transform="matrix(0.75, 0, 0, 0.75, 0, 0)"/>
<path fill="none" stroke-width="1" stroke-linecap="butt" stroke-linejoin="miter" stroke="rgb(0%, 0%, 0%)" stroke-opacity="0.12" stroke-miterlimit="2" d="M 431 234 L 584 234 " transform="matrix(0.75, 0, 0, 0.75, 0, 0)"/>
<g fill="rgb(0%, 0%, 0%)" fill-opacity="1">
<use xlink:href="#glyph-0-0-617d6b9a" x="27.831004" y="160.693497"/>
</g>
<g fill="rgb(0%, 0%, 0%)" fill-opacity="1">
<use xlink:href="#glyph-1-0-617d6b9a" x="84.831001" y="160.693497"/>
</g>
<g fill="rgb(0%, 0%, 0%)" fill-opacity="1">
<use xlink:href="#glyph-2-0-617d6b9a" x="138.912025" y="160.693497"/>
</g>
<g fill="rgb(0%, 0%, 0%)" fill-opacity="1">
<use xlink:href="#glyph-2-1-617d6b9a" x="144.750011" y="160.693497"/>
</g>
<g fill="rgb(0%, 0%, 0%)" fill-opacity="1">
<use xlink:href="#glyph-3-0-617d6b9a" x="17.412003" y="148.577248"/>
</g>
<g fill="rgb(0%, 0%, 0%)" fill-opacity="1">
<use xlink:href="#glyph-4-0-617d6b9a" x="17.412003" y="82.202248"/>
</g>
<g fill="rgb(0%, 0%, 0%)" fill-opacity="1">
<use xlink:href="#glyph-5-0-617d6b9a" x="11.574" y="15.827233"/>
</g>
<g fill="rgb(0%, 0%, 0%)" fill-opacity="1">
<use xlink:href="#glyph-6-0-617d6b9a" x="17.412003" y="15.827233"/>
</g>
<g fill="rgb(0%, 0%, 0%)" fill-opacity="1">
<use xlink:href="#glyph-7-0-617d6b9a" x="174.081013" y="78.943485"/>
</g>
<g fill="rgb(0%, 0%, 0%)" fill-opacity="1">
<use xlink:href="#glyph-8-0-617d6b9a" x="182.331013" y="78.943485"/>
</g>
<g fill="rgb(0%, 0%, 0%)" fill-opacity="1">
<use xlink:href="#glyph-9-0-617d6b9a" x="187.662003" y="78.943485"/>
</g>
<g fill="rgb(0%, 0%, 0%)" fill-opacity="1">
<use xlink:href="#glyph-9-1-617d6b9a" x="193.5" y="78.943485"/>
</g>
<g fill="rgb(0%, 0%, 0%)" fill-opacity="1">
<use xlink:href="#glyph-7-0-617d6b9a" x="163.662014" y="66.827236"/>
</g>
<g fill="rgb(0%, 0%, 0%)" fill-opacity="1">
<use xlink:href="#glyph-10-0-617d6b9a" x="163.662014" y="41.327236"/>
</g>
<g fill="rgb(0%, 0%, 0%)" fill-opacity="1">
<use xlink:href="#glyph-11-0-617d6b9a" x="157.824005" y="15.827233"/>
</g>
<g fill="rgb(0%, 0%, 0%)" fill-opacity="1">
<use xlink:href="#glyph-12-0-617d6b9a" x="163.662014" y="15.827233"/>
</g>
<g fill="rgb(0%, 0%, 0%)" fill-opacity="1">
<use xlink:href="#glyph-9-1-617d6b9a" x="222.831001" y="78.943485"/>
</g>
<g fill="rgb(0%, 0%, 0%)" fill-opacity="1">
<use xlink:href="#glyph-13-0-617d6b9a" x="231.456024" y="78.943485"/>
</g>
<g fill="rgb(0%, 0%, 0%)" fill-opacity="1">
<use xlink:href="#glyph-14-0-617d6b9a" x="237.162025" y="78.943485"/>
</g>
<g fill="rgb(0%, 0%, 0%)" fill-opacity="1">
<use xlink:href="#glyph-9-1-617d6b9a" x="243" y="78.943485"/>
</g>
<g fill="rgb(0%, 0%, 0%)" fill-opacity="1">
<use xlink:href="#glyph-9-1-617d6b9a" x="212.412003" y="66.827236"/>
</g>
<g fill="rgb(0%, 0%, 0%)" fill-opacity="1">
<use xlink:href="#glyph-15-0-617d6b9a" x="212.412003" y="41.327236"/>
</g>
<g fill="rgb(0%, 0%, 0%)" fill-opacity="1">
<use xlink:href="#glyph-16-0-617d6b9a" x="206.574005" y="15.827233"/>
</g>
<g fill="rgb(0%, 0%, 0%)" fill-opacity="1">
<use xlink:href="#glyph-16-1-617d6b9a" x="212.412003" y="15.827233"/>
</g>
<g fill="rgb(0%, 0%, 0%)" fill-opacity="1">
<use xlink:href="#glyph-17-0-617d6b9a" x="174.081013" y="160.693497"/>
</g>
<g fill="rgb(0%, 0%, 0%)" fill-opacity="1">
<use xlink:href="#glyph-2-2-617d6b9a" x="207.081001" y="160.693497"/>
</g>
<g fill="rgb(0%, 0%, 0%)" fill-opacity="1">
<use xlink:href="#glyph-18-0-617d6b9a" x="237.162025" y="160.693497"/>
</g>
<g fill="rgb(0%, 0%, 0%)" fill-opacity="1">
<use xlink:href="#glyph-2-1-617d6b9a" x="243" y="160.693497"/>
</g>
<g fill="rgb(0%, 0%, 0%)" fill-opacity="1">
<use xlink:href="#glyph-10-1-617d6b9a" x="163.662014" y="148.577248"/>
</g>
<g fill="rgb(0%, 0%, 0%)" fill-opacity="1">
<use xlink:href="#glyph-10-0-617d6b9a" x="163.662014" y="123.077248"/>
</g>
<g fill="rgb(0%, 0%, 0%)" fill-opacity="1">
<use xlink:href="#glyph-19-0-617d6b9a" x="157.824005" y="97.577225"/>
</g>
<g fill="rgb(0%, 0%, 0%)" fill-opacity="1">
<use xlink:href="#glyph-10-1-617d6b9a" x="163.662014" y="97.577225"/>
</g>
<g fill="rgb(0%, 0%, 0%)" fill-opacity="1">
<use xlink:href="#glyph-2-1-617d6b9a" x="271.581001" y="160.693497"/>
</g>
<g fill="rgb(0%, 0%, 0%)" fill-opacity="1">
<use xlink:href="#glyph-20-0-617d6b9a" x="280.206001" y="160.693497"/>
</g>
<g fill="rgb(0%, 0%, 0%)" fill-opacity="1">
<use xlink:href="#glyph-20-1-617d6b9a" x="285.912025" y="160.693497"/>
</g>
<g fill="rgb(0%, 0%, 0%)" fill-opacity="1">
<use xlink:href="#glyph-2-1-617d6b9a" x="291.750023" y="160.693497"/>
</g>
<g fill="rgb(0%, 0%, 0%)" fill-opacity="1">
<use xlink:href="#glyph-21-0-617d6b9a" x="261.162025" y="148.577248"/>
</g>
<g fill="rgb(0%, 0%, 0%)" fill-opacity="1">
<use xlink:href="#glyph-22-0-617d6b9a" x="261.162025" y="82.202248"/>
</g>
<g fill="rgb(0%, 0%, 0%)" fill-opacity="1">
<use xlink:href="#glyph-16-0-617d6b9a" x="255.324028" y="15.827233"/>
</g>
<g fill="rgb(0%, 0%, 0%)" fill-opacity="1">
<use xlink:href="#glyph-23-0-617d6b9a" x="261.162025" y="15.827233"/>
</g>
<g fill="rgb(0%, 0%, 0%)" fill-opacity="1">
<use xlink:href="#glyph-14-1-617d6b9a" x="320.331024" y="78.943485"/>
</g>
<g fill="rgb(0%, 0%, 0%)" fill-opacity="1">
<use xlink:href="#glyph-9-2-617d6b9a" x="328.956001" y="78.943485"/>
</g>
<g fill="rgb(0%, 0%, 0%)" fill-opacity="1">
<use xlink:href="#glyph-9-0-617d6b9a" x="334.662003" y="78.943485"/>
</g>
<g fill="rgb(0%, 0%, 0%)" fill-opacity="1">
<use xlink:href="#glyph-13-1-617d6b9a" x="340.5" y="78.943485"/>
</g>
<g fill="rgb(0%, 0%, 0%)" fill-opacity="1">
<use xlink:href="#glyph-9-1-617d6b9a" x="309.912025" y="66.827236"/>
</g>
<g fill="rgb(0%, 0%, 0%)" fill-opacity="1">
<use xlink:href="#glyph-15-0-617d6b9a" x="309.912025" y="41.327236"/>
</g>
<g fill="rgb(0%, 0%, 0%)" fill-opacity="1">
<use xlink:href="#glyph-24-0-617d6b9a" x="304.074051" y="15.827233"/>
</g>
<g fill="rgb(0%, 0%, 0%)" fill-opacity="1">
<use xlink:href="#glyph-16-1-617d6b9a" x="309.912025" y="15.827233"/>
</g>
<g fill="rgb(0%, 0%, 0%)" fill-opacity="1">
<use xlink:href="#glyph-13-1-617d6b9a" x="369.081024" y="78.943485"/>
</g>
<g fill="rgb(0%, 0%, 0%)" fill-opacity="1">
<use xlink:href="#glyph-9-2-617d6b9a" x="377.706024" y="78.943485"/>
</g>
<g fill="rgb(0%, 0%, 0%)" fill-opacity="1">
<use xlink:href="#glyph-14-0-617d6b9a" x="383.412025" y="78.943485"/>
</g>
<g fill="rgb(0%, 0%, 0%)" fill-opacity="1">
<use xlink:href="#glyph-9-1-617d6b9a" x="389.25" y="78.943485"/>
</g>
<g fill="rgb(0%, 0%, 0%)" fill-opacity="1">
<use xlink:href="#glyph-9-1-617d6b9a" x="358.662003" y="66.827236"/>
</g>
<g fill="rgb(0%, 0%, 0%)" fill-opacity="1">
<use xlink:href="#glyph-15-0-617d6b9a" x="358.662003" y="41.327236"/>
</g>
<g fill="rgb(0%, 0%, 0%)" fill-opacity="1">
<use xlink:href="#glyph-24-0-617d6b9a" x="352.824028" y="15.827233"/>
</g>
<g fill="rgb(0%, 0%, 0%)" fill-opacity="1">
<use xlink:href="#glyph-16-1-617d6b9a" x="358.662003" y="15.827233"/>
</g>
<g fill="rgb(0%, 0%, 0%)" fill-opacity="1">
<use xlink:href="#glyph-18-1-617d6b9a" x="320.331024" y="160.693497"/>
</g>
<g fill="rgb(0%, 0%, 0%)" fill-opacity="1">
<use xlink:href="#glyph-18-2-617d6b9a" x="353.331024" y="160.693497"/>
</g>
<g fill="rgb(0%, 0%, 0%)" fill-opacity="1">
<use xlink:href="#glyph-18-0-617d6b9a" x="383.412025" y="160.693497"/>
</g>
<g fill="rgb(0%, 0%, 0%)" fill-opacity="1">
<use xlink:href="#glyph-2-1-617d6b9a" x="389.25" y="160.693497"/>
</g>
<g fill="rgb(0%, 0%, 0%)" fill-opacity="1">
<use xlink:href="#glyph-15-1-617d6b9a" x="309.912025" y="148.577248"/>
</g>
<g fill="rgb(0%, 0%, 0%)" fill-opacity="1">
<use xlink:href="#glyph-15-0-617d6b9a" x="309.912025" y="123.077248"/>
</g>
<g fill="rgb(0%, 0%, 0%)" fill-opacity="1">
<use xlink:href="#glyph-25-0-617d6b9a" x="304.074051" y="97.577225"/>
</g>
<g fill="rgb(0%, 0%, 0%)" fill-opacity="1">
<use xlink:href="#glyph-15-1-617d6b9a" x="309.912025" y="97.577225"/>
</g>
<g fill="rgb(0%, 0%, 0%)" fill-opacity="1">
<use xlink:href="#glyph-2-1-617d6b9a" x="417.830978" y="160.693497"/>
</g>
<g fill="rgb(0%, 0%, 0%)" fill-opacity="1">
<use xlink:href="#glyph-2-2-617d6b9a" x="426.455978" y="160.693497"/>
</g>
<g fill="rgb(0%, 0%, 0%)" fill-opacity="1">
<use xlink:href="#glyph-2-0-617d6b9a" x="432.162003" y="160.693497"/>
</g>
<g fill="rgb(0%, 0%, 0%)" fill-opacity="1">
<use xlink:href="#glyph-2-1-617d6b9a" x="438" y="160.693497"/>
</g>
<g fill="rgb(0%, 0%, 0%)" fill-opacity="1">
<use xlink:href="#glyph-15-1-617d6b9a" x="407.412003" y="148.577248"/>
</g>
<g fill="rgb(0%, 0%, 0%)" fill-opacity="1">
<use xlink:href="#glyph-26-0-617d6b9a" x="407.412003" y="82.202248"/>
</g>
<g fill="rgb(0%, 0%, 0%)" fill-opacity="1">
<use xlink:href="#glyph-16-0-617d6b9a" x="401.574005" y="15.827233"/>
</g>
<g fill="rgb(0%, 0%, 0%)" fill-opacity="1">
<use xlink:href="#glyph-16-1-617d6b9a" x="407.412003" y="15.827233"/>
</g>
<g fill="rgb(0%, 0%, 0%)" fill-opacity="1">
<use xlink:href="#glyph-27-0-617d6b9a" x="27.831004" y="242.443497"/>
</g>
<g fill="rgb(0%, 0%, 0%)" fill-opacity="1">
<use xlink:href="#glyph-28-0-617d6b9a" x="84.831001" y="242.443497"/>
</g>
<g fill="rgb(0%, 0%, 0%)" fill-opacity="1">
<use xlink:href="#glyph-29-0-617d6b9a" x="138.912025" y="242.443497"/>
</g>
<g fill="rgb(0%, 0%, 0%)" fill-opacity="1">
<use xlink:href="#glyph-29-1-617d6b9a" x="144.750011" y="242.443497"/>
</g>
<g fill="rgb(0%, 0%, 0%)" fill-opacity="1">
<use xlink:href="#glyph-27-0-617d6b9a" x="17.412003" y="230.327248"/>
</g>
<g fill="rgb(0%, 0%, 0%)" fill-opacity="1">
<use xlink:href="#glyph-3-1-617d6b9a" x="17.412003" y="204.827248"/>
</g>
<g fill="rgb(0%, 0%, 0%)" fill-opacity="1">
<use xlink:href="#glyph-30-0-617d6b9a" x="11.574" y="179.327236"/>
</g>
<g fill="rgb(0%, 0%, 0%)" fill-opacity="1">
<use xlink:href="#glyph-3-0-617d6b9a" x="17.412003" y="179.327236"/>
</g>
<g fill="rgb(0%, 0%, 0%)" fill-opacity="1">
<use xlink:href="#glyph-31-0-617d6b9a" x="174.081013" y="242.443497"/>
</g>
<g fill="rgb(0%, 0%, 0%)" fill-opacity="1">
<use xlink:href="#glyph-32-0-617d6b9a" x="231.456024" y="242.443497"/>
</g>
<g fill="rgb(0%, 0%, 0%)" fill-opacity="1">
<use xlink:href="#glyph-32-1-617d6b9a" x="285.912025" y="242.443497"/>
</g>
<g fill="rgb(0%, 0%, 0%)" fill-opacity="1">
<use xlink:href="#glyph-29-1-617d6b9a" x="291.750023" y="242.443497"/>
</g>
<g fill="rgb(0%, 0%, 0%)" fill-opacity="1">
<use xlink:href="#glyph-31-0-617d6b9a" x="163.662014" y="230.327248"/>
</g>
<g fill="rgb(0%, 0%, 0%)" fill-opacity="1">
<use xlink:href="#glyph-10-0-617d6b9a" x="163.662014" y="204.827248"/>
</g>
<g fill="rgb(0%, 0%, 0%)" fill-opacity="1">
<use xlink:href="#glyph-19-0-617d6b9a" x="157.824005" y="179.327236"/>
</g>
<g fill="rgb(0%, 0%, 0%)" fill-opacity="1">
<use xlink:href="#glyph-10-1-617d6b9a" x="163.662014" y="179.327236"/>
</g>
<g fill="rgb(0%, 0%, 0%)" fill-opacity="1">
<use xlink:href="#glyph-3-0-617d6b9a" x="27.831004" y="324.193497"/>
</g>
<g fill="rgb(0%, 0%, 0%)" fill-opacity="1">
<use xlink:href="#glyph-15-0-617d6b9a" x="158.331001" y="324.193497"/>
</g>
<g fill="rgb(0%, 0%, 0%)" fill-opacity="1">
<use xlink:href="#glyph-21-1-617d6b9a" x="285.912025" y="324.193497"/>
</g>
<g fill="rgb(0%, 0%, 0%)" fill-opacity="1">
<use xlink:href="#glyph-15-1-617d6b9a" x="291.750023" y="324.193497"/>
</g>
<g fill="rgb(0%, 0%, 0%)" fill-opacity="1">
<use xlink:href="#glyph-3-0-617d6b9a" x="17.412003" y="312.077248"/>
</g>
<g fill="rgb(0%, 0%, 0%)" fill-opacity="1">
<use xlink:href="#glyph-3-1-617d6b9a" x="17.412003" y="286.577248"/>
</g>
<g fill="rgb(0%, 0%, 0%)" fill-opacity="1">
<use xlink:href="#glyph-30-0-617d6b9a" x="11.574" y="261.077248"/>
</g>
<g fill="rgb(0%, 0%, 0%)" fill-opacity="1">
<use xlink:href="#glyph-3-0-617d6b9a" x="17.412003" y="261.077248"/>
</g>
<g fill="rgb(0%, 0%, 0%)" fill-opacity="1">
<use xlink:href="#glyph-25-1-617d6b9a" x="320.331024" y="324.193497"/>
</g>
<g fill="rgb(0%, 0%, 0%)" fill-opacity="1">
<use xlink:href="#glyph-15-0-617d6b9a" x="377.706024" y="324.193497"/>
</g>
<g fill="rgb(0%, 0%, 0%)" fill-opacity="1">
<use xlink:href="#glyph-15-2-617d6b9a" x="432.162003" y="324.193497"/>
</g>
<g fill="rgb(0%, 0%, 0%)" fill-opacity="1">
<use xlink:href="#glyph-15-1-617d6b9a" x="438" y="324.193497"/>
</g>
<g fill="rgb(0%, 0%, 0%)" fill-opacity="1">
<use xlink:href="#glyph-15-1-617d6b9a" x="309.912025" y="312.077248"/>
</g>
<g fill="rgb(0%, 0%, 0%)" fill-opacity="1">
<use xlink:href="#glyph-15-0-617d6b9a" x="309.912025" y="245.702248"/>
</g>
<g fill="rgb(0%, 0%, 0%)" fill-opacity="1">
<use xlink:href="#glyph-25-0-617d6b9a" x="304.074051" y="179.327236"/>
</g>
<g fill="rgb(0%, 0%, 0%)" fill-opacity="1">
<use xlink:href="#glyph-15-1-617d6b9a" x="309.912025" y="179.327236"/>
</g>
<path fill="none" stroke-width="1" stroke-linecap="butt" stroke-linejoin="miter" stroke="rgb(0%, 0%, 0%)" stroke-opacity="1" stroke-miterlimit="2" d="M 41 193.5 L 41 198.5 " transform="matrix(0.75, 0, 0, 0.75, 0, 0)"/>
<path fill="none" stroke-width="1" stroke-linecap="butt" stroke-linejoin="miter" stroke="rgb(0%, 0%, 0%)" stroke-opacity="1" stroke-miterlimit="2" d="M 117 193.5 L 117 198.5 " transform="matrix(0.75, 0, 0, 0.75, 0, 0)"/>
<path fill="none" stroke-width="1" stroke-linecap="butt" stroke-linejoin="miter" stroke="rgb(0%, 0%, 0%)" stroke-opacity="1" stroke-miterlimit="2" d="M 193 193.5 L 193 198.5 " transform="matrix(0.75, 0, 0, 0.75, 0, 0)"/>
<path fill="none" stroke-width="1" stroke-linecap="butt" stroke-linejoin="miter" stroke="rgb(0%, 0%, 0%)" stroke-opacity="1" stroke-miterlimit="2" d="M 40.5 193 L 35.5 193 " transform="matrix(0.75, 0, 0, 0.75, 0, 0)"/>
<path fill="none" stroke-width="1" stroke-linecap="butt" stroke-linejoin="miter" stroke="rgb(0%, 0%, 0%)" stroke-opacity="1" stroke-miterlimit="2" d="M 40.5 104.5 L 35.5 104.5 " transform="matrix(0.75, 0, 0, 0.75, 0, 0)"/>
<path fill="none" stroke-width="1" stroke-linecap="butt" stroke-linejoin="miter" stroke="rgb(0%, 0%, 0%)" stroke-opacity="1" stroke-miterlimit="2" d="M 40.5 16 L 35.5 16 " transform="matrix(0.75, 0, 0, 0.75, 0, 0)"/>
<path fill="none" stroke-width="1" stroke-linecap="butt" stroke-linejoin="miter" stroke="rgb(0%, 0%, 0%)" stroke-opacity="1" stroke-miterlimit="2" d="M 236 84.5 L 236 89.5 " transform="matrix(0.75, 0, 0, 0.75, 0, 0)"/>
<path fill="none" stroke-width="1" stroke-linecap="butt" stroke-linejoin="miter" stroke="rgb(0%, 0%, 0%)" stroke-opacity="1" stroke-miterlimit="2" d="M 247 84.5 L 247 89.5 " transform="matrix(0.75, 0, 0, 0.75, 0, 0)"/>
<path fill="none" stroke-width="1" stroke-linecap="butt" stroke-linejoin="miter" stroke="rgb(0%, 0%, 0%)" stroke-opacity="1" stroke-miterlimit="2" d="M 258 84.5 L 258 89.5 " transform="matrix(0.75, 0, 0, 0.75, 0, 0)"/>
<path fill="none" stroke-width="1" stroke-linecap="butt" stroke-linejoin="miter" stroke="rgb(0%, 0%, 0%)" stroke-opacity="1" stroke-miterlimit="2" d="M 235.5 84 L 230.5 84 " transform="matrix(0.75, 0, 0, 0.75, 0, 0)"/>
<path fill="none" stroke-width="1" stroke-linecap="butt" stroke-linejoin="miter" stroke="rgb(0%, 0%, 0%)" stroke-opacity="1" stroke-miterlimit="2" d="M 235.5 50 L 230.5 50 " transform="matrix(0.75, 0, 0, 0.75, 0, 0)"/>
<path fill="none" stroke-width="1" stroke-linecap="butt" stroke-linejoin="miter" stroke="rgb(0%, 0%, 0%)" stroke-opacity="1" stroke-miterlimit="2" d="M 235.5 16 L 230.5 16 " transform="matrix(0.75, 0, 0, 0.75, 0, 0)"/>
<path fill="none" stroke-width="1" stroke-linecap="butt" stroke-linejoin="miter" stroke="rgb(0%, 0%, 0%)" stroke-opacity="1" stroke-miterlimit="2" d="M 301 84.5 L 301 89.5 " transform="matrix(0.75, 0, 0, 0.75, 0, 0)"/>
<path fill="none" stroke-width="1" stroke-linecap="butt" stroke-linejoin="miter" stroke="rgb(0%, 0%, 0%)" stroke-opacity="1" stroke-miterlimit="2" d="M 312.5 84.5 L 312.5 89.5 " transform="matrix(0.75, 0, 0, 0.75, 0, 0)"/>
<path fill="none" stroke-width="1" stroke-linecap="butt" stroke-linejoin="miter" stroke="rgb(0%, 0%, 0%)" stroke-opacity="1" stroke-miterlimit="2" d="M 324 84.5 L 324 89.5 " transform="matrix(0.75, 0, 0, 0.75, 0, 0)"/>
<path fill="none" stroke-width="1" stroke-linecap="butt" stroke-linejoin="miter" stroke="rgb(0%, 0%, 0%)" stroke-opacity="1" stroke-miterlimit="2" d="M 300.5 84 L 295.5 84 " transform="matrix(0.75, 0, 0, 0.75, 0, 0)"/>
<path fill="none" stroke-width="1" stroke-linecap="butt" stroke-linejoin="miter" stroke="rgb(0%, 0%, 0%)" stroke-opacity="1" stroke-miterlimit="2" d="M 300.5 50 L 295.5 50 " transform="matrix(0.75, 0, 0, 0.75, 0, 0)"/>
<path fill="none" stroke-width="1" stroke-linecap="butt" stroke-linejoin="miter" stroke="rgb(0%, 0%, 0%)" stroke-opacity="1" stroke-miterlimit="2" d="M 300.5 16 L 295.5 16 " transform="matrix(0.75, 0, 0, 0.75, 0, 0)"/>
<path fill="none" stroke-width="1" stroke-linecap="butt" stroke-linejoin="miter" stroke="rgb(0%, 0%, 0%)" stroke-opacity="1" stroke-miterlimit="2" d="M 236 193.5 L 236 198.5 " transform="matrix(0.75, 0, 0, 0.75, 0, 0)"/>
<path fill="none" stroke-width="1" stroke-linecap="butt" stroke-linejoin="miter" stroke="rgb(0%, 0%, 0%)" stroke-opacity="1" stroke-miterlimit="2" d="M 280 193.5 L 280 198.5 " transform="matrix(0.75, 0, 0, 0.75, 0, 0)"/>
<path fill="none" stroke-width="1" stroke-linecap="butt" stroke-linejoin="miter" stroke="rgb(0%, 0%, 0%)" stroke-opacity="1" stroke-miterlimit="2" d="M 324 193.5 L 324 198.5 " transform="matrix(0.75, 0, 0, 0.75, 0, 0)"/>
<path fill="none" stroke-width="1" stroke-linecap="butt" stroke-linejoin="miter" stroke="rgb(0%, 0%, 0%)" stroke-opacity="1" stroke-miterlimit="2" d="M 235.5 193 L 230.5 193 " transform="matrix(0.75, 0, 0, 0.75, 0, 0)"/>
<path fill="none" stroke-width="1" stroke-linecap="butt" stroke-linejoin="miter" stroke="rgb(0%, 0%, 0%)" stroke-opacity="1" stroke-miterlimit="2" d="M 235.5 159 L 230.5 159 " transform="matrix(0.75, 0, 0, 0.75, 0, 0)"/>
<path fill="none" stroke-width="1" stroke-linecap="butt" stroke-linejoin="miter" stroke="rgb(0%, 0%, 0%)" stroke-opacity="1" stroke-miterlimit="2" d="M 235.5 125 L 230.5 125 " transform="matrix(0.75, 0, 0, 0.75, 0, 0)"/>
<path fill="none" stroke-width="1" stroke-linecap="butt" stroke-linejoin="miter" stroke="rgb(0%, 0%, 0%)" stroke-opacity="1" stroke-miterlimit="2" d="M 366 193.5 L 366 198.5 " transform="matrix(0.75, 0, 0, 0.75, 0, 0)"/>
<path fill="none" stroke-width="1" stroke-linecap="butt" stroke-linejoin="miter" stroke="rgb(0%, 0%, 0%)" stroke-opacity="1" stroke-miterlimit="2" d="M 377.5 193.5 L 377.5 198.5 " transform="matrix(0.75, 0, 0, 0.75, 0, 0)"/>
<path fill="none" stroke-width="1" stroke-linecap="butt" stroke-linejoin="miter" stroke="rgb(0%, 0%, 0%)" stroke-opacity="1" stroke-miterlimit="2" d="M 389 193.5 L 389 198.5 " transform="matrix(0.75, 0, 0, 0.75, 0, 0)"/>
<path fill="none" stroke-width="1" stroke-linecap="butt" stroke-linejoin="miter" stroke="rgb(0%, 0%, 0%)" stroke-opacity="1" stroke-miterlimit="2" d="M 365.5 193 L 360.5 193 " transform="matrix(0.75, 0, 0, 0.75, 0, 0)"/>
<path fill="none" stroke-width="1" stroke-linecap="butt" stroke-linejoin="miter" stroke="rgb(0%, 0%, 0%)" stroke-opacity="1" stroke-miterlimit="2" d="M 365.5 104.5 L 360.5 104.5 " transform="matrix(0.75, 0, 0, 0.75, 0, 0)"/>
<path fill="none" stroke-width="1" stroke-linecap="butt" stroke-linejoin="miter" stroke="rgb(0%, 0%, 0%)" stroke-opacity="1" stroke-miterlimit="2" d="M 365.5 16 L 360.5 16 " transform="matrix(0.75, 0, 0, 0.75, 0, 0)"/>
<path fill="none" stroke-width="1" stroke-linecap="butt" stroke-linejoin="miter" stroke="rgb(0%, 0%, 0%)" stroke-opacity="1" stroke-miterlimit="2" d="M 431 84.5 L 431 89.5 " transform="matrix(0.75, 0, 0, 0.75, 0, 0)"/>
<path fill="none" stroke-width="1" stroke-linecap="butt" stroke-linejoin="miter" stroke="rgb(0%, 0%, 0%)" stroke-opacity="1" stroke-miterlimit="2" d="M 442.5 84.5 L 442.5 89.5 " transform="matrix(0.75, 0, 0, 0.75, 0, 0)"/>
<path fill="none" stroke-width="1" stroke-linecap="butt" stroke-linejoin="miter" stroke="rgb(0%, 0%, 0%)" stroke-opacity="1" stroke-miterlimit="2" d="M 454 84.5 L 454 89.5 " transform="matrix(0.75, 0, 0, 0.75, 0, 0)"/>
<path fill="none" stroke-width="1" stroke-linecap="butt" stroke-linejoin="miter" stroke="rgb(0%, 0%, 0%)" stroke-opacity="1" stroke-miterlimit="2" d="M 430.5 84 L 425.5 84 " transform="matrix(0.75, 0, 0, 0.75, 0, 0)"/>
<path fill="none" stroke-width="1" stroke-linecap="butt" stroke-linejoin="miter" stroke="rgb(0%, 0%, 0%)" stroke-opacity="1" stroke-miterlimit="2" d="M 430.5 50 L 425.5 50 " transform="matrix(0.75, 0, 0, 0.75, 0, 0)"/>
<path fill="none" stroke-width="1" stroke-linecap="butt" stroke-linejoin="miter" stroke="rgb(0%, 0%, 0%)" stroke-opacity="1" stroke-miterlimit="2" d="M 430.5 16 L 425.5 16 " transform="matrix(0.75, 0, 0, 0.75, 0, 0)"/>
<path fill="none" stroke-width="1" stroke-linecap="butt" stroke-linejoin="miter" stroke="rgb(0%, 0%, 0%)" stroke-opacity="1" stroke-miterlimit="2" d="M 496 84.5 L 496 89.5 " transform="matrix(0.75, 0, 0, 0.75, 0, 0)"/>
<path fill="none" stroke-width="1" stroke-linecap="butt" stroke-linejoin="miter" stroke="rgb(0%, 0%, 0%)" stroke-opacity="1" stroke-miterlimit="2" d="M 507.5 84.5 L 507.5 89.5 " transform="matrix(0.75, 0, 0, 0.75, 0, 0)"/>
<path fill="none" stroke-width="1" stroke-linecap="butt" stroke-linejoin="miter" stroke="rgb(0%, 0%, 0%)" stroke-opacity="1" stroke-miterlimit="2" d="M 519 84.5 L 519 89.5 " transform="matrix(0.75, 0, 0, 0.75, 0, 0)"/>
<path fill="none" stroke-width="1" stroke-linecap="butt" stroke-linejoin="miter" stroke="rgb(0%, 0%, 0%)" stroke-opacity="1" stroke-miterlimit="2" d="M 495.5 84 L 490.5 84 " transform="matrix(0.75, 0, 0, 0.75, 0, 0)"/>
<path fill="none" stroke-width="1" stroke-linecap="butt" stroke-linejoin="miter" stroke="rgb(0%, 0%, 0%)" stroke-opacity="1" stroke-miterlimit="2" d="M 495.5 50 L 490.5 50 " transform="matrix(0.75, 0, 0, 0.75, 0, 0)"/>
<path fill="none" stroke-width="1" stroke-linecap="butt" stroke-linejoin="miter" stroke="rgb(0%, 0%, 0%)" stroke-opacity="1" stroke-miterlimit="2" d="M 495.5 16 L 490.5 16 " transform="matrix(0.75, 0, 0, 0.75, 0, 0)"/>
<path fill="none" stroke-width="1" stroke-linecap="butt" stroke-linejoin="miter" stroke="rgb(0%, 0%, 0%)" stroke-opacity="1" stroke-miterlimit="2" d="M 431 193.5 L 431 198.5 " transform="matrix(0.75, 0, 0, 0.75, 0, 0)"/>
<path fill="none" stroke-width="1" stroke-linecap="butt" stroke-linejoin="miter" stroke="rgb(0%, 0%, 0%)" stroke-opacity="1" stroke-miterlimit="2" d="M 475 193.5 L 475 198.5 " transform="matrix(0.75, 0, 0, 0.75, 0, 0)"/>
<path fill="none" stroke-width="1" stroke-linecap="butt" stroke-linejoin="miter" stroke="rgb(0%, 0%, 0%)" stroke-opacity="1" stroke-miterlimit="2" d="M 519 193.5 L 519 198.5 " transform="matrix(0.75, 0, 0, 0.75, 0, 0)"/>
<path fill="none" stroke-width="1" stroke-linecap="butt" stroke-linejoin="miter" stroke="rgb(0%, 0%, 0%)" stroke-opacity="1" stroke-miterlimit="2" d="M 430.5 193 L 425.5 193 " transform="matrix(0.75, 0, 0, 0.75, 0, 0)"/>
<path fill="none" stroke-width="1" stroke-linecap="butt" stroke-linejoin="miter" stroke="rgb(0%, 0%, 0%)" stroke-opacity="1" stroke-miterlimit="2" d="M 430.5 159 L 425.5 159 " transform="matrix(0.75, 0, 0, 0.75, 0, 0)"/>
<path fill="none" stroke-width="1" stroke-linecap="butt" stroke-linejoin="miter" stroke="rgb(0%, 0%, 0%)" stroke-opacity="1" stroke-miterlimit="2" d="M 430.5 125 L 425.5 125 " transform="matrix(0.75, 0, 0, 0.75, 0, 0)"/>
<path fill="none" stroke-width="1" stroke-linecap="butt" stroke-linejoin="miter" stroke="rgb(0%, 0%, 0%)" stroke-opacity="1" stroke-miterlimit="2" d="M 561 193.5 L 561 198.5 " transform="matrix(0.75, 0, 0, 0.75, 0, 0)"/>
<path fill="none" stroke-width="1" stroke-linecap="butt" stroke-linejoin="miter" stroke="rgb(0%, 0%, 0%)" stroke-opacity="1" stroke-miterlimit="2" d="M 572.5 193.5 L 572.5 198.5 " transform="matrix(0.75, 0, 0, 0.75, 0, 0)"/>
<path fill="none" stroke-width="1" stroke-linecap="butt" stroke-linejoin="miter" stroke="rgb(0%, 0%, 0%)" stroke-opacity="1" stroke-miterlimit="2" d="M 584 193.5 L 584 198.5 " transform="matrix(0.75, 0, 0, 0.75, 0, 0)"/>
<path fill="none" stroke-width="1" stroke-linecap="butt" stroke-linejoin="miter" stroke="rgb(0%, 0%, 0%)" stroke-opacity="1" stroke-miterlimit="2" d="M 560.5 193 L 555.5 193 " transform="matrix(0.75, 0, 0, 0.75, 0, 0)"/>
<path fill="none" stroke-width="1" stroke-linecap="butt" stroke-linejoin="miter" stroke="rgb(0%, 0%, 0%)" stroke-opacity="1" stroke-miterlimit="2" d="M 560.5 104.5 L 555.5 104.5 " transform="matrix(0.75, 0, 0, 0.75, 0, 0)"/>
<path fill="none" stroke-width="1" stroke-linecap="butt" stroke-linejoin="miter" stroke="rgb(0%, 0%, 0%)" stroke-opacity="1" stroke-miterlimit="2" d="M 560.5 16 L 555.5 16 " transform="matrix(0.75, 0, 0, 0.75, 0, 0)"/>
<path fill="none" stroke-width="1" stroke-linecap="butt" stroke-linejoin="miter" stroke="rgb(0%, 0%, 0%)" stroke-opacity="1" stroke-miterlimit="2" d="M 41 302.5 L 41 307.5 " transform="matrix(0.75, 0, 0, 0.75, 0, 0)"/>
<path fill="none" stroke-width="1" stroke-linecap="butt" stroke-linejoin="miter" stroke="rgb(0%, 0%, 0%)" stroke-opacity="1" stroke-miterlimit="2" d="M 117 302.5 L 117 307.5 " transform="matrix(0.75, 0, 0, 0.75, 0, 0)"/>
<path fill="none" stroke-width="1" stroke-linecap="butt" stroke-linejoin="miter" stroke="rgb(0%, 0%, 0%)" stroke-opacity="1" stroke-miterlimit="2" d="M 193 302.5 L 193 307.5 " transform="matrix(0.75, 0, 0, 0.75, 0, 0)"/>
<path fill="none" stroke-width="1" stroke-linecap="butt" stroke-linejoin="miter" stroke="rgb(0%, 0%, 0%)" stroke-opacity="1" stroke-miterlimit="2" d="M 40.5 302 L 35.5 302 " transform="matrix(0.75, 0, 0, 0.75, 0, 0)"/>
<path fill="none" stroke-width="1" stroke-linecap="butt" stroke-linejoin="miter" stroke="rgb(0%, 0%, 0%)" stroke-opacity="1" stroke-miterlimit="2" d="M 40.5 268 L 35.5 268 " transform="matrix(0.75, 0, 0, 0.75, 0, 0)"/>
<path fill="none" stroke-width="1" stroke-linecap="butt" stroke-linejoin="miter" stroke="rgb(0%, 0%, 0%)" stroke-opacity="1" stroke-miterlimit="2" d="M 40.5 234 L 35.5 234 " transform="matrix(0.75, 0, 0, 0.75, 0, 0)"/>
<path fill="none" stroke-width="1" stroke-linecap="butt" stroke-linejoin="miter" stroke="rgb(0%, 0%, 0%)" stroke-opacity="1" stroke-miterlimit="2" d="M 236 302.5 L 236 307.5 " transform="matrix(0.75, 0, 0, 0.75, 0, 0)"/>
<path fill="none" stroke-width="1" stroke-linecap="butt" stroke-linejoin="miter" stroke="rgb(0%, 0%, 0%)" stroke-opacity="1" stroke-miterlimit="2" d="M 312.5 302.5 L 312.5 307.5 " transform="matrix(0.75, 0, 0, 0.75, 0, 0)"/>
<path fill="none" stroke-width="1" stroke-linecap="butt" stroke-linejoin="miter" stroke="rgb(0%, 0%, 0%)" stroke-opacity="1" stroke-miterlimit="2" d="M 389 302.5 L 389 307.5 " transform="matrix(0.75, 0, 0, 0.75, 0, 0)"/>
<path fill="none" stroke-width="1" stroke-linecap="butt" stroke-linejoin="miter" stroke="rgb(0%, 0%, 0%)" stroke-opacity="1" stroke-miterlimit="2" d="M 235.5 302 L 230.5 302 " transform="matrix(0.75, 0, 0, 0.75, 0, 0)"/>
<path fill="none" stroke-width="1" stroke-linecap="butt" stroke-linejoin="miter" stroke="rgb(0%, 0%, 0%)" stroke-opacity="1" stroke-miterlimit="2" d="M 235.5 268 L 230.5 268 " transform="matrix(0.75, 0, 0, 0.75, 0, 0)"/>
<path fill="none" stroke-width="1" stroke-linecap="butt" stroke-linejoin="miter" stroke="rgb(0%, 0%, 0%)" stroke-opacity="1" stroke-miterlimit="2" d="M 235.5 234 L 230.5 234 " transform="matrix(0.75, 0, 0, 0.75, 0, 0)"/>
<path fill="none" stroke-width="1" stroke-linecap="butt" stroke-linejoin="miter" stroke="rgb(0%, 0%, 0%)" stroke-opacity="1" stroke-miterlimit="2" d="M 41 411.5 L 41 416.5 " transform="matrix(0.75, 0, 0, 0.75, 0, 0)"/>
<path fill="none" stroke-width="1" stroke-linecap="butt" stroke-linejoin="miter" stroke="rgb(0%, 0%, 0%)" stroke-opacity="1" stroke-miterlimit="2" d="M 215 411.5 L 215 416.5 " transform="matrix(0.75, 0, 0, 0.75, 0, 0)"/>
<path fill="none" stroke-width="1" stroke-linecap="butt" stroke-linejoin="miter" stroke="rgb(0%, 0%, 0%)" stroke-opacity="1" stroke-miterlimit="2" d="M 389 411.5 L 389 416.5 " transform="matrix(0.75, 0, 0, 0.75, 0, 0)"/>
<path fill="none" stroke-width="1" stroke-linecap="butt" stroke-linejoin="miter" stroke="rgb(0%, 0%, 0%)" stroke-opacity="1" stroke-miterlimit="2" d="M 40.5 411 L 35.5 411 " transform="matrix(0.75, 0, 0, 0.75, 0, 0)"/>
<path fill="none" stroke-width="1" stroke-linecap="butt" stroke-linejoin="miter" stroke="rgb(0%, 0%, 0%)" stroke-opacity="1" stroke-miterlimit="2" d="M 40.5 377 L 35.5 377 " transform="matrix(0.75, 0, 0, 0.75, 0, 0)"/>
<path fill="none" stroke-width="1" stroke-linecap="butt" stroke-linejoin="miter" stroke="rgb(0%, 0%, 0%)" stroke-opacity="1" stroke-miterlimit="2" d="M 40.5 343 L 35.5 343 " transform="matrix(0.75, 0, 0, 0.75, 0, 0)"/>
<path fill="none" stroke-width="1" stroke-linecap="butt" stroke-linejoin="miter" stroke="rgb(0%, 0%, 0%)" stroke-opacity="1" stroke-miterlimit="2" d="M 431 411.5 L 431 416.5 " transform="matrix(0.75, 0, 0, 0.75, 0, 0)"/>
<path fill="none" stroke-width="1" stroke-linecap="butt" stroke-linejoin="miter" stroke="rgb(0%, 0%, 0%)" stroke-opacity="1" stroke-miterlimit="2" d="M 507.5 411.5 L 507.5 416.5 " transform="matrix(0.75, 0, 0, 0.75, 0, 0)"/>
<path fill="none" stroke-width="1" stroke-linecap="butt" stroke-linejoin="miter" stroke="rgb(0%, 0%, 0%)" stroke-opacity="1" stroke-miterlimit="2" d="M 584 411.5 L 584 416.5 " transform="matrix(0.75, 0, 0, 0.75, 0, 0)"/>
<path fill="none" stroke-width="1" stroke-linecap="butt" stroke-linejoin="miter" stroke="rgb(0%, 0%, 0%)" stroke-opacity="1" stroke-miterlimit="2" d="M 430.5 411 L 425.5 411 " transform="matrix(0.75, 0, 0, 0.75, 0, 0)"/>
<path fill="none" stroke-width="1" stroke-linecap="butt" stroke-linejoin="miter" stroke="rgb(0%, 0%, 0%)" stroke-opacity="1" stroke-miterlimit="2" d="M 430.5 322.5 L 425.5 322.5 " transform="matrix(0.75, 0, 0, 0.75, 0, 0)"/>
<path fill="none" stroke-width="1" stroke-linecap="butt" stroke-linejoin="miter" stroke="rgb(0%, 0%, 0%)" stroke-opacity="1" stroke-miterlimit="2" d="M 430.5 234 L 425.5 234 " transform="matrix(0.75, 0, 0, 0.75, 0, 0)"/>
<path fill="none" stroke-width="1" stroke-linecap="butt" stroke-linejoin="miter" stroke="rgb(0%, 0%, 0%)" stroke-opacity="1" stroke-miterlimit="2" d="M 40.5 193 L 193.5 193 " transform="matrix(0.75, 0, 0, 0.75, 0, 0)"/>
<path fill="none" stroke-width="1" stroke-linecap="butt" stroke-linejoin="miter" stroke="rgb(0%, 0%, 0%)" stroke-opacity="1" stroke-miterlimit="2" d="M 41 193.5 L 41 15.5 " transform="matrix(0.75, 0, 0, 0.75, 0, 0)"/>
<path fill="none" stroke-width="1" stroke-linecap="butt" stroke-linejoin="miter" stroke="rgb(0%, 0%, 0%)" stroke-opacity="1" stroke-miterlimit="2" d="M 40.5 16 L 193.5 16 " transform="matrix(0.75, 0, 0, 0.75, 0, 0)"/>
<path fill="none" stroke-width="1" stroke-linecap="butt" stroke-linejoin="miter" stroke="rgb(0%, 0%, 0%)" stroke-opacity="1" stroke-miterlimit="2" d="M 193 193.5 L 193 15.5 " transform="matrix(0.75, 0, 0, 0.75, 0, 0)"/>
<path fill="none" stroke-width="1" stroke-linecap="butt" stroke-linejoin="miter" stroke="rgb(0%, 0%, 0%)" stroke-opacity="1" stroke-miterlimit="2" d="M 235.5 84 L 258.5 84 " transform="matrix(0.75, 0, 0, 0.75, 0, 0)"/>
<path fill="none" stroke-width="1" stroke-linecap="butt" stroke-linejoin="miter" stroke="rgb(0%, 0%, 0%)" stroke-opacity="1" stroke-miterlimit="2" d="M 236 84.5 L 236 15.5 " transform="matrix(0.75, 0, 0, 0.75, 0, 0)"/>
<path fill="none" stroke-width="1" stroke-linecap="butt" stroke-linejoin="miter" stroke="rgb(0%, 0%, 0%)" stroke-opacity="1" stroke-miterlimit="2" d="M 235.5 16 L 258.5 16 " transform="matrix(0.75, 0, 0, 0.75, 0, 0)"/>
<path fill="none" stroke-width="1" stroke-linecap="butt" stroke-linejoin="miter" stroke="rgb(0%, 0%, 0%)" stroke-opacity="1" stroke-miterlimit="2" d="M 258 84.5 L 258 15.5 " transform="matrix(0.75, 0, 0, 0.75, 0, 0)"/>
<path fill="none" stroke-width="1" stroke-linecap="butt" stroke-linejoin="miter" stroke="rgb(0%, 0%, 0%)" stroke-opacity="1" stroke-miterlimit="2" d="M 300.5 84 L 324.5 84 " transform="matrix(0.75, 0, 0, 0.75, 0, 0)"/>
<path fill="none" stroke-width="1" stroke-linecap="butt" stroke-linejoin="miter" stroke="rgb(0%, 0%, 0%)" stroke-opacity="1" stroke-miterlimit="2" d="M 301 84.5 L 301 15.5 " transform="matrix(0.75, 0, 0, 0.75, 0, 0)"/>
<path fill="none" stroke-width="1" stroke-linecap="butt" stroke-linejoin="miter" stroke="rgb(0%, 0%, 0%)" stroke-opacity="1" stroke-miterlimit="2" d="M 300.5 16 L 324.5 16 " transform="matrix(0.75, 0, 0, 0.75, 0, 0)"/>
<path fill="none" stroke-width="1" stroke-linecap="butt" stroke-linejoin="miter" stroke="rgb(0%, 0%, 0%)" stroke-opacity="1" stroke-miterlimit="2" d="M 324 84.5 L 324 15.5 " transform="matrix(0.75, 0, 0, 0.75, 0, 0)"/>
<path fill="none" stroke-width="1" stroke-linecap="butt" stroke-linejoin="miter" stroke="rgb(0%, 0%, 0%)" stroke-opacity="1" stroke-miterlimit="2" d="M 235.5 193 L 324.5 193 " transform="matrix(0.75, 0, 0, 0.75, 0, 0)"/>
<path fill="none" stroke-width="1" stroke-linecap="butt" stroke-linejoin="miter" stroke="rgb(0%, 0%, 0%)" stroke-opacity="1" stroke-miterlimit="2" d="M 236 193.5 L 236 124.5 " transform="matrix(0.75, 0, 0, 0.75, 0, 0)"/>
<path fill="none" stroke-width="1" stroke-linecap="butt" stroke-linejoin="miter" stroke="rgb(0%, 0%, 0%)" stroke-opacity="1" stroke-miterlimit="2" d="M 235.5 125 L 324.5 125 " transform="matrix(0.75, 0, 0, 0.75, 0, 0)"/>
<path fill="none" stroke-width="1" stroke-linecap="butt" stroke-linejoin="miter" stroke="rgb(0%, 0%, 0%)" stroke-opacity="1" stroke-miterlimit="2" d="M 324 193.5 L 324 124.5 " transform="matrix(0.75, 0, 0, 0.75, 0, 0)"/>
<path fill="none" stroke-width="1" stroke-linecap="butt" stroke-linejoin="miter" stroke="rgb(0%, 0%, 0%)" stroke-opacity="1" stroke-miterlimit="2" d="M 365.5 193 L 389.5 193 " transform="matrix(0.75, 0, 0, 0.75, 0, 0)"/>
<path fill="none" stroke-width="1" stroke-linecap="butt" stroke-linejoin="miter" stroke="rgb(0%, 0%, 0%)" stroke-opacity="1" stroke-miterlimit="2" d="M 366 193.5 L 366 15.5 " transform="matrix(0.75, 0, 0, 0.75, 0, 0)"/>
<path fill="none" stroke-width="1" stroke-linecap="butt" stroke-linejoin="miter" stroke="rgb(0%, 0%, 0%)" stroke-opacity="1" stroke-miterlimit="2" d="M 365.5 16 L 389.5 16 " transform="matrix(0.75, 0, 0, 0.75, 0, 0)"/>
<path fill="none" stroke-width="1" stroke-linecap="butt" stroke-linejoin="miter" stroke="rgb(0%, 0%, 0%)" stroke-opacity="1" stroke-miterlimit="2" d="M 389 193.5 L 389 15.5 " transform="matrix(0.75, 0, 0, 0.75, 0, 0)"/>
<path fill="none" stroke-width="1" stroke-linecap="butt" stroke-linejoin="miter" stroke="rgb(0%, 0%, 0%)" stroke-opacity="1" stroke-miterlimit="2" d="M 430.5 84 L 454.5 84 " transform="matrix(0.75, 0, 0, 0.75, 0, 0)"/>
<path fill="none" stroke-width="1" stroke-linecap="butt" stroke-linejoin="miter" stroke="rgb(0%, 0%, 0%)" stroke-opacity="1" stroke-miterlimit="2" d="M 431 84.5 L 431 15.5 " transform="matrix(0.75, 0, 0, 0.75, 0, 0)"/>
<path fill="none" stroke-width="1" stroke-linecap="butt" stroke-linejoin="miter" stroke="rgb(0%, 0%, 0%)" stroke-opacity="1" stroke-miterlimit="2" d="M 430.5 16 L 454.5 16 " transform="matrix(0.75, 0, 0, 0.75, 0, 0)"/>
<path fill="none" stroke-width="1" stroke-linecap="butt" stroke-linejoin="miter" stroke="rgb(0%, 0%, 0%)" stroke-opacity="1" stroke-miterlimit="2" d="M 454 84.5 L 454 15.5 " transform="matrix(0.75, 0, 0, 0.75, 0, 0)"/>
<path fill="none" stroke-width="1" stroke-linecap="butt" stroke-linejoin="miter" stroke="rgb(0%, 0%, 0%)" stroke-opacity="1" stroke-miterlimit="2" d="M 495.5 84 L 519.5 84 " transform="matrix(0.75, 0, 0, 0.75, 0, 0)"/>
<path fill="none" stroke-width="1" stroke-linecap="butt" stroke-linejoin="miter" stroke="rgb(0%, 0%, 0%)" stroke-opacity="1" stroke-miterlimit="2" d="M 496 84.5 L 496 15.5 " transform="matrix(0.75, 0, 0, 0.75, 0, 0)"/>
<path fill="none" stroke-width="1" stroke-linecap="butt" stroke-linejoin="miter" stroke="rgb(0%, 0%, 0%)" stroke-opacity="1" stroke-miterlimit="2" d="M 495.5 16 L 519.5 16 " transform="matrix(0.75, 0, 0, 0.75, 0, 0)"/>
<path fill="none" stroke-width="1" stroke-linecap="butt" stroke-linejoin="miter" stroke="rgb(0%, 0%, 0%)" stroke-opacity="1" stroke-miterlimit="2" d="M 519 84.5 L 519 15.5 " transform="matrix(0.75, 0, 0, 0.75, 0, 0)"/>
<path fill="none" stroke-width="1" stroke-linecap="butt" stroke-linejoin="miter" stroke="rgb(0%, 0%, 0%)" stroke-opacity="1" stroke-miterlimit="2" d="M 430.5 193 L 519.5 193 " transform="matrix(0.75, 0, 0, 0.75, 0, 0)"/>
<path fill="none" stroke-width="1" stroke-linecap="butt" stroke-linejoin="miter" stroke="rgb(0%, 0%, 0%)" stroke-opacity="1" stroke-miterlimit="2" d="M 431 193.5 L 431 124.5 " transform="matrix(0.75, 0, 0, 0.75, 0, 0)"/>
<path fill="none" stroke-width="1" stroke-linecap="butt" stroke-linejoin="miter" stroke="rgb(0%, 0%, 0%)" stroke-opacity="1" stroke-miterlimit="2" d="M 430.5 125 L 519.5 125 " transform="matrix(0.75, 0, 0, 0.75, 0, 0)"/>
<path fill="none" stroke-width="1" stroke-linecap="butt" stroke-linejoin="miter" stroke="rgb(0%, 0%, 0%)" stroke-opacity="1" stroke-miterlimit="2" d="M 519 193.5 L 519 124.5 " transform="matrix(0.75, 0, 0, 0.75, 0, 0)"/>
<path fill="none" stroke-width="1" stroke-linecap="butt" stroke-linejoin="miter" stroke="rgb(0%, 0%, 0%)" stroke-opacity="1" stroke-miterlimit="2" d="M 560.5 193 L 584.5 193 " transform="matrix(0.75, 0, 0, 0.75, 0, 0)"/>
<path fill="none" stroke-width="1" stroke-linecap="butt" stroke-linejoin="miter" stroke="rgb(0%, 0%, 0%)" stroke-opacity="1" stroke-miterlimit="2" d="M 561 193.5 L 561 15.5 " transform="matrix(0.75, 0, 0, 0.75, 0, 0)"/>
<path fill="none" stroke-width="1" stroke-linecap="butt" stroke-linejoin="miter" stroke="rgb(0%, 0%, 0%)" stroke-opacity="1" stroke-miterlimit="2" d="M 560.5 16 L 584.5 16 " transform="matrix(0.75, 0, 0, 0.75, 0, 0)"/>
<path fill="none" stroke-width="1" stroke-linecap="butt" stroke-linejoin="miter" stroke="rgb(0%, 0%, 0%)" stroke-opacity="1" stroke-miterlimit="2" d="M 584 193.5 L 584 15.5 " transform="matrix(0.75, 0, 0, 0.75, 0, 0)"/>
<path fill="none" stroke-width="1" stroke-linecap="butt" stroke-linejoin="miter" stroke="rgb(0%, 0%, 0%)" stroke-opacity="1" stroke-miterlimit="2" d="M 40.5 302 L 193.5 302 " transform="matrix(0.75, 0, 0, 0.75, 0, 0)"/>
<path fill="none" stroke-width="1" stroke-linecap="butt" stroke-linejoin="miter" stroke="rgb(0%, 0%, 0%)" stroke-opacity="1" stroke-miterlimit="2" d="M 41 302.5 L 41 233.5 " transform="matrix(0.75, 0, 0, 0.75, 0, 0)"/>
<path fill="none" stroke-width="1" stroke-linecap="butt" stroke-linejoin="miter" stroke="rgb(0%, 0%, 0%)" stroke-opacity="1" stroke-miterlimit="2" d="M 40.5 234 L 193.5 234 " transform="matrix(0.75, 0, 0, 0.75, 0, 0)"/>
<path fill="none" stroke-width="1" stroke-linecap="butt" stroke-linejoin="miter" stroke="rgb(0%, 0%, 0%)" stroke-opacity="1" stroke-miterlimit="2" d="M 193 302.5 L 193 233.5 " transform="matrix(0.75, 0, 0, 0.75, 0, 0)"/>
<path fill="none" stroke-width="1" stroke-linecap="butt" stroke-linejoin="miter" stroke="rgb(0%, 0%, 0%)" stroke-opacity="1" stroke-miterlimit="2" d="M 235.5 302 L 389.5 302 " transform="matrix(0.75, 0, 0, 0.75, 0, 0)"/>
<path fill="none" stroke-width="1" stroke-linecap="butt" stroke-linejoin="miter" stroke="rgb(0%, 0%, 0%)" stroke-opacity="1" stroke-miterlimit="2" d="M 236 302.5 L 236 233.5 " transform="matrix(0.75, 0, 0, 0.75, 0, 0)"/>
<path fill="none" stroke-width="1" stroke-linecap="butt" stroke-linejoin="miter" stroke="rgb(0%, 0%, 0%)" stroke-opacity="1" stroke-miterlimit="2" d="M 235.5 234 L 389.5 234 " transform="matrix(0.75, 0, 0, 0.75, 0, 0)"/>
<path fill="none" stroke-width="1" stroke-linecap="butt" stroke-linejoin="miter" stroke="rgb(0%, 0%, 0%)" stroke-opacity="1" stroke-miterlimit="2" d="M 389 302.5 L 389 233.5 " transform="matrix(0.75, 0, 0, 0.75, 0, 0)"/>
<path fill="none" stroke-width="1" stroke-linecap="butt" stroke-linejoin="miter" stroke="rgb(0%, 0%, 0%)" stroke-opacity="1" stroke-miterlimit="2" d="M 40.5 411 L 389.5 411 " transform="matrix(0.75, 0, 0, 0.75, 0, 0)"/>
<path fill="none" stroke-width="1" stroke-linecap="butt" stroke-linejoin="miter" stroke="rgb(0%, 0%, 0%)" stroke-opacity="1" stroke-miterlimit="2" d="M 41 411.5 L 41 342.5 " transform="matrix(0.75, 0, 0, 0.75, 0, 0)"/>
<path fill="none" stroke-width="1" stroke-linecap="butt" stroke-linejoin="miter" stroke="rgb(0%, 0%, 0%)" stroke-opacity="1" stroke-miterlimit="2" d="M 40.5 343 L 389.5 343 " transform="matrix(0.75, 0, 0, 0.75, 0, 0)"/>
<path fill="none" stroke-width="1" stroke-linecap="butt" stroke-linejoin="miter" stroke="rgb(0%, 0%, 0%)" stroke-opacity="1" stroke-miterlimit="2" d="M 389 411.5 L 389 342.5 " transform="matrix(0.75, 0, 0, 0.75, 0, 0)"/>
<path fill="none" stroke-width="1" stroke-linecap="butt" stroke-linejoin="miter" stroke="rgb(0%, 0%, 0%)" stroke-opacity="1" stroke-miterlimit="2" d="M 430.5 411 L 584.5 411 " transform="matrix(0.75, 0, 0, 0.75, 0, 0)"/>
<path fill="none" stroke-width="1" stroke-linecap="butt" stroke-linejoin="miter" stroke="rgb(0%, 0%, 0%)" stroke-opacity="1" stroke-miterlimit="2" d="M 431 411.5 L 431 233.5 " transform="matrix(0.75, 0, 0, 0.75, 0, 0)"/>
<path fill="none" stroke-width="1" stroke-linecap="butt" stroke-linejoin="miter" stroke="rgb(0%, 0%, 0%)" stroke-opacity="1" stroke-miterlimit="2" d="M 430.5 234 L 584.5 234 " transform="matrix(0.75, 0, 0, 0.75, 0, 0)"/>
<path fill="none" stroke-width="1" stroke-linecap="butt" stroke-linejoin="miter" stroke="rgb(0%, 0%, 0%)" stroke-opacity="1" stroke-miterlimit="2" d="M 584 411.5 L 584 233.5 " transform="matrix(0.75, 0, 0, 0.75, 0, 0)"/>
</svg>
