<?xml version="1.0" encoding="UTF-8"?>
<svg xmlns="http://www.w3.org/2000/svg" xmlns:xlink="http://www.w3.org/1999/xlink" width="450pt" height="300pt" viewBox="0 0 450 300" version="1.1">
<defs>
<g>
<symbol overflow="visible" id="glyph0-0-dffa8cdf">
<path style="stroke:none;" d=""/>
</symbol>
<symbol overflow="visible" id="glyph0-1-dffa8cdf">
<path style="stroke:none;" d="M 7.3125 -2.140625 C 7.3125 -2.296875 7.203125 -2.296875 7.09375 -2.296875 C 6.921875 -2.296875 6.90625 -2.28125 6.828125 -2.046875 C 6.421875 -0.75 5.671875 -0.171875 5.046875 -0.171875 C 4.734375 -0.171875 4.328125 -0.34375 4.328125 -1.125 C 4.328125 -1.484375 4.5 -2.125 4.625 -2.640625 L 5.125 -4.6875 C 5.34375 -5.46875 5.75 -6.296875 6.453125 -6.296875 C 6.5 -6.296875 6.875 -6.296875 7.109375 -6.09375 C 6.515625 -5.9375 6.515625 -5.375 6.515625 -5.375 C 6.515625 -5.171875 6.640625 -4.890625 7.03125 -4.890625 C 7.3125 -4.890625 7.765625 -5.09375 7.765625 -5.6875 C 7.765625 -6.453125 6.90625 -6.625 6.46875 -6.625 C 5.640625 -6.625 5.140625 -5.890625 5 -5.609375 C 4.671875 -6.515625 3.9375 -6.625 3.5625 -6.625 C 2.0625 -6.625 1.25 -4.671875 1.25 -4.3125 C 1.25 -4.171875 1.390625 -4.171875 1.46875 -4.171875 C 1.671875 -4.171875 1.671875 -4.1875 1.734375 -4.421875 C 2.140625 -5.71875 2.921875 -6.296875 3.53125 -6.296875 C 3.953125 -6.296875 4.25 -5.953125 4.25 -5.359375 C 4.25 -5 4.0625 -4.265625 3.9375 -3.703125 L 3.578125 -2.34375 C 3.34375 -1.359375 3.03125 -0.171875 2.125 -0.171875 C 2.078125 -0.171875 1.71875 -0.171875 1.46875 -0.375 C 1.921875 -0.5 2.0625 -0.875 2.0625 -1.09375 C 2.0625 -1.484375 1.734375 -1.578125 1.546875 -1.578125 C 1.171875 -1.578125 0.796875 -1.265625 0.796875 -0.765625 C 0.796875 -0.1875 1.421875 0.171875 2.109375 0.171875 C 2.828125 0.171875 3.328125 -0.40625 3.578125 -0.859375 C 3.890625 0 4.625 0.171875 5.015625 0.171875 C 6.5625 0.171875 7.3125 -1.84375 7.3125 -2.140625 Z M 7.3125 -2.140625 "/>
</symbol>
<symbol overflow="visible" id="glyph1-0-dffa8cdf">
<path style="stroke:none;" d="M 0.234375 -8.75 C 0.234375 -8.75 0.234375 0 0.234375 0 C 0.234375 0 5.640625 0 5.640625 0 C 5.640625 0 5.640625 -8.75 5.640625 -8.75 C 5.640625 -8.75 0.234375 -8.75 0.234375 -8.75 Z M 0.859375 -0.625 C 0.859375 -0.625 0.859375 -8.125 0.859375 -8.125 C 0.859375 -8.125 5.015625 -8.125 5.015625 -8.125 C 5.015625 -8.125 5.015625 -0.625 5.015625 -0.625 C 5.015625 -0.625 0.859375 -0.625 0.859375 -0.625 Z M 0.859375 -0.625 "/>
</symbol>
<symbol overflow="visible" id="glyph1-1-dffa8cdf">
<path style="stroke:none;" d="M 6.078125 -4.09375 C 6.078125 -1.296875 5.09375 0.1875 3.296875 0.1875 C 1.46875 0.1875 0.515625 -1.296875 0.515625 -4.15625 C 0.515625 -7.015625 1.46875 -8.515625 3.296875 -8.515625 C 5.140625 -8.515625 6.078125 -7.046875 6.078125 -4.09375 Z M 5 -4.1875 C 5 -6.46875 4.4375 -7.578125 3.296875 -7.578125 C 2.15625 -7.578125 1.59375 -6.484375 1.59375 -4.15625 C 1.59375 -1.828125 2.15625 -0.703125 3.28125 -0.703125 C 4.453125 -0.703125 5 -1.78125 5 -4.1875 Z M 5 -4.1875 "/>
</symbol>
<symbol overflow="visible" id="glyph2-0-dffa8cdf">
<path style="stroke:none;" d="M 0.234375 -8.75 C 0.234375 -8.75 0.234375 0 0.234375 0 C 0.234375 0 5.640625 0 5.640625 0 C 5.640625 0 5.640625 -8.75 5.640625 -8.75 C 5.640625 -8.75 0.234375 -8.75 0.234375 -8.75 Z M 0.859375 -0.625 C 0.859375 -0.625 0.859375 -8.125 0.859375 -8.125 C 0.859375 -8.125 5.015625 -8.125 5.015625 -8.125 C 5.015625 -8.125 5.015625 -0.625 5.015625 -0.625 C 5.015625 -0.625 0.859375 -0.625 0.859375 -0.625 Z M 0.859375 -0.625 "/>
</symbol>
<symbol overflow="visible" id="glyph2-1-dffa8cdf">
<path style="stroke:none;" d="M 6.15625 -2.8125 C 6.15625 -1.015625 4.953125 0.1875 3.234375 0.1875 C 1.734375 0.1875 0.765625 -0.484375 0.421875 -2.1875 C 0.421875 -2.1875 1.46875 -2.1875 1.46875 -2.1875 C 1.734375 -1.21875 2.296875 -0.75 3.21875 -0.75 C 4.375 -0.75 5.078125 -1.453125 5.078125 -2.671875 C 5.078125 -3.9375 4.359375 -4.671875 3.21875 -4.671875 C 2.5625 -4.671875 2.140625 -4.46875 1.65625 -3.875 C 1.65625 -3.875 0.6875 -3.875 0.6875 -3.875 C 0.6875 -3.875 1.3125 -8.328125 1.3125 -8.328125 C 1.3125 -8.328125 5.71875 -8.328125 5.71875 -8.328125 C 5.71875 -8.328125 5.71875 -7.28125 5.71875 -7.28125 C 5.71875 -7.28125 2.171875 -7.28125 2.171875 -7.28125 C 2.171875 -7.28125 1.84375 -5.09375 1.84375 -5.09375 C 2.328125 -5.453125 2.8125 -5.609375 3.40625 -5.609375 C 5.046875 -5.609375 6.15625 -4.5 6.15625 -2.8125 Z M 6.15625 -2.8125 "/>
</symbol>
<symbol overflow="visible" id="glyph3-0-dffa8cdf">
<path style="stroke:none;" d="M 0.234375 -8.75 C 0.234375 -8.75 0.234375 0 0.234375 0 C 0.234375 0 5.640625 0 5.640625 0 C 5.640625 0 5.640625 -8.75 5.640625 -8.75 C 5.640625 -8.75 0.234375 -8.75 0.234375 -8.75 Z M 0.859375 -0.625 C 0.859375 -0.625 0.859375 -8.125 0.859375 -8.125 C 0.859375 -8.125 5.015625 -8.125 5.015625 -8.125 C 5.015625 -8.125 5.015625 -0.625 5.015625 -0.625 C 5.015625 -0.625 0.859375 -0.625 0.859375 -0.625 Z M 0.859375 -0.625 "/>
</symbol>
<symbol overflow="visible" id="glyph3-1-dffa8cdf">
<path style="stroke:none;" d="M 4.15625 0 C 4.15625 0 3.109375 0 3.109375 0 C 3.109375 0 3.109375 -6.0625 3.109375 -6.0625 C 3.109375 -6.0625 1.21875 -6.0625 1.21875 -6.0625 C 1.21875 -6.0625 1.21875 -6.8125 1.21875 -6.8125 C 2.859375 -7.015625 3.09375 -7.203125 3.46875 -8.515625 C 3.46875 -8.515625 4.15625 -8.515625 4.15625 -8.515625 C 4.15625 -8.515625 4.15625 0 4.15625 0 Z M 4.15625 0 "/>
</symbol>
<symbol overflow="visible" id="glyph3-2-dffa8cdf">
<path style="stroke:none;" d="M 6.078125 -4.09375 C 6.078125 -1.296875 5.09375 0.1875 3.296875 0.1875 C 1.46875 0.1875 0.515625 -1.296875 0.515625 -4.15625 C 0.515625 -7.015625 1.46875 -8.515625 3.296875 -8.515625 C 5.140625 -8.515625 6.078125 -7.046875 6.078125 -4.09375 Z M 5 -4.1875 C 5 -6.46875 4.4375 -7.578125 3.296875 -7.578125 C 2.15625 -7.578125 1.59375 -6.484375 1.59375 -4.15625 C 1.59375 -1.828125 2.15625 -0.703125 3.28125 -0.703125 C 4.453125 -0.703125 5 -1.78125 5 -4.1875 Z M 5 -4.1875 "/>
</symbol>
<symbol overflow="visible" id="glyph4-0-dffa8cdf">
<path style="stroke:none;" d="M -8.75 -0.234375 C -8.75 -0.234375 0 -0.234375 0 -0.234375 C 0 -0.234375 0 -5.640625 0 -5.640625 C 0 -5.640625 -8.75 -5.640625 -8.75 -5.640625 C -8.75 -5.640625 -8.75 -0.234375 -8.75 -0.234375 Z M -0.625 -0.859375 C -0.625 -0.859375 -8.125 -0.859375 -8.125 -0.859375 C -8.125 -0.859375 -8.125 -5.015625 -8.125 -5.015625 C -8.125 -5.015625 -0.625 -5.015625 -0.625 -5.015625 C -0.625 -5.015625 -0.625 -0.859375 -0.625 -0.859375 Z M -0.625 -0.859375 "/>
</symbol>
<symbol overflow="visible" id="glyph4-1-dffa8cdf">
<path style="stroke:none;" d="M -6.28125 -5.734375 C -6.28125 -5.734375 1.3125 -2.9375 1.3125 -2.9375 C 2.21875 -2.609375 2.609375 -2.03125 2.609375 -1.3125 C 2.609375 -1.0625 2.5625 -0.859375 2.453125 -0.640625 C 2.453125 -0.640625 1.5625 -0.640625 1.5625 -0.640625 C 1.609375 -0.859375 1.625 -1.03125 1.625 -1.171875 C 1.625 -1.609375 1.46875 -1.8125 1.015625 -1.984375 C 1.015625 -1.984375 0.03125 -2.359375 0.03125 -2.359375 C 0.03125 -2.359375 -6.28125 -0.234375 -6.28125 -0.234375 C -6.28125 -0.234375 -6.28125 -1.3125 -6.28125 -1.3125 C -6.28125 -1.3125 -1.390625 -2.921875 -1.390625 -2.921875 C -1.390625 -2.921875 -6.28125 -4.65625 -6.28125 -4.65625 C -6.28125 -4.65625 -6.28125 -5.734375 -6.28125 -5.734375 Z M -6.28125 -5.734375 "/>
</symbol>
<symbol overflow="visible" id="glyph5-0-dffa8cdf">
<path style="stroke:none;" d="M 0.234375 -8.75 C 0.234375 -8.75 0.234375 0 0.234375 0 C 0.234375 0 5.640625 0 5.640625 0 C 5.640625 0 5.640625 -8.75 5.640625 -8.75 C 5.640625 -8.75 0.234375 -8.75 0.234375 -8.75 Z M 0.859375 -0.625 C 0.859375 -0.625 0.859375 -8.125 0.859375 -8.125 C 0.859375 -8.125 5.015625 -8.125 5.015625 -8.125 C 5.015625 -8.125 5.015625 -0.625 5.015625 -0.625 C 5.015625 -0.625 0.859375 -0.625 0.859375 -0.625 Z M 0.859375 -0.625 "/>
</symbol>
<symbol overflow="visible" id="glyph5-1-dffa8cdf">
<path style="stroke:none;" d="M 6.1875 -2.59375 C 6.1875 -2.59375 0.8125 -2.59375 0.8125 -2.59375 C 0.8125 -2.59375 0.8125 -3.40625 0.8125 -3.40625 C 0.8125 -3.40625 6.1875 -3.40625 6.1875 -3.40625 C 6.1875 -3.40625 6.1875 -2.59375 6.1875 -2.59375 Z M 6.1875 -2.59375 "/>
</symbol>
<symbol overflow="visible" id="glyph6-0-dffa8cdf">
<path style="stroke:none;" d="M 0.234375 -8.75 C 0.234375 -8.75 0.234375 0 0.234375 0 C 0.234375 0 5.640625 0 5.640625 0 C 5.640625 0 5.640625 -8.75 5.640625 -8.75 C 5.640625 -8.75 0.234375 -8.75 0.234375 -8.75 Z M 0.859375 -0.625 C 0.859375 -0.625 0.859375 -8.125 0.859375 -8.125 C 0.859375 -8.125 5.015625 -8.125 5.015625 -8.125 C 5.015625 -8.125 5.015625 -0.625 5.015625 -0.625 C 5.015625 -0.625 0.859375 -0.625 0.859375 -0.625 Z M 0.859375 -0.625 "/>
</symbol>
<symbol overflow="visible" id="glyph6-1-dffa8cdf">
<path style="stroke:none;" d="M 6.078125 -4.09375 C 6.078125 -1.296875 5.09375 0.1875 3.296875 0.1875 C 1.46875 0.1875 0.515625 -1.296875 0.515625 -4.15625 C 0.515625 -7.015625 1.46875 -8.515625 3.296875 -8.515625 C 5.140625 -8.515625 6.078125 -7.046875 6.078125 -4.09375 Z M 5 -4.1875 C 5 -6.46875 4.4375 -7.578125 3.296875 -7.578125 C 2.15625 -7.578125 1.59375 -6.484375 1.59375 -4.15625 C 1.59375 -1.828125 2.15625 -0.703125 3.28125 -0.703125 C 4.453125 -0.703125 5 -1.78125 5 -4.1875 Z M 5 -4.1875 "/>
</symbol>
<symbol overflow="visible" id="glyph7-0-dffa8cdf">
<path style="stroke:none;" d="M 0.234375 -8.75 C 0.234375 -8.75 0.234375 0 0.234375 0 C 0.234375 0 5.640625 0 5.640625 0 C 5.640625 0 5.640625 -8.75 5.640625 -8.75 C 5.640625 -8.75 0.234375 -8.75 0.234375 -8.75 Z M 0.859375 -0.625 C 0.859375 -0.625 0.859375 -8.125 0.859375 -8.125 C 0.859375 -8.125 5.015625 -8.125 5.015625 -8.125 C 5.015625 -8.125 5.015625 -0.625 5.015625 -0.625 C 5.015625 -0.625 0.859375 -0.625 0.859375 -0.625 Z M 0.859375 -0.625 "/>
</symbol>
<symbol overflow="visible" id="glyph7-1-dffa8cdf">
<path style="stroke:none;" d="M 2.296875 0 C 2.296875 0 1.046875 0 1.046875 0 C 1.046875 0 1.046875 -1.25 1.046875 -1.25 C 1.046875 -1.25 2.296875 -1.25 2.296875 -1.25 C 2.296875 -1.25 2.296875 0 2.296875 0 Z M 2.296875 0 "/>
</symbol>
<symbol overflow="visible" id="glyph8-0-dffa8cdf">
<path style="stroke:none;" d="M 0.234375 -8.75 C 0.234375 -8.75 0.234375 0 0.234375 0 C 0.234375 0 5.640625 0 5.640625 0 C 5.640625 0 5.640625 -8.75 5.640625 -8.75 C 5.640625 -8.75 0.234375 -8.75 0.234375 -8.75 Z M 0.859375 -0.625 C 0.859375 -0.625 0.859375 -8.125 0.859375 -8.125 C 0.859375 -8.125 5.015625 -8.125 5.015625 -8.125 C 5.015625 -8.125 5.015625 -0.625 5.015625 -0.625 C 5.015625 -0.625 0.859375 -0.625 0.859375 -0.625 Z M 0.859375 -0.625 "/>
</symbol>
<symbol overflow="visible" id="glyph8-1-dffa8cdf">
<path style="stroke:none;" d="M 6.15625 -2.8125 C 6.15625 -1.015625 4.953125 0.1875 3.234375 0.1875 C 1.734375 0.1875 0.765625 -0.484375 0.421875 -2.1875 C 0.421875 -2.1875 1.46875 -2.1875 1.46875 -2.1875 C 1.734375 -1.21875 2.296875 -0.75 3.21875 -0.75 C 4.375 -0.75 5.078125 -1.453125 5.078125 -2.671875 C 5.078125 -3.9375 4.359375 -4.671875 3.21875 -4.671875 C 2.5625 -4.671875 2.140625 -4.46875 1.65625 -3.875 C 1.65625 -3.875 0.6875 -3.875 0.6875 -3.875 C 0.6875 -3.875 1.3125 -8.328125 1.3125 -8.328125 C 1.3125 -8.328125 5.71875 -8.328125 5.71875 -8.328125 C 5.71875 -8.328125 5.71875 -7.28125 5.71875 -7.28125 C 5.71875 -7.28125 2.171875 -7.28125 2.171875 -7.28125 C 2.171875 -7.28125 1.84375 -5.09375 1.84375 -5.09375 C 2.328125 -5.453125 2.8125 -5.609375 3.40625 -5.609375 C 5.046875 -5.609375 6.15625 -4.5 6.15625 -2.8125 Z M 6.15625 -2.8125 "/>
</symbol>
<symbol overflow="visible" id="glyph8-2-dffa8cdf">
<path style="stroke:none;" d="M 6.078125 -4.09375 C 6.078125 -1.296875 5.09375 0.1875 3.296875 0.1875 C 1.46875 0.1875 0.515625 -1.296875 0.515625 -4.15625 C 0.515625 -7.015625 1.46875 -8.515625 3.296875 -8.515625 C 5.140625 -8.515625 6.078125 -7.046875 6.078125 -4.09375 Z M 5 -4.1875 C 5 -6.46875 4.4375 -7.578125 3.296875 -7.578125 C 2.15625 -7.578125 1.59375 -6.484375 1.59375 -4.15625 C 1.59375 -1.828125 2.15625 -0.703125 3.28125 -0.703125 C 4.453125 -0.703125 5 -1.78125 5 -4.1875 Z M 5 -4.1875 "/>
</symbol>
<symbol overflow="visible" id="glyph9-0-dffa8cdf">
<path style="stroke:none;" d="M 0.234375 -8.75 C 0.234375 -8.75 0.234375 0 0.234375 0 C 0.234375 0 5.640625 0 5.640625 0 C 5.640625 0 5.640625 -8.75 5.640625 -8.75 C 5.640625 -8.75 0.234375 -8.75 0.234375 -8.75 Z M 0.859375 -0.625 C 0.859375 -0.625 0.859375 -8.125 0.859375 -8.125 C 0.859375 -8.125 5.015625 -8.125 5.015625 -8.125 C 5.015625 -8.125 5.015625 -0.625 5.015625 -0.625 C 5.015625 -0.625 0.859375 -0.625 0.859375 -0.625 Z M 0.859375 -0.625 "/>
</symbol>
<symbol overflow="visible" id="glyph9-1-dffa8cdf">
<path style="stroke:none;" d="M 6.078125 -4.09375 C 6.078125 -1.296875 5.09375 0.1875 3.296875 0.1875 C 1.46875 0.1875 0.515625 -1.296875 0.515625 -4.15625 C 0.515625 -7.015625 1.46875 -8.515625 3.296875 -8.515625 C 5.140625 -8.515625 6.078125 -7.046875 6.078125 -4.09375 Z M 5 -4.1875 C 5 -6.46875 4.4375 -7.578125 3.296875 -7.578125 C 2.15625 -7.578125 1.59375 -6.484375 1.59375 -4.15625 C 1.59375 -1.828125 2.15625 -0.703125 3.28125 -0.703125 C 4.453125 -0.703125 5 -1.78125 5 -4.1875 Z M 5 -4.1875 "/>
</symbol>
<symbol overflow="visible" id="glyph10-0-dffa8cdf">
<path style="stroke:none;" d="M 0.234375 -8.75 C 0.234375 -8.75 0.234375 0 0.234375 0 C 0.234375 0 5.640625 0 5.640625 0 C 5.640625 0 5.640625 -8.75 5.640625 -8.75 C 5.640625 -8.75 0.234375 -8.75 0.234375 -8.75 Z M 0.859375 -0.625 C 0.859375 -0.625 0.859375 -8.125 0.859375 -8.125 C 0.859375 -8.125 5.015625 -8.125 5.015625 -8.125 C 5.015625 -8.125 5.015625 -0.625 5.015625 -0.625 C 5.015625 -0.625 0.859375 -0.625 0.859375 -0.625 Z M 0.859375 -0.625 "/>
</symbol>
<symbol overflow="visible" id="glyph10-1-dffa8cdf">
<path style="stroke:none;" d="M 2.296875 0 C 2.296875 0 1.046875 0 1.046875 0 C 1.046875 0 1.046875 -1.25 1.046875 -1.25 C 1.046875 -1.25 2.296875 -1.25 2.296875 -1.25 C 2.296875 -1.25 2.296875 0 2.296875 0 Z M 2.296875 0 "/>
</symbol>
<symbol overflow="visible" id="glyph11-0-dffa8cdf">
<path style="stroke:none;" d="M 0.234375 -8.75 C 0.234375 -8.75 0.234375 0 0.234375 0 C 0.234375 0 5.640625 0 5.640625 0 C 5.640625 0 5.640625 -8.75 5.640625 -8.75 C 5.640625 -8.75 0.234375 -8.75 0.234375 -8.75 Z M 0.859375 -0.625 C 0.859375 -0.625 0.859375 -8.125 0.859375 -8.125 C 0.859375 -8.125 5.015625 -8.125 5.015625 -8.125 C 5.015625 -8.125 5.015625 -0.625 5.015625 -0.625 C 5.015625 -0.625 0.859375 -0.625 0.859375 -0.625 Z M 0.859375 -0.625 "/>
</symbol>
<symbol overflow="visible" id="glyph11-1-dffa8cdf">
<path style="stroke:none;" d="M 6.15625 -2.8125 C 6.15625 -1.015625 4.953125 0.1875 3.234375 0.1875 C 1.734375 0.1875 0.765625 -0.484375 0.421875 -2.1875 C 0.421875 -2.1875 1.46875 -2.1875 1.46875 -2.1875 C 1.734375 -1.21875 2.296875 -0.75 3.21875 -0.75 C 4.375 -0.75 5.078125 -1.453125 5.078125 -2.671875 C 5.078125 -3.9375 4.359375 -4.671875 3.21875 -4.671875 C 2.5625 -4.671875 2.140625 -4.46875 1.65625 -3.875 C 1.65625 -3.875 0.6875 -3.875 0.6875 -3.875 C 0.6875 -3.875 1.3125 -8.328125 1.3125 -8.328125 C 1.3125 -8.328125 5.71875 -8.328125 5.71875 -8.328125 C 5.71875 -8.328125 5.71875 -7.28125 5.71875 -7.28125 C 5.71875 -7.28125 2.171875 -7.28125 2.171875 -7.28125 C 2.171875 -7.28125 1.84375 -5.09375 1.84375 -5.09375 C 2.328125 -5.453125 2.8125 -5.609375 3.40625 -5.609375 C 5.046875 -5.609375 6.15625 -4.5 6.15625 -2.8125 Z M 6.15625 -2.8125 "/>
</symbol>
<symbol overflow="visible" id="glyph12-0-dffa8cdf">
<path style="stroke:none;" d="M 0.234375 -8.75 C 0.234375 -8.75 0.234375 0 0.234375 0 C 0.234375 0 5.640625 0 5.640625 0 C 5.640625 0 5.640625 -8.75 5.640625 -8.75 C 5.640625 -8.75 0.234375 -8.75 0.234375 -8.75 Z M 0.859375 -0.625 C 0.859375 -0.625 0.859375 -8.125 0.859375 -8.125 C 0.859375 -8.125 5.015625 -8.125 5.015625 -8.125 C 5.015625 -8.125 5.015625 -0.625 5.015625 -0.625 C 5.015625 -0.625 0.859375 -0.625 0.859375 -0.625 Z M 0.859375 -0.625 "/>
</symbol>
<symbol overflow="visible" id="glyph12-1-dffa8cdf">
<path style="stroke:none;" d="M 4.15625 0 C 4.15625 0 3.109375 0 3.109375 0 C 3.109375 0 3.109375 -6.0625 3.109375 -6.0625 C 3.109375 -6.0625 1.21875 -6.0625 1.21875 -6.0625 C 1.21875 -6.0625 1.21875 -6.8125 1.21875 -6.8125 C 2.859375 -7.015625 3.09375 -7.203125 3.46875 -8.515625 C 3.46875 -8.515625 4.15625 -8.515625 4.15625 -8.515625 C 4.15625 -8.515625 4.15625 0 4.15625 0 Z M 4.15625 0 "/>
</symbol>
<symbol overflow="visible" id="glyph13-0-dffa8cdf">
<path style="stroke:none;" d="M 0.234375 -8.75 C 0.234375 -8.75 0.234375 0 0.234375 0 C 0.234375 0 5.640625 0 5.640625 0 C 5.640625 0 5.640625 -8.75 5.640625 -8.75 C 5.640625 -8.75 0.234375 -8.75 0.234375 -8.75 Z M 0.859375 -0.625 C 0.859375 -0.625 0.859375 -8.125 0.859375 -8.125 C 0.859375 -8.125 5.015625 -8.125 5.015625 -8.125 C 5.015625 -8.125 5.015625 -0.625 5.015625 -0.625 C 5.015625 -0.625 0.859375 -0.625 0.859375 -0.625 Z M 0.859375 -0.625 "/>
</symbol>
<symbol overflow="visible" id="glyph13-1-dffa8cdf">
<path style="stroke:none;" d="M 2.296875 0 C 2.296875 0 1.046875 0 1.046875 0 C 1.046875 0 1.046875 -1.25 1.046875 -1.25 C 1.046875 -1.25 2.296875 -1.25 2.296875 -1.25 C 2.296875 -1.25 2.296875 0 2.296875 0 Z M 2.296875 0 "/>
</symbol>
<symbol overflow="visible" id="glyph14-0-dffa8cdf">
<path style="stroke:none;" d="M 0.234375 -8.75 C 0.234375 -8.75 0.234375 0 0.234375 0 C 0.234375 0 5.640625 0 5.640625 0 C 5.640625 0 5.640625 -8.75 5.640625 -8.75 C 5.640625 -8.75 0.234375 -8.75 0.234375 -8.75 Z M 0.859375 -0.625 C 0.859375 -0.625 0.859375 -8.125 0.859375 -8.125 C 0.859375 -8.125 5.015625 -8.125 5.015625 -8.125 C 5.015625 -8.125 5.015625 -0.625 5.015625 -0.625 C 5.015625 -0.625 0.859375 -0.625 0.859375 -0.625 Z M 0.859375 -0.625 "/>
</symbol>
<symbol overflow="visible" id="glyph14-1-dffa8cdf">
<path style="stroke:none;" d="M 6.078125 -4.09375 C 6.078125 -1.296875 5.09375 0.1875 3.296875 0.1875 C 1.46875 0.1875 0.515625 -1.296875 0.515625 -4.15625 C 0.515625 -7.015625 1.46875 -8.515625 3.296875 -8.515625 C 5.140625 -8.515625 6.078125 -7.046875 6.078125 -4.09375 Z M 5 -4.1875 C 5 -6.46875 4.4375 -7.578125 3.296875 -7.578125 C 2.15625 -7.578125 1.59375 -6.484375 1.59375 -4.15625 C 1.59375 -1.828125 2.15625 -0.703125 3.28125 -0.703125 C 4.453125 -0.703125 5 -1.78125 5 -4.1875 Z M 5 -4.1875 "/>
</symbol>
<symbol overflow="visible" id="glyph15-0-dffa8cdf">
<path style="stroke:none;" d=""/>
</symbol>
<symbol overflow="visible" id="glyph15-1-dffa8cdf">
<path style="stroke:none;" d="M 5.421875 -7.671875 C 5.421875 -8.1875 4.9375 -8.453125 4.4375 -8.453125 C 3.265625 -8.453125 2.96875 -6.90625 2.875 -6.484375 L 2.625 -5.171875 L 1.84375 -5.171875 C 1.640625 -5.171875 1.515625 -5.171875 1.515625 -4.9375 C 1.515625 -4.796875 1.625 -4.796875 1.8125 -4.796875 L 2.5625 -4.796875 L 1.6875 -0.328125 C 1.53125 0.421875 1.421875 0.90625 1.34375 1.15625 C 1.25 1.578125 1.09375 2.203125 0.65625 2.203125 C 0.546875 2.203125 0.3125 2.15625 0.1875 1.984375 C 0.546875 1.921875 0.703125 1.625 0.703125 1.390625 C 0.703125 1.125 0.484375 1.015625 0.296875 1.015625 C 0 1.015625 -0.296875 1.25 -0.296875 1.671875 C -0.296875 2.203125 0.21875 2.453125 0.65625 2.453125 C 1.90625 2.453125 2.40625 -0.0625 2.484375 -0.484375 L 3.328125 -4.796875 L 4.3125 -4.796875 C 4.515625 -4.796875 4.625 -4.796875 4.625 -5.015625 C 4.625 -5.171875 4.53125 -5.171875 4.328125 -5.171875 L 3.390625 -5.171875 L 3.78125 -7.109375 C 3.875 -7.5625 4.015625 -8.203125 4.4375 -8.203125 C 4.53125 -8.203125 4.78125 -8.171875 4.9375 -7.984375 C 4.578125 -7.921875 4.421875 -7.625 4.421875 -7.390625 C 4.421875 -7.125 4.625 -7.015625 4.828125 -7.015625 C 5.125 -7.015625 5.421875 -7.25 5.421875 -7.671875 Z M 5.421875 -7.671875 "/>
</symbol>
<symbol overflow="visible" id="glyph15-2-dffa8cdf">
<path style="stroke:none;" d="M 5.859375 -1.71875 C 5.859375 -1.84375 5.765625 -1.84375 5.671875 -1.84375 C 5.53125 -1.84375 5.515625 -1.828125 5.453125 -1.625 C 5.140625 -0.59375 4.53125 -0.125 4.03125 -0.125 C 3.796875 -0.125 3.46875 -0.28125 3.46875 -0.90625 C 3.46875 -1.1875 3.59375 -1.703125 3.703125 -2.109375 L 4.109375 -3.75 C 4.265625 -4.375 4.59375 -5.046875 5.15625 -5.046875 C 5.203125 -5.046875 5.5 -5.046875 5.6875 -4.875 C 5.203125 -4.75 5.203125 -4.296875 5.203125 -4.296875 C 5.203125 -4.140625 5.3125 -3.90625 5.625 -3.90625 C 5.84375 -3.90625 6.21875 -4.078125 6.21875 -4.546875 C 6.21875 -5.15625 5.515625 -5.296875 5.171875 -5.296875 C 4.515625 -5.296875 4.109375 -4.71875 4 -4.484375 C 3.734375 -5.203125 3.140625 -5.296875 2.84375 -5.296875 C 1.640625 -5.296875 1 -3.734375 1 -3.453125 C 1 -3.34375 1.109375 -3.34375 1.171875 -3.34375 C 1.328125 -3.34375 1.328125 -3.34375 1.390625 -3.546875 C 1.71875 -4.578125 2.34375 -5.046875 2.8125 -5.046875 C 3.171875 -5.046875 3.390625 -4.765625 3.390625 -4.28125 C 3.390625 -4 3.25 -3.40625 3.140625 -2.96875 L 2.875 -1.875 C 2.671875 -1.09375 2.421875 -0.125 1.703125 -0.125 C 1.671875 -0.125 1.375 -0.125 1.171875 -0.296875 C 1.53125 -0.390625 1.640625 -0.703125 1.640625 -0.875 C 1.640625 -1.1875 1.390625 -1.265625 1.234375 -1.265625 C 0.9375 -1.265625 0.640625 -1.015625 0.640625 -0.609375 C 0.640625 -0.140625 1.140625 0.125 1.6875 0.125 C 2.265625 0.125 2.65625 -0.328125 2.875 -0.6875 C 3.109375 0 3.703125 0.125 4.015625 0.125 C 5.25 0.125 5.859375 -1.46875 5.859375 -1.71875 Z M 5.859375 -1.71875 "/>
</symbol>
<symbol overflow="visible" id="glyph16-0-dffa8cdf">
<path style="stroke:none;" d=""/>
</symbol>
<symbol overflow="visible" id="glyph16-1-dffa8cdf">
<path style="stroke:none;" d="M 3.984375 2.859375 C 3.984375 2.8125 3.953125 2.78125 3.9375 2.765625 C 2.6875 1.828125 1.859375 -0.578125 1.859375 -2.5 L 1.859375 -3.5 C 1.859375 -5.421875 2.6875 -7.828125 3.9375 -8.765625 C 3.953125 -8.78125 3.984375 -8.8125 3.984375 -8.859375 C 3.984375 -8.921875 3.921875 -8.96875 3.859375 -8.96875 C 3.84375 -8.96875 3.8125 -8.96875 3.796875 -8.953125 C 2.46875 -7.953125 1.21875 -5.5625 1.21875 -3.5 L 1.21875 -2.5 C 1.21875 -0.4375 2.46875 1.953125 3.796875 2.953125 C 3.8125 2.96875 3.84375 2.96875 3.859375 2.96875 C 3.921875 2.96875 3.984375 2.921875 3.984375 2.859375 Z M 3.984375 2.859375 "/>
</symbol>
<symbol overflow="visible" id="glyph16-2-dffa8cdf">
<path style="stroke:none;" d="M 3.453125 -2.5 L 3.453125 -3.5 C 3.453125 -5.5625 2.203125 -7.953125 0.875 -8.953125 C 0.859375 -8.96875 0.828125 -8.96875 0.796875 -8.96875 C 0.75 -8.96875 0.6875 -8.921875 0.6875 -8.859375 C 0.6875 -8.8125 0.703125 -8.78125 0.734375 -8.765625 C 1.984375 -7.828125 2.8125 -5.421875 2.8125 -3.5 L 2.8125 -2.5 C 2.8125 -0.578125 1.984375 1.828125 0.734375 2.765625 C 0.703125 2.78125 0.6875 2.8125 0.6875 2.859375 C 0.6875 2.921875 0.75 2.96875 0.796875 2.96875 C 0.828125 2.96875 0.859375 2.96875 0.875 2.953125 C 2.203125 1.953125 3.453125 -0.4375 3.453125 -2.5 Z M 3.453125 -2.5 "/>
</symbol>
<symbol overflow="visible" id="glyph16-3-dffa8cdf">
<path style="stroke:none;" d="M 4.3125 -1.53125 C 4.3125 -2.171875 3.953125 -2.53125 3.8125 -2.671875 C 3.421875 -3.0625 2.953125 -3.15625 2.453125 -3.25 C 1.78125 -3.390625 0.96875 -3.546875 0.96875 -4.234375 C 0.96875 -4.65625 1.28125 -5.140625 2.3125 -5.140625 C 3.640625 -5.140625 3.703125 -4.0625 3.71875 -3.703125 C 3.734375 -3.59375 3.859375 -3.59375 3.859375 -3.59375 C 4.015625 -3.59375 4.015625 -3.640625 4.015625 -3.875 L 4.015625 -5.09375 C 4.015625 -5.296875 4.015625 -5.375 3.890625 -5.375 C 3.828125 -5.375 3.796875 -5.375 3.640625 -5.234375 C 3.609375 -5.1875 3.484375 -5.078125 3.4375 -5.046875 C 2.984375 -5.375 2.5 -5.375 2.3125 -5.375 C 0.859375 -5.375 0.390625 -4.578125 0.390625 -3.90625 C 0.390625 -3.484375 0.59375 -3.140625 0.90625 -2.875 C 1.296875 -2.5625 1.625 -2.5 2.5 -2.328125 C 2.765625 -2.28125 3.75 -2.09375 3.75 -1.21875 C 3.75 -0.609375 3.328125 -0.125 2.390625 -0.125 C 1.375 -0.125 0.953125 -0.8125 0.71875 -1.84375 C 0.6875 -1.984375 0.671875 -2.046875 0.546875 -2.046875 C 0.390625 -2.046875 0.390625 -1.953125 0.390625 -1.734375 L 0.390625 -0.15625 C 0.390625 0.046875 0.390625 0.125 0.53125 0.125 C 0.59375 0.125 0.59375 0.125 0.828125 -0.109375 C 0.859375 -0.125 0.859375 -0.15625 1.0625 -0.390625 C 1.59375 0.125 2.140625 0.125 2.390625 0.125 C 3.765625 0.125 4.3125 -0.671875 4.3125 -1.53125 Z M 4.3125 -1.53125 "/>
</symbol>
<symbol overflow="visible" id="glyph16-4-dffa8cdf">
<path style="stroke:none;" d="M 6.421875 0 L 6.421875 -0.375 C 5.796875 -0.375 5.5 -0.375 5.484375 -0.734375 L 5.484375 -3.03125 C 5.484375 -4.0625 5.484375 -4.421875 5.109375 -4.859375 C 4.9375 -5.0625 4.546875 -5.296875 3.859375 -5.296875 C 2.96875 -5.296875 2.40625 -4.78125 2.078125 -4.046875 L 2.078125 -5.296875 L 0.390625 -5.171875 L 0.390625 -4.796875 C 1.21875 -4.796875 1.3125 -4.71875 1.3125 -4.125 L 1.3125 -0.90625 C 1.3125 -0.375 1.1875 -0.375 0.390625 -0.375 L 0.390625 0 L 1.734375 -0.03125 L 3.078125 0 L 3.078125 -0.375 C 2.28125 -0.375 2.140625 -0.375 2.140625 -0.90625 L 2.140625 -3.125 C 2.140625 -4.375 3 -5.046875 3.765625 -5.046875 C 4.53125 -5.046875 4.65625 -4.390625 4.65625 -3.703125 L 4.65625 -0.90625 C 4.65625 -0.375 4.53125 -0.375 3.71875 -0.375 L 3.71875 0 L 5.078125 -0.03125 Z M 6.421875 0 "/>
</symbol>
<symbol overflow="visible" id="glyph16-5-dffa8cdf">
<path style="stroke:none;" d="M 5.484375 -2.046875 C 5.484375 -3.03125 4.734375 -3.96875 3.484375 -4.21875 C 4.46875 -4.546875 5.15625 -5.390625 5.15625 -6.34375 C 5.15625 -7.3125 4.109375 -7.984375 2.953125 -7.984375 C 1.734375 -7.984375 0.828125 -7.265625 0.828125 -6.359375 C 0.828125 -5.96875 1.09375 -5.734375 1.4375 -5.734375 C 1.8125 -5.734375 2.046875 -6 2.046875 -6.34375 C 2.046875 -6.953125 1.484375 -6.953125 1.3125 -6.953125 C 1.6875 -7.53125 2.46875 -7.6875 2.90625 -7.6875 C 3.390625 -7.6875 4.0625 -7.421875 4.0625 -6.34375 C 4.0625 -6.203125 4.03125 -5.515625 3.71875 -4.984375 C 3.359375 -4.40625 2.953125 -4.375 2.65625 -4.359375 C 2.5625 -4.34375 2.265625 -4.3125 2.1875 -4.3125 C 2.09375 -4.3125 2 -4.296875 2 -4.171875 C 2 -4.046875 2.09375 -4.046875 2.296875 -4.046875 L 2.8125 -4.046875 C 3.796875 -4.046875 4.25 -3.234375 4.25 -2.046875 C 4.25 -0.421875 3.421875 -0.078125 2.890625 -0.078125 C 2.375 -0.078125 1.46875 -0.28125 1.0625 -0.984375 C 1.46875 -0.921875 1.84375 -1.1875 1.84375 -1.640625 C 1.84375 -2.078125 1.53125 -2.3125 1.171875 -2.3125 C 0.890625 -2.3125 0.5 -2.140625 0.5 -1.625 C 0.5 -0.53125 1.625 0.265625 2.921875 0.265625 C 4.390625 0.265625 5.484375 -0.828125 5.484375 -2.046875 Z M 5.484375 -2.046875 "/>
</symbol>
<symbol overflow="visible" id="glyph16-6-dffa8cdf">
<path style="stroke:none;" d="M 4.984375 -1.421875 C 4.984375 -1.546875 4.859375 -1.546875 4.828125 -1.546875 C 4.71875 -1.546875 4.6875 -1.5 4.671875 -1.421875 C 4.3125 -0.3125 3.546875 -0.171875 3.09375 -0.171875 C 2.453125 -0.171875 1.40625 -0.6875 1.40625 -2.609375 C 1.40625 -4.578125 2.390625 -5.078125 3.03125 -5.078125 C 3.125 -5.078125 3.890625 -5.0625 4.3125 -4.625 C 3.8125 -4.59375 3.75 -4.234375 3.75 -4.078125 C 3.75 -3.765625 3.953125 -3.53125 4.296875 -3.53125 C 4.609375 -3.53125 4.84375 -3.734375 4.84375 -4.09375 C 4.84375 -4.90625 3.9375 -5.375 3.015625 -5.375 C 1.515625 -5.375 0.40625 -4.078125 0.40625 -2.59375 C 0.40625 -1.0625 1.59375 0.125 2.984375 0.125 C 4.59375 0.125 4.984375 -1.3125 4.984375 -1.421875 Z M 4.984375 -1.421875 "/>
</symbol>
<symbol overflow="visible" id="glyph16-7-dffa8cdf">
<path style="stroke:none;" d="M 5.34375 -8.765625 C 5.34375 -8.890625 5.234375 -9 5.09375 -9 C 4.984375 -9 4.90625 -8.9375 4.875 -8.84375 L 0.6875 2.671875 C 0.671875 2.703125 0.671875 2.734375 0.671875 2.765625 C 0.671875 2.890625 0.78125 3 0.90625 3 C 1.015625 3 1.109375 2.9375 1.140625 2.84375 L 5.328125 -8.671875 C 5.34375 -8.703125 5.34375 -8.734375 5.34375 -8.765625 Z M 5.34375 -8.765625 "/>
</symbol>
<symbol overflow="visible" id="glyph17-0-dffa8cdf">
<path style="stroke:none;" d=""/>
</symbol>
<symbol overflow="visible" id="glyph17-1-dffa8cdf">
<path style="stroke:none;" d="M 2.96875 0 L 2.96875 -0.375 C 2.171875 -0.375 2.125 -0.4375 2.125 -0.90625 L 2.125 -5.296875 L 0.4375 -5.171875 L 0.4375 -4.796875 C 1.21875 -4.796875 1.328125 -4.734375 1.328125 -4.140625 L 1.328125 -0.90625 C 1.328125 -0.375 1.203125 -0.375 0.390625 -0.375 L 0.390625 0 L 1.71875 -0.03125 C 2.140625 -0.03125 2.5625 -0.015625 2.96875 0 Z M 2.296875 -7.25 C 2.296875 -7.578125 2.03125 -7.890625 1.671875 -7.890625 C 1.265625 -7.890625 1.015625 -7.546875 1.015625 -7.25 C 1.015625 -6.921875 1.296875 -6.609375 1.65625 -6.609375 C 2.0625 -6.609375 2.296875 -6.953125 2.296875 -7.25 Z M 2.296875 -7.25 "/>
</symbol>
<symbol overflow="visible" id="glyph17-2-dffa8cdf">
<path style="stroke:none;" d="M 5.65625 -2.5625 C 5.65625 -4.109375 4.453125 -5.375 3 -5.375 C 1.5 -5.375 0.34375 -4.0625 0.34375 -2.5625 C 0.34375 -1.015625 1.578125 0.125 2.984375 0.125 C 4.4375 0.125 5.65625 -1.046875 5.65625 -2.5625 Z M 4.65625 -2.65625 C 4.65625 -2.234375 4.65625 -1.578125 4.390625 -1.0625 C 4.125 -0.515625 3.59375 -0.171875 3 -0.171875 C 2.484375 -0.171875 1.953125 -0.421875 1.625 -0.96875 C 1.328125 -1.5 1.328125 -2.234375 1.328125 -2.65625 C 1.328125 -3.125 1.328125 -3.78125 1.625 -4.3125 C 1.9375 -4.859375 2.515625 -5.109375 2.984375 -5.109375 C 3.515625 -5.109375 4.03125 -4.84375 4.34375 -4.328125 C 4.65625 -3.8125 4.65625 -3.125 4.65625 -2.65625 Z M 4.65625 -2.65625 "/>
</symbol>
<symbol overflow="visible" id="glyph18-0-dffa8cdf">
<path style="stroke:none;" d=""/>
</symbol>
<symbol overflow="visible" id="glyph18-1-dffa8cdf">
<path style="stroke:none;" d="M 5.859375 -1.71875 C 5.859375 -1.84375 5.765625 -1.84375 5.671875 -1.84375 C 5.53125 -1.84375 5.515625 -1.828125 5.453125 -1.625 C 5.140625 -0.59375 4.53125 -0.125 4.03125 -0.125 C 3.796875 -0.125 3.46875 -0.28125 3.46875 -0.90625 C 3.46875 -1.1875 3.59375 -1.703125 3.703125 -2.109375 L 4.109375 -3.75 C 4.265625 -4.375 4.59375 -5.046875 5.15625 -5.046875 C 5.203125 -5.046875 5.5 -5.046875 5.6875 -4.875 C 5.203125 -4.75 5.203125 -4.296875 5.203125 -4.296875 C 5.203125 -4.140625 5.3125 -3.90625 5.625 -3.90625 C 5.84375 -3.90625 6.21875 -4.078125 6.21875 -4.546875 C 6.21875 -5.15625 5.515625 -5.296875 5.171875 -5.296875 C 4.515625 -5.296875 4.109375 -4.71875 4 -4.484375 C 3.734375 -5.203125 3.140625 -5.296875 2.84375 -5.296875 C 1.640625 -5.296875 1 -3.734375 1 -3.453125 C 1 -3.34375 1.109375 -3.34375 1.171875 -3.34375 C 1.328125 -3.34375 1.328125 -3.34375 1.390625 -3.546875 C 1.71875 -4.578125 2.34375 -5.046875 2.8125 -5.046875 C 3.171875 -5.046875 3.390625 -4.765625 3.390625 -4.28125 C 3.390625 -4 3.25 -3.40625 3.140625 -2.96875 L 2.875 -1.875 C 2.671875 -1.09375 2.421875 -0.125 1.703125 -0.125 C 1.671875 -0.125 1.375 -0.125 1.171875 -0.296875 C 1.53125 -0.390625 1.640625 -0.703125 1.640625 -0.875 C 1.640625 -1.1875 1.390625 -1.265625 1.234375 -1.265625 C 0.9375 -1.265625 0.640625 -1.015625 0.640625 -0.609375 C 0.640625 -0.140625 1.140625 0.125 1.6875 0.125 C 2.265625 0.125 2.65625 -0.328125 2.875 -0.6875 C 3.109375 0 3.703125 0.125 4.015625 0.125 C 5.25 0.125 5.859375 -1.46875 5.859375 -1.71875 Z M 5.859375 -1.71875 "/>
</symbol>
<symbol overflow="visible" id="glyph19-0-dffa8cdf">
<path style="stroke:none;" d=""/>
</symbol>
<symbol overflow="visible" id="glyph19-1-dffa8cdf">
<path style="stroke:none;" d="M 3.984375 2.859375 C 3.984375 2.8125 3.953125 2.78125 3.9375 2.765625 C 2.6875 1.828125 1.859375 -0.578125 1.859375 -2.5 L 1.859375 -3.5 C 1.859375 -5.421875 2.6875 -7.828125 3.9375 -8.765625 C 3.953125 -8.78125 3.984375 -8.8125 3.984375 -8.859375 C 3.984375 -8.921875 3.921875 -8.96875 3.859375 -8.96875 C 3.84375 -8.96875 3.8125 -8.96875 3.796875 -8.953125 C 2.46875 -7.953125 1.21875 -5.5625 1.21875 -3.5 L 1.21875 -2.5 C 1.21875 -0.4375 2.46875 1.953125 3.796875 2.953125 C 3.8125 2.96875 3.84375 2.96875 3.859375 2.96875 C 3.921875 2.96875 3.984375 2.921875 3.984375 2.859375 Z M 3.984375 2.859375 "/>
</symbol>
<symbol overflow="visible" id="glyph19-2-dffa8cdf">
<path style="stroke:none;" d="M 5.65625 -2.5625 C 5.65625 -4.109375 4.453125 -5.375 3 -5.375 C 1.5 -5.375 0.34375 -4.0625 0.34375 -2.5625 C 0.34375 -1.015625 1.578125 0.125 2.984375 0.125 C 4.4375 0.125 5.65625 -1.046875 5.65625 -2.5625 Z M 4.65625 -2.65625 C 4.65625 -2.234375 4.65625 -1.578125 4.390625 -1.0625 C 4.125 -0.515625 3.59375 -0.171875 3 -0.171875 C 2.484375 -0.171875 1.953125 -0.421875 1.625 -0.96875 C 1.328125 -1.5 1.328125 -2.234375 1.328125 -2.65625 C 1.328125 -3.125 1.328125 -3.78125 1.625 -4.3125 C 1.9375 -4.859375 2.515625 -5.109375 2.984375 -5.109375 C 3.515625 -5.109375 4.03125 -4.84375 4.34375 -4.328125 C 4.65625 -3.8125 4.65625 -3.125 4.65625 -2.65625 Z M 4.65625 -2.65625 "/>
</symbol>
<symbol overflow="visible" id="glyph19-3-dffa8cdf">
<path style="stroke:none;" d="M 4.3125 -1.53125 C 4.3125 -2.171875 3.953125 -2.53125 3.8125 -2.671875 C 3.421875 -3.0625 2.953125 -3.15625 2.453125 -3.25 C 1.78125 -3.390625 0.96875 -3.546875 0.96875 -4.234375 C 0.96875 -4.65625 1.28125 -5.140625 2.3125 -5.140625 C 3.640625 -5.140625 3.703125 -4.0625 3.71875 -3.703125 C 3.734375 -3.59375 3.859375 -3.59375 3.859375 -3.59375 C 4.015625 -3.59375 4.015625 -3.640625 4.015625 -3.875 L 4.015625 -5.09375 C 4.015625 -5.296875 4.015625 -5.375 3.890625 -5.375 C 3.828125 -5.375 3.796875 -5.375 3.640625 -5.234375 C 3.609375 -5.1875 3.484375 -5.078125 3.4375 -5.046875 C 2.984375 -5.375 2.5 -5.375 2.3125 -5.375 C 0.859375 -5.375 0.390625 -4.578125 0.390625 -3.90625 C 0.390625 -3.484375 0.59375 -3.140625 0.90625 -2.875 C 1.296875 -2.5625 1.625 -2.5 2.5 -2.328125 C 2.765625 -2.28125 3.75 -2.09375 3.75 -1.21875 C 3.75 -0.609375 3.328125 -0.125 2.390625 -0.125 C 1.375 -0.125 0.953125 -0.8125 0.71875 -1.84375 C 0.6875 -1.984375 0.671875 -2.046875 0.546875 -2.046875 C 0.390625 -2.046875 0.390625 -1.953125 0.390625 -1.734375 L 0.390625 -0.15625 C 0.390625 0.046875 0.390625 0.125 0.53125 0.125 C 0.59375 0.125 0.59375 0.125 0.828125 -0.109375 C 0.859375 -0.125 0.859375 -0.15625 1.0625 -0.390625 C 1.59375 0.125 2.140625 0.125 2.390625 0.125 C 3.765625 0.125 4.3125 -0.671875 4.3125 -1.53125 Z M 4.3125 -1.53125 "/>
</symbol>
<symbol overflow="visible" id="glyph20-0-dffa8cdf">
<path style="stroke:none;" d=""/>
</symbol>
<symbol overflow="visible" id="glyph20-1-dffa8cdf">
<path style="stroke:none;" d="M 4.984375 -1.421875 C 4.984375 -1.546875 4.859375 -1.546875 4.828125 -1.546875 C 4.71875 -1.546875 4.6875 -1.5 4.671875 -1.421875 C 4.3125 -0.3125 3.546875 -0.171875 3.09375 -0.171875 C 2.453125 -0.171875 1.40625 -0.6875 1.40625 -2.609375 C 1.40625 -4.578125 2.390625 -5.078125 3.03125 -5.078125 C 3.125 -5.078125 3.890625 -5.0625 4.3125 -4.625 C 3.8125 -4.59375 3.75 -4.234375 3.75 -4.078125 C 3.75 -3.765625 3.953125 -3.53125 4.296875 -3.53125 C 4.609375 -3.53125 4.84375 -3.734375 4.84375 -4.09375 C 4.84375 -4.90625 3.9375 -5.375 3.015625 -5.375 C 1.515625 -5.375 0.40625 -4.078125 0.40625 -2.59375 C 0.40625 -1.0625 1.59375 0.125 2.984375 0.125 C 4.59375 0.125 4.984375 -1.3125 4.984375 -1.421875 Z M 4.984375 -1.421875 "/>
</symbol>
<symbol overflow="visible" id="glyph20-2-dffa8cdf">
<path style="stroke:none;" d="M 3.984375 2.859375 C 3.984375 2.8125 3.953125 2.78125 3.9375 2.765625 C 2.6875 1.828125 1.859375 -0.578125 1.859375 -2.5 L 1.859375 -3.5 C 1.859375 -5.421875 2.6875 -7.828125 3.9375 -8.765625 C 3.953125 -8.78125 3.984375 -8.8125 3.984375 -8.859375 C 3.984375 -8.921875 3.921875 -8.96875 3.859375 -8.96875 C 3.84375 -8.96875 3.8125 -8.96875 3.796875 -8.953125 C 2.46875 -7.953125 1.21875 -5.5625 1.21875 -3.5 L 1.21875 -2.5 C 1.21875 -0.4375 2.46875 1.953125 3.796875 2.953125 C 3.8125 2.96875 3.84375 2.96875 3.859375 2.96875 C 3.921875 2.96875 3.984375 2.921875 3.984375 2.859375 Z M 3.984375 2.859375 "/>
</symbol>
<symbol overflow="visible" id="glyph20-3-dffa8cdf">
<path style="stroke:none;" d="M 3.453125 -2.5 L 3.453125 -3.5 C 3.453125 -5.5625 2.203125 -7.953125 0.875 -8.953125 C 0.859375 -8.96875 0.828125 -8.96875 0.796875 -8.96875 C 0.75 -8.96875 0.6875 -8.921875 0.6875 -8.859375 C 0.6875 -8.8125 0.703125 -8.78125 0.734375 -8.765625 C 1.984375 -7.828125 2.8125 -5.421875 2.8125 -3.5 L 2.8125 -2.5 C 2.8125 -0.578125 1.984375 1.828125 0.734375 2.765625 C 0.703125 2.78125 0.6875 2.8125 0.6875 2.859375 C 0.6875 2.921875 0.75 2.96875 0.796875 2.96875 C 0.828125 2.96875 0.859375 2.96875 0.875 2.953125 C 2.203125 1.953125 3.453125 -0.4375 3.453125 -2.5 Z M 3.453125 -2.5 "/>
</symbol>
<symbol overflow="visible" id="glyph20-4-dffa8cdf">
<path style="stroke:none;" d="M 8.65625 -3 C 8.65625 -3.125 8.5625 -3.234375 8.421875 -3.234375 L 4.90625 -3.234375 L 4.90625 -6.75 C 4.90625 -6.890625 4.796875 -7 4.671875 -7 C 4.53125 -7 4.421875 -6.890625 4.421875 -6.75 L 4.421875 -3.234375 L 0.90625 -3.234375 C 0.78125 -3.234375 0.671875 -3.125 0.671875 -3 C 0.671875 -2.875 0.78125 -2.765625 0.90625 -2.765625 L 4.421875 -2.765625 L 4.421875 0.75 C 4.421875 0.890625 4.53125 1 4.671875 1 C 4.796875 1 4.90625 0.890625 4.90625 0.75 L 4.90625 -2.765625 L 8.421875 -2.765625 C 8.5625 -2.765625 8.65625 -2.875 8.65625 -3 Z M 8.65625 -3 "/>
</symbol>
<symbol overflow="visible" id="glyph20-5-dffa8cdf">
<path style="stroke:none;" d="M 5.390625 -2.09375 L 5.09375 -2.09375 C 5.03125 -1.734375 4.9375 -1.203125 4.828125 -1.015625 C 4.734375 -0.921875 3.953125 -0.921875 3.6875 -0.921875 L 1.53125 -0.921875 L 2.796875 -2.15625 C 4.671875 -3.8125 5.390625 -4.46875 5.390625 -5.65625 C 5.390625 -7.03125 4.3125 -7.984375 2.84375 -7.984375 C 1.484375 -7.984375 0.59375 -6.890625 0.59375 -5.8125 C 0.59375 -5.140625 1.203125 -5.140625 1.234375 -5.140625 C 1.4375 -5.140625 1.859375 -5.296875 1.859375 -5.78125 C 1.859375 -6.09375 1.640625 -6.40625 1.21875 -6.40625 C 1.125 -6.40625 1.109375 -6.40625 1.0625 -6.390625 C 1.34375 -7.171875 1.984375 -7.625 2.6875 -7.625 C 3.78125 -7.625 4.296875 -6.640625 4.296875 -5.65625 C 4.296875 -4.703125 3.703125 -3.75 3.03125 -3.015625 L 0.734375 -0.4375 C 0.59375 -0.3125 0.59375 -0.28125 0.59375 0 L 5.046875 0 Z M 5.390625 -2.09375 "/>
</symbol>
<symbol overflow="visible" id="glyph21-0-dffa8cdf">
<path style="stroke:none;" d=""/>
</symbol>
<symbol overflow="visible" id="glyph21-1-dffa8cdf">
<path style="stroke:none;" d="M 5.859375 -1.71875 C 5.859375 -1.84375 5.765625 -1.84375 5.671875 -1.84375 C 5.53125 -1.84375 5.515625 -1.828125 5.453125 -1.625 C 5.140625 -0.59375 4.53125 -0.125 4.03125 -0.125 C 3.796875 -0.125 3.46875 -0.28125 3.46875 -0.90625 C 3.46875 -1.1875 3.59375 -1.703125 3.703125 -2.109375 L 4.109375 -3.75 C 4.265625 -4.375 4.59375 -5.046875 5.15625 -5.046875 C 5.203125 -5.046875 5.5 -5.046875 5.6875 -4.875 C 5.203125 -4.75 5.203125 -4.296875 5.203125 -4.296875 C 5.203125 -4.140625 5.3125 -3.90625 5.625 -3.90625 C 5.84375 -3.90625 6.21875 -4.078125 6.21875 -4.546875 C 6.21875 -5.15625 5.515625 -5.296875 5.171875 -5.296875 C 4.515625 -5.296875 4.109375 -4.71875 4 -4.484375 C 3.734375 -5.203125 3.140625 -5.296875 2.84375 -5.296875 C 1.640625 -5.296875 1 -3.734375 1 -3.453125 C 1 -3.34375 1.109375 -3.34375 1.171875 -3.34375 C 1.328125 -3.34375 1.328125 -3.34375 1.390625 -3.546875 C 1.71875 -4.578125 2.34375 -5.046875 2.8125 -5.046875 C 3.171875 -5.046875 3.390625 -4.765625 3.390625 -4.28125 C 3.390625 -4 3.25 -3.40625 3.140625 -2.96875 L 2.875 -1.875 C 2.671875 -1.09375 2.421875 -0.125 1.703125 -0.125 C 1.671875 -0.125 1.375 -0.125 1.171875 -0.296875 C 1.53125 -0.390625 1.640625 -0.703125 1.640625 -0.875 C 1.640625 -1.1875 1.390625 -1.265625 1.234375 -1.265625 C 0.9375 -1.265625 0.640625 -1.015625 0.640625 -0.609375 C 0.640625 -0.140625 1.140625 0.125 1.6875 0.125 C 2.265625 0.125 2.65625 -0.328125 2.875 -0.6875 C 3.109375 0 3.703125 0.125 4.015625 0.125 C 5.25 0.125 5.859375 -1.46875 5.859375 -1.71875 Z M 5.859375 -1.71875 "/>
</symbol>
<symbol overflow="visible" id="glyph22-0-dffa8cdf">
<path style="stroke:none;" d=""/>
</symbol>
<symbol overflow="visible" id="glyph22-1-dffa8cdf">
<path style="stroke:none;" d="M 4.3125 -1.53125 C 4.3125 -2.171875 3.953125 -2.53125 3.8125 -2.671875 C 3.421875 -3.0625 2.953125 -3.15625 2.453125 -3.25 C 1.78125 -3.390625 0.96875 -3.546875 0.96875 -4.234375 C 0.96875 -4.65625 1.28125 -5.140625 2.3125 -5.140625 C 3.640625 -5.140625 3.703125 -4.0625 3.71875 -3.703125 C 3.734375 -3.59375 3.859375 -3.59375 3.859375 -3.59375 C 4.015625 -3.59375 4.015625 -3.640625 4.015625 -3.875 L 4.015625 -5.09375 C 4.015625 -5.296875 4.015625 -5.375 3.890625 -5.375 C 3.828125 -5.375 3.796875 -5.375 3.640625 -5.234375 C 3.609375 -5.1875 3.484375 -5.078125 3.4375 -5.046875 C 2.984375 -5.375 2.5 -5.375 2.3125 -5.375 C 0.859375 -5.375 0.390625 -4.578125 0.390625 -3.90625 C 0.390625 -3.484375 0.59375 -3.140625 0.90625 -2.875 C 1.296875 -2.5625 1.625 -2.5 2.5 -2.328125 C 2.765625 -2.28125 3.75 -2.09375 3.75 -1.21875 C 3.75 -0.609375 3.328125 -0.125 2.390625 -0.125 C 1.375 -0.125 0.953125 -0.8125 0.71875 -1.84375 C 0.6875 -1.984375 0.671875 -2.046875 0.546875 -2.046875 C 0.390625 -2.046875 0.390625 -1.953125 0.390625 -1.734375 L 0.390625 -0.15625 C 0.390625 0.046875 0.390625 0.125 0.53125 0.125 C 0.59375 0.125 0.59375 0.125 0.828125 -0.109375 C 0.859375 -0.125 0.859375 -0.15625 1.0625 -0.390625 C 1.59375 0.125 2.140625 0.125 2.390625 0.125 C 3.765625 0.125 4.3125 -0.671875 4.3125 -1.53125 Z M 4.3125 -1.53125 "/>
</symbol>
<symbol overflow="visible" id="glyph23-0-dffa8cdf">
<path style="stroke:none;" d=""/>
</symbol>
<symbol overflow="visible" id="glyph23-1-dffa8cdf">
<path style="stroke:none;" d="M 5.859375 -1.71875 C 5.859375 -1.84375 5.765625 -1.84375 5.671875 -1.84375 C 5.53125 -1.84375 5.515625 -1.828125 5.453125 -1.625 C 5.140625 -0.59375 4.53125 -0.125 4.03125 -0.125 C 3.796875 -0.125 3.46875 -0.28125 3.46875 -0.90625 C 3.46875 -1.1875 3.59375 -1.703125 3.703125 -2.109375 L 4.109375 -3.75 C 4.265625 -4.375 4.59375 -5.046875 5.15625 -5.046875 C 5.203125 -5.046875 5.5 -5.046875 5.6875 -4.875 C 5.203125 -4.75 5.203125 -4.296875 5.203125 -4.296875 C 5.203125 -4.140625 5.3125 -3.90625 5.625 -3.90625 C 5.84375 -3.90625 6.21875 -4.078125 6.21875 -4.546875 C 6.21875 -5.15625 5.515625 -5.296875 5.171875 -5.296875 C 4.515625 -5.296875 4.109375 -4.71875 4 -4.484375 C 3.734375 -5.203125 3.140625 -5.296875 2.84375 -5.296875 C 1.640625 -5.296875 1 -3.734375 1 -3.453125 C 1 -3.34375 1.109375 -3.34375 1.171875 -3.34375 C 1.328125 -3.34375 1.328125 -3.34375 1.390625 -3.546875 C 1.71875 -4.578125 2.34375 -5.046875 2.8125 -5.046875 C 3.171875 -5.046875 3.390625 -4.765625 3.390625 -4.28125 C 3.390625 -4 3.25 -3.40625 3.140625 -2.96875 L 2.875 -1.875 C 2.671875 -1.09375 2.421875 -0.125 1.703125 -0.125 C 1.671875 -0.125 1.375 -0.125 1.171875 -0.296875 C 1.53125 -0.390625 1.640625 -0.703125 1.640625 -0.875 C 1.640625 -1.1875 1.390625 -1.265625 1.234375 -1.265625 C 0.9375 -1.265625 0.640625 -1.015625 0.640625 -0.609375 C 0.640625 -0.140625 1.140625 0.125 1.6875 0.125 C 2.265625 0.125 2.65625 -0.328125 2.875 -0.6875 C 3.109375 0 3.703125 0.125 4.015625 0.125 C 5.25 0.125 5.859375 -1.46875 5.859375 -1.71875 Z M 5.859375 -1.71875 "/>
</symbol>
<symbol overflow="visible" id="glyph24-0-dffa8cdf">
<path style="stroke:none;" d=""/>
</symbol>
<symbol overflow="visible" id="glyph24-1-dffa8cdf">
<path style="stroke:none;" d="M 5.609375 -1.25 C 5.609375 -1.3125 5.515625 -1.4375 5.421875 -1.4375 C 5.375 -1.4375 5.359375 -1.421875 5.265625 -1.3125 C 4.375 -0.1875 3.3125 -0.125 3.109375 -0.125 C 2.328125 -0.125 2.203125 -0.984375 2.203125 -1.453125 C 2.203125 -1.90625 2.3125 -2.453125 2.40625 -2.765625 L 2.875 -2.765625 C 3.234375 -2.765625 4.03125 -2.8125 4.609375 -3.03125 C 5.5625 -3.421875 5.5625 -4.203125 5.5625 -4.28125 C 5.5625 -4.84375 5.109375 -5.296875 4.34375 -5.296875 C 3.078125 -5.296875 1.375 -4.09375 1.375 -1.96875 C 1.375 -0.890625 1.9375 0.125 3.078125 0.125 C 4.625 0.125 5.609375 -1.0625 5.609375 -1.25 Z M 5.09375 -4.3125 C 5.09375 -3.03125 3.125 -3.03125 2.71875 -3.03125 L 2.46875 -3.03125 C 2.984375 -5 4.21875 -5.046875 4.34375 -5.046875 C 4.828125 -5.046875 5.09375 -4.71875 5.09375 -4.3125 Z M 5.09375 -4.3125 "/>
</symbol>
<symbol overflow="visible" id="glyph25-0-dffa8cdf">
<path style="stroke:none;" d=""/>
</symbol>
<symbol overflow="visible" id="glyph25-1-dffa8cdf">
<path style="stroke:none;" d="M 5.203125 -1.796875 C 5.203125 -1.875 5.140625 -1.9375 5.0625 -1.9375 L 0.546875 -1.9375 C 0.46875 -1.9375 0.40625 -1.875 0.40625 -1.796875 C 0.40625 -1.71875 0.46875 -1.65625 0.546875 -1.65625 L 5.0625 -1.65625 C 5.140625 -1.65625 5.203125 -1.71875 5.203125 -1.796875 Z M 5.203125 -1.796875 "/>
</symbol>
<symbol overflow="visible" id="glyph26-0-dffa8cdf">
<path style="stroke:none;" d=""/>
</symbol>
<symbol overflow="visible" id="glyph26-1-dffa8cdf">
<path style="stroke:none;" d="M 3.515625 -1.03125 C 3.515625 -1.109375 3.453125 -1.109375 3.40625 -1.109375 C 3.328125 -1.109375 3.3125 -1.09375 3.28125 -0.984375 C 3.078125 -0.359375 2.71875 -0.078125 2.421875 -0.078125 C 2.28125 -0.078125 2.078125 -0.171875 2.078125 -0.546875 C 2.078125 -0.71875 2.15625 -1.015625 2.21875 -1.265625 L 2.46875 -2.25 C 2.5625 -2.625 2.765625 -3.03125 3.09375 -3.03125 C 3.125 -3.03125 3.296875 -3.03125 3.421875 -2.921875 C 3.125 -2.859375 3.125 -2.578125 3.125 -2.578125 C 3.125 -2.484375 3.1875 -2.34375 3.375 -2.34375 C 3.515625 -2.34375 3.734375 -2.453125 3.734375 -2.734375 C 3.734375 -3.09375 3.3125 -3.1875 3.109375 -3.1875 C 2.703125 -3.1875 2.46875 -2.828125 2.40625 -2.6875 C 2.234375 -3.125 1.890625 -3.1875 1.703125 -3.1875 C 0.984375 -3.1875 0.59375 -2.234375 0.59375 -2.078125 C 0.59375 -2 0.671875 -2 0.703125 -2 C 0.796875 -2 0.796875 -2.015625 0.828125 -2.125 C 1.03125 -2.75 1.40625 -3.03125 1.6875 -3.03125 C 1.90625 -3.03125 2.03125 -2.859375 2.03125 -2.578125 C 2.03125 -2.40625 1.953125 -2.046875 1.890625 -1.78125 L 1.71875 -1.125 C 1.609375 -0.65625 1.453125 -0.078125 1.015625 -0.078125 C 1 -0.078125 0.828125 -0.078125 0.703125 -0.1875 C 0.921875 -0.234375 0.984375 -0.421875 0.984375 -0.53125 C 0.984375 -0.71875 0.828125 -0.75 0.734375 -0.75 C 0.5625 -0.75 0.375 -0.609375 0.375 -0.375 C 0.375 -0.09375 0.6875 0.078125 1.015625 0.078125 C 1.359375 0.078125 1.59375 -0.1875 1.71875 -0.40625 C 1.859375 0 2.21875 0.078125 2.40625 0.078125 C 3.140625 0.078125 3.515625 -0.890625 3.515625 -1.03125 Z M 3.515625 -1.03125 "/>
</symbol>
</g>
<clipPath id="clip1-dffa8cdf">
  <path d="M 68 12 L 429 12 L 429 225 L 68 225 Z M 68 12 "/>
</clipPath>
</defs>
<g id="surface1-dffa8cdf">
<rect x="0" y="0" width="450" height="300" style="fill:rgb(100%,100%,100%);fill-opacity:1;stroke:none;"/>
<path style=" stroke:none;fill-rule:nonzero;fill:rgb(100%,100%,100%);fill-opacity:1;" d="M 56.25 261 L 438 261 L 438 12 L 56.25 12 Z M 56.25 261 "/>
<path style="fill:none;stroke-width:1;stroke-linecap:butt;stroke-linejoin:miter;stroke:rgb(0%,0%,0%);stroke-opacity:0.12;stroke-dasharray:3,3;stroke-miterlimit:2;" d="M 93.854167 348 L 93.854167 16 " transform="matrix(0.75,0,0,0.75,0,0)"/>
<path style="fill:none;stroke-width:1;stroke-linecap:butt;stroke-linejoin:miter;stroke:rgb(0%,0%,0%);stroke-opacity:0.12;stroke-dasharray:3,3;stroke-miterlimit:2;" d="M 282.369792 348 L 282.369792 16 " transform="matrix(0.75,0,0,0.75,0,0)"/>
<path style="fill:none;stroke-width:1;stroke-linecap:butt;stroke-linejoin:miter;stroke:rgb(0%,0%,0%);stroke-opacity:0.12;stroke-dasharray:3,3;stroke-miterlimit:2;" d="M 470.890625 348 L 470.890625 16 " transform="matrix(0.75,0,0,0.75,0,0)"/>
<path style="fill:none;stroke-width:1;stroke-linecap:butt;stroke-linejoin:miter;stroke:rgb(0%,0%,0%);stroke-opacity:0.12;stroke-dasharray:3,3;stroke-miterlimit:2;" d="M 75 327.880208 L 584 327.880208 " transform="matrix(0.75,0,0,0.75,0,0)"/>
<path style="fill:none;stroke-width:1;stroke-linecap:butt;stroke-linejoin:miter;stroke:rgb(0%,0%,0%);stroke-opacity:0.12;stroke-dasharray:3,3;stroke-miterlimit:2;" d="M 75 227.270833 L 584 227.270833 " transform="matrix(0.75,0,0,0.75,0,0)"/>
<path style="fill:none;stroke-width:1;stroke-linecap:butt;stroke-linejoin:miter;stroke:rgb(0%,0%,0%);stroke-opacity:0.12;stroke-dasharray:3,3;stroke-miterlimit:2;" d="M 75 126.666667 L 584 126.666667 " transform="matrix(0.75,0,0,0.75,0,0)"/>
<path style="fill:none;stroke-width:1;stroke-linecap:butt;stroke-linejoin:miter;stroke:rgb(0%,0%,0%);stroke-opacity:0.12;stroke-dasharray:3,3;stroke-miterlimit:2;" d="M 75 26.0625 L 584 26.0625 " transform="matrix(0.75,0,0,0.75,0,0)"/>
<g style="fill:rgb(0%,0%,0%);fill-opacity:1;">
  <use xlink:href="#glyph0-1-dffa8cdf" x="243.644989" y="285.570007"/>
</g>
<g style="fill:rgb(0%,0%,0%);fill-opacity:1;">
  <use xlink:href="#glyph1-1-dffa8cdf" x="67.052891" y="274.614006"/>
</g>
<g style="fill:rgb(0%,0%,0%);fill-opacity:1;">
  <use xlink:href="#glyph2-1-dffa8cdf" x="208.441772" y="274.614006"/>
</g>
<g style="fill:rgb(0%,0%,0%);fill-opacity:1;">
  <use xlink:href="#glyph3-1-dffa8cdf" x="346.494713" y="274.614006"/>
</g>
<g style="fill:rgb(0%,0%,0%);fill-opacity:1;">
  <use xlink:href="#glyph3-2-dffa8cdf" x="353.16671" y="274.614006"/>
</g>
<g style="fill:rgb(0%,0%,0%);fill-opacity:1;">
  <use xlink:href="#glyph4-1-dffa8cdf" x="22.445985" y="139.500011"/>
</g>
<g style="fill:rgb(0%,0%,0%);fill-opacity:1;">
  <use xlink:href="#glyph5-1-dffa8cdf" x="28.811995" y="250.283089"/>
</g>
<g style="fill:rgb(0%,0%,0%);fill-opacity:1;">
  <use xlink:href="#glyph6-1-dffa8cdf" x="35.820002" y="250.283089"/>
</g>
<g style="fill:rgb(0%,0%,0%);fill-opacity:1;">
  <use xlink:href="#glyph7-1-dffa8cdf" x="42.491999" y="250.283089"/>
</g>
<g style="fill:rgb(0%,0%,0%);fill-opacity:1;">
  <use xlink:href="#glyph8-1-dffa8cdf" x="45.828009" y="250.283089"/>
</g>
<g style="fill:rgb(0%,0%,0%);fill-opacity:1;">
  <use xlink:href="#glyph6-1-dffa8cdf" x="35.820002" y="174.828552"/>
</g>
<g style="fill:rgb(0%,0%,0%);fill-opacity:1;">
  <use xlink:href="#glyph7-1-dffa8cdf" x="42.491999" y="174.828552"/>
</g>
<g style="fill:rgb(0%,0%,0%);fill-opacity:1;">
  <use xlink:href="#glyph8-2-dffa8cdf" x="45.828009" y="174.828552"/>
</g>
<g style="fill:rgb(0%,0%,0%);fill-opacity:1;">
  <use xlink:href="#glyph9-1-dffa8cdf" x="35.820002" y="99.374004"/>
</g>
<g style="fill:rgb(0%,0%,0%);fill-opacity:1;">
  <use xlink:href="#glyph10-1-dffa8cdf" x="42.491999" y="99.374004"/>
</g>
<g style="fill:rgb(0%,0%,0%);fill-opacity:1;">
  <use xlink:href="#glyph11-1-dffa8cdf" x="45.828009" y="99.374004"/>
</g>
<g style="fill:rgb(0%,0%,0%);fill-opacity:1;">
  <use xlink:href="#glyph12-1-dffa8cdf" x="35.820002" y="23.919456"/>
</g>
<g style="fill:rgb(0%,0%,0%);fill-opacity:1;">
  <use xlink:href="#glyph13-1-dffa8cdf" x="42.491999" y="23.919456"/>
</g>
<g style="fill:rgb(0%,0%,0%);fill-opacity:1;">
  <use xlink:href="#glyph14-1-dffa8cdf" x="45.828009" y="23.919456"/>
</g>
<path style="fill:none;stroke-width:1.5;stroke-linecap:butt;stroke-linejoin:miter;stroke:rgb(0%,44.705883%,69.803923%);stroke-opacity:1;stroke-miterlimit:2;" d="M 95.739583 26.729167 L 97.619792 28.734375 L 99.505208 32.052083 L 101.390625 36.651042 L 103.276042 42.484375 L 105.161458 49.5 L 107.046875 57.619792 L 108.932292 66.765625 L 110.817708 76.854167 L 112.703125 87.776042 L 114.588542 99.421875 L 116.473958 111.682292 L 118.359375 124.427083 L 120.244792 137.53125 L 122.130208 150.859375 L 124.015625 164.276042 L 125.901042 177.640625 L 127.786458 190.828125 L 129.671875 203.6875 L 131.557292 216.09375 L 133.442708 227.916667 L 135.328125 239.03125 L 137.213542 249.322917 L 139.09375 258.682292 L 140.979167 267.010417 L 142.864583 274.21875 L 144.75 280.234375 L 146.635417 285 L 148.520833 288.463542 L 150.40625 290.598958 L 152.291667 291.385417 L 154.177083 290.838542 L 156.0625 288.973958 L 157.947917 285.833333 L 159.833333 281.484375 L 161.71875 276 L 163.604167 269.484375 L 165.489583 262.052083 L 167.375 253.848958 L 169.260417 245.020833 L 171.145833 235.739583 L 173.03125 226.192708 L 174.916667 216.572917 L 176.802083 207.088542 L 178.6875 197.9375 L 180.572917 189.333333 L 182.453125 181.479167 L 184.338542 174.572917 L 186.223958 168.791667 L 188.109375 164.302083 L 189.994792 161.223958 L 191.880208 159.671875 L 193.765625 159.697917 L 195.651042 161.317708 L 197.536458 164.515625 L 199.421875 169.213542 L 201.307292 175.286458 L 203.192708 182.572917 L 205.078125 190.859375 L 206.963542 199.90625 L 208.848958 209.447917 L 210.734375 219.203125 L 212.619792 228.885417 L 214.505208 238.213542 L 216.390625 246.9375 L 218.276042 254.822917 L 220.161458 261.682292 L 222.046875 267.359375 L 223.927083 271.760417 L 225.8125 274.822917 L 227.697917 276.546875 L 229.583333 276.96875 L 231.46875 276.161458 L 233.354167 274.223958 L 235.239583 271.302083 L 237.125 267.536458 L 239.010417 263.088542 L 240.895833 258.130208 L 242.78125 252.817708 L 244.666667 247.322917 L 246.552083 241.78125 L 248.4375 236.338542 L 250.322917 231.109375 L 252.208333 226.208333 L 254.09375 221.708333 L 255.979167 217.692708 L 257.864583 214.203125 L 259.75 211.276042 L 261.635417 208.9375 L 263.520833 207.1875 L 265.40625 206.015625 L 267.286458 205.40625 L 269.171875 205.333333 L 271.057292 205.75 L 272.942708 206.614583 L 274.828125 207.880208 L 276.713542 209.489583 L 278.598958 211.390625 L 280.484375 213.515625 L 282.369792 215.8125 L 284.255208 218.223958 L 288.026042 223.161458 L 289.911458 225.583333 L 291.796875 227.911458 L 293.682292 230.109375 L 295.567708 232.135417 L 297.453125 233.953125 L 299.338542 235.546875 L 301.223958 236.885417 L 303.109375 237.963542 L 304.994792 238.760417 L 306.880208 239.286458 L 308.760417 239.526042 L 310.645833 239.5 L 312.53125 239.208333 L 314.416667 238.671875 L 316.302083 237.90625 L 318.1875 236.932292 L 320.072917 235.78125 L 321.958333 234.473958 L 323.84375 233.046875 L 325.729167 231.526042 L 327.614583 229.947917 L 329.5 228.338542 L 331.385417 226.734375 L 333.270833 225.166667 L 335.15625 223.666667 L 337.041667 222.260417 L 338.927083 220.973958 L 340.8125 219.838542 L 342.697917 218.864583 L 344.583333 218.078125 L 346.46875 217.494792 L 348.354167 217.119792 L 350.239583 216.963542 L 352.119792 217.03125 L 354.005208 217.317708 L 355.890625 217.822917 L 357.776042 218.541667 L 359.661458 219.453125 L 361.546875 220.541667 L 363.432292 221.796875 L 365.317708 223.1875 L 367.203125 224.692708 L 369.088542 226.28125 L 370.973958 227.921875 L 372.859375 229.583333 L 374.744792 231.234375 L 376.630208 232.84375 L 378.515625 234.369792 L 380.401042 235.78125 L 382.286458 237.046875 L 384.171875 238.135417 L 386.057292 239.015625 L 387.942708 239.666667 L 389.828125 240.0625 L 391.713542 240.182292 L 393.59375 240.015625 L 395.479167 239.552083 L 397.364583 238.791667 L 399.25 237.734375 L 401.135417 236.390625 L 403.020833 234.776042 L 404.90625 232.916667 L 406.791667 230.838542 L 408.677083 228.578125 L 410.5625 226.1875 L 412.447917 223.703125 L 414.333333 221.192708 L 416.21875 218.708333 L 418.104167 216.3125 L 419.989583 214.072917 L 421.875 212.057292 L 423.760417 210.317708 L 425.645833 208.921875 L 427.53125 207.916667 L 429.416667 207.34375 L 431.302083 207.244792 L 433.1875 207.635417 L 435.072917 208.520833 L 436.953125 209.890625 L 438.838542 211.713542 L 440.723958 213.953125 L 442.609375 216.546875 L 444.494792 219.421875 L 446.380208 222.5 L 448.265625 225.682292 L 450.151042 228.880208 L 452.036458 232 L 453.921875 234.942708 L 455.807292 237.630208 L 457.692708 239.989583 L 459.578125 241.96875 L 461.463542 243.510417 L 463.348958 244.598958 L 465.234375 245.21875 L 467.119792 245.375 L 469.005208 245.09375 L 470.890625 244.395833 L 472.776042 243.333333 L 474.661458 241.947917 L 476.546875 240.302083 L 478.427083 238.447917 L 480.3125 236.447917 L 482.197917 234.364583 L 484.083333 232.244792 L 485.96875 230.151042 L 487.854167 228.130208 L 489.739583 226.21875 L 491.625 224.453125 L 493.510417 222.869792 L 495.395833 221.484375 L 497.28125 220.317708 L 499.166667 219.380208 L 501.052083 218.682292 L 502.9375 218.213542 L 504.822917 217.973958 L 506.708333 217.958333 L 508.59375 218.145833 L 510.479167 218.526042 L 512.364583 219.078125 L 514.25 219.776042 L 516.135417 220.604167 L 518.020833 221.53125 L 519.90625 222.541667 L 521.786458 223.604167 L 523.671875 224.692708 L 525.557292 225.786458 L 527.442708 226.869792 L 529.328125 227.911458 L 531.213542 228.895833 L 533.098958 229.807292 L 534.984375 230.625 L 536.869792 231.34375 L 538.755208 231.953125 L 540.640625 232.4375 L 542.526042 232.791667 L 544.411458 233.020833 L 546.296875 233.119792 L 548.182292 233.088542 L 550.067708 232.9375 L 551.953125 232.661458 L 553.838542 232.28125 L 555.723958 231.796875 L 557.609375 231.229167 L 559.494792 230.583333 L 561.380208 229.875 L 563.260417 229.119792 L 565.145833 228.333333 L 567.03125 227.536458 " transform="matrix(0.75,0,0,0.75,0,0)"/>
<g clip-path="url(#clip1-dffa8cdf)" clip-rule="nonzero">
<path style="fill:none;stroke-width:1.5;stroke-linecap:butt;stroke-linejoin:miter;stroke:rgb(90.196079%,62.352943%,0%);stroke-opacity:1;stroke-miterlimit:2;" d="M 95.739583 -3791.942708 L 97.619792 -1774.796875 L 99.505208 -1099.078125 L 101.390625 -758.734375 L 103.276042 -552.557292 L 105.161458 -413.479167 L 107.046875 -312.765625 L 108.932292 -236.046875 L 110.817708 -175.348958 L 112.703125 -125.885417 L 114.588542 -84.614583 L 116.473958 -49.505208 L 118.359375 -19.161458 L 120.244792 7.421875 L 122.130208 30.973958 L 124.015625 52.041667 L 125.901042 71.041667 L 127.786458 88.302083 L 129.671875 104.072917 L 131.557292 118.557292 L 133.442708 131.921875 L 135.328125 144.302083 L 137.213542 155.802083 L 139.09375 166.515625 L 140.979167 176.515625 L 142.864583 185.869792 L 144.75 194.630208 L 146.635417 202.84375 L 148.520833 210.552083 L 150.40625 217.786458 L 152.291667 224.572917 L 154.177083 230.942708 L 156.0625 236.921875 L 157.947917 242.520833 L 159.833333 247.765625 L 161.71875 252.671875 L 163.604167 257.244792 L 165.489583 261.510417 L 167.375 265.46875 L 169.260417 269.140625 L 171.145833 272.526042 L 173.03125 275.645833 L 174.916667 278.5 L 176.802083 281.098958 L 178.6875 283.447917 L 180.572917 285.5625 L 182.453125 287.442708 L 184.338542 289.09375 L 186.223958 290.53125 L 188.109375 291.755208 L 189.994792 292.770833 L 191.880208 293.588542 L 193.765625 294.208333 L 195.651042 294.645833 L 197.536458 294.901042 L 199.421875 294.984375 L 201.307292 294.890625 L 203.192708 294.640625 L 205.078125 294.234375 L 206.963542 293.671875 L 208.848958 292.96875 L 210.734375 292.125 L 212.619792 291.145833 L 214.505208 290.046875 L 216.390625 288.822917 L 218.276042 287.484375 L 220.161458 286.036458 L 222.046875 284.489583 L 223.927083 282.84375 L 225.8125 281.109375 L 227.697917 279.291667 L 229.583333 277.395833 L 231.46875 275.427083 L 233.354167 273.395833 L 235.239583 271.302083 L 237.125 269.15625 L 239.010417 266.963542 L 240.895833 264.723958 L 242.78125 262.453125 L 244.666667 260.151042 L 246.552083 257.828125 L 248.4375 255.484375 L 250.322917 253.125 L 252.208333 250.760417 L 254.09375 248.390625 L 255.979167 246.026042 L 257.864583 243.671875 L 259.75 241.328125 L 261.635417 239 L 263.520833 236.697917 L 265.40625 234.421875 L 267.286458 232.177083 L 269.171875 229.96875 L 271.057292 227.802083 L 272.942708 225.682292 L 274.828125 223.604167 L 276.713542 221.583333 L 278.598958 219.614583 L 280.484375 217.703125 L 282.369792 215.859375 L 284.255208 214.072917 L 286.140625 212.359375 L 288.026042 210.713542 L 289.911458 209.145833 L 291.796875 207.645833 L 293.682292 206.223958 L 295.567708 204.885417 L 297.453125 203.625 L 299.338542 202.442708 L 301.223958 201.348958 L 303.109375 200.333333 L 304.994792 199.40625 L 306.880208 198.5625 L 308.760417 197.807292 L 310.645833 197.135417 L 312.53125 196.552083 L 314.416667 196.052083 L 316.302083 195.640625 L 318.1875 195.317708 L 320.072917 195.072917 L 321.958333 194.916667 L 323.84375 194.838542 L 325.729167 194.84375 L 327.614583 194.932292 L 329.5 195.098958 L 331.385417 195.338542 L 333.270833 195.65625 L 335.15625 196.046875 L 337.041667 196.510417 L 338.927083 197.041667 L 340.8125 197.640625 L 342.697917 198.302083 L 344.583333 199.026042 L 346.46875 199.8125 L 348.354167 200.651042 L 350.239583 201.546875 L 352.119792 202.494792 L 354.005208 203.484375 L 355.890625 204.520833 L 357.776042 205.604167 L 359.661458 206.71875 L 361.546875 207.875 L 363.432292 209.057292 L 365.317708 210.270833 L 367.203125 211.510417 L 369.088542 212.770833 L 370.973958 214.052083 L 372.859375 215.348958 L 374.744792 216.65625 L 376.630208 217.973958 L 384.171875 223.265625 L 386.057292 224.578125 L 387.942708 225.880208 L 389.828125 227.171875 L 391.713542 228.442708 L 393.59375 229.697917 L 395.479167 230.932292 L 397.364583 232.140625 L 399.25 233.322917 L 401.135417 234.473958 L 403.020833 235.59375 L 404.90625 236.682292 L 406.791667 237.729167 L 408.677083 238.739583 L 410.5625 239.713542 L 412.447917 240.640625 L 414.333333 241.526042 L 416.21875 242.359375 L 418.104167 243.151042 L 419.989583 243.895833 L 421.875 244.588542 L 423.760417 245.229167 L 425.645833 245.817708 L 427.53125 246.354167 L 429.416667 246.838542 L 431.302083 247.265625 L 433.1875 247.640625 L 435.072917 247.963542 L 436.953125 248.229167 L 438.838542 248.4375 L 440.723958 248.59375 L 442.609375 248.692708 L 444.494792 248.739583 L 446.380208 248.734375 L 448.265625 248.671875 L 450.151042 248.557292 L 452.036458 248.390625 L 453.921875 248.177083 L 455.807292 247.911458 L 457.692708 247.598958 L 459.578125 247.234375 L 461.463542 246.828125 L 463.348958 246.375 L 465.234375 245.880208 L 467.119792 245.34375 L 469.005208 244.770833 L 470.890625 244.15625 L 472.776042 243.505208 L 474.661458 242.822917 L 476.546875 242.109375 L 478.427083 241.364583 L 480.3125 240.588542 L 482.197917 239.791667 L 484.083333 238.96875 L 485.96875 238.125 L 487.854167 237.265625 L 489.739583 236.385417 L 491.625 235.494792 L 493.510417 234.588542 L 495.395833 233.671875 L 497.28125 232.75 L 501.052083 230.895833 L 502.9375 229.963542 L 506.708333 228.109375 L 508.59375 227.192708 L 510.479167 226.28125 L 512.364583 225.385417 L 514.25 224.494792 L 516.135417 223.625 L 518.020833 222.770833 L 519.90625 221.9375 L 521.786458 221.119792 L 523.671875 220.328125 L 525.557292 219.557292 L 527.442708 218.817708 L 529.328125 218.098958 L 531.213542 217.416667 L 533.098958 216.760417 L 534.984375 216.135417 L 536.869792 215.546875 L 538.755208 214.989583 L 540.640625 214.46875 L 542.526042 213.979167 L 544.411458 213.53125 L 546.296875 213.125 L 548.182292 212.75 L 550.067708 212.421875 L 551.953125 212.125 L 553.838542 211.875 L 555.723958 211.661458 L 557.609375 211.489583 L 559.494792 211.359375 L 561.380208 211.270833 L 563.260417 211.21875 L 565.145833 211.213542 L 567.03125 211.239583 " transform="matrix(0.75,0,0,0.75,0,0)"/>
</g>
<path style="fill:none;stroke-width:1.5;stroke-linecap:butt;stroke-linejoin:miter;stroke:rgb(0%,61.960787%,45.09804%);stroke-opacity:1;stroke-miterlimit:2;" d="M 93.854167 26.0625 L 95.739583 35.875 L 97.619792 45.208333 L 99.505208 54.088542 L 101.390625 62.536458 L 103.276042 70.567708 L 105.161458 78.213542 L 107.046875 85.479167 L 108.932292 92.395833 L 110.817708 98.973958 L 112.703125 105.229167 L 114.588542 111.182292 L 116.473958 116.84375 L 118.359375 122.229167 L 120.244792 127.354167 L 122.130208 132.229167 L 124.015625 136.864583 L 125.901042 141.270833 L 127.786458 145.463542 L 129.671875 149.458333 L 131.557292 153.25 L 133.442708 156.859375 L 135.328125 160.296875 L 137.213542 163.5625 L 139.09375 166.666667 L 140.979167 169.625 L 142.864583 172.4375 L 144.75 175.109375 L 146.635417 177.65625 L 148.520833 180.072917 L 150.40625 182.375 L 152.291667 184.567708 L 154.177083 186.651042 L 156.0625 188.630208 L 157.947917 190.515625 L 159.833333 192.307292 L 161.71875 194.010417 L 163.604167 195.635417 L 165.489583 197.177083 L 167.375 198.645833 L 169.260417 200.041667 L 171.145833 201.369792 L 173.03125 202.635417 L 174.916667 203.833333 L 176.802083 204.979167 L 178.6875 206.067708 L 180.572917 207.098958 L 182.453125 208.083333 L 184.338542 209.020833 L 186.223958 209.911458 L 188.109375 210.755208 L 189.994792 211.5625 L 191.880208 212.328125 L 193.765625 213.057292 L 195.651042 213.75 L 197.536458 214.411458 L 199.421875 215.036458 L 201.307292 215.635417 L 203.192708 216.203125 L 205.078125 216.739583 L 206.963542 217.255208 L 208.848958 217.744792 L 210.734375 218.208333 L 212.619792 218.651042 L 214.505208 219.072917 L 216.390625 219.46875 L 218.276042 219.848958 L 220.161458 220.213542 L 222.046875 220.557292 L 223.927083 220.885417 L 225.8125 221.197917 L 227.697917 221.494792 L 229.583333 221.776042 L 231.46875 222.041667 L 233.354167 222.296875 L 235.239583 222.541667 L 237.125 222.770833 L 239.010417 222.989583 L 240.895833 223.197917 L 242.78125 223.395833 L 244.666667 223.588542 L 246.552083 223.765625 L 248.4375 223.9375 L 250.322917 224.098958 L 252.208333 224.255208 L 254.09375 224.401042 L 255.979167 224.541667 L 257.864583 224.677083 L 259.75 224.802083 L 261.635417 224.921875 L 263.520833 225.036458 L 265.40625 225.145833 L 267.286458 225.25 L 269.171875 225.348958 L 271.057292 225.442708 L 272.942708 225.53125 L 276.713542 225.697917 L 278.598958 225.776042 L 280.484375 225.848958 L 284.255208 225.984375 L 286.140625 226.046875 L 291.796875 226.21875 L 293.682292 226.270833 L 297.453125 226.364583 L 304.994792 226.53125 L 306.880208 226.5625 L 308.760417 226.598958 L 316.302083 226.723958 L 320.072917 226.776042 L 321.958333 226.796875 L 323.84375 226.822917 L 329.5 226.885417 L 331.385417 226.901042 L 333.270833 226.921875 L 342.697917 227 L 344.583333 227.010417 L 346.46875 227.026042 L 350.239583 227.046875 L 352.119792 227.057292 L 359.661458 227.098958 L 361.546875 227.104167 L 365.317708 227.125 L 369.088542 227.135417 L 370.973958 227.145833 L 387.942708 227.192708 L 389.828125 227.192708 L 391.713542 227.197917 L 393.59375 227.203125 L 395.479167 227.203125 L 399.25 227.213542 L 401.135417 227.213542 L 403.020833 227.21875 L 404.90625 227.21875 L 406.791667 227.223958 L 408.677083 227.223958 L 410.5625 227.229167 L 412.447917 227.229167 L 414.333333 227.234375 L 418.104167 227.234375 L 419.989583 227.239583 L 423.760417 227.239583 L 425.645833 227.244792 L 431.302083 227.244792 L 433.1875 227.25 L 440.723958 227.25 L 442.609375 227.255208 L 452.036458 227.255208 L 453.921875 227.260417 L 467.119792 227.260417 L 469.005208 227.265625 L 497.28125 227.265625 L 499.166667 227.270833 L 567.03125 227.270833 " transform="matrix(0.75,0,0,0.75,0,0)"/>
<path style="fill-rule:nonzero;fill:rgb(100%,100%,100%);fill-opacity:0.5;stroke-width:1;stroke-linecap:butt;stroke-linejoin:miter;stroke:rgb(0%,0%,0%);stroke-opacity:0.5;stroke-miterlimit:2;" d="M 451 145 L 578 145 L 578 22 L 451 22 Z M 451 145 " transform="matrix(0.75,0,0,0.75,0,0)"/>
<path style="fill:none;stroke-width:1;stroke-linecap:butt;stroke-linejoin:miter;stroke:rgb(0%,0%,0%);stroke-opacity:1;stroke-miterlimit:2;" d="M 93.854167 338.5 L 93.854167 348.5 " transform="matrix(0.75,0,0,0.75,0,0)"/>
<path style="fill:none;stroke-width:1;stroke-linecap:butt;stroke-linejoin:miter;stroke:rgb(0%,0%,0%);stroke-opacity:1;stroke-miterlimit:2;" d="M 282.369792 338.5 L 282.369792 348.5 " transform="matrix(0.75,0,0,0.75,0,0)"/>
<path style="fill:none;stroke-width:1;stroke-linecap:butt;stroke-linejoin:miter;stroke:rgb(0%,0%,0%);stroke-opacity:1;stroke-miterlimit:2;" d="M 470.890625 338.5 L 470.890625 348.5 " transform="matrix(0.75,0,0,0.75,0,0)"/>
<path style="fill:none;stroke-width:1;stroke-linecap:butt;stroke-linejoin:miter;stroke:rgb(0%,0%,0%);stroke-opacity:1;stroke-miterlimit:2;" d="M 84.5 327.880208 L 74.5 327.880208 " transform="matrix(0.75,0,0,0.75,0,0)"/>
<path style="fill:none;stroke-width:1;stroke-linecap:butt;stroke-linejoin:miter;stroke:rgb(0%,0%,0%);stroke-opacity:1;stroke-miterlimit:2;" d="M 84.5 227.270833 L 74.5 227.270833 " transform="matrix(0.75,0,0,0.75,0,0)"/>
<path style="fill:none;stroke-width:1;stroke-linecap:butt;stroke-linejoin:miter;stroke:rgb(0%,0%,0%);stroke-opacity:1;stroke-miterlimit:2;" d="M 84.5 126.666667 L 74.5 126.666667 " transform="matrix(0.75,0,0,0.75,0,0)"/>
<path style="fill:none;stroke-width:1;stroke-linecap:butt;stroke-linejoin:miter;stroke:rgb(0%,0%,0%);stroke-opacity:1;stroke-miterlimit:2;" d="M 84.5 26.0625 L 74.5 26.0625 " transform="matrix(0.75,0,0,0.75,0,0)"/>
<path style="fill:none;stroke-width:1.5;stroke-linecap:butt;stroke-linejoin:miter;stroke:rgb(0%,44.705883%,69.803923%);stroke-opacity:1;stroke-miterlimit:2;" d="M 457.135417 72.932292 L 477.140625 72.932292 " transform="matrix(0.75,0,0,0.75,0,0)"/>
<path style="fill:none;stroke-width:1.5;stroke-linecap:butt;stroke-linejoin:miter;stroke:rgb(90.196079%,62.352943%,0%);stroke-opacity:1;stroke-miterlimit:2;" d="M 457.135417 105.78125 L 477.140625 105.78125 " transform="matrix(0.75,0,0,0.75,0,0)"/>
<path style="fill:none;stroke-width:1.5;stroke-linecap:butt;stroke-linejoin:miter;stroke:rgb(0%,61.960787%,45.09804%);stroke-opacity:1;stroke-miterlimit:2;" d="M 457.135417 128.78125 L 477.140625 128.78125 " transform="matrix(0.75,0,0,0.75,0,0)"/>
<g style="fill:rgb(0%,0%,0%);fill-opacity:1;">
  <use xlink:href="#glyph15-1-dffa8cdf" x="376.581024" y="30.836981"/>
</g>
<g style="fill:rgb(0%,0%,0%);fill-opacity:1;">
  <use xlink:href="#glyph16-1-dffa8cdf" x="380.265015" y="30.836981"/>
</g>
<g style="fill:rgb(0%,0%,0%);fill-opacity:1;">
  <use xlink:href="#glyph15-2-dffa8cdf" x="384.933014" y="30.836981"/>
</g>
<g style="fill:rgb(0%,0%,0%);fill-opacity:1;">
  <use xlink:href="#glyph16-2-dffa8cdf" x="390.500977" y="30.836981"/>
</g>
<g style="fill:rgb(0%,0%,0%);fill-opacity:1;">
  <use xlink:href="#glyph16-3-dffa8cdf" x="377.310013" y="49.484985"/>
</g>
<g style="fill:rgb(0%,0%,0%);fill-opacity:1;">
  <use xlink:href="#glyph17-1-dffa8cdf" x="382.038002" y="49.484985"/>
</g>
<g style="fill:rgb(0%,0%,0%);fill-opacity:1;">
  <use xlink:href="#glyph16-4-dffa8cdf" x="385.374023" y="49.484985"/>
</g>
<g style="fill:rgb(0%,0%,0%);fill-opacity:1;">
  <use xlink:href="#glyph16-1-dffa8cdf" x="392.046021" y="49.484985"/>
</g>
<g style="fill:rgb(0%,0%,0%);fill-opacity:1;">
  <use xlink:href="#glyph16-5-dffa8cdf" x="396.71402" y="49.484985"/>
</g>
<g style="fill:rgb(0%,0%,0%);fill-opacity:1;">
  <use xlink:href="#glyph15-2-dffa8cdf" x="402.71402" y="49.484985"/>
</g>
<g style="fill:rgb(0%,0%,0%);fill-opacity:1;">
  <use xlink:href="#glyph16-2-dffa8cdf" x="408.281982" y="49.484985"/>
</g>
<g style="fill:rgb(0%,0%,0%);fill-opacity:1;">
  <use xlink:href="#glyph18-1-dffa8cdf" x="362.25" y="66.608997"/>
</g>
<g style="fill:rgb(0%,0%,0%);fill-opacity:1;">
  <use xlink:href="#glyph19-1-dffa8cdf" x="367.818031" y="66.608997"/>
</g>
<g style="fill:rgb(0%,0%,0%);fill-opacity:1;">
  <use xlink:href="#glyph20-1-dffa8cdf" x="372.486008" y="66.608997"/>
</g>
<g style="fill:rgb(0%,0%,0%);fill-opacity:1;">
  <use xlink:href="#glyph19-2-dffa8cdf" x="377.814034" y="66.608997"/>
</g>
<g style="fill:rgb(0%,0%,0%);fill-opacity:1;">
  <use xlink:href="#glyph19-3-dffa8cdf" x="383.814034" y="66.608997"/>
</g>
<g style="fill:rgb(0%,0%,0%);fill-opacity:1;">
  <use xlink:href="#glyph20-2-dffa8cdf" x="388.542023" y="66.608997"/>
</g>
<g style="fill:rgb(0%,0%,0%);fill-opacity:1;">
  <use xlink:href="#glyph21-1-dffa8cdf" x="393.210022" y="66.608997"/>
</g>
<g style="fill:rgb(0%,0%,0%);fill-opacity:1;">
  <use xlink:href="#glyph20-3-dffa8cdf" x="398.777985" y="66.608997"/>
</g>
<g style="fill:rgb(0%,0%,0%);fill-opacity:1;">
  <use xlink:href="#glyph20-4-dffa8cdf" x="405.845993" y="66.608997"/>
</g>
<g style="fill:rgb(0%,0%,0%);fill-opacity:1;">
  <use xlink:href="#glyph20-5-dffa8cdf" x="417.582001" y="66.608997"/>
</g>
<g style="fill:rgb(0%,0%,0%);fill-opacity:1;">
  <use xlink:href="#glyph20-3-dffa8cdf" x="423.582001" y="66.608997"/>
</g>
<path style="fill:none;stroke-width:0.6;stroke-linecap:butt;stroke-linejoin:miter;stroke:rgb(0%,0%,0%);stroke-opacity:1;stroke-miterlimit:2;" d="M 481.276042 73.395833 L 570.260417 73.395833 " transform="matrix(0.75,0,0,0.75,0,0)"/>
<g style="fill:rgb(0%,0%,0%);fill-opacity:1;">
  <use xlink:href="#glyph16-6-dffa8cdf" x="361.6035" y="82.670975"/>
</g>
<g style="fill:rgb(0%,0%,0%);fill-opacity:1;">
  <use xlink:href="#glyph17-2-dffa8cdf" x="366.931503" y="82.670975"/>
</g>
<g style="fill:rgb(0%,0%,0%);fill-opacity:1;">
  <use xlink:href="#glyph22-1-dffa8cdf" x="372.931526" y="82.670975"/>
</g>
<g style="fill:rgb(0%,0%,0%);fill-opacity:1;">
  <use xlink:href="#glyph16-1-dffa8cdf" x="377.659515" y="82.670975"/>
</g>
<g style="fill:rgb(0%,0%,0%);fill-opacity:1;">
  <use xlink:href="#glyph23-1-dffa8cdf" x="382.327492" y="82.670975"/>
</g>
<g style="fill:rgb(0%,0%,0%);fill-opacity:1;">
  <use xlink:href="#glyph16-2-dffa8cdf" x="387.895477" y="82.670975"/>
</g>
<g style="fill:rgb(0%,0%,0%);fill-opacity:1;">
  <use xlink:href="#glyph16-7-dffa8cdf" x="392.563477" y="82.670975"/>
</g>
<g style="fill:rgb(0%,0%,0%);fill-opacity:1;">
  <use xlink:href="#glyph15-2-dffa8cdf" x="398.563477" y="82.670975"/>
</g>
<g style="fill:rgb(0%,0%,0%);fill-opacity:1;">
  <use xlink:href="#glyph24-1-dffa8cdf" x="361.603546" y="100.908588"/>
</g>
<g style="fill:rgb(0%,0%,0%);fill-opacity:1;">
  <use xlink:href="#glyph25-1-dffa8cdf" x="368.659538" y="95.736586"/>
</g>
<g style="fill:rgb(0%,0%,0%);fill-opacity:1;">
  <use xlink:href="#glyph26-1-dffa8cdf" x="375.701157" y="95.736586"/>
</g>
<path style="fill:none;stroke-width:1;stroke-linecap:butt;stroke-linejoin:miter;stroke:rgb(0%,0%,0%);stroke-opacity:1;stroke-miterlimit:2;" d="M 74.5 348 L 584.5 348 " transform="matrix(0.75,0,0,0.75,0,0)"/>
<path style="fill:none;stroke-width:1;stroke-linecap:butt;stroke-linejoin:miter;stroke:rgb(0%,0%,0%);stroke-opacity:1;stroke-miterlimit:2;" d="M 75 348.5 L 75 15.5 " transform="matrix(0.75,0,0,0.75,0,0)"/>
<path style="fill:none;stroke-width:1;stroke-linecap:butt;stroke-linejoin:miter;stroke:rgb(0%,0%,0%);stroke-opacity:1;stroke-miterlimit:2;" d="M 74.5 16 L 584.5 16 " transform="matrix(0.75,0,0,0.75,0,0)"/>
<path style="fill:none;stroke-width:1;stroke-linecap:butt;stroke-linejoin:miter;stroke:rgb(0%,0%,0%);stroke-opacity:1;stroke-miterlimit:2;" d="M 584 348.5 L 584 15.5 " transform="matrix(0.75,0,0,0.75,0,0)"/>
</g>
</svg>
