<?xml version="1.0" encoding="UTF-8" standalone="no"?>
<!DOCTYPE svg PUBLIC "-//W3C//DTD SVG 1.1//EN"
 "http://www.w3.org/Graphics/SVG/1.1/DTD/svg11.dtd">
<!-- Generated by graphviz version 2.43.0 (0)
 -->
<!-- Title: estatistica_inferencial Pages: 1 -->
<svg width="215pt" height="188pt"
 viewBox="0.00 0.00 214.78 187.69" xmlns="http://www.w3.org/2000/svg" xmlns:xlink="http://www.w3.org/1999/xlink">
<g id="graph0" class="graph" transform="scale(1 1) rotate(0) translate(4 183.69)">
<title>estatistica_inferencial</title>
<!-- A -->
<g id="node1" class="node">
<title>A</title>
<ellipse fill="none" stroke="black" cx="102.6" cy="-142.22" rx="66.44" ry="37.45"/>
<text text-anchor="middle" x="102.6" y="-153.52" font-family="Helvetica,sans-Serif" font-size="14.00">Data</text>
<text text-anchor="middle" x="102.6" y="-138.52" font-family="Helvetica,sans-Serif" font-size="14.00">Generating</text>
<text text-anchor="middle" x="102.6" y="-123.52" font-family="Helvetica,sans-Serif" font-size="14.00">Process</text>
</g>
<!-- B -->
<g id="node2" class="node">
<title>B</title>
<ellipse fill="none" stroke="black" cx="104.6" cy="-26.87" rx="59.29" ry="26.74"/>
<text text-anchor="middle" x="104.6" y="-30.67" font-family="Helvetica,sans-Serif" font-size="14.00">Observed</text>
<text text-anchor="middle" x="104.6" y="-15.67" font-family="Helvetica,sans-Serif" font-size="14.00">Data</text>
</g>
<!-- A&#45;&gt;B -->
<g id="edge1" class="edge">
<title>A:e&#45;&gt;B:e</title>
<path fill="none" stroke="black" d="M170.6,-142.22C218.3,-142.22 217.33,-42.52 175.73,-28.5"/>
<polygon fill="black" stroke="black" points="176.03,-25 165.6,-26.87 174.91,-31.91 176.03,-25"/>
<text text-anchor="middle" x="157.93" y="-85.63" font-family="Times,serif" font-size="14.00"> &#160;Probability &#160;</text>
</g>
<!-- B&#45;&gt;A -->
<g id="edge2" class="edge">
<title>B:w&#45;&gt;A:w</title>
<path fill="none" stroke="black" d="M43.6,-26.87C-4.21,-26.87 -15.35,-126.57 24.64,-140.59"/>
<polygon fill="black" stroke="black" points="24.16,-144.05 34.6,-142.22 25.29,-137.15 24.16,-144.05"/>
<text text-anchor="middle" x="45.6" y="-75.54" font-family="Times,serif" font-size="14.00"> &#160;Inference &#160;</text>
</g>
</g>
</svg>
